P2
40 30
1158
41 42 43 44 44 44 45 46 49 49 50 51 52 53 54 55 56 
56 58 58 59 61 63 64 65 66 66 66 67 68 69 70 71 72 
73 74 75 76 77 78 81 82 83 84 84 84 85 86 89 89 90 
91 92 93 94 95 96 96 98 98 99 101 103 104 105 106 106 106 
107 108 109 110 111 112 113 114 115 116 117 118 121 122 123 124 124 
124 125 126 129 129 130 131 132 133 134 135 136 136 138 138 139 141 
143 144 145 146 146 146 147 148 149 150 151 152 153 154 155 156 157 
158 161 162 163 164 164 164 165 166 169 169 170 171 172 173 174 175 
176 176 178 178 179 181 183 184 185 186 186 186 187 188 189 190 191 
192 193 194 195 196 197 198 201 202 203 204 204 204 205 206 209 209 
210 211 212 213 214 215 216 216 218 218 219 221 223 224 225 226 226 
226 227 228 229 230 231 232 233 234 235 236 237 238 201 202 203 204 
-1 204 205 206 209 -1 -1 -1 -1 -1 -1 -1 -1 216 258 258 259 
261 262 224 225 226 -1 226 227 268 269 270 271 272 273 274 275 276 
277 278 201 202 203 204 204 204 205 248 -1 209 210 211 212 213 214 
215 -1 -1 -1 258 299 301 302 264 -1 -1 226 -1 308 308 309 310 
311 312 313 314 315 316 317 318 241 242 243 244 244 244 287 -1 248 
248 250 251 252 334 295 -1 256 257 258 -1 299 -1 -1 -1 264 266 
266 308 -1 308 309 310 311 312 313 314 315 316 317 318 281 282 283 
284 284 326 -1 287 287 288 290 291 333 334 -1 295 295 297 299 299 
-1 301 -1 -1 343 306 307 308 308 308 309 310 311 312 313 314 315 
316 317 318 321 322 323 324 324 326 326 326 327 328 330 332 333 334 
334 334 416 418 379 -1 -1 -1 342 343 343 346 347 348 348 348 349 
350 351 352 353 354 355 356 357 358 361 362 363 364 364 366 366 366 
367 368 451 451 373 374 374 456 456 418 -1 379 380 381 381 383 383 
384 387 388 388 388 389 390 391 392 393 394 395 396 397 398 401 402 
403 404 404 406 406 406 407 489 491 491 493 494 495 456 -1 -1 418 
418 500 501 501 503 503 504 427 428 428 428 429 430 431 432 433 434 
435 436 437 438 441 442 443 444 444 446 446 528 529 529 531 531 533 
534 495 -1 456 457 457 500 -1 -1 501 543 543 544 545 468 468 468 
469 470 471 472 473 474 475 476 477 478 481 482 483 484 484 566 567 
568 569 569 571 571 571 534 -1 -1 -1 536 578 579 500 501 -1 -1 
543 544 545 546 508 508 509 510 511 512 513 514 515 516 517 518 601 
602 603 604 605 606 607 608 609 609 571 -1 571 -1 534 535 536 -1 
-1 -1 579 621 542 -1 583 584 585 586 587 548 549 550 551 552 553 
554 555 556 557 558 641 642 643 644 645 646 647 648 609 -1 -1 571 
571 573 573 575 577 577 578 579 621 -1 -1 583 583 584 585 586 587 
668 669 670 671 672 593 594 595 596 597 598 681 682 683 684 685 686 
687 648 -1 609 610 610 611 613 613 615 617 617 618 660 -1 -1 -1 
-1 663 664 665 666 707 708 709 710 711 712 713 714 715 716 717 718 
681 682 683 684 685 686 687 -1 648 648 650 650 651 653 653 655 657 
657 659 660 660 661 662 663 663 664 665 747 747 748 749 750 751 752 
753 754 755 756 757 758 761 762 763 764 765 766 766 687 768 768 770 
770 772 773 774 775 775 697 699 700 700 701 702 703 703 704 787 787 
787 788 789 790 791 792 793 794 795 796 797 798 761 762 763 764 765 
766 -1 -1 -1 768 810 810 812 813 814 815 815 817 818 819 740 741 
742 743 825 826 827 827 827 828 829 830 831 832 833 834 835 836 837 
838 761 762 763 764 765 766 766 767 768 -1 -1 810 852 853 854 855 
855 857 858 859 860 861 862 863 865 866 827 -1 827 828 829 830 831 
832 833 834 835 836 837 838 801 802 803 804 805 806 806 807 809 809 
810 -1 -1 -1 -1 -1 855 897 898 899 900 901 902 903 903 866 -1 
827 827 828 829 830 831 832 833 834 835 836 837 838 841 842 843 844 
845 846 846 847 849 849 851 851 852 853 854 855 -1 -1 -1 -1 -1 
-1 -1 -1 903 -1 866 866 867 868 869 870 871 872 873 874 875 876 
877 878 881 882 883 884 885 886 886 887 889 889 891 891 892 893 894 
896 896 897 898 899 900 901 902 903 -1 905 905 906 907 908 909 910 
911 912 913 914 915 916 917 918 921 922 923 924 925 926 926 927 929 
929 931 931 932 933 934 936 936 937 938 939 940 941 942 944 944 944 
945 946 947 948 949 950 951 952 953 954 955 956 957 958 961 962 963 
964 965 966 966 967 969 969 971 971 972 973 974 976 976 977 978 979 
980 981 982 984 984 984 985 986 987 988 989 990 991 992 993 994 995 
996 997 998 1001 1002 1003 1004 1005 1006 1006 1007 1009 1009 1011 1011 1012 1013 
1014 1016 1016 1017 1018 1019 1020 1021 1022 1024 1024 1024 1025 1026 1027 1028 1029 
1030 1031 1032 1033 1034 1035 1036 1037 1038 1041 1042 1043 1044 1045 1046 1046 1047 
1049 1049 1051 1051 1052 1053 1054 1056 1056 1057 1058 1059 1060 1061 1062 1064 1064 
1064 1065 1066 1067 1068 1069 1070 1071 1072 1073 1074 1075 1076 1077 1078 1081 1082 
1083 1084 1085 1086 1086 1087 1089 1089 1091 1091 1092 1093 1094 1096 1096 1097 1098 
1099 1100 1101 1102 1104 1104 1104 1105 1106 1107 1108 1109 1110 1111 1112 1113 1114 
1115 1116 1117 1118 1121 1122 1123 1124 1125 1126 1126 1127 1129 1129 1131 1131 1132 
1133 1134 1136 1136 1137 1138 1139 1140 1141 1142 1144 1144 1144 1145 1146 1147 1148 
1149 1150 1151 1152 1153 1154 1155 1156 1157 1158 