P2
40 30
50
18 18 18 18 18 18 18 18 50 50 50 50 50 50 50 50 50 
50 50 50 50 50 22 22 22 22 22 22 22 22 22 22 22 22 
30 30 30 30 30 30 18 18 18 18 18 18 18 18 50 50 50 
50 50 50 50 50 50 50 50 50 50 50 22 22 22 22 22 22 
22 22 22 22 22 30 30 30 30 30 30 30 18 18 18 18 18 
18 18 18 50 50 50 50 50 50 50 50 50 50 50 50 50 50 
22 22 22 22 22 22 22 22 22 22 30 30 30 30 30 30 30 
30 18 18 18 18 18 18 18 18 50 50 50 50 50 50 50 50 
50 50 50 50 50 50 22 22 22 22 22 22 22 22 22 30 30 
30 30 30 30 30 30 30 18 18 18 18 18 18 18 18 50 50 
50 50 50 50 50 50 50 50 50 50 50 50 22 22 22 22 22 
22 22 22 30 30 30 30 30 30 30 30 30 30 18 18 18 18 
18 18 18 18 50 50 50 50 50 50 50 50 50 50 50 50 50 
50 50 22 22 22 22 22 22 30 30 30 30 30 30 30 30 30 
30 30 18 18 18 18 18 18 18 50 50 50 50 50 50 50 50 
50 50 50 50 50 50 50 50 50 50 50 22 50 30 30 30 30 
30 30 30 30 30 30 30 30 18 18 18 18 18 18 50 50 50 
50 50 50 50 50 50 50 50 50 50 50 50 50 50 50 50 22 
22 30 30 30 30 30 30 30 30 30 30 30 30 30 18 18 18 
18 18 50 50 50 50 50 50 50 50 50 50 50 50 50 50 50 
50 50 50 50 50 22 30 30 30 30 30 30 30 30 30 30 30 
30 30 30 18 18 18 18 18 50 50 50 50 50 50 50 50 50 
50 50 50 50 50 50 50 50 50 50 50 30 30 30 30 30 30 
30 30 30 30 30 30 30 30 30 18 18 18 18 18 50 50 50 
50 50 50 50 50 50 50 50 50 50 50 50 50 50 50 50 50 
50 30 30 30 30 30 30 30 30 30 30 30 30 30 30 18 18 
18 18 18 50 50 50 50 50 50 50 50 50 50 50 50 50 50 
50 50 50 50 50 50 50 30 30 30 30 30 30 30 30 30 30 
30 30 30 30 18 18 18 18 18 50 50 50 50 50 50 50 50 
50 50 50 50 50 50 50 50 50 50 50 50 50 50 30 30 30 
30 30 30 30 30 30 30 30 30 30 18 18 18 18 18 50 50 
50 50 50 50 50 50 50 50 50 50 50 50 50 50 50 50 50 
50 50 50 50 30 30 30 30 30 30 30 30 30 30 30 30 50 
50 50 50 50 50 50 50 50 50 50 50 50 50 50 50 50 50 
50 50 50 50 50 50 50 50 50 50 50 30 30 30 30 30 30 
30 30 30 30 30 50 50 50 50 50 50 50 50 50 50 50 50 
50 50 50 50 50 50 50 50 50 50 50 50 50 50 50 50 50 
50 50 50 50 50 30 30 30 30 30 30 50 50 50 50 50 50 
50 50 50 50 50 50 50 50 50 50 50 50 50 50 50 50 50 
50 50 50 50 50 50 50 50 50 50 50 50 50 50 50 50 50 
50 50 50 50 50 50 50 50 50 50 50 50 50 50 50 50 50 
50 50 50 50 50 50 50 50 50 50 50 50 50 50 50 50 50 
50 50 50 50 50 50 50 50 50 50 50 50 50 50 50 50 50 
50 50 50 50 50 50 50 50 50 50 50 50 50 50 50 50 50 
50 50 50 50 50 50 50 50 50 50 50 50 50 50 50 50 50 
50 50 50 50 50 50 50 50 50 50 50 50 50 50 50 50 50 
50 50 50 50 50 50 50 50 50 50 50 50 50 50 50 50 50 
50 50 50 50 50 50 50 50 50 50 50 50 50 50 50 50 50 
50 50 50 50 50 50 50 50 50 50 50 50 50 50 50 50 50 
50 50 50 50 50 50 50 50 50 50 50 50 50 50 50 50 50 
50 50 50 50 50 50 50 50 50 50 50 50 50 50 50 50 50 
50 50 50 50 50 50 50 50 50 50 50 50 50 50 50 50 50 
50 50 50 50 50 50 50 50 50 50 50 50 50 50 50 50 50 
50 50 50 50 50 50 50 50 50 50 50 50 50 50 50 50 50 
50 50 50 50 50 50 50 50 50 50 50 50 50 50 50 50 50 
50 50 50 50 50 50 50 50 50 50 50 50 50 50 50 50 50 
50 50 50 50 50 50 50 50 50 50 50 50 50 50 50 50 50 
50 50 50 50 50 50 50 50 50 50 50 50 50 50 50 50 50 
50 50 50 50 50 50 50 50 50 50 50 50 50 50 50 50 50 
50 50 50 50 50 50 50 50 50 50 50 50 50 50 50 50 50 
50 50 50 50 50 50 50 50 50 50 50 50 50 50 50 50 50 
50 50 50 50 50 50 50 50 50 50 50 50 50 50 50 50 50 
50 50 50 50 50 50 50 50 50 50 50 50 50 50 50 50 50 
50 50 50 50 50 50 50 50 50 50 50 50 50 50 50 50 50 
50 50 50 50 50 50 50 50 50 50 50 50 50 50 50 50 50 
50 50 50 50 50 50 50 50 50 50 50 50 50 50 50 50 50 
50 50 50 50 50 50 50 50 50 50 50 50 50 50 50 50 50 
50 50 50 50 50 50 50 50 50 50 50 50 50 50 50 50 50 
50 50 50 50 50 50 50 50 50 50 50 50 50 50 50 50 50 
50 50 50 50 50 50 50 50 50 50 50 50 50 50 50 50 50 
50 50 50 50 50 50 50 50 50 50 