P2
40 30
23
9 8 7 6 5 6 7 8 8 7 7 7 7 7 7 7 7 
8 8 9 10 9 9 8 7 6 5 6 7 8 9 10 11 12 
13 14 15 16 17 18 8 7 6 5 4 5 6 7 7 6 6 
6 6 6 6 6 6 7 7 8 9 8 8 7 6 5 4 5 
6 7 8 9 10 11 12 13 14 15 16 17 7 6 5 4 3 
4 5 6 6 5 5 5 5 5 5 5 5 6 6 7 8 7 
7 6 5 4 3 4 5 6 7 8 9 10 11 12 13 14 15 
16 6 5 4 3 2 3 4 5 5 4 4 4 4 4 4 4 
4 5 5 6 7 6 6 5 4 3 2 3 4 5 6 7 8 
9 10 11 12 13 14 15 5 4 3 2 1 2 3 4 4 3 
3 3 3 3 3 3 3 4 4 5 6 5 5 4 3 2 1 
2 3 4 5 6 7 8 9 10 11 12 13 14 4 3 2 1 
0 1 2 3 3 2 2 2 2 2 2 2 2 3 3 4 5 
4 4 3 2 1 0 1 2 3 4 5 6 7 8 9 10 11 
12 13 5 4 3 2 1 2 3 3 2 3 3 3 3 3 3 
3 2 2 2 3 4 3 3 3 2 2 1 2 1 2 3 4 
5 6 7 8 9 10 11 12 6 5 4 3 2 3 3 2 3 
4 4 4 4 4 3 2 3 3 3 2 3 2 2 2 3 3 
2 1 0 1 2 3 4 5 6 7 8 9 10 11 7 6 5 
4 3 3 2 3 4 5 5 5 4 3 2 3 4 4 4 3 
2 3 2 2 3 4 3 2 1 2 3 4 5 6 7 8 9 
10 11 12 8 7 6 5 4 4 3 4 5 6 6 6 5 4 
3 4 4 4 3 2 2 2 3 3 4 5 4 3 2 3 4 
5 6 7 8 9 10 11 12 13 9 8 7 6 5 5 4 5 
6 7 7 6 6 5 4 4 3 3 2 3 3 3 4 4 5 
6 5 4 3 4 5 6 7 8 9 10 11 12 13 14 10 9 
8 7 6 6 5 6 7 6 6 5 6 5 4 3 2 2 3 
4 3 3 4 4 5 6 6 5 4 5 6 7 8 9 10 11 
12 13 14 15 11 10 9 8 7 7 6 7 6 5 5 4 5 
4 3 2 3 3 4 3 2 2 3 3 4 5 6 6 5 6 
7 8 9 10 11 12 13 14 15 16 12 11 10 9 8 8 7 
6 5 4 4 3 4 3 2 2 2 3 3 3 3 3 2 2 
3 4 5 6 6 7 8 9 10 11 12 13 14 15 16 17 12 
11 10 9 8 7 6 5 4 3 3 2 3 2 3 3 3 2 
2 2 3 3 3 2 3 4 5 6 7 8 9 10 11 12 13 
14 15 16 17 18 11 10 9 8 7 6 5 4 3 2 2 3 
4 3 4 4 4 3 3 3 3 2 2 3 4 5 6 7 8 
9 10 11 12 13 14 15 16 17 18 19 10 9 8 7 6 5 
4 3 2 3 3 4 5 4 5 5 5 4 4 3 2 2 2 
2 3 4 5 6 7 8 9 10 11 12 13 14 15 16 17 18 
9 8 7 6 5 4 3 2 3 4 4 5 6 5 6 6 6 
5 5 4 3 3 3 3 4 5 6 5 6 7 8 9 10 11 
12 13 14 15 16 17 9 8 7 6 5 4 3 3 3 4 4 
5 5 5 5 5 6 6 6 5 4 4 4 4 5 6 5 4 
5 6 7 8 9 10 11 12 13 14 15 16 8 7 6 5 4 
3 2 2 2 3 3 4 4 4 4 4 5 5 5 5 5 5 
5 5 6 5 4 3 4 5 6 7 8 9 10 11 12 13 14 
15 9 8 7 6 5 4 3 3 3 2 2 3 3 3 3 3 
4 4 4 4 4 4 4 4 5 4 3 2 3 4 5 6 7 
8 9 10 11 12 13 14 10 9 8 7 6 5 4 4 4 3 
3 2 2 2 2 2 3 3 3 3 3 3 3 3 4 3 2 
3 4 5 6 7 8 9 10 11 12 13 14 15 11 10 9 8 
7 6 5 5 5 4 4 3 3 3 3 3 2 2 2 2 2 
2 2 2 3 2 3 4 5 6 7 8 9 10 11 12 13 14 
15 16 12 11 10 9 8 7 6 6 6 5 5 4 4 4 4 
4 3 3 3 3 3 3 3 3 2 3 4 5 6 7 8 9 
10 11 12 13 14 15 16 17 13 12 11 10 9 8 7 7 7 
6 6 5 5 5 5 5 4 4 4 4 4 4 4 4 3 4 
5 6 7 8 9 10 11 12 13 14 15 16 17 18 14 13 12 
11 10 9 8 8 8 7 7 6 6 6 6 6 5 5 5 5 
5 5 5 5 4 5 6 7 8 9 10 11 12 13 14 15 16 
17 18 19 15 14 13 12 11 10 9 9 9 8 8 7 7 7 
7 7 6 6 6 6 6 6 6 6 5 6 7 8 9 10 11 
12 13 14 15 16 17 18 19 20 16 15 14 13 12 11 10 10 
10 9 9 8 8 8 8 8 7 7 7 7 7 7 7 7 6 
7 8 9 10 11 12 13 14 15 16 17 18 19 20 21 17 16 
15 14 13 12 11 11 11 10 10 9 9 9 9 9 8 8 8 
8 8 8 8 8 7 8 9 10 11 12 13 14 15 16 17 18 
19 20 21 22 18 17 16 15 14 13 12 12 12 11 11 10 10 
10 10 10 9 9 9 9 9 9 9 9 8 9 10 11 12 13 
14 15 16 17 18 19 20 21 22 23 