P2
50 50
34
0 1 2 3 4 5 6 7 8 9 10 11 12 13 14 15 16 
17 18 19 20 20 20 20 20 20 20 20 21 21 21 22 22 23 
23 24 25 25 26 26 27 28 29 29 30 31 32 32 33 34 1 
1 2 3 4 5 6 7 8 9 10 11 12 13 14 15 16 17 
18 19 19 19 19 19 19 19 19 19 20 20 21 21 21 22 23 
23 24 24 25 26 26 27 28 29 29 30 31 32 33 33 2 2 
2 3 4 5 6 7 8 9 10 11 12 13 14 15 16 17 18 
18 18 18 18 18 18 18 18 18 19 19 20 20 21 21 22 22 
23 24 24 25 26 26 27 28 29 30 30 31 32 33 3 3 3 
4 5 5 6 7 8 9 10 11 12 13 14 15 16 17 17 17 
17 17 17 17 17 17 17 18 18 18 19 19 20 20 21 22 22 
23 24 24 25 26 27 27 28 29 30 31 31 32 4 4 4 5 
5 6 7 8 8 9 10 11 12 13 14 15 16 16 16 16 16 
16 16 16 16 16 16 17 17 17 18 18 19 20 20 21 21 22 
23 24 24 25 26 27 28 28 29 30 31 32 5 5 5 5 6 
7 7 8 9 10 11 12 13 13 14 15 15 15 15 15 15 15 
15 15 15 15 15 16 16 17 17 18 18 19 19 20 21 21 22 
23 24 25 25 26 27 28 29 30 30 31 6 6 6 6 7 7 
8 9 10 10 11 12 13 14 15 14 14 14 14 14 14 14 14 
14 14 14 14 15 15 16 16 17 17 18 19 19 20 21 22 22 
23 24 25 26 26 27 28 29 30 31 7 7 7 7 8 8 9 
9 10 11 12 13 13 14 14 13 13 13 13 13 13 13 13 13 
13 13 13 14 14 15 15 16 17 17 18 19 19 20 21 22 23 
23 24 25 26 27 28 29 29 30 8 8 8 8 8 9 10 10 
11 12 12 13 14 13 13 13 12 12 12 12 12 12 12 12 12 
12 13 13 13 14 15 15 16 16 17 18 19 20 20 21 22 23 
24 25 25 26 27 28 29 30 9 9 9 9 9 10 10 11 12 
12 13 14 13 13 12 12 11 11 11 11 11 11 11 11 11 11 
12 12 13 13 14 14 15 16 17 17 18 19 20 21 21 22 23 
24 25 26 27 28 29 30 10 10 10 10 10 11 11 12 12 13 
14 13 12 12 11 11 10 10 10 10 10 10 10 10 10 10 11 
11 12 12 13 14 14 15 16 17 18 18 19 20 21 22 23 24 
25 26 26 27 28 29 11 11 11 11 11 12 12 13 13 14 13 
12 12 11 10 10 9 9 9 9 9 9 9 9 9 9 10 10 
11 12 12 13 14 15 15 16 17 18 19 20 21 21 22 23 24 
25 26 27 28 29 12 12 12 12 12 13 13 13 14 13 12 12 
11 10 10 9 8 8 8 8 8 8 8 8 8 8 9 10 10 
11 12 12 13 14 15 16 17 17 18 19 20 21 22 23 24 25 
26 27 28 29 13 13 13 13 13 13 14 14 13 13 12 11 10 
9 9 8 8 7 7 7 7 7 7 7 7 8 8 9 9 10 
11 12 13 13 14 15 16 17 18 19 20 21 22 23 24 25 25 
26 27 28 14 14 14 14 14 14 15 14 13 12 11 10 10 9 
8 7 7 6 6 6 6 6 6 6 6 7 7 8 9 10 10 
11 12 13 14 15 16 17 18 18 19 20 21 22 23 24 25 26 
27 28 15 15 15 15 15 15 14 13 13 12 11 10 9 8 7 
7 6 5 5 5 5 5 5 5 5 6 7 7 8 9 10 11 
12 13 13 14 15 16 17 18 19 20 21 22 23 24 25 26 27 
28 16 16 16 16 16 15 14 13 12 11 10 9 8 8 7 6 
5 5 4 4 4 4 4 4 5 5 6 7 8 8 9 10 11 
12 13 14 15 16 17 18 19 20 21 22 23 24 25 26 27 28 
17 17 17 17 16 15 14 13 12 11 10 9 8 7 6 5 5 
4 3 3 3 3 3 3 4 5 5 6 7 8 9 10 11 12 
13 14 15 16 17 18 19 20 21 22 23 24 25 26 27 28 18 
18 18 17 16 15 14 13 12 11 10 9 8 7 6 5 4 3 
2 2 2 2 2 2 3 4 5 6 7 8 9 10 11 12 13 
14 15 16 17 18 19 20 21 22 23 24 25 26 27 28 19 19 
18 17 16 15 14 13 12 11 10 9 8 7 6 5 4 3 2 
1 1 1 1 2 3 4 5 6 7 8 9 10 11 12 13 14 
15 16 17 18 19 20 21 22 23 24 25 26 27 28 20 19 18 
17 16 15 14 13 12 11 10 9 8 7 6 5 4 3 2 1 
0 0 1 2 3 4 5 6 7 8 9 10 11 12 13 14 15 
16 17 18 19 20 21 22 23 24 25 26 27 28 20 19 18 17 
16 15 14 13 12 11 10 9 8 7 6 5 4 3 2 1 1 
1 1 2 3 4 5 6 7 8 9 10 11 12 13 14 15 16 
17 18 19 20 21 22 23 24 25 26 27 28 20 19 18 17 16 
15 14 13 12 11 10 9 8 7 6 5 4 3 2 2 2 2 
2 2 3 4 5 6 7 8 9 10 11 12 13 14 15 16 17 
18 19 20 21 22 23 24 25 26 27 28 20 19 18 17 16 15 
14 13 12 11 10 9 8 7 6 5 5 4 3 3 3 3 3 
3 4 5 5 6 7 8 9 10 11 12 13 14 15 16 17 18 
19 20 21 22 23 24 25 26 27 28 20 19 18 17 16 15 14 
13 12 11 10 9 8 8 7 6 5 5 4 4 4 4 4 4 
5 5 6 7 8 8 9 10 11 12 13 14 15 16 17 18 19 
20 21 22 23 24 25 26 27 28 20 19 18 17 16 15 14 13 
13 12 11 10 9 8 7 7 6 5 5 5 5 5 5 5 5 
6 7 7 8 9 10 11 12 13 13 14 15 16 17 18 19 20 
21 22 23 24 25 26 27 28 20 19 18 17 16 15 14 13 12 
11 10 9 8 8 7 6 5 5 4 4 4 4 4 4 5 5 
6 7 8 8 9 10 11 12 13 14 15 16 17 18 19 20 21 
22 23 24 25 26 27 28 20 19 18 17 16 15 14 13 12 11 
10 9 8 7 6 5 5 4 3 3 3 3 3 3 4 5 5 
6 7 8 9 10 11 12 13 14 15 16 17 18 19 20 21 22 
23 24 25 26 27 28 20 19 18 17 16 15 14 13 12 11 10 
9 8 7 6 5 4 3 2 2 2 2 2 2 3 4 5 6 
7 8 9 10 11 12 13 14 15 16 17 18 19 20 21 22 23 
24 25 26 27 28 20 19 18 17 16 15 14 13 12 11 10 9 
8 7 6 5 4 3 2 1 1 1 1 2 3 4 5 6 7 
8 9 10 11 12 13 14 15 16 17 18 19 20 21 22 23 24 
25 26 27 28 20 19 18 17 16 15 14 13 12 11 10 9 8 
7 6 5 4 3 2 1 0 0 1 2 3 4 5 6 7 8 
9 10 11 12 13 14 15 16 17 18 19 20 21 22 23 24 25 
26 27 28 20 19 18 17 16 15 14 13 12 11 10 9 8 7 
6 5 4 3 2 1 1 1 1 2 3 4 5 6 7 8 9 
10 11 12 13 14 15 16 17 18 19 20 21 22 23 24 25 26 
27 28 20 19 18 17 16 15 14 13 12 11 10 9 8 7 6 
5 4 3 2 2 2 2 2 2 3 4 5 6 7 8 9 10 
11 12 13 14 15 16 17 18 19 20 21 22 23 24 25 26 27 
28 20 19 18 17 16 15 14 13 12 11 10 9 8 7 6 5 
5 4 3 3 3 3 3 3 4 5 5 6 7 8 9 10 11 
12 13 14 15 16 17 18 19 20 21 22 23 24 25 26 27 28 
20 19 18 17 16 15 14 13 12 11 10 9 8 8 7 6 5 
5 4 4 4 4 4 4 5 5 6 7 8 8 9 10 11 12 
13 14 15 16 17 18 19 20 21 22 23 24 25 26 27 28 20 
19 18 17 16 15 14 13 13 12 11 10 9 8 7 7 6 5 
5 5 5 5 5 5 5 6 7 7 8 9 10 11 12 13 13 
14 15 16 17 18 19 20 21 22 23 24 25 26 27 28 20 19 
18 18 17 16 15 14 13 12 11 10 10 9 8 7 7 6 6 
6 6 6 6 6 6 7 7 8 9 10 10 11 12 13 14 15 
16 17 18 18 19 20 21 22 23 24 25 26 27 28 21 20 19 
18 17 16 15 14 13 13 12 11 10 9 9 8 8 7 7 7 
7 7 7 7 7 8 8 9 9 10 11 12 13 13 14 15 16 
17 18 19 20 21 22 23 24 25 25 26 27 28 21 20 19 18 
17 17 16 15 14 13 12 12 11 10 10 9 8 8 8 8 8 
8 8 8 8 8 9 10 10 11 12 12 13 14 15 16 17 17 
18 19 20 21 22 23 24 25 26 27 28 29 21 21 20 19 18 
17 16 15 15 14 13 12 12 11 10 10 9 9 9 9 9 9 
9 9 9 9 10 10 11 12 12 13 14 15 15 16 17 18 19 
20 21 21 22 23 24 25 26 27 28 29 22 21 20 19 18 18 
17 16 15 14 14 13 12 12 11 11 10 10 10 10 10 10 10 
10 10 10 11 11 12 12 13 14 14 15 16 17 18 18 19 20 
21 22 23 24 25 26 26 27 28 29 22 21 21 20 19 18 17 
17 16 15 14 14 13 13 12 12 11 11 11 11 11 11 11 11 
11 11 12 12 13 13 14 14 15 16 17 17 18 19 20 21 21 
22 23 24 25 26 27 28 29 30 23 22 21 20 20 19 18 17 
16 16 15 15 14 13 13 13 12 12 12 12 12 12 12 12 12 
12 13 13 13 14 15 15 16 16 17 18 19 20 20 21 22 23 
24 25 25 26 27 28 29 30 23 23 22 21 20 19 19 18 17 
17 16 15 15 14 14 13 13 13 13 13 13 13 13 13 13 13 
13 14 14 15 15 16 17 17 18 19 19 20 21 22 23 23 24 
25 26 27 28 29 29 30 24 23 22 22 21 20 19 19 18 17 
17 16 16 15 15 14 14 14 14 14 14 14 14 14 14 14 14 
15 15 16 16 17 17 18 19 19 20 21 22 22 23 24 25 26 
26 27 28 29 30 31 25 24 23 22 21 21 20 19 19 18 18 
17 17 16 16 15 15 15 15 15 15 15 15 15 15 15 15 16 
16 17 17 18 18 19 19 20 21 21 22 23 24 25 25 26 27 
28 29 30 30 31 25 24 24 23 22 21 21 20 20 19 18 18 
17 17 17 16 16 16 16 16 16 16 16 16 16 16 16 17 17 
17 18 18 19 20 20 21 21 22 23 24 24 25 26 27 28 28 
29 30 31 32 26 25 24 24 23 22 22 21 20 20 19 19 18 
18 18 17 17 17 17 17 17 17 17 17 17 17 17 18 18 18 
19 19 20 20 21 22 22 23 24 24 25 26 27 27 28 29 30 
31 31 32 26 26 25 24 24 23 22 22 21 21 20 20 19 19 
18 18 18 18 18 18 18 18 18 18 18 18 18 18 19 19 20 
20 21 21 22 22 23 24 24 25 26 26 27 28 29 30 30 31 
32 33 27 26 26 25 24 24 23 23 22 21 21 21 20 20 19 
19 19 19 19 19 19 19 19 19 19 19 19 19 20 20 21 21 
21 22 23 23 24 24 25 26 26 27 28 29 29 30 31 32 33 
33 