P2
148 111
45
26 26 25 24 24 23 23 22 21 21 21 20 20 19 19 19 19 
19 19 19 19 19 19 19 19 19 20 20 21 21 21 22 23 23 
23 23 23 23 23 23 23 23 23 24 24 24 25 25 25 26 26 
27 28 28 29 29 29 29 28 28 27 27 27 26 26 26 26 26 
26 26 26 26 26 26 26 26 26 26 27 27 27 28 28 29 29 
30 30 30 29 29 29 29 28 28 28 27 27 27 27 26 26 25 
25 24 24 23 23 23 22 22 22 22 22 22 22 22 22 22 22 
22 22 23 23 23 24 24 25 25 26 26 27 27 28 29 29 30 
31 31 32 33 34 34 35 36 37 38 38 39 26 25 24 24 23 
22 22 21 21 20 20 19 19 18 18 18 18 18 18 18 18 18 
18 18 18 18 19 19 20 20 21 21 22 22 22 22 22 22 22 
22 22 22 22 23 23 23 24 24 25 25 26 26 27 27 28 29 
28 28 27 27 26 26 26 25 25 25 25 25 25 25 25 25 25 
25 25 25 25 25 26 26 26 27 27 28 28 29 29 29 28 28 
28 28 27 27 27 26 26 26 26 25 25 24 24 23 23 22 22 
22 21 21 21 21 21 21 21 21 21 21 21 21 21 22 22 22 
23 23 24 24 25 25 26 27 27 28 29 29 30 31 31 32 33 
34 35 35 36 37 38 39 25 24 24 23 22 22 21 20 20 19 
19 18 18 18 17 17 17 17 17 17 17 17 17 17 17 18 18 
18 19 19 20 20 21 21 21 21 21 21 21 21 21 21 21 22 
22 22 23 23 24 24 25 25 26 27 27 28 27 27 26 26 26 
25 25 25 24 24 24 24 24 24 24 24 24 24 24 24 24 25 
25 25 26 26 26 27 27 28 28 28 27 27 27 27 26 26 26 
25 25 25 25 25 24 23 23 22 22 21 21 21 20 20 20 20 
20 20 20 20 20 20 20 20 20 21 21 21 22 22 23 23 24 
25 25 26 26 27 28 29 29 30 31 32 32 33 34 35 36 36 
37 38 24 24 23 22 21 21 20 20 19 18 18 17 17 17 16 
16 16 16 16 16 16 16 16 16 16 17 17 17 18 18 19 20 
20 20 20 20 20 20 20 20 20 20 20 21 21 21 22 22 23 
23 24 25 25 26 26 27 26 26 25 25 25 24 24 24 23 23 
23 23 23 23 23 23 23 23 23 23 23 24 24 24 25 25 25 
26 26 27 27 27 26 26 26 26 26 25 25 25 24 24 24 24 
23 23 22 21 21 21 20 20 19 19 19 19 19 19 19 19 19 
19 19 19 19 20 20 21 21 21 22 23 23 24 24 25 26 26 
27 28 29 29 30 31 32 33 33 34 35 36 37 38 24 23 22 
21 21 20 19 19 18 18 17 17 16 16 15 15 15 15 15 15 
15 15 15 15 15 16 16 17 17 18 18 19 19 19 19 19 19 
19 19 19 19 19 19 20 20 21 21 21 22 23 23 24 24 25 
26 26 26 25 25 24 24 23 23 23 22 22 22 22 22 22 22 
22 22 22 22 22 22 23 23 23 24 24 25 25 26 26 26 26 
25 25 25 25 25 24 24 24 23 23 23 23 22 22 21 21 20 
20 19 19 18 18 18 18 18 18 18 18 18 18 18 18 18 19 
19 20 20 21 21 22 22 23 24 24 25 26 26 27 28 29 30 
30 31 32 33 34 34 35 36 37 23 22 22 21 20 19 19 18 
17 17 16 16 15 15 14 14 14 14 14 14 14 14 14 14 14 
15 15 16 16 17 17 18 18 18 18 18 18 18 18 18 18 18 
18 19 19 20 20 21 21 22 22 23 24 24 25 25 25 24 24 
23 23 22 22 22 21 21 21 21 21 21 21 21 21 21 21 21 
21 22 22 22 23 23 24 24 25 25 25 25 25 24 24 24 24 
23 23 23 22 22 22 22 22 21 20 20 19 19 18 18 18 17 
17 17 17 17 17 17 17 17 17 17 18 18 18 19 19 20 20 
21 22 22 23 24 24 25 26 27 27 28 29 30 31 31 32 33 
34 35 36 37 23 22 21 20 19 19 18 17 17 16 15 15 14 
14 13 13 13 13 13 13 13 13 13 13 13 14 14 15 15 16 
17 17 17 17 17 17 17 17 17 17 17 17 18 18 18 19 19 
20 20 21 22 22 23 24 24 25 24 23 23 22 22 21 21 21 
20 20 20 20 20 20 20 20 20 20 20 20 20 21 21 21 22 
22 23 23 24 25 24 24 24 23 23 23 23 22 22 22 21 21 
21 21 21 20 20 19 18 18 17 17 17 16 16 16 16 16 16 
16 16 16 16 16 17 17 17 18 18 19 20 20 21 21 22 23 
24 24 25 26 27 28 28 29 30 31 32 33 34 34 35 36 22 
21 20 20 19 18 17 16 16 15 15 14 13 13 13 12 12 12 
12 12 12 12 12 12 13 13 13 14 15 15 16 16 16 16 16 
16 16 16 16 16 16 16 17 17 17 18 18 19 20 20 21 21 
22 23 24 24 23 23 22 21 21 21 20 20 19 19 19 19 19 
19 19 19 19 19 19 19 19 20 20 21 21 21 22 23 23 24 
23 23 23 22 22 22 22 21 21 21 20 20 20 20 20 19 19 
18 18 17 17 16 16 15 15 15 15 15 15 15 15 15 15 15 
16 16 17 17 18 18 19 19 20 21 21 22 23 24 25 25 26 
27 28 29 30 30 31 32 33 34 35 36 21 21 20 19 18 17 
17 16 15 14 14 13 13 12 12 11 11 11 11 11 11 11 11 
11 12 12 13 13 14 14 15 15 15 15 15 15 15 15 15 15 
15 15 16 16 17 17 18 18 19 19 20 21 21 22 23 23 22 
22 21 21 20 20 19 19 18 18 18 18 18 18 18 18 18 18 
18 18 18 19 19 20 20 21 21 22 22 23 22 22 22 21 21 
21 21 21 20 20 19 19 19 19 19 19 18 17 17 16 16 15 
15 14 14 14 14 14 14 14 14 14 14 14 15 15 16 16 17 
17 18 19 19 20 21 22 22 23 24 25 26 26 27 28 29 30 
31 32 33 34 34 35 21 20 19 18 18 17 16 15 14 14 13 
12 12 11 11 10 10 10 10 10 10 10 10 10 11 11 12 12 
13 14 14 14 14 14 14 14 14 14 14 14 14 14 15 15 16 
16 17 17 18 19 19 20 21 22 22 22 22 21 20 20 19 19 
18 18 18 17 17 17 17 17 17 17 17 17 17 17 18 18 18 
19 19 20 20 21 22 22 21 21 21 20 20 20 20 20 19 19 
18 18 18 18 18 18 17 17 16 15 15 14 14 13 13 13 13 
13 13 13 13 13 13 13 14 14 15 15 16 17 17 18 19 19 
20 21 22 23 23 24 25 26 27 28 29 29 30 31 32 33 34 
35 21 20 19 18 17 16 15 15 14 13 12 12 11 10 10 9 
9 9 9 9 9 9 9 9 10 10 11 12 12 13 14 13 13 
13 13 13 13 13 13 13 13 13 14 14 15 15 16 17 17 18 
19 19 20 21 22 21 21 20 20 19 18 18 17 17 17 16 16 
16 16 16 16 16 16 16 16 16 17 17 17 18 18 19 20 20 
21 21 21 20 20 19 19 19 19 19 18 18 18 17 17 17 17 
17 16 16 15 15 14 13 13 13 12 12 12 12 12 12 12 12 
12 13 13 13 14 15 15 16 16 17 18 19 20 20 21 22 23 
24 25 25 26 27 28 29 30 31 32 33 34 35 20 19 18 17 
17 16 15 14 13 12 12 11 10 10 9 8 8 8 8 8 8 
8 8 8 9 10 10 11 12 12 13 13 12 12 12 12 12 12 
12 12 12 13 13 13 14 15 15 16 16 17 18 19 20 20 21 
21 20 19 19 18 18 17 17 16 16 15 15 15 15 15 15 15 
15 15 15 15 16 16 17 17 18 18 19 19 20 20 20 19 19 
18 18 18 18 18 17 17 17 16 16 16 16 16 16 15 14 14 
13 13 12 12 11 11 11 11 11 11 11 11 11 12 12 13 13 
14 14 15 16 17 17 18 19 20 21 21 22 23 24 25 26 27 
28 29 30 31 31 32 33 34 20 19 18 17 16 15 14 13 13 
12 11 10 9 9 8 8 7 7 7 7 7 7 7 8 8 9 
9 10 11 12 12 12 11 11 11 11 11 11 11 11 11 12 12 
13 13 14 14 15 16 17 17 18 19 20 21 20 19 19 18 17 
17 16 16 15 15 14 14 14 14 14 14 14 14 14 14 14 15 
15 16 16 17 17 18 19 19 19 19 18 18 18 17 17 17 17 
17 16 16 15 15 15 15 15 15 14 14 13 12 12 11 11 10 
10 10 10 10 10 10 10 10 11 11 12 12 13 14 14 15 16 
17 18 18 19 20 21 22 23 24 25 26 26 27 28 29 30 31 
32 33 34 19 18 18 17 16 15 14 13 12 11 10 10 9 8 
7 7 6 6 6 6 6 6 6 7 7 8 9 10 10 11 11 
11 10 10 10 10 10 10 10 10 10 11 11 12 12 13 14 14 
15 16 17 18 18 19 20 19 19 18 17 17 16 15 15 14 14 
13 13 13 13 13 13 13 13 13 13 13 14 14 15 15 16 17 
17 18 19 18 18 17 17 17 16 16 16 16 16 15 15 14 14 
14 14 14 14 14 13 12 12 11 10 10 9 9 9 9 9 9 
9 9 9 10 10 11 12 12 13 14 15 15 16 17 18 19 20 
21 21 22 23 24 25 26 27 28 29 30 31 32 33 34 19 18 
17 16 15 14 13 13 12 11 10 9 8 7 7 6 5 5 5 
5 5 5 5 6 7 7 8 9 10 11 10 10 9 9 9 9 
9 9 9 9 9 10 10 11 12 12 13 14 15 15 16 17 18 
19 20 19 18 17 16 16 15 15 14 13 13 13 12 12 12 12 
12 12 12 12 12 13 13 13 14 15 15 16 16 17 18 18 17 
17 16 16 15 15 15 15 15 14 14 13 13 13 13 13 13 13 
12 12 11 10 10 9 8 8 8 8 8 8 8 8 8 9 10 
10 11 12 12 13 14 15 16 17 17 18 19 20 21 22 23 24 
25 26 27 28 29 30 31 32 32 33 19 18 17 16 15 14 13 
12 11 10 9 8 8 7 6 5 5 4 4 4 4 4 5 5 
6 7 8 8 9 10 10 9 8 8 8 8 8 8 8 8 8 
9 10 10 11 12 12 13 14 15 16 17 17 18 19 18 17 17 
16 15 14 14 13 13 12 12 11 11 11 11 11 11 11 11 11 
12 12 13 13 14 14 15 16 17 17 17 16 16 15 15 14 14 
14 14 14 13 13 13 12 12 12 12 12 12 12 11 10 9 9 
8 8 7 7 7 7 7 7 7 8 8 9 9 10 11 12 13 
13 14 15 16 17 18 19 20 21 22 23 24 25 25 26 27 28 
29 30 31 32 33 19 18 17 16 15 14 13 12 11 10 9 8 
7 6 5 5 4 3 3 3 3 3 4 5 5 6 7 8 9 
9 9 8 8 7 7 7 7 7 7 7 8 8 9 9 10 11 
12 13 13 14 15 16 17 18 18 18 17 16 15 14 14 13 12 
12 11 11 10 10 10 10 10 10 10 10 10 11 11 12 12 13 
14 14 15 16 17 16 15 15 14 14 13 13 13 13 13 13 12 
12 11 11 11 11 11 11 11 10 10 9 8 7 7 6 6 6 
6 6 6 6 7 7 8 9 10 10 11 12 13 14 15 16 17 
18 18 19 20 21 22 23 24 25 26 27 28 29 30 31 32 33 
19 18 17 16 15 14 13 12 11 10 9 8 7 6 5 4 3 
2 2 2 2 2 3 4 5 6 7 8 9 9 8 7 7 6 
6 6 6 6 6 6 7 7 8 9 10 10 11 12 13 14 15 
16 17 18 18 17 16 15 15 14 13 12 12 11 10 10 9 9 
9 9 9 9 9 9 9 10 10 11 12 12 13 14 15 15 16 
15 15 14 13 13 13 12 12 12 12 12 11 11 10 10 10 10 
10 10 10 10 9 8 7 7 6 5 5 5 5 5 5 5 6 
7 7 8 9 10 11 12 13 13 14 15 16 17 18 19 20 21 
22 23 24 25 26 27 28 29 30 31 32 33 19 18 17 16 15 
14 13 12 11 10 9 8 7 6 5 4 3 2 1 1 1 2 
3 4 5 6 7 8 9 8 7 7 6 5 5 5 5 5 5 
5 6 7 7 8 9 10 11 12 13 13 14 15 16 17 17 17 
16 15 14 13 12 12 11 10 10 9 8 8 8 8 8 8 8 
8 8 9 10 10 11 12 12 13 14 15 15 14 14 13 13 12 
12 11 11 11 11 11 10 10 9 9 9 9 9 9 9 9 8 
8 7 6 5 5 4 4 4 4 4 5 5 6 7 8 8 9 
10 11 12 13 14 15 16 17 18 19 20 21 22 23 24 25 26 
27 28 29 30 31 32 33 19 18 17 16 15 14 13 12 11 10 
9 8 7 6 5 4 3 2 1 0 1 2 3 4 5 6 7 
8 8 8 7 6 5 5 4 4 4 4 4 5 5 6 7 8 
8 9 10 11 12 13 14 15 16 16 16 16 15 14 13 13 12 
11 10 9 9 8 8 7 7 7 7 7 7 7 8 8 9 9 
10 11 12 13 13 14 14 14 13 12 12 11 11 10 10 10 10 
10 10 9 8 8 8 8 8 8 8 8 8 7 6 5 5 4 
3 3 3 3 3 4 5 5 6 7 8 9 10 11 12 13 14 
15 16 17 18 19 20 21 22 23 24 25 26 27 28 29 30 31 
32 33 19 18 17 16 15 14 13 12 11 10 9 8 7 6 5 
4 3 2 1 1 1 2 3 4 5 6 7 8 8 7 6 5 
5 4 3 3 3 3 3 4 5 5 6 7 8 9 10 11 12 
13 14 15 15 15 15 15 15 14 13 12 11 10 10 9 8 7 
7 6 6 6 6 6 6 6 7 7 8 9 10 10 11 12 13 
14 14 13 12 12 11 10 10 9 9 9 9 9 9 8 8 7 
7 7 7 7 7 7 7 7 6 5 4 3 2 2 2 2 2 
3 4 5 6 7 8 9 10 11 12 13 14 15 16 17 18 19 
20 21 22 23 24 25 26 27 28 29 30 31 32 33 19 18 17 
16 15 14 13 12 11 10 9 8 7 6 5 4 3 2 2 2 
2 2 3 4 5 6 7 8 8 7 6 5 4 3 2 2 2 
2 2 3 4 5 6 7 8 9 10 11 12 13 14 14 14 14 
14 14 14 13 13 12 11 10 9 8 7 7 6 5 5 5 5 
5 5 5 6 7 7 8 9 10 11 12 13 13 13 12 12 11 
10 10 9 8 8 8 8 8 8 7 7 6 6 6 6 6 6 
6 6 6 6 5 4 3 2 1 1 1 2 3 4 5 6 7 
8 9 10 11 12 13 14 15 16 17 18 19 20 21 22 23 24 
25 26 27 28 29 30 31 32 33 19 18 17 16 15 14 13 12 
11 10 9 8 7 6 5 5 4 3 3 3 3 3 4 5 5 
6 7 8 8 7 6 5 4 3 2 1 1 1 2 3 4 5 
6 7 8 9 10 11 12 13 14 13 13 13 13 13 13 13 12 
11 10 9 8 8 7 6 5 5 4 4 4 4 4 5 5 6 
7 8 8 9 10 11 12 12 12 12 11 10 9 9 8 8 7 
7 7 7 7 7 6 5 5 5 5 5 5 5 5 5 6 5 
4 3 2 1 0 1 2 3 4 5 6 7 8 9 10 11 12 
13 14 15 16 17 18 19 20 21 22 23 24 25 26 27 28 29 
30 31 32 33 19 18 17 16 15 14 13 12 11 10 9 8 8 
7 6 5 5 4 4 4 4 4 5 5 6 7 8 8 8 7 
6 5 4 3 2 1 0 1 2 3 4 5 6 7 8 9 10 
11 12 13 13 13 12 12 12 12 12 12 12 11 10 9 8 7 
6 5 5 4 3 3 3 3 3 4 5 5 6 7 8 9 10 
11 11 11 11 11 10 10 9 8 7 7 6 6 6 6 6 6 
5 5 4 4 4 4 4 4 4 5 5 5 4 3 2 1 1 
1 2 3 4 5 6 7 8 9 10 11 12 13 14 15 16 17 
18 19 20 21 22 23 24 25 26 27 28 29 30 31 32 33 19 
18 17 16 15 14 13 13 12 11 10 9 8 7 7 6 5 5 
5 5 5 5 5 6 7 7 8 8 8 7 6 5 4 3 2 
1 1 1 2 3 4 5 6 7 8 9 10 11 12 13 12 12 
11 11 11 11 11 11 11 11 10 9 8 7 6 5 4 3 2 
2 2 2 2 3 4 5 6 7 8 9 10 10 10 10 10 10 
10 9 8 7 7 6 5 5 5 5 5 5 5 4 3 3 3 
3 3 3 3 4 5 5 4 3 2 2 2 2 2 3 4 5 
6 7 8 9 10 11 12 13 14 15 16 17 18 19 20 21 22 
23 24 25 26 27 28 29 30 31 32 33 19 18 18 17 16 15 
14 13 12 11 10 10 9 8 7 7 6 6 6 6 6 6 6 
7 7 7 7 7 7 7 6 5 4 3 2 2 2 2 2 3 
4 5 6 7 8 9 10 11 12 12 11 11 10 10 10 10 10 
10 10 10 10 9 8 7 6 5 4 3 2 1 1 1 2 3 
4 5 6 7 8 9 9 9 9 9 9 9 9 8 8 7 6 
5 5 4 4 4 4 4 4 3 2 2 2 2 2 2 2 3 
4 5 5 4 3 3 3 3 3 4 5 5 6 7 8 9 10 
11 12 13 14 15 16 17 18 19 20 21 22 23 24 25 26 27 
28 29 30 31 32 33 20 19 18 17 16 15 14 13 13 12 11 
10 9 9 8 8 7 7 7 7 7 7 6 6 6 6 6 6 
6 7 6 5 5 4 3 3 3 3 3 4 5 5 6 7 8 
9 10 11 12 11 10 10 9 9 9 9 9 9 9 9 9 9 
8 7 6 5 4 3 2 1 0 1 2 3 4 5 6 7 8 
8 8 8 8 8 8 8 8 8 7 6 5 5 4 3 3 3 
3 3 4 3 2 1 1 1 1 1 2 3 4 5 5 5 4 
4 4 4 4 5 5 6 7 8 8 9 10 11 12 13 14 15 
16 17 18 19 20 21 22 23 24 25 26 27 28 29 30 31 32 
33 20 19 18 17 17 16 15 14 13 12 12 11 10 10 9 8 
8 8 8 7 7 6 5 5 5 5 5 5 5 6 7 6 5 
5 4 4 4 4 4 5 5 6 7 8 8 9 10 11 11 10 
10 9 8 8 8 8 8 8 8 8 8 9 8 7 6 5 4 
3 2 1 1 1 2 3 4 5 6 7 8 7 7 7 7 7 
7 7 8 8 7 6 5 4 3 2 2 2 2 2 3 3 2 
1 0 1 0 1 2 3 4 5 6 5 5 5 5 5 5 5 
6 7 7 8 9 10 11 12 13 13 14 15 16 17 18 19 20 
21 22 23 24 25 26 27 28 29 30 31 32 33 21 20 19 18 
17 16 15 15 14 13 12 12 11 10 10 9 9 8 8 7 6 
5 5 4 4 4 4 4 5 5 6 7 6 5 5 5 5 5 
5 5 6 7 7 8 9 10 11 11 10 9 9 8 8 7 7 
7 7 7 7 7 8 8 8 7 6 5 4 3 2 2 2 2 
2 3 4 5 6 7 7 6 6 6 6 6 6 6 7 7 7 
6 5 4 3 2 1 1 1 2 3 3 2 1 1 1 1 1 
2 3 4 5 6 6 6 6 6 6 6 6 7 7 8 9 10 
10 11 12 13 14 15 16 17 18 18 19 20 21 22 23 24 25 
26 27 28 29 30 31 32 33 21 20 19 18 18 17 16 15 14 
14 13 12 12 11 11 10 9 8 7 6 5 5 4 3 3 3 
3 3 4 5 5 6 7 6 6 6 6 6 6 6 7 7 8 
9 10 10 11 10 10 9 8 7 7 6 6 6 6 6 6 6 
7 7 8 7 6 5 5 4 3 3 3 3 3 4 5 5 6 
7 6 5 5 5 5 5 5 5 6 7 7 6 5 4 3 2 
1 0 1 2 3 3 2 2 2 2 2 2 2 3 4 5 6 
7 7 7 7 7 7 7 8 8 9 9 10 11 12 13 13 14 
15 16 17 18 19 20 21 22 23 24 25 25 26 27 28 29 30 
31 32 33 21 21 20 19 18 17 17 16 15 14 14 13 13 12 
11 10 9 8 7 6 5 4 3 2 2 2 2 2 3 4 5 
6 7 7 7 7 7 7 7 7 8 8 9 9 10 11 11 10 
9 8 7 7 6 5 5 5 5 5 5 5 6 7 7 8 7 
6 5 5 4 4 4 4 4 5 5 6 7 6 5 5 4 4 
4 4 4 5 5 6 7 6 5 4 3 2 1 1 1 2 3 
3 3 3 3 3 3 3 3 4 5 5 6 7 8 8 8 8 
8 8 8 9 10 10 11 12 12 13 14 15 16 17 17 18 19 
20 21 22 23 24 25 26 27 28 29 30 31 32 32 33 22 21 
20 20 19 18 17 16 16 15 15 14 13 12 11 10 9 8 7 
6 5 4 3 2 1 1 1 2 3 4 5 6 7 8 8 8 
8 8 8 8 8 9 10 10 11 11 10 9 8 8 7 6 5 
5 4 4 4 4 4 5 5 6 7 8 7 7 6 5 5 5 
5 5 5 5 6 7 6 5 5 4 3 3 3 3 3 4 5 
5 6 6 5 4 3 2 2 2 2 2 2 2 3 4 4 4 
4 4 4 5 5 6 7 8 8 9 9 9 9 9 9 10 10 
11 12 12 13 14 15 15 16 17 18 19 20 21 21 22 23 24 
25 26 27 28 29 30 31 32 33 34 23 22 21 20 19 19 18 
17 17 16 15 14 13 12 11 10 9 8 7 6 5 4 3 2 
1 0 1 2 3 4 5 6 7 8 9 9 9 9 9 9 9 
10 10 11 12 11 10 9 8 7 6 5 5 4 3 3 3 3 
3 4 5 5 6 7 8 7 7 6 6 6 6 6 6 6 7 
7 6 5 4 3 2 2 2 2 2 3 4 5 6 6 5 5 
4 3 3 2 1 1 1 2 3 4 5 5 5 5 5 5 6 
7 7 8 8 9 9 10 10 10 10 11 11 12 12 13 14 14 
15 16 17 18 18 19 20 21 22 23 24 25 26 26 27 28 29 
30 31 32 33 34 23 22 22 21 20 19 19 18 17 16 15 14 
13 12 11 10 9 8 7 6 5 4 3 2 1 1 1 2 3 
4 5 6 7 8 9 10 10 10 10 10 10 11 11 12 12 11 
10 9 8 7 6 5 4 3 2 2 2 2 2 3 4 5 6 
7 8 8 8 7 7 7 7 7 7 7 8 7 6 5 4 3 
2 1 1 1 2 3 4 5 5 5 5 5 5 4 3 2 1 
0 1 2 3 4 5 6 6 6 6 6 6 6 6 7 7 8 
9 10 10 11 11 12 12 13 13 14 14 15 16 17 17 18 19 
20 21 21 22 23 24 25 26 27 28 29 30 31 31 32 33 34 
24 23 22 21 21 20 19 18 17 16 15 14 13 12 11 10 9 
8 7 6 5 4 3 2 2 2 2 2 3 4 5 6 7 8 
9 10 11 11 11 11 11 12 12 13 12 11 10 9 8 7 6 
5 4 3 2 1 1 1 2 3 4 5 6 7 8 9 8 8 
8 8 8 8 8 8 8 7 6 5 4 3 2 1 0 1 2 
3 4 4 4 4 5 5 5 4 3 2 1 1 1 2 3 4 
5 5 5 5 5 5 5 5 5 6 7 7 8 9 10 11 12 
13 13 13 14 15 15 16 16 17 18 19 20 20 21 22 23 24 
25 25 26 27 28 29 30 31 32 33 34 35 24 24 23 22 21 
20 19 18 17 16 15 14 13 12 11 10 9 8 7 6 5 5 
4 3 3 3 3 3 4 5 5 6 7 8 9 10 11 12 12 
12 12 13 13 13 12 11 10 9 8 7 6 5 4 3 2 1 
0 1 2 3 4 5 6 7 8 9 9 9 9 9 9 9 9 
9 8 7 6 5 4 3 2 1 1 1 2 3 3 3 3 3 
4 5 5 4 3 2 2 2 2 2 2 3 4 5 5 4 4 
4 4 4 5 5 6 7 8 8 9 10 11 12 13 14 15 15 
16 17 17 18 19 19 20 21 22 23 23 24 25 26 27 28 29 
29 30 31 32 33 34 35 25 24 23 22 21 20 19 18 17 16 
15 14 13 12 11 10 9 8 8 7 6 5 5 4 4 4 4 
4 5 5 6 7 8 8 9 10 11 12 13 13 13 13 14 13 
12 11 10 9 8 7 6 5 4 3 2 1 1 1 2 3 4 
5 6 7 8 9 10 10 10 10 10 10 10 9 8 7 6 5 
4 3 2 2 2 2 2 2 2 2 2 2 3 4 5 5 4 
3 2 1 1 1 2 3 4 5 4 3 3 3 3 3 4 5 
5 6 7 8 9 10 11 12 13 14 15 16 17 17 18 19 19 
20 21 22 22 23 24 25 26 26 27 28 29 30 31 32 33 34 
34 35 25 24 23 22 21 20 19 18 17 16 15 14 13 13 12 
11 10 9 8 7 7 6 5 5 5 5 5 5 5 6 7 7 
8 9 10 11 12 13 13 14 14 14 14 13 12 11 10 9 8 
7 6 5 4 3 2 2 2 2 2 3 4 5 6 7 8 9 
10 10 10 10 10 10 10 9 8 7 6 5 4 3 2 2 2 
2 2 2 1 1 1 2 3 4 5 5 4 3 2 1 0 1 
2 3 4 4 3 2 2 2 2 2 3 4 5 6 7 8 9 
10 11 12 13 14 15 16 17 18 19 19 20 21 21 22 23 24 
25 25 26 27 28 29 30 30 31 32 33 34 35 36 25 24 23 
22 21 20 19 18 18 17 16 15 14 13 12 11 10 10 9 8 
7 7 6 6 6 6 6 6 6 7 7 8 9 10 10 11 12 
13 14 15 15 15 14 13 12 11 10 9 8 7 6 5 5 4 
3 3 3 3 3 4 5 5 6 7 8 9 10 9 9 9 9 
9 9 9 8 7 6 5 4 3 2 1 1 1 2 2 1 0 
1 2 3 4 5 5 4 3 2 1 1 1 2 3 4 4 3 
2 1 1 1 2 3 4 5 6 7 8 9 10 11 12 13 14 
15 16 17 18 19 20 21 21 22 23 24 24 25 26 27 28 28 
29 30 31 32 33 34 34 35 36 25 25 24 23 22 21 20 19 
18 17 16 15 14 13 13 12 11 10 9 9 8 8 7 7 7 
7 7 7 7 8 8 9 9 10 11 12 13 13 14 15 16 15 
14 13 12 11 10 9 8 8 7 6 5 5 4 4 4 4 4 
5 5 6 7 8 8 9 9 8 8 8 8 8 8 8 8 7 
6 5 4 3 2 1 0 1 2 2 1 1 1 2 3 4 5 
5 4 3 2 2 2 2 2 3 4 4 3 2 1 0 1 2 
3 4 5 6 7 8 9 10 11 12 13 14 15 16 17 18 19 
20 21 22 23 24 24 25 26 27 27 28 29 30 31 31 32 33 
34 35 36 37 26 25 24 23 22 21 20 19 18 17 17 16 15 
14 13 12 12 11 10 10 9 8 8 8 8 8 8 8 8 8 
9 10 10 11 12 12 13 14 15 16 16 15 14 13 13 12 11 
10 9 8 7 7 6 5 5 5 5 5 5 5 6 7 7 8 
9 9 8 8 7 7 7 7 7 7 7 7 6 5 4 3 2 
1 1 1 2 2 2 2 2 2 3 4 5 5 5 4 3 3 
3 3 3 4 5 4 3 2 1 1 1 2 3 4 5 6 7 
8 9 10 11 12 13 14 15 16 17 18 19 20 21 22 23 24 
25 26 26 27 28 29 30 30 31 32 33 34 34 35 36 37 26 
25 24 23 22 21 21 20 19 18 17 16 15 15 14 13 12 12 
11 10 10 9 9 9 9 9 9 9 9 9 10 10 11 12 12 
13 14 15 15 16 17 16 15 14 13 12 11 10 10 9 8 7 
7 6 6 6 6 6 6 6 7 7 8 9 9 8 7 7 6 
6 6 6 6 6 6 7 6 5 4 3 2 2 2 2 2 2 
2 3 3 3 4 5 5 6 5 5 4 4 4 4 4 5 5 
4 3 2 2 2 2 2 3 4 5 6 7 8 9 10 11 12 
13 14 15 16 17 18 19 20 21 22 23 24 25 26 27 28 29 
29 30 31 32 33 33 34 35 36 37 38 26 26 25 24 23 22 
21 20 19 18 18 17 16 15 14 14 13 12 12 11 11 10 10 
10 10 10 10 10 10 10 11 11 12 12 13 14 14 15 16 17 
17 16 15 14 13 13 12 11 10 9 9 8 8 7 7 7 7 
7 7 7 8 8 9 9 8 7 7 6 5 5 5 5 5 5 
5 6 6 5 5 4 3 3 2 1 1 1 2 3 4 4 5 
5 6 7 6 5 5 5 5 5 5 5 5 5 4 3 3 3 
3 3 4 5 5 6 7 8 9 10 11 12 13 14 15 16 17 
18 19 20 21 22 23 24 25 26 27 28 29 30 31 32 32 33 
34 35 36 36 37 38 27 26 25 24 23 22 21 21 20 19 18 
17 17 16 15 14 14 13 13 12 12 11 11 11 11 11 11 11 
11 11 12 12 13 13 14 14 15 16 17 17 17 17 16 15 14 
13 12 12 11 10 10 9 8 8 8 8 8 8 8 8 8 9 
9 8 8 7 6 5 5 4 4 4 4 4 5 5 6 6 5 
5 4 3 2 1 0 1 2 3 4 5 5 6 7 7 7 6 
6 6 6 6 6 6 6 5 5 4 4 4 4 4 5 5 6 
7 8 8 9 10 11 12 13 14 15 16 17 18 19 20 21 22 
23 24 25 26 27 28 29 30 31 32 33 34 35 35 36 37 38 
39 27 26 25 25 24 23 22 21 20 20 19 18 17 16 16 15 
15 14 13 13 13 12 12 12 12 12 12 12 12 12 13 13 13 
14 15 15 16 16 17 18 18 17 16 15 15 14 13 12 12 11 
10 10 9 9 9 9 9 9 9 9 9 10 9 8 7 6 5 
5 4 3 3 3 3 3 4 5 5 6 5 5 4 3 2 1 
1 1 2 3 4 5 6 7 7 8 8 7 7 7 7 7 7 
7 7 6 5 5 5 5 5 5 5 6 7 7 8 9 10 11 
12 13 13 14 15 16 17 18 19 20 21 22 23 24 25 26 27 
28 29 30 31 32 33 34 35 36 37 38 38 39 28 27 26 25 
24 23 23 22 21 20 19 19 18 17 17 16 15 15 14 14 13 
13 13 13 13 13 13 13 13 13 13 14 14 15 15 16 17 17 
18 17 17 16 16 15 15 14 14 13 12 12 11 11 10 10 10 
10 10 10 10 10 10 10 9 8 7 6 5 4 3 2 2 2 
2 2 3 4 5 5 5 4 4 3 2 2 2 2 2 3 4 
5 6 7 8 9 8 8 8 8 8 8 8 8 7 7 6 6 
6 6 6 6 6 7 7 8 9 10 10 11 12 13 14 15 16 
17 18 18 19 20 21 22 23 24 25 26 27 28 29 30 31 32 
33 34 35 36 37 38 39 40 28 27 26 26 25 24 23 22 22 
21 20 19 19 18 17 17 16 16 15 15 14 14 14 14 14 14 
14 14 14 14 14 15 15 16 16 17 17 18 17 17 16 15 15 
14 14 13 13 13 12 12 11 10 10 9 9 9 9 9 9 9 
9 9 9 8 7 6 5 4 3 2 1 1 1 2 3 4 5 
5 4 3 3 3 3 3 3 3 3 4 5 5 6 7 8 9 
9 9 9 9 9 9 9 9 8 8 7 7 7 7 7 7 7 
8 8 9 9 10 11 12 13 13 14 15 16 17 18 19 20 21 
22 23 24 25 25 26 27 28 29 30 31 32 33 34 35 36 37 
38 39 40 29 28 27 26 25 25 24 23 22 21 21 20 19 19 
18 18 17 17 16 16 15 15 15 15 15 15 15 15 15 15 15 
16 16 17 17 18 18 17 16 16 15 15 14 13 13 13 12 12 
11 11 10 10 9 8 8 8 8 8 8 8 8 8 9 8 7 
6 5 4 3 2 1 0 1 2 3 4 5 4 3 2 2 2 
2 2 3 4 4 5 5 6 7 8 8 9 10 10 10 10 10 
10 10 10 9 8 8 8 8 8 8 8 8 8 9 10 10 11 
12 12 13 14 15 16 17 17 18 19 20 21 22 23 24 25 26 
27 28 29 30 31 32 32 33 34 35 36 37 38 39 40 29 28 
28 27 26 25 24 24 23 22 21 21 20 20 19 18 18 17 17 
17 16 16 16 16 16 16 16 16 16 16 16 17 17 17 18 18 
17 17 16 15 14 14 13 13 12 12 11 11 10 10 9 9 8 
8 7 7 7 7 7 7 7 8 8 8 7 6 5 4 3 2 
1 1 1 2 3 4 5 4 3 2 1 1 1 2 3 4 5 
5 6 7 7 8 9 9 9 9 9 9 9 9 9 9 10 9 
9 9 9 9 9 9 9 9 10 10 11 12 12 13 14 15 15 
16 17 18 19 20 21 21 22 23 24 25 26 27 28 29 30 31 
32 33 34 35 36 37 38 39 40 41 30 29 28 27 27 26 25 
24 24 23 22 22 21 20 20 19 19 18 18 18 17 17 17 17 
17 17 17 17 17 17 17 18 18 18 18 18 17 16 15 14 14 
13 12 12 11 11 10 10 10 9 8 8 7 7 6 6 6 6 
6 6 6 7 7 8 7 6 5 4 3 2 2 2 2 2 3 
4 5 4 3 2 1 0 1 2 3 4 5 6 7 7 8 9 
9 8 8 8 8 8 8 8 8 8 9 10 10 10 10 10 10 
10 10 10 11 11 12 12 13 14 14 15 16 17 18 18 19 20 
21 22 23 24 25 26 26 27 28 29 30 31 32 33 34 35 36 
37 38 39 40 41 30 30 29 28 27 26 26 25 24 24 23 22 
22 21 21 20 20 19 19 18 18 18 18 18 18 18 18 18 18 
18 18 18 18 18 18 17 16 15 15 14 13 12 12 11 10 10 
9 9 9 8 8 7 7 6 5 5 5 5 5 5 5 6 7 
7 7 6 5 5 4 3 3 3 3 3 4 5 5 4 3 2 
1 1 1 2 3 4 5 6 7 8 9 9 8 8 7 7 7 
7 7 7 7 8 8 9 9 10 11 11 11 11 11 11 12 12 
13 13 14 14 15 16 17 17 18 19 20 21 21 22 23 24 25 
26 27 28 29 30 31 31 32 33 34 35 36 37 38 39 40 41 
31 30 29 29 28 27 26 26 25 24 24 23 23 22 21 21 21 
20 20 19 19 19 19 18 18 18 17 17 17 17 17 17 17 17 
17 17 16 15 14 13 12 12 11 10 10 9 8 8 8 7 7 
6 6 5 5 4 4 4 4 4 5 5 6 7 8 7 6 5 
5 4 4 4 4 4 5 5 5 4 3 2 2 2 2 2 3 
4 5 6 7 8 9 8 7 7 6 6 6 6 6 6 6 7 
7 8 9 10 10 11 12 12 12 12 13 13 13 14 15 15 16 
16 17 18 19 20 20 21 22 23 24 25 25 26 27 28 29 30 
31 32 33 34 35 36 37 37 38 39 40 41 32 31 30 29 29 
28 27 26 26 25 25 24 23 23 22 22 21 21 20 20 19 18 
18 17 17 17 16 16 16 16 16 16 16 16 16 16 15 14 13 
13 12 11 10 9 9 8 8 7 7 7 6 5 5 5 4 3 
3 3 3 3 4 5 5 6 7 7 7 6 5 5 5 5 5 
5 5 6 5 5 4 3 3 3 3 3 4 5 5 6 7 8 
8 7 7 6 5 5 5 5 5 5 5 6 7 7 8 9 10 
11 12 13 13 13 13 14 14 15 15 16 17 17 18 19 19 20 
21 22 23 23 24 25 26 27 28 29 29 30 31 32 33 34 35 
36 37 38 39 40 41 42 32 31 31 30 29 29 28 27 27 26 
25 25 24 23 22 21 21 20 19 19 18 18 17 17 16 16 15 
15 15 15 15 15 15 15 15 15 15 14 13 12 11 10 10 9 
8 7 7 6 6 6 5 5 4 4 3 2 2 2 2 2 3 
4 5 6 7 8 7 7 6 6 6 6 6 6 6 7 6 5 
5 4 4 4 4 4 5 5 6 7 8 8 8 7 6 5 5 
4 4 4 4 4 5 5 6 7 8 8 9 10 11 12 13 14 
14 15 15 16 16 17 17 18 19 19 20 21 22 22 23 24 25 
26 26 27 28 29 30 31 32 33 34 34 35 36 37 38 39 40 
41 42 33 32 31 31 30 29 28 27 26 26 25 24 23 22 22 
21 20 19 19 18 17 17 16 16 15 15 14 14 14 14 14 14 
14 14 14 14 14 13 13 12 11 10 9 8 7 7 6 5 5 
5 5 4 3 3 3 2 1 1 1 2 3 4 5 6 7 8 
8 8 7 7 7 7 7 7 7 7 7 6 5 5 5 5 5 
5 5 6 7 7 8 8 7 6 5 5 4 3 3 3 3 3 
4 5 5 6 7 8 9 10 11 12 13 14 15 16 16 17 17 
18 18 19 19 20 21 21 22 23 24 25 25 26 27 28 29 30 
30 31 32 33 34 35 36 37 38 39 39 40 41 42 32 31 31 
30 29 29 28 27 26 25 24 23 23 22 21 20 19 19 18 17 
17 16 15 15 14 14 13 13 13 13 13 13 13 13 13 13 13 
13 12 11 10 9 8 8 7 6 5 5 4 4 4 3 2 2 
2 2 1 0 1 2 3 4 5 6 7 8 9 8 8 8 8 
8 8 8 8 8 7 7 6 6 6 6 6 6 6 7 7 8 
9 8 7 6 5 4 3 2 2 2 2 2 3 4 5 6 7 
8 9 10 11 12 13 14 15 16 17 17 18 18 19 20 20 21 
21 22 23 24 24 25 26 27 28 28 29 30 31 32 33 34 34 
35 36 37 38 39 40 41 42 43 32 31 30 29 29 28 27 26 
25 25 24 23 22 21 20 20 19 18 17 16 16 15 15 14 13 
13 13 12 12 12 12 12 12 12 12 12 13 13 12 11 10 9 
8 7 6 5 5 4 3 3 3 3 2 1 1 1 1 1 1 
2 3 4 5 6 7 8 9 9 9 9 9 9 9 9 9 9 
8 8 7 7 7 7 7 7 7 8 8 9 9 8 7 6 5 
4 3 2 1 1 1 2 3 4 5 6 7 8 9 10 11 12 
13 14 15 16 17 18 19 19 20 20 21 22 22 23 24 24 25 
26 27 27 28 29 30 31 31 32 33 34 35 36 37 38 38 39 
40 41 42 43 31 30 29 29 28 27 26 26 25 24 23 22 21 
21 20 19 18 17 17 16 15 14 14 13 13 12 12 11 11 11 
11 11 11 11 11 11 12 12 12 11 10 9 8 7 6 5 4 
3 2 2 2 2 2 1 0 1 2 2 2 2 3 4 5 6 
7 8 9 10 10 10 10 10 10 9 9 8 8 7 7 7 7 
7 7 7 8 8 9 9 9 8 7 6 5 4 3 2 1 0 
1 2 3 4 5 6 7 8 9 10 11 12 13 14 15 16 17 
18 19 20 21 21 22 22 23 24 24 25 26 26 27 28 29 30 
30 31 32 33 33 34 35 36 36 37 38 39 40 40 41 42 30 
30 29 28 27 26 26 25 24 24 23 22 21 20 19 18 18 17 
16 15 14 14 13 12 12 11 11 10 10 10 10 10 10 10 10 
10 11 11 12 11 10 9 8 7 6 5 4 3 2 1 1 1 
2 1 1 1 2 3 3 3 4 5 5 6 7 8 9 10 11 
11 11 10 10 9 8 7 7 6 6 6 6 6 6 6 7 7 
8 9 9 8 7 6 5 4 3 2 1 1 1 2 3 4 5 
6 7 8 9 10 11 12 13 14 15 16 17 18 19 20 21 22 
23 23 24 24 25 26 26 27 28 28 29 29 30 31 31 32 33 
33 34 35 36 37 37 38 39 40 41 41 30 29 28 27 27 26 
25 24 24 23 22 21 21 20 19 18 17 16 15 15 14 13 12 
12 11 10 10 9 9 9 9 9 9 9 9 9 10 10 11 11 
10 9 8 7 6 5 4 3 2 1 0 1 2 2 2 2 2 
3 4 4 5 5 6 7 8 8 9 10 11 12 11 10 9 8 
7 7 6 5 5 5 5 5 5 5 6 7 7 8 9 8 7 
6 5 4 3 2 2 2 2 2 3 4 5 6 7 8 9 10 
11 12 13 14 15 16 17 18 19 20 21 22 23 23 24 24 25 
25 26 26 27 27 28 29 29 30 31 31 32 33 34 34 35 36 
37 38 38 39 40 41 29 28 28 27 26 25 24 24 23 22 21 
21 20 19 18 17 17 16 15 14 13 12 12 11 10 10 9 8 
8 8 8 8 8 8 8 8 9 10 10 11 10 9 8 7 6 
5 4 3 2 1 1 1 2 3 3 3 3 4 5 5 5 6 
7 7 8 9 10 11 12 11 10 9 8 8 7 6 5 5 4 
4 4 4 4 5 5 6 7 8 8 8 7 6 5 5 4 3 
3 3 3 3 4 5 5 6 7 8 9 10 11 12 13 14 15 
16 17 18 19 20 21 22 22 22 23 23 24 24 25 25 26 27 
27 28 29 29 30 31 31 32 33 34 35 35 36 37 38 39 39 
40 29 28 27 26 25 25 24 23 22 21 21 20 19 19 18 17 
16 15 14 13 13 12 11 10 9 9 8 8 7 7 7 7 7 
7 7 8 8 9 9 10 10 9 8 7 6 5 4 3 2 2 
2 2 2 3 4 4 4 5 5 6 6 7 7 8 9 10 10 
11 12 11 10 9 8 7 6 5 5 4 3 3 3 3 3 4 
5 5 6 7 7 8 8 7 6 5 5 4 4 4 4 4 5 
5 6 7 8 8 9 10 11 12 13 14 15 16 17 18 19 20 
20 21 21 21 22 22 23 23 24 25 25 26 26 27 28 29 29 
30 31 32 32 33 34 35 36 36 37 38 39 40 28 27 26 26 
25 24 23 22 22 21 20 19 19 18 17 17 16 15 14 13 12 
11 10 10 9 8 7 7 6 6 6 6 6 6 6 7 7 8 
9 10 10 9 8 7 6 5 5 4 3 3 3 3 3 4 5 
5 5 5 6 7 7 8 8 9 9 10 11 12 12 11 10 9 
8 7 6 5 4 3 2 2 2 2 2 3 4 5 5 6 7 
7 8 7 7 6 5 5 5 5 5 5 5 6 7 7 8 9 
10 11 12 13 13 14 15 16 17 18 19 19 19 20 20 21 21 
21 22 23 23 24 24 25 26 26 27 28 29 29 30 31 32 33 
33 34 35 36 37 38 38 39 28 27 26 25 24 23 23 22 21 
20 19 19 18 17 17 16 15 14 13 13 12 11 10 9 8 7 
7 6 5 5 5 5 5 5 5 6 7 7 8 9 10 9 8 
8 7 6 5 5 4 4 4 4 4 5 5 6 6 6 7 7 
8 8 9 10 10 11 12 12 12 11 10 9 8 7 6 5 4 
3 2 1 1 1 2 3 4 4 5 5 6 7 8 7 7 6 
6 6 6 6 6 6 6 7 7 8 9 10 10 11 12 13 14 
15 16 17 18 18 18 18 18 19 19 20 20 21 21 22 22 23 
24 24 25 26 26 27 28 29 30 30 31 32 33 34 34 35 36 
37 38 39 27 26 25 25 24 23 22 21 20 20 19 18 17 16 
16 15 15 14 13 12 11 10 9 8 8 7 6 5 5 4 4 
4 4 4 5 5 6 7 8 8 9 10 9 8 7 7 6 5 
5 5 5 5 5 5 6 7 7 7 8 8 9 9 10 10 11 
12 12 13 12 11 10 9 8 7 6 5 4 3 2 1 0 1 
2 3 3 3 4 5 5 6 7 7 6 5 5 5 5 5 5 
5 6 7 7 8 9 10 11 12 13 13 14 15 16 17 17 17 
17 17 18 18 18 19 19 20 20 21 22 22 23 24 24 25 26 
27 27 28 29 30 31 31 32 33 34 35 36 37 38 38 27 26 
25 24 23 22 21 21 20 19 18 17 17 16 15 14 14 13 13 
12 11 10 9 8 7 6 5 5 4 3 3 3 3 3 4 5 
5 6 7 8 9 10 10 9 8 7 7 6 6 6 6 6 6 
6 7 7 8 8 8 9 10 10 11 11 12 12 13 13 12 11 
10 9 8 7 6 5 4 3 2 1 1 1 2 2 2 2 3 
4 5 6 7 6 5 5 4 4 4 4 4 5 5 6 7 8 
8 9 10 11 12 13 14 15 16 16 16 16 16 16 17 17 17 
18 18 19 20 20 21 21 22 23 24 24 25 26 27 28 28 29 
30 31 32 33 34 34 35 36 37 38 26 26 25 24 23 22 21 
20 19 18 18 17 16 15 14 14 13 12 12 11 11 10 9 8 
7 6 5 4 3 2 2 2 2 2 3 4 5 6 7 8 9 
10 10 9 9 8 8 7 7 7 7 7 7 7 8 8 9 9 
9 10 10 11 12 12 13 13 14 13 12 11 10 9 8 7 6 
5 4 3 2 2 2 2 1 1 1 2 3 4 5 6 6 5 
5 4 3 3 3 3 3 4 5 5 6 7 8 9 10 11 12 
13 14 15 15 15 15 15 15 15 16 16 17 17 18 18 19 19 
20 21 21 22 23 24 25 25 26 27 28 29 30 30 31 32 33 
34 35 36 37 38 26 25 24 23 22 21 21 20 19 18 17 16 
15 15 14 13 12 12 11 10 10 9 9 8 7 6 5 4 3 
2 1 1 1 2 3 4 5 6 7 8 9 10 11 10 10 9 
8 8 8 8 8 8 8 8 8 9 10 10 10 11 11 12 12 
13 13 14 14 13 12 11 10 9 8 7 6 5 5 4 3 3 
3 2 1 0 1 2 3 4 5 6 6 5 4 3 2 2 2 
2 2 3 4 5 6 7 8 9 10 11 12 13 14 14 14 14 
14 14 14 14 15 15 16 16 17 17 18 19 19 20 21 22 22 
23 24 25 26 26 27 28 29 30 31 32 33 34 34 35 36 37 
26 25 24 23 22 21 20 19 18 17 17 16 15 14 13 12 12 
11 10 10 9 8 8 8 7 6 5 4 3 2 1 0 1 2 
3 4 5 6 7 8 9 10 11 11 10 10 9 9 9 9 9 
9 9 9 9 10 10 11 11 12 12 13 13 14 14 15 14 13 
12 11 10 9 8 8 7 6 5 5 4 4 3 2 1 1 1 
2 3 4 5 5 5 5 4 3 2 1 1 1 2 3 4 5 
6 7 8 9 10 11 12 13 13 13 13 13 13 13 13 13 14 
14 15 15 16 17 17 18 19 19 20 21 22 23 23 24 25 26 
27 28 29 29 30 31 32 33 34 35 36 37 25 25 24 23 22 
21 20 19 18 17 16 15 14 13 13 12 11 10 9 9 8 8 
7 7 7 6 5 4 3 2 1 1 1 2 3 4 5 6 7 
8 9 10 11 12 11 11 10 10 10 10 10 10 10 10 10 11 
11 12 12 13 13 13 14 15 15 15 14 13 13 12 11 10 9 
8 7 7 6 5 5 4 3 2 2 2 2 2 3 4 4 4 
5 5 4 3 2 1 0 1 2 3 4 5 6 7 8 9 10 
11 12 12 12 12 12 12 12 12 12 13 13 13 14 15 15 16 
16 17 18 19 20 20 21 22 23 24 25 25 26 27 28 29 30 
31 32 33 34 35 36 37 25 24 23 22 21 20 19 18 18 17 
16 15 14 13 12 11 10 10 9 8 7 7 6 6 6 6 5 
4 3 2 2 2 2 2 3 4 5 6 7 8 9 10 11 12 
12 12 11 11 11 11 11 11 11 11 11 12 12 13 13 13 14 
14 15 15 16 16 15 14 13 12 11 10 10 9 8 7 7 6 
5 5 4 3 3 3 3 3 3 3 3 3 4 5 4 3 2 
1 1 1 2 3 4 5 6 7 8 9 10 11 11 11 11 11 
11 11 11 11 11 12 12 13 13 14 14 15 16 17 17 18 19 
20 21 21 22 23 24 25 26 27 28 29 30 31 31 32 33 34 
35 36 25 24 23 22 21 20 19 18 17 16 15 14 13 13 12 
11 10 9 8 7 7 6 5 5 5 5 5 5 4 3 3 3 
3 3 4 5 5 6 7 8 9 10 11 12 13 13 12 12 12 
12 12 12 12 12 12 13 13 13 14 14 15 15 16 16 17 16 
15 14 13 13 12 11 10 9 9 8 8 7 6 5 5 4 4 
4 3 2 2 2 2 2 3 4 4 3 2 2 2 2 2 3 
4 5 6 7 8 9 10 11 10 10 10 10 10 10 10 10 10 
11 11 12 12 13 14 14 15 16 17 18 18 19 20 21 22 23 
24 25 26 26 27 28 29 30 31 32 33 34 35 36 25 24 23 
22 21 20 19 18 17 16 15 14 13 12 11 10 9 8 8 7 
6 5 5 4 4 4 4 4 5 4 4 4 4 4 5 5 6 
7 8 8 9 10 11 12 13 13 13 13 13 13 13 13 13 13 
13 13 14 14 15 15 16 16 17 17 17 17 16 15 14 13 12 
12 11 10 10 9 8 7 7 6 5 5 5 4 3 2 1 1 
1 2 3 4 5 4 3 3 3 3 3 4 5 5 6 7 8 
9 10 10 9 9 9 9 9 9 9 9 9 10 10 11 12 12 
13 14 15 15 16 17 18 19 20 21 21 22 23 24 25 26 27 
28 29 30 31 32 33 34 35 36 25 24 23 22 21 20 19 18 
17 16 15 14 13 12 11 10 9 8 7 6 5 5 4 3 3 
3 3 3 4 5 5 5 5 5 5 6 7 7 8 9 10 11 
12 13 13 14 14 14 14 14 14 14 14 14 14 14 15 15 16 
16 17 17 17 18 18 17 16 15 15 14 13 12 12 11 10 10 
9 8 7 7 6 6 5 4 3 2 1 0 1 2 3 4 5 
5 4 4 4 4 4 5 5 6 7 8 8 9 10 9 8 8 
8 8 8 8 8 8 8 9 10 10 11 12 12 13 14 15 16 
17 17 18 19 20 21 22 23 24 25 26 27 28 29 30 31 32 
32 33 34 35 25 24 23 22 21 20 19 18 17 16 15 14 13 
12 11 10 9 8 7 6 5 4 3 2 2 2 2 2 3 4 
5 6 6 6 6 7 7 8 9 10 10 11 12 13 13 13 13 
13 13 13 13 14 14 15 15 15 16 16 17 17 18 18 18 18 
18 18 17 16 15 14 14 13 12 12 11 10 9 9 8 8 7 
6 5 4 3 2 1 1 1 2 3 4 5 5 5 5 5 5 
5 5 6 7 7 8 9 9 9 8 8 7 7 7 7 7 7 
7 8 8 9 9 10 11 12 13 13 14 15 16 17 18 19 20 
21 22 23 24 25 25 26 27 28 29 30 31 32 33 34 35 25 
24 23 22 21 20 19 18 17 16 15 14 13 12 11 10 9 8 
7 6 5 4 3 2 1 1 1 2 3 4 5 6 7 7 7 
8 8 9 9 10 11 12 12 12 12 12 12 12 12 12 13 13 
13 14 15 15 16 16 17 18 18 18 17 17 17 17 17 17 16 
15 14 14 13 12 12 11 10 10 9 8 7 6 5 4 3 2 
2 2 2 2 3 4 5 6 6 6 6 6 6 6 7 7 8 
9 10 9 8 7 7 6 6 6 6 6 6 6 7 7 8 9 
10 10 11 12 13 14 15 16 17 18 18 19 20 21 22 23 24 
25 26 27 28 29 30 31 32 33 34 35 25 24 23 22 21 20 
19 18 17 16 15 14 13 12 11 10 9 8 7 6 5 4 3 
2 1 0 1 2 3 4 5 6 7 8 8 8 9 10 10 11 
12 11 11 11 11 11 11 11 11 11 12 12 13 13 14 14 15 
16 17 17 17 17 16 16 16 16 16 16 16 16 15 15 14 13 
12 12 11 10 9 8 7 6 5 5 4 3 3 3 3 3 4 
5 5 6 7 7 7 7 7 7 8 8 9 9 9 8 7 7 
6 5 5 5 5 5 5 5 6 7 7 8 9 10 11 12 13 
13 14 15 16 17 18 19 20 21 22 23 24 25 26 27 28 29 
30 31 32 33 34 35 25 24 23 22 21 20 19 18 17 16 15 
14 13 12 11 10 9 8 7 6 5 4 3 2 1 1 1 2 
3 4 5 6 7 8 9 9 10 10 11 11 11 10 10 10 10 
10 10 10 10 10 11 11 12 12 13 14 14 15 16 17 16 16 
15 15 15 15 15 15 15 15 15 15 14 14 13 12 11 10 9 
8 8 7 6 5 5 4 4 4 4 4 5 5 6 7 8 8 
8 8 8 8 8 9 10 9 8 8 7 6 5 5 4 4 4 
4 4 5 5 6 7 8 8 9 10 11 12 13 14 15 16 17 
18 19 20 21 22 23 24 25 26 27 28 29 30 31 32 33 34 
35 25 24 23 22 21 20 19 18 17 16 15 14 13 12 11 10 
9 8 7 6 5 4 3 2 2 2 2 2 3 4 5 6 7 
8 9 10 11 11 11 10 10 9 9 9 9 9 9 9 9 9 
10 10 11 12 12 13 14 15 15 16 15 15 14 14 14 14 14 
14 14 14 14 14 14 14 13 13 12 11 10 9 8 7 7 6 
5 5 5 5 5 5 5 6 7 7 8 9 9 9 9 9 9 
10 10 9 8 7 6 5 5 4 3 3 3 3 3 4 5 5 
6 7 8 9 10 11 12 13 14 15 16 17 18 19 20 21 22 
23 24 25 26 27 28 29 30 31 32 33 34 35 25 24 23 22 
21 20 19 18 17 16 15 14 13 12 11 10 9 8 7 6 5 
5 4 3 3 3 3 3 4 5 5 6 7 8 9 10 11 11 
10 10 9 8 8 8 8 8 8 8 8 8 9 10 10 11 12 
12 13 14 15 15 14 14 13 13 13 13 13 13 13 13 13 13 
13 14 14 13 12 11 10 10 9 8 7 7 6 6 6 6 6 
6 6 7 7 8 9 10 10 10 10 10 10 11 10 9 8 7 
6 5 4 3 2 2 2 2 2 3 4 5 6 7 8 9 10 
11 12 13 14 15 16 17 18 19 20 21 22 23 24 25 26 27 
28 29 30 31 32 33 34 35 25 24 23 22 21 20 19 18 17 
16 15 14 13 12 11 10 9 8 8 7 6 5 5 4 4 4 
4 4 5 5 6 7 8 8 9 10 11 10 9 9 8 8 7 
7 7 7 7 7 7 8 8 9 9 10 11 12 13 13 14 14 
13 13 13 12 12 12 12 12 12 12 12 12 13 13 13 13 13 
12 11 10 9 9 8 8 7 7 7 7 7 7 7 8 8 9 
9 10 11 11 11 11 11 11 10 9 8 7 6 5 4 3 2 
1 1 1 2 3 4 5 6 7 8 9 10 11 12 13 14 15 
16 17 18 19 20 21 22 23 24 25 26 27 28 29 30 31 32 
33 34 35 25 24 23 22 21 20 19 18 17 16 15 14 13 13 
12 11 10 9 8 7 7 6 5 5 5 5 5 5 5 6 7 
7 8 9 10 11 10 10 9 8 7 7 6 6 6 6 6 6 
6 7 7 8 9 10 10 11 12 13 14 13 13 12 12 11 11 
11 11 11 11 11 11 11 12 12 13 13 13 12 12 11 10 10 
9 8 8 8 8 8 8 8 8 8 9 10 10 11 12 12 12 
12 12 11 10 9 8 7 6 5 4 3 2 1 0 1 2 3 
4 5 6 7 8 9 10 11 12 13 14 15 16 17 18 19 20 
21 22 23 24 25 26 27 28 29 30 31 32 33 34 35 25 24 
23 22 21 20 19 18 18 17 16 15 14 13 12 11 10 10 9 
8 7 7 6 6 6 6 6 6 6 7 7 8 9 10 10 11 
10 9 8 7 7 6 5 5 5 5 5 5 5 6 7 7 8 
9 10 11 12 13 13 12 12 11 11 10 10 10 10 10 10 10 
10 10 11 11 12 12 13 13 12 12 11 10 10 9 9 9 9 
9 9 9 9 9 10 10 11 12 12 12 12 12 12 11 10 9 
8 7 6 5 4 3 2 1 1 1 2 3 4 5 6 7 8 
9 10 11 12 13 14 15 16 17 18 19 20 21 22 23 24 25 
26 27 28 29 30 31 32 33 34 35 25 25 24 23 22 21 20 
19 18 17 16 15 14 13 13 12 11 10 9 9 8 8 7 7 
7 7 7 7 7 8 8 9 9 10 11 10 9 8 8 7 6 
5 5 4 4 4 4 4 5 5 6 7 8 8 9 10 11 12 
12 12 11 10 10 9 9 9 9 9 9 9 9 9 10 10 11 
12 12 13 13 12 12 11 11 10 10 10 10 10 10 10 10 10 
11 11 11 11 11 11 11 11 11 11 10 9 8 7 6 5 4 
3 2 2 2 2 2 3 4 5 6 7 8 9 10 11 12 13 
14 15 16 17 18 19 20 21 22 23 24 25 26 27 28 29 30 
31 32 33 34 35 26 25 24 23 22 21 20 19 18 17 17 16 
15 14 13 12 12 11 10 10 9 8 8 8 8 8 8 8 8 
8 9 10 10 11 11 10 9 8 7 6 5 5 4 3 3 3 
3 3 4 5 5 6 7 8 9 10 11 12 12 11 10 10 9 
8 8 8 8 8 8 8 8 8 9 10 10 11 12 12 13 13 
13 12 12 11 11 11 11 11 11 11 11 11 11 11 10 10 10 
10 10 10 10 10 10 9 8 7 6 5 5 4 3 3 3 3 
3 4 5 5 6 7 8 9 10 11 12 13 14 15 16 17 18 
19 20 21 22 23 24 25 26 27 28 29 30 31 32 33 34 35 
26 25 24 23 22 21 21 20 19 18 17 16 15 15 14 13 12 
12 11 10 10 9 9 9 9 9 9 9 9 9 10 10 11 12 
11 10 9 8 7 6 5 4 3 2 2 2 2 2 3 4 5 
6 7 8 9 10 11 12 11 10 9 9 8 8 7 7 7 7 
7 7 7 8 8 9 9 10 11 12 13 13 13 13 13 12 12 
12 12 12 12 12 12 11 10 10 9 9 9 9 9 9 9 9 
9 9 8 8 7 6 5 5 4 4 4 4 4 5 5 6 7 
8 8 9 10 11 12 13 14 15 16 17 18 19 20 21 22 23 
24 25 26 27 28 29 30 31 32 33 34 35 26 26 25 24 23 
22 21 20 19 18 18 17 16 15 14 14 13 12 12 11 11 10 
10 10 10 10 10 10 10 10 11 11 12 12 11 10 9 8 7 
6 5 4 3 2 1 1 1 2 3 4 5 6 7 8 9 10 
11 11 10 10 9 8 7 7 6 6 6 6 6 6 6 7 7 
8 9 10 10 11 12 13 14 14 13 13 13 13 13 13 12 12 
11 10 10 9 8 8 8 8 8 8 8 8 8 9 9 8 7 
7 6 5 5 5 5 5 5 5 6 7 7 8 9 10 11 12 
13 13 14 15 16 17 18 19 20 21 22 23 24 25 26 27 28 
29 30 31 32 33 34 35 27 26 25 24 23 22 21 21 20 19 
18 17 17 16 15 14 14 13 13 12 12 11 11 11 11 11 11 
11 11 11 12 12 13 12 11 10 9 8 7 6 5 4 3 2 
1 0 1 2 3 4 5 6 7 8 9 10 11 11 10 9 8 
7 7 6 5 5 5 5 5 5 5 6 7 7 8 9 10 11 
12 13 13 14 14 14 14 14 13 13 12 11 10 9 9 8 8 
7 7 7 7 7 7 7 8 8 9 9 8 7 7 6 6 6 
6 6 6 6 7 7 8 9 10 10 11 12 13 14 15 16 17 
18 18 19 20 21 22 23 24 25 26 27 28 29 30 31 32 33 
34 35 27 26 25 25 24 23 22 21 20 20 19 18 17 16 16 
15 15 14 13 13 13 12 12 12 12 12 12 12 12 12 13 13 
13 12 11 10 9 8 7 6 5 4 3 2 1 1 1 2 3 
4 5 6 7 8 9 10 11 10 9 8 8 7 6 5 5 4 
4 4 4 4 5 5 6 7 8 8 9 10 11 12 13 14 15 
15 15 14 13 12 11 10 10 9 8 7 7 6 6 6 6 6 
6 6 7 7 8 9 9 8 8 7 7 7 7 7 7 7 8 
8 9 9 10 11 12 13 13 14 15 16 17 18 19 20 21 22 
23 24 25 25 26 27 28 29 30 31 32 33 34 35 28 27 26 
25 24 23 23 22 21 20 19 19 18 17 17 16 15 15 14 14 
13 13 13 13 13 13 13 13 13 13 13 14 13 12 11 10 9 
8 7 6 5 4 3 2 2 2 2 2 3 4 5 6 7 8 
9 10 11 10 9 8 7 6 5 5 4 3 3 3 3 3 4 
5 5 6 7 8 9 10 11 12 13 14 15 15 14 13 13 12 
11 10 9 8 7 7 6 5 5 5 5 5 5 5 6 7 7 
8 9 9 8 8 8 8 8 8 8 8 8 9 10 10 11 12 
12 13 14 15 16 17 17 18 19 20 21 22 23 24 25 26 27 
28 29 30 31 32 32 33 34 35 28 27 26 26 25 24 23 22 
22 21 20 19 19 18 17 17 16 16 15 15 14 14 14 14 14 
14 14 14 14 14 14 14 13 12 11 10 9 8 7 6 5 5 
4 3 3 3 3 3 4 5 5 6 7 8 9 10 11 10 9 
8 7 6 5 4 3 2 2 2 2 2 3 4 5 6 7 8 
9 10 11 12 13 14 15 15 14 13 12 11 10 9 8 8 7 
6 5 5 4 4 4 4 4 5 5 6 7 8 8 9 9 9 
9 9 9 9 9 9 9 10 10 11 12 12 13 14 15 15 16 
17 18 19 20 21 21 22 23 24 25 26 27 28 29 30 31 32 
33 34 35 36 29 28 27 26 25 25 24 23 22 21 21 20 19 
19 18 18 17 17 16 16 15 15 15 15 15 15 15 15 15 15 
15 14 13 12 11 10 9 8 8 7 6 5 5 4 4 4 4 
4 5 5 6 7 8 8 9 10 11 10 9 8 7 6 5 4 
3 2 1 1 1 2 3 4 5 6 7 8 9 10 11 12 13 
14 15 15 14 13 12 11 10 9 8 7 6 5 5 4 3 3 
3 3 3 4 5 5 6 7 8 9 10 10 10 10 10 10 10 
10 10 11 11 12 12 13 14 14 15 16 17 18 18 19 20 21 
22 23 24 25 26 26 27 28 29 30 31 32 33 34 35 36 29 
28 28 27 26 25 24 24 23 22 21 21 20 20 19 18 18 17 
17 17 16 16 16 16 16 16 16 16 16 16 15 14 13 13 12 
11 10 9 8 7 7 6 5 5 5 5 5 5 5 6 7 7 
8 9 10 11 11 10 9 8 7 6 5 4 3 2 1 0 1 
2 3 4 5 6 7 8 9 10 11 12 13 14 15 15 14 13 
12 11 10 9 8 7 6 5 4 3 2 2 2 2 2 3 4 
5 6 7 8 9 10 11 11 11 11 11 11 11 11 12 12 13 
13 14 14 15 16 17 17 18 19 20 21 21 22 23 24 25 26 
27 28 29 30 31 31 32 33 34 35 36 30 29 28 27 27 26 
25 24 24 23 22 22 21 20 20 19 19 18 18 18 17 17 17 
17 17 17 17 17 17 17 16 15 14 13 12 11 10 10 9 8 
7 7 6 6 6 6 6 6 6 7 7 8 9 10 10 11 11 
10 9 8 7 6 5 4 3 2 1 1 1 2 3 4 5 6 
7 8 9 10 11 12 13 14 15 15 14 13 12 11 10 9 8 
7 6 5 4 3 2 1 1 1 2 3 4 5 6 7 8 9 
10 11 12 12 12 12 12 12 12 13 13 13 14 15 15 16 16 
17 18 19 20 20 21 22 23 24 25 25 26 27 28 29 30 31 
32 33 34 35 36 37 30 30 29 28 27 26 26 25 24 24 23 
22 22 21 21 20 20 19 19 18 18 18 18 18 18 18 18 18 
18 17 16 15 14 13 13 12 11 10 9 9 8 8 7 7 7 
7 7 7 7 8 8 9 9 10 11 12 11 10 9 8 7 6 
5 4 3 2 2 2 2 2 3 4 5 6 7 8 9 10 11 
12 13 14 15 15 14 13 12 11 10 9 8 7 6 5 4 3 
2 1 0 1 2 3 4 5 6 7 8 9 10 11 12 13 13 
13 13 13 13 13 14 14 15 15 16 17 17 18 19 19 20 21 
22 23 23 24 25 26 27 28 29 29 30 31 32 33 34 35 36 
37 31 30 29 29 28 27 26 26 25 24 24 23 23 22 21 21 
21 20 20 19 19 19 19 19 19 19 19 19 18 17 17 16 15 
14 13 12 12 11 10 10 9 8 8 8 8 8 8 8 8 8 
9 10 10 11 12 12 11 10 9 8 7 6 5 5 4 3 3 
3 3 3 4 5 5 6 7 8 9 10 11 12 13 14 15 15 
14 13 12 11 10 9 8 7 6 5 4 3 2 1 1 1 2 
3 4 5 6 7 8 9 10 11 12 13 14 14 14 14 14 14 
15 15 16 16 17 17 18 19 19 20 21 22 22 23 24 25 26 
26 27 28 29 30 31 32 33 34 34 35 36 37 32 31 30 29 
29 28 27 26 26 25 25 24 23 23 22 22 21 21 21 20 20 
20 20 20 20 20 20 20 19 18 17 16 15 15 14 13 12 12 
11 10 10 9 9 9 9 9 9 9 9 9 10 10 11 12 12 
12 11 10 9 8 8 7 6 5 5 4 4 4 4 4 5 5 
6 7 8 8 9 10 11 12 13 14 15 15 14 13 12 11 10 
9 8 7 6 5 4 3 2 2 2 2 2 3 4 5 6 7 
8 9 10 11 12 13 14 15 15 15 15 15 16 16 17 17 18 
18 19 19 20 21 21 22 23 24 25 25 26 27 28 29 30 30 
31 32 33 34 35 36 37 38 32 31 31 30 29 29 28 27 27 
26 25 25 24 24 23 23 22 22 22 21 21 21 21 21 21 21 
21 20 19 18 18 17 16 15 14 14 13 12 12 11 11 10 10 
10 10 10 10 10 10 10 11 11 12 12 13 13 12 11 10 9 
8 7 7 6 5 5 5 5 5 5 5 6 7 7 8 9 10 
11 12 13 13 14 15 15 14 13 12 11 10 9 8 7 6 5 
5 4 3 3 3 3 3 4 5 5 6 7 8 9 10 11 12 
13 14 15 16 16 16 16 17 17 17 18 18 19 20 20 21 21 
22 23 24 24 25 26 27 28 28 29 30 31 32 33 34 34 35 
36 37 38 33 32 31 31 30 29 29 28 27 27 26 26 25 25 
24 24 23 23 23 22 22 22 22 22 22 22 21 21 20 19 18 
17 17 16 15 14 14 13 13 12 12 11 11 11 11 11 11 11 
11 11 12 12 13 13 14 13 12 11 10 10 9 8 7 7 6 
6 6 6 6 6 6 7 7 8 9 10 10 11 12 13 14 15 
16 15 14 13 12 11 10 9 8 8 7 6 5 5 4 4 4 
4 4 5 5 6 7 8 8 9 10 11 12 13 14 15 16 17 
17 17 18 18 18 19 19 20 20 21 22 22 23 24 24 25 26 
27 27 28 29 30 31 31 32 33 34 35 36 37 38 38 33 33 
32 31 31 30 29 29 28 28 27 26 26 25 25 25 24 24 24 
23 23 23 23 23 23 23 22 21 20 20 19 18 17 16 16 15 
15 14 13 13 13 12 12 12 12 12 12 12 12 12 13 13 13 
14 14 13 13 12 11 10 9 9 8 8 7 7 7 7 7 7 
7 8 8 9 9 10 11 12 13 13 14 15 16 15 14 13 13 
12 11 10 9 8 7 7 6 5 5 5 5 5 5 5 6 7 
7 8 9 10 11 12 13 13 14 15 16 17 18 18 18 19 19 
20 20 21 21 22 22 23 24 24 25 26 26 27 28 29 30 30 
31 32 33 34 34 35 36 37 38 39 34 33 33 32 31 31 30 
30 29 28 28 27 27 26 26 26 25 25 25 24 24 24 24 24 
24 23 23 22 21 20 19 19 18 17 17 16 15 15 14 14 13 
13 13 13 13 13 13 13 13 13 13 14 14 15 15 14 13 12 
12 11 10 10 9 8 8 8 8 8 8 8 8 8 9 10 10 
11 12 12 13 14 15 16 17 16 15 14 13 12 11 10 10 9 
8 7 7 6 6 6 6 6 6 6 7 7 8 9 10 10 11 
12 13 14 15 16 17 18 18 19 19 20 20 21 21 21 22 23 
23 24 24 25 26 26 27 28 29 29 30 31 32 33 33 34 35 
36 37 38 38 39 35 34 33 33 32 32 31 30 30 29 29 28 
28 27 27 26 26 26 25 25 25 25 25 25 25 24 23 22 22 
21 20 19 19 18 17 17 16 16 15 15 14 14 14 14 14 14 
14 14 14 14 14 15 15 16 15 15 14 13 12 12 11 10 10 
9 9 9 9 9 9 9 9 9 10 10 11 12 12 13 14 15 
15 16 17 16 15 14 13 13 12 11 10 9 9 8 8 7 7 
7 7 7 7 7 8 8 9 9 10 11 12 13 13 14 15 16 
17 18 19 20 20 21 21 21 22 22 23 23 24 25 25 26 26 
27 28 29 29 30 31 32 32 33 34 35 36 36 37 38 39 40 
36 35 34 34 33 32 32 31 31 30 30 29 29 28 28 27 27 
27 26 26 26 26 26 26 25 25 24 23 22 21 21 20 19 19 
18 18 17 17 16 16 15 15 15 15 15 15 15 15 15 15 15 
16 16 17 16 15 14 14 13 12 12 11 11 10 10 10 10 10 
10 10 10 10 11 11 12 12 13 14 14 15 16 17 17 17 16 
15 14 13 12 12 11 10 10 9 8 8 8 8 8 8 8 8 
8 9 10 10 11 12 12 13 14 15 16 17 17 18 19 20 21 
22 22 22 23 23 24 24 25 25 26 27 27 28 29 29 30 31 
31 32 33 34 35 35 36 37 38 39 39 40 36 36 35 34 34 
33 33 32 31 31 30 30 29 29 29 28 28 28 27 27 27 27 
27 27 26 25 24 24 23 22 21 21 20 20 19 18 18 17 17 
17 16 16 16 16 16 16 16 16 16 16 16 17 17 17 17 16 
15 14 14 13 13 12 12 11 11 11 11 11 11 11 11 11 12 
12 13 13 14 14 15 16 17 17 18 17 16 15 15 14 13 12 
12 11 10 10 9 9 9 9 9 9 9 9 9 10 10 11 12 
12 13 14 15 15 16 17 18 19 20 21 21 22 23 23 24 24 
25 25 26 26 27 27 28 29 29 30 31 31 32 33 34 34 35 
36 37 38 38 39 40 41 37 36 36 35 35 34 33 33 32 32 
31 31 30 30 30 29 29 29 28 28 28 28 28 27 27 26 25 
24 24 23 22 22 21 20 20 19 19 18 18 18 17 17 17 17 
17 17 17 17 17 17 17 18 18 18 17 16 16 15 15 14 13 
13 13 12 12 12 12 12 12 12 12 12 13 13 13 14 15 15 
16 16 17 18 18 18 17 16 15 14 14 13 12 12 11 11 10 
10 10 10 10 10 10 10 10 11 11 12 12 13 14 14 15 16 
17 18 18 19 20 21 22 23 24 24 25 25 25 26 26 27 28 
28 29 29 30 31 31 32 33 33 34 35 36 37 37 38 39 40 
41 41 38 37 37 36 35 35 34 34 33 33 32 32 31 31 31 
30 30 30 29 29 29 29 29 28 27 26 26 25 24 24 23 22 
22 21 21 20 20 19 19 18 18 18 18 18 18 18 18 18 18 
18 18 18 19 19 18 17 17 16 15 15 14 14 13 13 13 13 
13 13 13 13 13 13 13 14 14 15 15 16 17 17 18 19 19 
18 17 17 16 15 14 14 13 13 12 12 11 11 11 11 11 11 
11 11 11 12 12 13 13 14 14 15 16 17 17 18 19 20 21 
21 22 23 24 25 26 26 26 27 27 28 28 29 30 30 31 31 
32 33 33 34 35 36 36 37 38 39 40 40 41 42 39 38 37 
37 36 36 35 34 34 34 33 33 32 32 31 31 31 31 30 30 
30 30 29 29 28 27 26 26 25 24 24 23 23 22 21 21 21 
20 20 19 19 19 19 19 19 19 19 19 19 19 19 19 20 19 
19 18 17 17 16 16 15 15 14 14 14 14 14 14 14 14 14 
14 14 15 15 16 16 17 17 18 19 19 20 19 18 17 16 16 
15 15 14 13 13 13 12 12 12 12 12 12 12 12 12 13 13 
13 14 15 15 16 16 17 18 19 20 20 21 22 23 24 25 25 
26 27 27 28 28 29 29 30 30 31 32 32 33 33 34 35 36 
36 37 38 39 39 40 41 42 43 39 39 38 38 37 36 36 35 
35 34 34 34 33 33 32 32 32 32 31 31 31 31 30 29 29 
28 27 26 26 25 25 24 23 23 22 22 21 21 21 20 20 20 
20 20 20 20 20 20 20 20 20 20 21 20 19 19 18 18 17 
17 16 16 15 15 15 15 15 15 15 15 15 15 15 16 16 17 
17 18 18 19 19 20 20 19 19 18 17 17 16 15 15 14 14 
13 13 13 13 13 13 13 13 13 13 13 14 14 15 15 16 17 
17 18 19 19 20 21 22 23 23 24 25 26 27 28 28 29 29 
30 30 31 31 32 32 33 34 34 35 36 36 37 38 38 39 40 
41 42 42 43 40 40 39 38 38 37 37 36 36 35 35 34 34 
34 33 33 33 32 32 32 32 31 31 30 29 29 28 27 27 26 
25 25 24 24 23 23 22 22 22 21 21 21 21 21 21 21 21 
21 21 21 21 21 21 21 20 20 19 18 18 17 17 17 16 16 
16 16 16 16 16 16 16 16 16 17 17 17 18 18 19 20 20 
21 21 20 19 19 18 17 17 16 16 15 15 14 14 14 14 14 
14 14 14 14 14 14 15 15 16 16 17 17 18 19 19 20 21 
22 22 23 24 25 26 26 27 28 29 29 30 30 31 31 32 33 
33 34 34 35 36 36 37 38 38 39 40 41 41 42 43 44 41 
40 40 39 39 38 38 37 37 36 36 35 35 35 34 34 34 33 
33 33 33 32 31 31 30 29 29 28 27 27 26 26 25 25 24 
24 23 23 23 22 22 22 22 22 22 22 22 22 22 22 22 22 
22 22 21 20 20 19 19 18 18 18 17 17 17 17 17 17 17 
17 17 17 17 18 18 18 19 19 20 20 21 22 21 21 20 19 
19 18 18 17 17 16 16 15 15 15 15 15 15 15 15 15 15 
15 16 16 17 17 18 18 19 19 20 21 21 22 23 24 25 25 
26 27 28 29 30 30 31 31 32 32 33 33 34 35 35 36 36 
37 38 38 39 40 41 41 42 43 44 44 42 41 41 40 39 39 
38 38 38 37 37 36 36 36 35 35 35 34 34 34 33 33 32 
31 31 30 29 29 28 28 27 26 26 25 25 25 24 24 24 23 
23 23 23 23 23 23 23 23 23 23 23 23 23 22 22 21 21 
20 20 19 19 18 18 18 18 18 18 18 18 18 18 18 18 18 
19 19 20 20 21 21 22 22 22 21 21 20 20 19 18 18 17 
17 17 16 16 16 16 16 16 16 16 16 16 16 17 17 17 18 
18 19 20 20 21 21 22 23 24 24 25 26 27 28 28 29 30 
31 32 32 33 33 34 34 35 35 36 37 37 38 38 39 40 41 
41 42 43 43 44 45 