P2
145 109
74
74 74 73 72 72 71 71 70 69 69 68 68 67 67 66 66 65 
64 63 63 62 61 60 59 59 58 57 56 55 55 54 53 53 52 
51 50 50 49 48 48 47 47 46 45 45 44 44 43 43 42 42 
41 41 40 40 39 39 38 37 36 35 34 33 32 31 30 29 28 
27 26 25 24 23 22 21 20 19 18 18 17 16 15 14 13 12 
11 10 10 9 8 7 7 6 6 6 6 6 6 6 7 7 8 
9 10 10 11 12 13 14 15 16 17 18 18 19 20 21 22 23 
24 25 26 26 25 24 24 23 22 22 21 20 20 19 19 18 18 
18 17 17 17 17 17 17 17 17 73 73 72 72 71 70 70 69 
69 68 67 67 66 66 65 65 64 64 63 62 61 60 60 59 58 
57 56 56 55 54 53 53 52 51 50 50 49 48 48 47 46 46 
45 45 44 43 43 42 42 41 41 40 40 39 39 39 38 38 37 
36 35 34 33 32 31 30 29 28 27 26 25 24 23 22 21 20 
19 18 17 16 15 14 13 13 12 11 10 9 8 7 7 6 5 
5 5 5 5 5 5 6 7 7 8 9 10 11 12 13 13 14 
15 16 17 18 19 20 21 22 23 24 25 26 25 24 24 23 22 
21 21 20 20 19 18 18 17 17 17 16 16 16 16 16 16 16 
16 73 72 71 71 70 70 69 68 68 67 67 66 66 65 65 64 
64 63 62 61 61 60 59 58 57 57 56 55 54 53 53 52 51 
50 50 49 48 48 47 46 46 45 44 44 43 43 42 41 41 40 
40 39 39 38 38 38 37 37 36 36 35 34 33 32 31 30 29 
28 27 26 25 24 23 22 21 20 19 18 17 16 15 14 13 12 
11 10 9 8 8 7 6 5 5 4 4 4 4 4 5 5 6 
7 8 8 9 10 11 12 13 14 15 16 17 18 19 20 21 22 
23 24 25 25 25 24 23 22 21 21 20 19 19 18 18 17 17 
16 16 15 15 15 15 15 15 15 15 72 71 71 70 69 69 68 
68 67 66 66 65 65 64 64 63 63 62 62 61 60 59 58 58 
57 56 55 54 54 53 52 51 50 50 49 48 48 47 46 46 45 
44 44 43 42 42 41 41 40 39 39 38 38 38 37 37 36 36 
36 35 34 33 33 32 31 30 29 28 27 26 25 24 23 22 21 
20 19 18 17 16 15 14 13 12 11 10 9 8 7 6 5 5 
4 3 3 3 3 3 4 5 5 6 7 8 9 10 11 12 13 
14 15 16 17 18 19 20 21 22 23 24 25 25 24 23 22 22 
21 20 19 19 18 17 17 16 16 15 15 14 14 14 14 14 14 
14 14 71 70 70 69 69 68 67 67 66 66 65 64 64 63 63 
62 62 61 61 60 59 59 58 57 56 55 55 54 53 52 51 51 
50 49 48 48 47 46 45 45 44 43 43 42 42 41 40 40 39 
39 38 38 37 37 36 36 35 35 35 34 34 33 32 31 31 30 
29 28 27 26 25 24 23 22 21 20 19 18 17 16 15 14 13 
12 11 10 9 8 7 6 5 4 3 2 2 2 2 2 3 4 
5 6 7 8 9 10 11 12 13 14 15 16 17 18 19 20 21 
22 23 24 25 24 23 23 22 21 20 19 19 18 17 17 16 15 
15 14 14 13 13 13 13 13 13 13 13 70 70 69 68 68 67 
67 66 65 65 64 64 63 62 62 61 61 60 60 59 59 58 57 
56 56 55 54 53 52 52 51 50 49 48 48 47 46 45 45 44 
43 43 42 41 41 40 40 39 38 38 37 37 36 36 35 35 34 
34 34 33 33 32 31 31 30 29 29 28 27 26 25 24 23 22 
21 20 19 18 17 16 15 14 13 12 11 10 9 8 7 6 5 
4 3 2 1 1 1 2 3 4 5 6 7 8 9 10 11 12 
13 14 15 16 17 18 19 20 21 22 23 24 25 24 23 22 21 
20 20 19 18 17 16 16 15 15 14 13 13 13 12 12 12 12 
12 12 12 70 69 68 68 67 66 66 65 65 64 63 63 62 62 
61 61 60 60 59 59 58 57 57 56 55 54 53 53 52 51 50 
49 49 48 47 46 46 45 44 43 43 42 41 41 40 39 39 38 
38 37 36 36 35 35 34 34 34 33 33 32 32 32 31 30 29 
29 28 27 26 26 25 24 23 22 21 20 19 18 17 16 15 14 
13 12 11 10 9 8 7 6 5 4 3 2 1 0 1 2 3 
4 5 6 7 8 9 10 11 12 13 14 15 16 17 18 19 20 
21 22 23 24 24 23 22 21 21 20 19 18 17 17 16 15 14 
14 13 13 12 12 11 11 11 11 11 11 11 69 68 68 67 66 
66 65 64 64 63 63 62 61 61 60 60 59 59 58 58 57 57 
56 55 54 54 53 52 51 50 50 49 48 47 46 46 45 44 43 
43 42 41 41 40 39 39 38 37 37 36 36 35 34 34 34 33 
33 32 32 31 31 31 30 29 29 28 27 26 26 25 24 24 23 
22 21 20 19 18 17 16 15 14 13 12 11 10 9 8 7 6 
5 4 3 2 1 1 1 2 3 4 5 6 7 8 9 10 11 
12 13 14 15 16 17 18 19 20 21 22 23 24 24 23 22 21 
20 19 18 18 17 16 15 14 14 13 12 12 11 11 10 10 10 
10 10 10 10 68 67 67 66 65 65 64 64 63 62 62 61 61 
60 59 59 58 58 57 57 56 56 55 55 54 53 52 51 51 50 
49 48 47 47 46 45 44 43 43 42 41 41 40 39 38 38 37 
37 36 35 35 34 34 33 33 32 32 31 31 31 30 30 30 29 
28 27 26 26 25 24 24 23 22 22 21 20 19 18 17 16 15 
14 13 12 11 10 9 8 7 6 5 4 3 2 2 2 2 2 
3 4 5 6 7 8 9 10 11 12 13 14 15 16 17 18 19 
20 21 22 23 24 23 22 21 21 20 19 18 17 16 15 15 14 
13 12 12 11 10 10 9 9 9 9 9 9 9 67 67 66 65 
65 64 63 63 62 62 61 60 60 59 59 58 57 57 56 56 55 
55 55 54 53 53 52 51 50 49 48 48 47 46 45 44 44 43 
42 41 41 40 39 38 38 37 36 36 35 35 34 33 33 32 32 
31 31 30 30 30 29 29 29 28 27 27 26 25 24 24 23 22 
22 21 20 20 19 18 17 16 15 14 13 12 11 10 9 8 7 
6 5 5 4 3 3 3 3 3 4 5 5 6 7 8 9 10 
11 12 13 14 15 16 17 18 19 20 21 22 23 24 23 22 21 
20 19 18 17 17 16 15 14 13 12 12 11 10 10 9 8 8 
8 8 8 8 8 67 66 65 65 64 63 63 62 61 61 60 60 
59 58 58 57 57 56 56 55 55 54 54 53 53 52 51 50 49 
49 48 47 46 45 45 44 43 42 41 41 40 39 38 38 37 36 
36 35 34 34 33 33 32 31 31 30 30 29 29 29 28 28 28 
27 27 26 25 24 24 23 22 21 21 20 20 19 18 18 17 16 
15 14 13 12 11 10 9 8 8 7 6 5 5 4 4 4 4 
4 5 5 6 7 8 8 9 10 11 12 13 14 15 16 17 18 
19 20 21 22 23 24 23 22 21 20 19 18 17 16 15 14 13 
13 12 11 10 9 9 8 8 7 7 7 7 7 7 66 65 65 
64 63 63 62 61 61 60 59 59 58 58 57 56 56 55 55 54 
54 53 53 52 52 51 51 50 49 48 47 46 46 45 44 43 42 
42 41 40 39 38 38 37 36 36 35 34 34 33 32 32 31 31 
30 30 29 29 28 28 27 27 27 26 26 25 25 24 23 22 21 
21 20 19 19 18 18 17 17 16 15 14 13 13 12 11 10 9 
8 7 7 6 5 5 5 5 5 5 5 6 7 7 8 9 10 
11 12 13 13 14 15 16 17 18 19 20 21 22 23 23 22 21 
20 19 18 18 17 16 15 14 13 12 11 10 10 9 8 7 7 
6 6 6 6 6 6 65 65 64 63 62 62 61 60 60 59 59 
58 57 57 56 56 55 54 54 53 53 52 52 51 51 50 50 49 
48 48 47 46 45 44 43 43 42 41 40 39 39 38 37 36 36 
35 34 33 33 32 32 31 30 30 29 29 28 28 27 27 26 26 
26 25 25 25 24 23 22 22 21 20 19 19 18 17 17 16 16 
15 15 14 14 13 12 11 10 10 9 8 7 7 6 6 6 6 
6 6 6 7 7 8 9 10 10 11 12 13 14 15 16 17 18 
18 19 20 21 22 23 23 22 21 20 19 18 17 16 15 14 13 
13 12 11 10 9 8 7 7 6 5 5 5 5 5 5 65 64 
63 62 62 61 60 60 59 58 58 57 57 56 55 55 54 54 53 
53 52 51 51 51 50 50 49 49 48 47 46 45 44 44 43 42 
41 40 40 39 38 37 36 36 35 34 33 33 32 31 31 30 30 
29 28 28 27 27 26 26 26 25 25 25 24 24 23 23 22 21 
20 19 19 18 17 17 16 15 15 14 14 13 13 13 13 12 11 
10 9 9 8 8 7 7 7 7 7 7 7 8 8 9 9 10 
11 12 13 13 14 15 16 17 18 19 20 21 22 23 24 23 22 
21 20 19 18 17 16 15 14 13 12 11 10 9 8 8 7 6 
5 5 4 4 4 4 4 64 63 62 62 61 60 60 59 58 58 
57 56 56 55 55 54 53 53 52 52 51 51 50 50 49 49 48 
48 47 47 46 45 44 43 42 41 41 40 39 38 37 37 36 35 
34 33 33 32 31 31 30 29 29 28 28 27 26 26 25 25 25 
24 24 24 23 23 23 22 21 20 20 19 18 17 16 16 15 15 
14 13 13 13 12 12 12 12 12 11 10 10 9 8 8 8 8 
8 8 8 8 8 9 10 10 11 12 12 13 14 15 16 17 17 
18 19 20 21 22 23 24 23 22 21 20 19 18 17 16 15 14 
13 12 11 10 9 8 7 6 5 5 4 3 3 3 3 3 63 
62 62 61 60 60 59 58 58 57 56 56 55 54 54 53 53 52 
51 51 50 50 49 49 48 48 47 47 47 46 45 44 43 43 42 
41 40 39 38 38 37 36 35 34 34 33 32 31 31 30 29 29 
28 27 27 26 26 25 25 24 24 23 23 23 22 22 22 21 21 
20 19 18 17 17 16 15 14 14 13 13 12 12 11 11 11 11 
11 11 11 10 10 9 9 9 9 9 9 9 9 9 10 10 11 
12 12 13 14 15 15 16 17 18 19 20 21 21 22 23 24 23 
22 21 20 19 18 17 16 15 14 13 12 11 10 9 8 7 6 
5 4 3 2 2 2 2 2 63 62 61 60 60 59 58 58 57 
56 55 55 54 54 53 52 52 51 51 50 49 49 48 48 47 47 
46 46 46 45 45 44 43 42 41 40 39 39 38 37 36 35 35 
34 33 32 31 31 30 29 29 28 27 27 26 25 25 24 24 23 
23 22 22 22 21 21 21 21 20 19 18 18 17 16 15 14 14 
13 12 12 11 11 10 10 10 10 10 10 10 10 10 10 10 10 
10 10 10 10 10 10 11 11 12 12 13 14 14 15 16 17 18 
18 19 20 21 22 23 24 24 23 22 21 20 19 18 17 16 15 
14 13 12 11 10 9 8 7 6 5 4 3 2 1 1 1 2 
62 61 60 60 59 58 57 57 56 55 55 54 53 53 52 52 51 
50 50 49 49 48 48 47 47 46 46 45 45 44 44 43 42 42 
41 40 39 38 37 36 36 35 34 33 32 32 31 30 29 29 28 
27 26 26 25 25 24 23 23 22 22 21 21 21 20 20 20 20 
20 19 18 17 16 15 15 14 13 12 12 11 10 10 9 9 9 
9 9 9 9 9 9 9 9 9 9 9 10 10 11 11 12 12 
13 13 14 14 15 16 17 17 18 19 20 21 21 22 23 24 24 
23 22 21 20 19 18 17 16 15 14 13 12 11 10 9 8 7 
6 5 4 3 2 1 0 1 2 61 60 60 59 58 58 57 56 
55 55 54 53 53 52 51 51 50 50 49 48 48 47 47 46 46 
45 45 44 44 43 43 43 42 41 40 39 38 38 37 36 35 34 
33 33 32 31 30 29 29 28 27 26 26 25 24 24 23 23 22 
21 21 21 20 20 19 19 19 19 19 18 17 17 16 15 14 13 
12 12 11 10 10 9 8 8 8 8 8 8 8 8 8 8 8 
8 8 8 9 10 10 11 12 12 13 14 15 15 16 16 17 18 
19 20 20 21 22 23 24 25 24 23 22 21 20 19 18 17 16 
15 14 13 12 11 10 9 8 7 6 5 4 3 2 1 1 1 
2 61 60 59 58 58 57 56 55 55 54 53 53 52 51 51 50 
49 49 48 48 47 46 46 45 45 44 44 43 43 42 42 42 41 
41 40 39 38 37 36 35 34 34 33 32 31 30 30 29 28 27 
26 26 25 24 24 23 22 22 21 21 20 20 19 19 18 18 18 
18 18 18 17 16 15 14 13 13 12 11 10 9 9 8 8 7 
7 7 7 7 7 7 7 7 7 7 7 8 8 9 9 10 11 
12 13 13 14 15 16 17 18 19 19 20 21 22 23 23 24 25 
24 23 22 21 20 19 18 17 16 15 14 13 12 11 10 9 8 
7 6 5 4 3 2 2 2 2 2 60 59 58 58 57 56 55 
55 54 53 53 52 51 50 50 49 49 48 47 47 46 46 45 44 
44 43 43 42 42 42 41 41 40 40 39 38 38 37 36 35 34 
33 32 31 31 30 29 28 27 27 26 25 24 24 23 22 22 21 
20 20 19 19 18 18 18 17 17 17 17 17 17 16 15 14 13 
12 11 10 10 9 8 7 7 6 6 6 6 6 6 6 6 6 
6 6 6 7 7 8 9 10 10 11 12 13 14 15 16 17 18 
18 19 20 21 22 23 24 25 25 24 23 22 21 20 19 18 17 
16 15 14 13 12 11 10 9 8 7 6 5 5 4 3 3 3 
3 3 59 59 58 57 56 55 55 54 53 53 52 51 50 50 49 
48 48 47 47 46 45 45 44 44 43 43 42 42 41 41 40 40 
39 39 39 38 37 36 35 34 34 33 32 31 30 29 28 28 27 
26 25 24 24 23 22 21 21 20 20 19 18 18 17 17 17 16 
16 16 16 16 16 15 14 13 13 12 11 10 9 8 7 7 6 
5 5 5 5 5 5 5 5 5 5 5 5 6 7 7 8 9 
10 11 12 13 13 14 15 16 17 18 19 20 21 22 23 24 25 
25 24 23 22 21 20 19 18 17 16 15 14 13 12 11 10 9 
8 8 7 6 5 5 4 4 4 4 4 59 58 57 56 56 55 
54 53 53 52 51 50 50 49 48 48 47 46 46 45 45 44 43 
43 42 42 41 41 40 40 39 39 39 38 38 37 37 36 35 34 
33 32 31 30 30 29 28 27 26 25 25 24 23 22 21 21 20 
19 19 18 18 17 17 16 16 15 15 15 15 15 15 15 14 13 
12 11 10 9 8 8 7 6 5 5 4 4 4 4 4 4 4 
4 4 4 5 5 6 7 8 8 9 10 11 12 13 14 15 16 
17 18 19 20 21 22 23 24 25 25 24 23 22 21 20 19 18 
17 16 15 14 13 13 12 11 10 9 8 7 7 6 5 5 5 
5 5 5 58 57 57 56 55 54 53 53 52 51 50 50 49 48 
48 47 46 46 45 44 44 43 43 42 41 41 40 40 39 39 38 
38 38 37 37 37 36 35 34 34 33 32 31 30 29 28 27 26 
26 25 24 23 22 22 21 20 19 19 18 17 17 16 16 15 15 
14 14 14 14 14 14 14 14 13 12 11 10 9 8 7 6 5 
5 4 3 3 3 3 3 3 3 3 3 3 4 5 5 6 7 
8 9 10 11 12 13 14 15 16 17 18 18 19 20 21 22 23 
24 25 24 23 22 21 20 19 18 18 17 16 15 14 13 12 11 
10 10 9 8 7 7 6 6 6 6 6 6 58 57 56 55 54 
54 53 52 51 50 50 49 48 48 47 46 46 45 44 44 43 42 
42 41 41 40 39 39 38 38 38 37 37 36 36 36 35 35 34 
33 32 31 30 29 29 28 27 26 25 24 23 23 22 21 20 19 
19 18 17 17 16 15 15 14 14 13 13 13 13 13 13 13 13 
13 12 11 10 9 8 7 6 5 4 3 2 2 2 2 2 2 
2 2 2 2 3 4 5 6 7 8 9 10 11 12 13 13 14 
15 16 17 18 19 20 21 22 23 24 25 25 24 23 22 21 20 
19 18 17 16 15 14 13 13 12 11 10 9 9 8 8 7 7 
7 7 7 7 57 56 55 55 54 53 52 51 51 50 49 48 48 
47 46 45 45 44 43 43 42 42 41 40 40 39 39 38 38 37 
37 36 36 35 35 35 34 34 34 33 32 31 30 29 28 27 26 
25 25 24 23 22 21 20 20 19 18 17 16 16 15 15 14 13 
13 13 12 12 12 12 12 12 12 12 12 11 10 9 8 7 6 
5 4 3 2 1 1 1 1 1 1 1 1 2 3 4 5 6 
7 8 8 9 10 11 12 13 14 15 16 17 18 19 20 21 22 
23 24 25 25 24 23 22 21 20 19 18 17 17 16 15 14 13 
12 12 11 10 10 9 8 8 8 8 8 8 8 56 56 55 54 
53 52 52 51 50 49 48 48 47 46 45 45 44 43 43 42 41 
41 40 40 39 38 38 37 37 36 36 35 35 34 34 34 33 33 
33 32 31 31 30 29 28 27 26 25 24 23 22 21 21 20 19 
18 17 17 16 15 14 14 13 13 12 12 11 11 11 11 11 11 
11 11 11 11 10 9 8 7 6 5 4 3 2 1 0 1 0 
1 1 0 1 2 3 4 5 5 6 7 8 9 10 11 12 13 
14 15 16 17 18 19 20 21 22 23 24 25 25 24 23 22 21 
21 20 19 18 17 16 15 15 14 13 12 12 11 10 10 9 9 
9 9 9 9 9 56 55 54 53 53 52 51 50 49 49 48 47 
46 46 45 44 43 43 42 41 41 40 39 39 38 38 37 36 36 
35 35 34 34 34 33 33 32 32 32 32 31 30 29 28 27 26 
26 25 24 23 22 21 20 19 18 18 17 16 15 14 14 13 12 
12 11 11 10 10 10 10 10 10 10 10 10 11 10 9 8 7 
6 5 4 3 2 1 1 1 1 1 1 1 1 2 2 3 4 
5 6 7 8 9 10 11 12 13 14 15 16 17 18 19 20 21 
22 23 24 25 26 25 24 23 22 21 20 19 18 18 17 16 15 
14 14 13 12 12 11 11 10 10 10 10 10 10 10 55 54 54 
53 52 51 50 50 49 48 47 46 46 45 44 43 43 42 41 41 
40 39 39 38 37 37 36 36 35 34 34 34 33 33 32 32 31 
31 31 31 30 30 29 28 27 26 25 24 23 22 21 21 20 19 
18 17 16 15 15 14 13 12 12 11 10 10 9 9 9 9 9 
9 9 9 9 10 10 9 8 7 6 5 4 3 2 2 2 2 
2 2 2 1 1 1 2 3 4 5 6 7 8 9 10 11 12 
13 14 15 16 17 18 19 20 21 22 23 24 25 26 25 24 23 
22 21 21 20 19 18 17 17 16 15 14 14 13 13 12 12 11 
11 11 11 11 11 11 55 54 53 52 51 51 50 49 48 47 47 
46 45 44 43 43 42 41 41 40 39 38 38 37 37 36 35 35 
34 34 33 33 32 32 31 31 31 30 30 30 29 29 29 28 27 
26 25 24 23 22 21 20 19 18 17 17 16 15 14 13 12 12 
11 10 10 9 8 8 8 8 8 8 8 8 8 9 10 9 8 
7 6 5 5 4 3 3 3 3 3 3 2 1 0 1 2 3 
4 5 6 7 8 9 10 11 12 13 14 15 16 17 18 19 20 
21 21 22 23 24 25 25 25 24 23 22 21 20 20 19 18 17 
16 16 15 15 14 13 13 13 12 12 12 12 12 12 12 54 53 
53 52 51 50 49 48 48 47 46 45 44 44 43 42 41 41 40 
39 38 38 37 36 36 35 35 34 33 33 32 32 31 31 30 30 
30 29 29 29 28 28 28 27 26 25 25 24 23 22 21 20 19 
18 17 16 15 14 13 13 12 11 10 9 9 8 8 7 7 7 
7 7 7 7 8 8 9 9 8 8 7 6 5 5 4 4 4 
4 4 3 2 1 1 1 2 3 4 5 6 7 8 9 10 11 
12 13 14 15 16 17 17 18 19 20 21 22 23 24 25 26 25 
24 23 23 22 21 20 19 19 18 17 17 16 15 15 14 14 13 
13 13 13 13 13 13 13 54 53 52 51 50 49 49 48 47 46 
45 45 44 43 42 41 41 40 39 38 38 37 36 36 35 34 34 
33 33 32 31 31 30 30 29 29 29 28 28 28 27 27 27 27 
26 25 24 23 22 21 20 19 18 18 17 16 15 14 13 12 11 
10 10 9 8 7 7 6 6 6 6 6 6 6 7 7 8 9 
9 8 7 7 6 5 5 5 5 5 4 3 2 2 2 2 2 
3 4 5 6 7 8 9 10 11 12 13 13 14 15 16 17 18 
19 20 21 22 23 24 25 25 25 25 24 23 22 22 21 20 19 
19 18 17 17 16 16 15 15 14 14 14 14 14 14 14 14 53 
52 51 51 50 49 48 47 46 46 45 44 43 42 42 41 40 39 
38 38 37 36 36 35 34 34 33 32 32 31 31 30 30 29 29 
28 28 27 27 27 26 26 26 26 26 25 24 23 22 21 20 19 
18 17 16 15 14 13 13 12 11 10 9 8 7 7 6 5 5 
5 5 5 5 5 6 7 7 8 9 9 8 7 7 6 6 6 
6 5 5 4 3 3 3 3 3 4 5 5 6 7 8 9 10 
10 11 12 13 14 15 16 17 18 18 19 20 21 22 23 24 25 
24 24 23 23 23 22 21 21 20 19 19 18 18 17 17 16 16 
15 15 15 15 15 15 15 15 53 52 51 50 49 48 48 47 46 
45 44 43 43 42 41 40 39 39 38 37 36 36 35 34 33 33 
32 32 31 30 30 29 29 28 28 27 27 26 26 26 25 25 25 
25 25 25 24 23 22 21 20 19 18 17 16 15 14 13 12 11 
10 9 8 8 7 6 5 5 4 4 4 4 4 5 5 6 7 
8 8 9 9 8 8 7 7 7 7 6 5 5 4 4 4 4 
4 5 5 5 6 7 7 8 9 10 11 12 13 13 14 15 16 
17 18 19 20 21 22 23 24 24 23 23 22 22 22 21 21 21 
21 20 20 19 18 18 17 17 17 16 16 16 16 16 16 16 16 
52 51 51 50 49 48 47 46 45 44 44 43 42 41 40 40 39 
38 37 36 36 35 34 33 33 32 31 31 30 30 29 28 28 27 
27 26 26 26 25 25 25 24 24 24 24 24 24 23 22 21 20 
19 18 17 16 15 14 13 12 11 10 9 8 7 6 5 5 4 
3 3 3 3 3 4 5 5 6 7 8 9 10 9 8 8 8 
8 7 7 6 5 5 5 4 4 4 4 4 5 5 6 7 8 
8 9 10 11 12 13 14 15 16 17 18 19 20 21 22 23 23 
23 22 22 21 21 21 20 20 20 20 20 20 20 19 19 18 18 
18 17 17 17 17 17 17 17 17 51 50 50 49 48 47 47 46 
45 44 43 42 41 41 40 39 38 37 37 36 35 34 33 33 32 
31 31 30 29 29 28 28 27 26 26 25 25 25 24 24 24 23 
23 23 23 23 23 23 22 21 20 19 18 17 16 15 14 13 12 
11 10 9 8 7 6 5 4 3 2 2 2 2 2 3 4 5 
6 7 8 9 9 9 9 9 9 9 8 7 6 5 5 4 3 
3 3 3 3 4 5 5 6 7 8 9 10 11 12 13 14 15 
16 17 18 19 20 21 22 23 23 22 21 21 21 20 20 19 19 
19 19 19 19 19 19 19 19 19 18 18 18 18 18 18 18 18 
18 50 50 49 48 48 47 46 45 44 43 43 42 41 40 39 38 
38 37 36 35 34 34 33 32 31 31 30 29 29 28 27 27 26 
26 25 25 24 24 23 23 23 22 22 22 22 22 22 22 22 21 
20 19 18 17 16 15 14 13 12 11 10 9 8 7 6 5 4 
3 2 1 1 1 2 3 4 5 6 7 8 8 8 8 8 8 
8 8 8 7 6 5 4 3 2 2 2 2 2 3 4 5 6 
7 8 9 10 11 12 13 14 15 16 17 18 19 20 21 22 22 
22 21 21 20 20 19 19 18 18 18 18 18 18 18 18 18 18 
18 18 18 19 19 19 19 19 19 19 49 49 48 48 47 46 46 
45 44 43 42 41 40 39 39 38 37 36 35 35 34 33 32 31 
31 30 29 29 28 27 27 26 25 25 24 24 23 23 22 22 22 
21 21 21 21 21 21 21 21 21 20 19 18 17 16 15 14 13 
12 11 10 9 8 7 6 5 4 3 2 1 0 1 2 3 4 
5 6 7 8 7 7 7 7 7 7 7 8 7 6 5 4 3 
2 1 1 1 2 3 4 5 6 7 8 9 10 11 12 13 14 
15 16 17 18 19 20 21 22 22 21 20 20 19 19 18 18 18 
17 17 17 17 17 17 17 17 17 17 17 18 18 18 19 19 20 
20 20 49 48 47 47 46 46 45 44 43 42 42 41 40 39 38 
37 36 36 35 34 33 32 32 31 30 29 29 28 27 26 26 25 
25 24 23 23 22 22 21 21 21 20 20 20 20 20 20 20 20 
20 20 19 18 17 16 15 14 13 12 11 10 9 8 7 6 5 
4 3 2 1 1 1 2 3 4 5 6 7 7 6 6 6 6 
6 6 6 7 7 6 5 4 3 2 1 0 1 2 3 4 5 
6 7 8 9 10 11 12 13 14 15 16 17 18 19 20 21 21 
21 20 20 19 18 18 17 17 17 16 16 16 16 16 16 16 16 
16 16 16 17 17 17 18 18 19 20 20 48 47 47 46 45 45 
44 44 43 42 41 40 39 38 38 37 36 35 34 33 33 32 31 
30 29 29 28 27 26 26 25 24 24 23 23 22 21 21 21 20 
20 19 19 19 19 19 19 19 19 19 19 19 18 17 16 15 14 
13 12 11 10 9 8 7 6 5 4 3 2 2 2 2 2 3 
4 5 6 7 6 5 5 5 5 5 5 5 6 7 6 5 4 
3 2 1 1 1 2 3 4 5 6 7 8 9 10 11 12 13 
14 15 16 17 18 19 20 21 21 20 19 19 18 18 17 17 16 
16 15 15 15 15 15 15 15 15 15 15 15 16 16 17 17 18 
18 19 19 47 46 46 45 45 44 43 43 42 42 41 40 39 38 
37 36 35 34 34 33 32 31 30 30 29 28 27 26 26 25 24 
24 23 22 22 21 21 20 20 19 19 18 18 18 18 18 18 18 
18 18 18 18 18 17 16 15 14 13 12 11 10 9 8 7 6 
5 5 4 3 3 3 3 3 4 5 5 6 6 5 5 4 4 
4 4 4 5 5 6 6 5 4 3 2 2 2 2 2 3 4 
5 6 7 8 9 10 11 12 13 14 15 16 17 18 19 20 21 
20 19 19 18 17 17 16 16 15 15 14 14 14 14 14 14 14 
14 14 14 14 15 15 16 16 17 17 18 19 46 46 45 44 44 
43 43 42 41 41 40 39 38 38 37 36 35 34 33 32 31 31 
30 29 28 27 27 26 25 24 24 23 22 22 21 20 20 19 19 
18 18 18 17 17 17 17 17 17 17 17 17 17 17 17 16 15 
14 13 12 11 10 9 8 8 7 6 5 5 4 4 4 4 4 
5 5 6 6 5 5 4 3 3 3 3 3 4 5 5 6 5 
5 4 3 3 3 3 3 4 5 5 6 7 8 9 10 11 12 
13 14 15 16 17 18 19 20 20 19 19 18 17 17 16 15 15 
14 14 13 13 13 13 13 13 13 13 13 13 13 14 14 15 15 
16 17 17 18 46 45 44 44 43 42 42 41 41 40 39 39 38 
37 36 35 34 34 33 32 31 30 29 28 28 27 26 25 24 24 
23 22 21 21 20 20 19 18 18 17 17 17 16 16 16 16 16 
16 16 16 16 16 16 16 16 15 14 13 13 12 11 10 9 8 
7 7 6 5 5 5 5 5 5 5 6 7 6 5 4 3 2 
2 2 2 2 3 4 5 6 6 5 5 4 4 4 4 4 5 
5 6 7 8 8 9 10 11 12 13 14 15 16 17 18 19 20 
20 19 18 17 16 16 15 15 14 13 13 13 12 12 12 12 12 
12 12 12 12 13 13 13 14 15 15 16 16 17 45 44 43 43 
42 42 41 40 40 39 39 38 38 37 36 35 34 33 32 31 30 
30 29 28 27 26 25 25 24 23 22 21 21 20 19 19 18 18 
17 17 16 16 15 15 15 15 15 15 15 15 15 15 15 15 15 
15 15 14 13 12 11 10 10 9 8 7 7 6 6 6 6 6 
6 6 7 7 6 5 4 3 2 1 1 1 2 3 4 5 6 
7 6 5 5 5 5 5 5 5 6 7 7 8 9 10 11 12 
13 13 14 15 16 17 18 19 20 19 18 17 17 16 15 14 14 
13 13 12 12 11 11 11 11 11 11 11 11 11 12 12 13 13 
14 14 15 16 17 44 43 43 42 41 41 40 40 39 38 38 37 
37 36 35 34 34 33 32 31 30 29 28 27 26 26 25 24 23 
22 22 21 20 19 19 18 17 17 16 16 15 15 14 14 14 14 
14 14 14 14 14 14 14 14 14 14 14 14 13 13 12 11 10 
9 9 8 8 7 7 7 7 7 7 7 8 7 6 5 4 3 
2 1 0 1 2 3 4 5 6 7 7 6 6 6 6 6 6 
6 7 7 8 9 10 10 11 12 13 14 15 16 17 18 18 19 
19 18 18 17 16 15 14 14 13 12 12 11 11 10 10 10 10 
10 10 10 10 10 11 11 12 12 13 14 14 15 16 43 43 42 
41 41 40 39 39 38 38 37 36 36 35 35 34 33 32 31 30 
29 29 28 27 26 25 24 23 23 22 21 20 19 19 18 17 17 
16 15 15 14 14 13 13 13 13 13 13 13 13 13 13 13 13 
13 13 13 13 13 13 12 12 11 10 10 9 8 8 8 8 8 
8 8 8 8 7 6 5 4 3 2 1 1 1 2 3 4 5 
6 7 8 7 7 7 7 7 7 7 8 8 9 9 10 11 12 
13 13 14 15 16 17 18 19 20 19 18 17 16 15 15 14 13 
12 12 11 10 10 9 9 9 9 9 9 9 9 9 10 10 11 
12 12 13 14 15 15 43 42 41 41 40 39 39 38 37 37 36 
36 35 34 34 34 33 32 31 30 29 28 27 26 25 25 24 23 
22 21 20 20 19 18 17 16 16 15 15 14 13 13 13 12 12 
12 12 12 12 12 12 12 12 12 12 12 12 12 12 12 12 12 
12 11 10 10 9 9 9 9 9 9 9 9 8 7 6 5 4 
3 2 2 2 2 2 3 4 5 6 7 8 8 8 8 8 8 
8 8 8 9 10 10 11 12 12 13 14 15 16 17 17 18 19 
19 18 17 17 16 15 14 13 12 12 11 10 10 9 8 8 8 
8 8 8 8 8 8 9 10 10 11 12 12 13 14 15 42 41 
41 40 39 38 38 37 37 36 35 35 34 34 33 33 32 31 31 
30 29 28 27 26 25 24 23 22 21 21 20 19 18 17 17 16 
15 14 14 13 13 12 12 11 11 11 11 11 11 11 11 11 11 
11 11 11 11 11 11 11 11 12 12 12 11 11 10 10 10 10 
10 10 10 9 8 7 6 5 5 4 3 3 3 3 3 4 5 
5 6 7 8 8 8 8 8 8 8 9 9 10 10 11 12 12 
13 14 15 15 16 17 18 19 20 19 18 17 16 15 14 13 13 
12 11 10 9 9 8 8 7 7 7 7 7 7 7 8 8 9 
9 10 11 12 13 13 14 41 41 40 39 38 38 37 36 36 35 
35 34 33 33 32 32 31 31 30 29 28 27 26 26 25 24 23 
22 21 20 19 18 18 17 16 15 14 14 13 12 12 11 11 10 
10 10 10 10 10 10 10 10 10 10 10 10 10 10 10 10 10 
11 11 12 12 12 11 11 11 11 11 11 10 9 8 8 7 6 
5 5 4 4 4 4 4 5 5 6 7 7 7 7 7 7 7 
7 8 8 9 9 10 11 12 13 13 14 15 16 17 18 18 19 
19 18 18 17 16 15 14 13 12 11 10 10 9 8 7 7 6 
6 6 6 6 6 6 7 7 8 9 10 10 11 12 13 14 41 
40 39 38 38 37 36 36 35 34 34 33 33 32 31 31 30 30 
29 29 28 27 26 25 24 23 22 21 21 20 19 18 17 16 15 
15 14 13 12 12 11 10 10 9 9 9 9 9 9 9 9 9 
9 9 9 9 9 9 9 9 9 10 10 11 12 12 12 12 12 
12 12 12 11 10 9 8 7 7 6 5 5 5 5 5 5 5 
6 7 7 6 6 6 6 6 6 6 7 7 8 9 10 10 11 
12 13 14 15 16 17 18 18 19 19 18 17 16 15 14 13 13 
12 11 10 9 8 7 7 6 5 5 5 5 5 5 5 6 7 
7 8 9 10 11 12 13 13 40 39 38 38 37 36 36 35 34 
34 33 32 32 31 31 30 30 29 29 28 28 27 26 25 24 23 
22 21 20 19 18 17 17 16 15 14 13 12 12 11 10 10 9 
8 8 8 8 8 8 8 8 8 8 8 8 8 8 8 8 8 
8 9 10 10 11 12 12 13 13 13 13 12 11 10 10 9 8 
7 7 6 6 6 6 6 6 6 7 7 6 5 5 5 5 5 
5 5 6 7 7 8 9 10 11 12 13 13 14 15 16 17 18 
19 19 18 17 16 15 14 13 12 11 10 9 8 8 7 6 5 
5 4 4 4 4 4 5 5 6 7 8 8 9 10 11 12 13 
39 39 38 37 36 36 35 34 33 33 32 32 31 30 30 29 29 
28 28 27 27 26 25 25 24 23 22 21 20 19 18 17 16 15 
14 13 13 12 11 10 9 9 8 8 7 7 7 7 7 7 7 
7 8 7 7 7 7 7 7 7 8 8 9 9 10 11 12 13 
13 14 13 13 12 11 10 9 9 8 8 7 7 7 7 7 7 
7 7 6 5 5 4 4 4 4 4 5 5 6 7 8 8 9 
10 11 12 13 14 15 16 17 18 19 19 18 17 16 15 14 13 
12 11 10 9 8 7 6 5 5 4 3 3 3 3 3 4 5 
5 6 7 8 9 10 11 12 13 39 38 37 36 36 35 34 33 
33 32 31 31 30 30 29 28 28 27 27 26 26 26 25 24 23 
22 21 20 19 18 18 17 16 15 14 13 12 11 10 10 9 8 
7 7 6 6 6 6 6 6 6 6 7 6 6 6 6 6 6 
6 7 7 8 9 10 10 11 12 13 14 14 13 12 12 11 10 
10 9 8 8 8 8 8 8 8 7 6 5 5 4 3 3 3 
3 3 4 5 5 6 7 8 9 10 11 12 13 14 15 16 17 
18 19 19 18 17 16 15 14 13 12 11 10 9 8 7 6 5 
4 3 2 2 2 2 2 3 4 5 6 7 8 9 10 11 12 
13 38 37 37 36 35 34 33 33 32 31 31 30 29 29 28 28 
27 26 26 25 25 25 24 24 23 22 21 20 19 18 17 16 15 
14 13 13 12 11 10 9 8 7 7 6 5 5 5 5 5 5 
5 5 6 5 5 5 5 5 5 5 6 7 7 8 9 10 11 
12 13 13 14 14 13 12 12 11 10 10 9 9 9 9 9 9 
8 7 6 5 4 3 2 2 2 2 2 3 4 5 6 7 8 
9 10 11 12 13 14 15 16 17 18 19 19 18 17 16 15 14 
13 12 11 10 9 8 7 6 5 4 3 2 1 1 1 2 3 
4 5 6 7 8 9 10 11 12 13 38 37 36 35 34 34 33 
32 31 31 30 29 29 28 27 27 26 26 25 25 24 24 23 23 
23 22 21 20 19 18 17 16 15 14 13 12 11 10 9 8 8 
7 6 5 5 4 4 4 4 4 4 5 5 5 4 4 4 4 
4 5 5 6 7 8 8 9 10 11 12 13 14 14 14 13 12 
12 11 11 10 10 10 10 10 9 8 7 6 5 4 3 2 1 
1 1 2 3 4 5 6 7 8 9 10 11 12 13 14 15 16 
17 18 19 19 18 17 16 15 14 13 12 11 10 9 8 7 6 
5 4 3 2 1 0 1 2 3 4 5 6 7 8 9 10 11 
12 13 37 36 35 35 34 33 32 31 31 30 29 29 28 27 27 
26 25 25 24 24 23 23 22 22 22 21 21 20 19 18 17 16 
15 14 13 12 11 10 9 8 7 6 5 5 4 3 3 3 3 
3 3 4 5 4 3 3 3 3 3 4 5 5 6 7 8 9 
10 11 12 13 14 15 14 14 13 13 12 12 11 11 11 11 10 
9 8 7 6 5 4 3 2 1 0 1 2 3 4 5 6 7 
8 9 10 11 12 13 14 15 16 17 18 19 19 18 17 16 15 
14 13 12 11 10 9 8 7 6 5 4 3 2 1 1 1 2 
3 4 5 6 7 8 9 10 11 12 13 36 36 35 34 33 32 
32 31 30 29 29 28 27 26 26 25 25 24 23 23 22 22 21 
21 21 20 20 20 19 18 17 16 15 14 13 12 11 10 9 8 
7 6 5 4 3 2 2 2 2 2 2 3 4 3 2 2 2 
2 2 3 4 5 6 7 8 9 10 11 12 13 14 15 15 15 
14 13 13 13 12 12 12 11 10 9 8 7 6 5 4 3 2 
1 1 1 2 3 4 5 6 7 8 9 10 11 12 13 14 15 
16 17 18 19 19 18 17 16 15 14 13 12 11 10 9 8 7 
6 5 4 3 2 2 2 2 2 3 4 5 6 7 8 9 10 
11 12 13 36 35 34 33 33 32 31 30 29 29 28 27 26 26 
25 24 24 23 23 22 21 21 21 20 20 19 19 19 19 18 17 
16 15 14 13 12 11 10 9 8 7 6 5 4 3 2 1 1 
1 1 2 3 3 3 2 1 1 1 2 3 4 5 6 7 8 
9 10 11 12 13 14 15 16 15 15 14 14 13 13 13 12 11 
10 9 8 7 6 5 4 3 2 2 2 2 2 3 4 5 6 
7 8 9 10 11 12 13 14 15 16 17 18 19 19 18 17 16 
15 14 13 12 11 10 9 8 7 6 5 5 4 3 3 3 3 
3 4 5 5 6 7 8 9 10 11 12 13 35 34 34 33 32 
31 30 30 29 28 27 26 26 25 24 24 23 22 22 21 21 20 
20 19 19 18 18 18 18 18 17 16 15 14 13 12 11 10 9 
8 7 6 5 4 3 2 1 0 0 1 2 2 2 2 2 1 
0 1 2 3 4 5 6 7 8 9 10 11 12 13 14 15 16 
16 16 15 15 14 14 13 12 11 10 9 8 7 6 5 5 4 
3 3 3 3 3 4 5 5 6 7 8 9 10 11 12 13 14 
15 16 17 18 19 19 18 17 16 15 14 13 12 11 10 9 8 
8 7 6 5 5 4 4 4 4 4 5 5 6 7 8 8 9 
10 11 12 13 35 34 33 32 31 31 30 29 28 27 27 26 25 
24 24 23 22 22 21 20 20 19 19 18 18 18 17 17 17 17 
17 16 15 14 13 12 11 10 9 8 7 6 5 4 3 2 1 
1 1 1 1 1 1 2 2 1 1 1 2 3 4 5 6 7 
8 9 10 11 12 13 14 15 16 17 17 16 16 15 14 13 12 
11 10 9 8 8 7 6 5 5 4 4 4 4 4 5 5 6 
7 8 8 9 10 11 12 13 14 15 16 17 18 19 19 18 17 
16 15 14 13 13 12 11 10 9 8 7 7 6 5 5 5 5 
5 5 5 6 7 7 8 9 10 11 12 13 13 34 34 33 32 
31 30 29 28 28 27 26 25 24 24 23 22 21 21 20 20 19 
18 18 17 17 17 16 16 16 16 16 16 15 14 13 12 11 10 
9 8 7 6 5 4 3 2 2 2 1 1 0 0 1 2 2 
2 2 2 2 3 4 5 6 7 8 9 10 11 12 13 14 15 
16 17 17 17 16 15 14 13 13 12 11 10 9 8 7 7 6 
5 5 5 5 5 5 5 6 7 7 8 9 10 11 12 13 13 
14 15 16 17 18 19 19 18 18 17 16 15 14 13 12 11 10 
10 9 8 7 7 6 6 6 6 6 6 6 7 7 8 9 10 
10 11 12 13 14 34 33 32 31 30 30 29 28 27 26 25 25 
24 23 22 21 21 20 19 19 18 18 17 17 16 16 15 15 15 
15 15 15 15 14 13 12 11 10 9 8 7 6 5 5 4 3 
3 2 1 0 1 1 1 2 3 3 3 3 3 4 5 5 6 
7 8 9 10 11 12 13 14 15 16 17 18 18 17 16 15 14 
13 12 11 10 10 9 8 7 7 6 6 6 6 6 6 6 7 
7 8 9 10 10 11 12 13 14 15 16 17 18 18 19 20 19 
18 17 16 15 14 13 13 12 11 10 9 9 8 8 7 7 7 
7 7 7 7 8 8 9 9 10 11 12 13 13 14 34 33 32 
31 30 29 28 27 26 26 25 24 23 22 22 21 20 19 19 18 
17 17 16 16 15 15 14 14 14 14 14 14 14 14 13 12 11 
10 9 8 8 7 6 5 5 4 3 2 1 1 1 2 2 2 
3 4 4 4 4 5 5 6 7 8 8 9 10 11 12 13 14 
15 16 17 18 18 17 16 15 14 13 13 12 11 10 9 9 8 
8 7 7 7 7 7 7 7 8 8 9 9 10 11 12 13 13 
14 15 16 17 18 19 20 20 19 18 17 17 16 15 14 13 12 
12 11 10 10 9 8 8 8 8 8 8 8 8 8 9 10 10 
11 12 12 13 14 15 33 32 31 30 29 29 28 27 26 25 24 
23 23 22 21 20 19 19 18 17 17 16 15 15 14 14 13 13 
13 13 13 13 13 13 13 13 12 11 10 9 8 7 7 6 5 
4 3 2 2 2 2 2 3 3 4 5 5 5 5 5 6 7 
7 8 9 10 11 12 13 13 14 15 16 17 18 18 17 17 16 
15 14 13 12 12 11 10 10 9 8 8 8 8 8 8 8 8 
8 9 10 10 11 12 12 13 14 15 16 17 17 18 19 20 21 
20 19 18 17 16 15 15 14 13 12 12 11 10 10 9 9 9 
9 9 9 9 9 9 10 10 11 12 12 13 14 15 15 33 32 
31 30 29 28 27 26 25 25 24 23 22 21 20 20 19 18 17 
16 16 15 15 14 13 13 13 12 12 12 12 12 12 12 12 12 
12 11 10 10 9 8 7 6 5 5 4 3 3 3 3 3 4 
4 5 5 6 6 6 6 7 7 8 9 10 10 11 12 13 14 
15 16 17 18 18 19 18 17 16 15 15 14 13 12 12 11 10 
10 9 9 9 9 9 9 9 9 9 10 10 11 12 12 13 14 
15 15 16 17 18 19 20 21 21 20 19 18 18 17 16 15 14 
14 13 12 12 11 11 10 10 10 10 10 10 10 10 10 11 11 
12 12 13 14 14 15 16 32 31 31 30 29 28 27 26 25 24 
23 22 21 21 20 19 18 17 17 16 15 14 14 13 13 12 12 
11 11 11 11 11 11 11 11 11 12 12 11 10 9 8 8 7 
6 5 5 4 4 4 4 4 5 5 5 6 7 7 7 7 8 
8 9 9 10 11 12 13 13 14 15 16 17 18 19 19 18 18 
17 16 15 14 14 13 12 12 11 11 10 10 10 10 10 10 10 
10 10 11 11 12 12 13 14 14 15 16 17 18 18 19 20 21 
21 21 20 19 18 17 17 16 15 14 14 13 13 12 12 11 11 
11 11 11 11 11 11 11 12 12 13 13 14 14 15 16 17 32 
31 30 29 28 27 26 26 25 24 23 22 21 20 19 18 18 17 
16 15 14 14 13 12 12 11 11 10 10 10 10 10 10 10 10 
10 11 11 12 11 10 9 8 7 7 6 5 5 5 5 5 5 
5 6 6 7 7 8 8 8 8 9 10 10 11 12 12 13 14 
15 16 17 17 18 19 20 19 18 17 17 16 15 14 14 13 13 
12 12 11 11 11 11 11 11 11 11 11 12 12 13 13 14 14 
15 16 17 17 18 19 20 21 21 22 21 20 20 19 18 17 16 
16 15 15 14 13 13 13 12 12 12 12 12 12 12 12 12 13 
13 13 14 15 15 16 16 17 32 31 30 29 28 27 26 25 24 
23 22 21 21 20 19 18 17 16 15 15 14 13 12 12 11 10 
10 9 9 9 9 9 9 9 9 9 10 10 11 11 10 10 9 
8 7 7 6 6 6 6 6 6 6 7 7 8 8 9 9 9 
9 10 10 11 12 12 13 14 15 15 16 17 18 19 20 20 20 
19 18 17 16 16 15 15 14 13 13 13 12 12 12 12 12 12 
12 12 12 13 13 13 14 15 15 16 16 17 18 19 20 20 21 
22 23 22 21 20 19 19 18 17 17 16 15 15 14 14 13 13 
13 13 13 13 13 13 13 13 13 14 14 15 15 16 17 17 18 
32 31 30 29 28 27 26 25 24 23 22 21 20 19 18 17 17 
16 15 14 13 12 12 11 10 10 9 8 8 8 8 8 8 8 
8 8 9 10 10 11 11 10 9 9 8 8 7 7 7 7 7 
7 7 8 8 8 9 10 10 10 10 11 11 12 12 13 14 14 
15 16 17 18 18 19 20 21 20 19 19 18 17 17 16 15 15 
14 14 13 13 13 13 13 13 13 13 13 13 13 14 14 15 15 
16 17 17 18 19 19 20 21 22 23 23 22 22 21 20 19 19 
18 17 17 16 16 15 15 14 14 14 14 14 14 14 14 14 14 
14 15 15 16 16 17 17 18 19 31 30 29 28 27 26 25 25 
24 23 22 21 20 19 18 17 16 15 14 13 13 12 11 10 9 
9 8 8 7 7 7 7 7 7 7 8 8 9 9 10 11 10 
9 9 8 8 7 7 7 7 7 7 7 8 8 9 9 10 11 
11 11 12 12 13 13 14 14 15 16 17 17 18 19 20 21 21 
21 20 19 19 18 17 17 16 16 15 15 14 14 14 14 14 14 
14 14 14 14 14 15 15 16 16 17 17 18 19 19 20 21 22 
22 23 24 23 22 21 21 20 19 19 18 18 17 17 16 16 15 
15 15 15 15 15 15 15 15 15 15 16 16 17 17 18 18 19 
19 31 30 29 28 27 26 25 24 23 22 21 20 19 18 18 17 
16 15 14 13 12 11 10 10 9 8 7 7 6 6 6 6 6 
6 6 7 7 8 9 10 10 10 9 8 7 7 6 6 6 6 
6 6 6 7 7 8 9 10 10 11 12 13 13 13 14 15 15 
16 16 17 18 19 20 20 21 22 21 21 20 19 19 18 18 17 
17 16 16 15 15 15 15 15 15 15 15 15 15 15 16 16 17 
17 18 18 19 19 20 21 21 22 23 24 24 24 23 22 21 21 
20 20 19 18 18 17 17 17 16 16 16 16 16 16 16 16 16 
16 16 17 17 17 18 18 19 20 20 31 30 29 28 27 26 25 
24 23 22 21 20 19 18 17 16 15 14 13 13 12 11 10 9 
8 7 7 6 5 5 5 5 5 5 5 6 7 7 8 9 10 
9 8 7 7 6 5 5 5 5 5 5 5 6 7 7 8 9 
10 11 12 13 13 14 15 15 16 17 17 18 19 19 20 21 22 
23 22 21 21 20 20 19 18 18 17 17 17 16 16 16 16 16 
16 16 16 16 16 16 17 17 17 18 18 19 20 20 21 21 22 
23 24 24 25 24 24 23 22 22 21 20 20 19 19 18 18 18 
17 17 17 17 17 17 17 17 17 17 17 18 18 18 19 19 20 
20 21 31 30 29 28 27 26 25 24 23 22 21 20 19 18 17 
16 15 14 13 12 11 10 9 8 8 7 6 5 5 4 4 4 
4 4 5 5 6 7 8 8 9 8 8 7 6 5 5 4 4 
4 4 4 5 5 6 7 8 8 9 10 11 12 13 14 15 16 
17 17 18 19 19 20 21 22 22 23 23 22 22 21 20 20 19 
19 18 18 18 17 17 17 17 17 17 17 17 17 17 17 18 18 
18 19 19 20 20 21 22 22 23 24 24 25 26 25 24 24 23 
22 22 21 21 20 20 19 19 18 18 18 18 18 18 18 18 18 
18 18 18 18 19 19 20 20 21 21 22 31 30 29 28 27 26 
25 24 23 22 21 20 19 18 17 16 15 14 13 12 11 10 9 
8 7 6 5 5 4 3 3 3 3 3 4 5 5 6 7 8 
9 8 7 6 5 5 4 3 3 3 3 3 4 5 5 6 7 
8 9 10 11 12 13 14 15 16 17 18 19 19 20 21 21 22 
22 23 24 23 22 22 21 21 20 20 19 19 18 18 18 18 18 
18 18 18 18 18 18 18 18 19 19 20 20 21 21 22 22 23 
24 24 25 26 26 26 25 24 24 23 23 22 21 21 21 20 20 
19 19 19 19 19 19 19 19 19 19 19 19 19 20 20 21 21 
21 22 23 31 30 29 28 27 26 25 24 23 22 21 20 19 18 
17 16 15 14 13 12 11 10 9 8 7 6 5 4 3 2 2 
2 2 2 3 4 5 6 7 8 9 8 7 6 5 4 3 2 
2 2 2 2 3 4 5 6 7 8 9 10 11 12 13 14 15 
16 17 18 18 19 19 20 20 21 22 22 23 24 23 23 22 21 
21 21 20 20 19 19 19 19 19 19 19 19 19 19 19 19 19 
20 20 21 21 21 22 23 23 24 24 25 26 26 27 26 26 25 
25 24 23 23 22 22 21 21 21 20 20 20 20 20 20 20 20 
20 20 20 20 20 21 21 21 22 22 23 23 31 30 29 28 27 
26 25 24 23 22 21 20 19 18 17 16 15 14 13 12 11 10 
9 8 7 6 5 4 3 2 1 1 1 2 3 4 5 6 7 
8 9 8 7 6 5 4 3 2 1 1 1 2 3 4 5 6 
7 8 9 10 11 12 13 14 15 16 17 17 17 18 18 19 20 
20 21 21 22 23 24 23 23 22 22 21 21 21 20 20 20 20 
20 20 20 20 20 20 20 20 20 21 21 21 22 22 23 23 24 
25 25 26 26 27 28 27 27 26 25 25 24 24 23 23 22 22 
22 21 21 21 21 21 21 21 21 21 21 21 21 21 22 22 22 
23 23 24 24 31 30 29 28 27 26 25 24 23 22 21 20 19 
18 17 16 15 14 13 12 11 10 9 8 7 6 5 4 3 2 
1 0 1 2 3 4 5 6 7 8 9 8 7 6 5 4 3 
2 1 0 1 2 3 4 5 6 7 8 9 10 11 12 13 14 
15 15 16 16 17 17 18 18 19 19 20 21 21 22 23 24 24 
23 23 22 22 22 21 21 21 21 21 21 21 21 21 21 21 21 
21 22 22 22 23 23 24 24 25 25 26 27 27 28 29 28 27 
27 26 26 25 25 24 24 23 23 23 22 22 22 22 22 22 22 
22 22 22 22 22 22 23 23 23 24 24 25 25 31 30 29 28 
27 26 25 24 23 22 21 20 19 18 17 16 15 14 13 12 11 
10 9 8 7 6 5 4 3 2 1 1 1 2 3 4 5 6 
7 8 9 8 7 6 5 4 3 2 1 1 1 2 3 4 5 
6 7 8 9 10 11 12 13 14 14 14 15 15 16 16 17 17 
18 19 19 20 21 21 22 23 24 24 24 23 23 23 22 22 22 
22 22 22 22 22 22 22 22 22 22 23 23 23 24 24 25 25 
26 26 27 27 28 29 29 29 28 28 27 26 26 25 25 25 24 
24 24 23 23 23 23 23 23 23 23 23 23 23 23 23 24 24 
24 25 25 25 26 31 30 29 28 27 26 25 24 23 22 21 20 
19 18 17 16 15 14 13 12 11 10 9 8 7 6 5 4 3 
2 2 2 2 2 3 4 5 6 7 8 9 8 7 6 5 4 
3 2 2 2 2 2 3 4 5 6 7 8 9 10 11 12 13 
13 13 13 14 14 15 15 16 17 17 18 19 19 20 21 22 22 
23 24 25 24 24 24 23 23 23 23 23 23 23 23 23 23 23 
23 23 24 24 24 25 25 25 26 26 27 28 28 29 29 30 30 
29 28 28 27 27 26 26 26 25 25 25 24 24 24 24 24 24 
24 24 24 24 24 24 24 25 25 25 26 26 26 27 31 30 29 
28 27 26 25 24 23 22 21 20 19 18 17 16 15 14 13 12 
11 10 9 8 7 6 5 5 4 3 3 3 3 3 4 5 5 
6 7 8 9 8 7 6 5 5 4 3 3 3 3 3 4 5 
5 6 7 8 9 10 11 12 12 12 12 13 13 13 14 15 15 
16 16 17 18 19 19 20 21 22 23 23 24 25 25 25 24 24 
24 24 24 24 24 24 24 24 24 24 24 25 25 25 26 26 26 
27 27 28 28 29 30 30 31 30 30 29 29 28 28 27 27 26 
26 26 25 25 25 25 25 25 25 25 25 25 25 25 25 25 25 
26 26 26 27 27 28 31 30 29 28 27 26 25 24 23 22 21 
20 19 18 17 16 15 14 13 12 11 10 9 8 8 7 6 5 
5 4 4 4 4 4 5 5 6 7 8 8 9 8 8 7 6 
5 5 4 4 4 4 4 5 5 6 7 8 8 9 10 11 11 
11 11 11 12 12 13 13 14 14 15 16 16 17 18 19 20 20 
21 22 23 24 25 25 25 25 25 25 25 25 25 25 25 25 25 
25 25 25 25 26 26 26 27 27 28 28 29 29 30 30 31 32 
31 31 30 30 29 29 28 28 27 27 27 26 26 26 26 26 26 
26 26 26 26 26 26 26 26 26 27 27 27 28 28 29 31 30 
29 28 27 26 25 24 23 22 21 20 19 18 17 16 15 14 13 
13 12 11 10 9 8 7 7 6 5 5 5 5 5 5 5 6 
7 7 8 9 10 9 8 7 7 6 5 5 5 5 5 5 5 
6 7 7 8 9 10 10 10 10 10 10 10 11 11 12 12 13 
14 14 15 16 17 17 18 19 20 21 21 22 23 24 25 26 26 
26 26 26 26 26 26 26 26 26 26 26 26 26 27 27 27 28 
28 29 29 30 30 31 31 32 32 32 31 31 30 30 29 29 29 
28 28 28 27 27 27 27 27 27 27 27 27 27 27 27 27 27 
27 28 28 28 29 29 29 31 30 29 28 27 26 25 24 23 22 
21 20 19 18 18 17 16 15 14 13 12 11 10 10 9 8 7 
7 6 6 6 6 6 6 6 7 7 8 9 10 10 10 9 8 
7 7 6 6 6 6 6 6 6 7 7 8 9 9 9 9 9 
9 9 9 9 10 10 11 12 12 13 14 14 15 16 17 18 18 
19 20 21 22 23 24 25 26 26 27 27 27 27 27 27 27 27 
27 27 27 27 27 28 28 28 29 29 29 30 30 31 31 32 33 
33 33 32 32 31 31 30 30 30 29 29 29 28 28 28 28 28 
28 28 28 28 28 28 28 28 28 28 29 29 29 30 30 30 31 
30 29 28 27 26 25 25 24 23 22 21 20 19 18 17 16 15 
14 13 13 12 11 10 9 9 8 8 7 7 7 7 7 7 7 
8 8 9 9 10 11 10 9 9 8 8 7 7 7 7 7 7 
7 8 8 9 8 8 8 8 8 8 8 8 8 9 10 10 11 
12 12 13 14 15 15 16 17 18 19 20 21 21 22 23 24 25 
26 27 28 28 28 28 28 28 28 28 28 28 28 28 29 29 29 
30 30 30 31 31 32 32 33 33 34 34 33 33 32 32 31 31 
31 30 30 30 29 29 29 29 29 29 29 29 29 29 29 29 29 
29 29 30 30 30 31 31 31 32 31 30 29 28 27 26 25 24 
23 22 21 20 19 18 17 17 16 15 14 13 12 12 11 10 10 
9 8 8 8 8 8 8 8 8 8 9 10 10 11 12 11 10 
10 9 8 8 8 8 8 8 8 8 8 9 8 8 7 7 7 
7 7 7 7 8 8 9 9 10 11 12 12 13 14 15 16 17 
17 18 19 20 21 22 23 24 25 26 27 28 29 29 29 29 29 
29 29 29 29 29 29 30 30 30 31 31 31 32 32 33 33 34 
34 35 34 34 34 33 33 32 32 31 31 31 31 30 30 30 30 
30 30 30 30 30 30 30 30 30 30 30 31 31 31 31 32 32 
32 31 30 29 28 27 26 25 24 23 22 21 21 20 19 18 17 
16 15 15 14 13 12 12 11 10 10 9 9 9 9 9 9 9 
9 9 10 10 11 12 12 12 11 10 10 9 9 9 9 9 9 
9 9 9 8 7 7 6 6 6 6 6 6 6 7 7 8 9 
9 10 11 12 13 13 14 15 16 17 18 19 20 21 22 23 24 
25 25 26 27 28 29 30 30 30 30 30 30 30 30 30 31 31 
31 31 32 32 33 33 34 34 34 35 36 35 35 34 34 34 33 
33 32 32 32 32 31 31 31 31 31 31 31 31 31 31 31 31 
31 31 31 32 32 32 32 33 33 32 31 30 29 28 27 26 26 
25 24 23 22 21 20 19 18 18 17 16 15 14 14 13 12 12 
11 11 10 10 10 10 10 10 10 10 10 11 11 12 12 13 12 
12 11 11 10 10 10 10 10 10 10 9 8 7 7 6 5 5 
5 5 5 5 5 6 7 7 8 9 10 10 11 12 13 14 15 
16 17 18 18 19 20 21 22 23 24 25 26 27 28 29 30 31 
31 31 31 31 31 31 31 32 32 32 32 33 33 34 34 34 35 
35 36 36 36 36 35 35 34 34 34 33 33 33 32 32 32 32 
32 32 32 32 32 32 32 32 32 32 32 32 32 33 33 33 34 
34 32 31 31 30 29 28 27 26 25 24 23 22 21 21 20 19 
18 17 17 16 15 14 14 13 13 12 12 11 11 11 11 11 11 
11 11 11 12 12 13 13 14 13 13 12 12 11 11 11 11 11 
10 9 8 8 7 6 5 5 4 4 4 4 4 5 5 6 7 
7 8 9 10 11 12 13 13 14 15 16 17 18 19 20 21 22 
23 24 25 26 27 28 29 30 31 32 32 32 32 32 32 32 32 
33 33 33 34 34 34 35 35 36 36 37 37 37 37 36 36 35 
35 35 34 34 34 33 33 33 33 33 33 33 33 33 33 33 33 
33 33 33 33 33 34 34 34 35 35 33 32 31 30 29 28 27 
26 25 25 24 23 22 21 20 20 19 18 17 16 16 15 15 14 
13 13 13 12 12 12 12 12 12 12 12 12 13 13 13 14 15 
14 13 13 13 12 12 12 12 11 10 9 8 7 6 5 5 4 
3 3 3 3 3 4 5 5 6 7 8 8 9 10 11 12 13 
14 15 16 17 18 19 20 21 22 23 24 25 26 27 28 29 30 
31 32 33 33 33 33 33 33 33 34 34 34 35 35 35 36 36 
37 37 38 38 38 38 37 37 36 36 36 35 35 35 34 34 34 
34 34 34 34 34 34 34 34 34 34 34 34 34 34 35 35 35 
36 36 33 32 31 30 29 29 28 27 26 25 24 23 23 22 21 
20 19 19 18 17 17 16 15 15 14 14 13 13 13 13 13 13 
13 13 13 13 13 14 14 15 15 15 14 14 13 13 13 13 12 
11 10 9 8 7 6 5 4 3 2 2 2 2 2 3 4 5 
5 6 7 8 9 10 11 12 13 14 15 16 17 18 19 20 21 
22 23 24 25 26 27 28 29 30 31 32 33 34 34 34 34 34 
34 35 35 35 36 36 36 37 37 38 38 38 39 39 38 38 38 
37 37 37 36 36 36 35 35 35 35 35 35 35 35 35 35 35 
35 35 35 35 35 35 36 36 36 37 37 34 33 32 31 30 29 
28 27 26 26 25 24 23 22 22 21 20 19 19 18 17 17 16 
16 15 15 14 14 14 14 14 14 14 14 14 14 14 15 15 16 
16 16 15 15 14 14 14 13 12 11 10 9 8 7 6 5 4 
3 2 1 1 1 2 2 3 4 5 6 7 8 9 10 11 12 
13 14 15 16 17 18 19 20 21 22 23 24 25 26 27 28 29 
30 31 32 33 34 35 35 35 35 35 36 36 36 37 37 37 38 
38 38 39 39 40 40 39 39 39 38 38 37 37 37 37 36 36 
36 36 36 36 36 36 36 36 36 36 36 36 36 36 36 37 37 
37 37 38 34 33 32 31 30 30 29 28 27 26 25 25 24 23 
22 21 21 20 19 19 18 18 17 17 16 16 15 15 15 15 15 
15 15 15 15 15 15 16 16 17 17 17 16 16 15 15 14 13 
12 11 10 9 8 7 6 5 4 3 2 1 0 1 1 2 3 
4 5 6 7 8 9 10 11 12 13 14 15 16 17 18 19 20 
21 22 23 24 25 26 27 28 29 30 31 32 33 34 35 36 36 
36 36 37 37 37 37 38 38 39 39 39 40 40 41 41 40 40 
39 39 39 38 38 38 38 37 37 37 37 37 37 37 37 37 37 
37 37 37 37 37 37 37 38 38 38 38 39 34 34 33 32 31 
30 29 28 28 27 26 25 24 24 23 22 21 21 20 20 19 18 
18 17 17 17 16 16 16 16 16 16 16 16 16 16 16 17 17 
17 18 17 17 17 16 15 14 13 12 11 10 9 8 7 6 5 
4 3 2 1 1 0 1 2 3 4 5 6 7 8 9 10 11 
12 13 14 15 16 17 18 19 20 21 22 23 24 25 26 27 28 
29 30 31 32 33 34 35 36 37 37 37 38 38 38 38 39 39 
39 40 40 41 41 42 42 41 41 40 40 40 39 39 39 39 38 
38 38 38 38 38 38 38 38 38 38 38 38 38 38 38 38 39 
39 39 39 40 35 34 33 32 31 31 30 29 28 27 27 26 25 
24 24 23 22 22 21 20 20 19 19 18 18 18 17 17 17 17 
17 17 17 17 17 17 17 18 18 18 19 18 18 17 16 15 14 
13 12 11 10 9 8 7 6 5 4 3 2 2 1 1 1 2 
3 4 5 6 7 8 9 10 11 12 13 14 15 16 17 18 19 
20 21 22 23 24 25 26 27 28 29 30 31 32 33 34 35 36 
37 38 38 39 39 39 39 40 40 40 41 41 42 42 42 42 42 
42 41 41 41 40 40 40 40 39 39 39 39 39 39 39 39 39 
39 39 39 39 39 39 39 39 40 40 40 40 41 35 34 34 33 
32 31 30 30 29 28 27 26 26 25 24 24 23 22 22 21 21 
20 20 19 19 18 18 18 18 18 18 18 18 18 18 18 18 18 
19 19 20 19 18 17 16 15 14 13 12 11 10 9 8 7 6 
5 5 4 3 2 2 2 2 2 3 4 5 6 7 8 9 10 
11 12 13 14 15 16 17 18 19 20 21 22 23 24 25 26 27 
28 29 30 31 32 33 34 35 36 37 38 39 40 40 40 40 41 
41 41 42 42 42 43 43 43 43 43 42 42 42 41 41 41 41 
40 40 40 40 40 40 40 40 40 40 40 40 40 40 40 40 40 
41 41 41 41 42 36 35 34 33 33 32 31 30 29 29 28 27 
26 26 25 24 24 23 23 22 21 21 21 20 20 19 19 19 19 
19 19 19 19 19 19 19 19 19 20 20 20 19 18 17 16 15 
14 13 12 11 10 9 8 8 7 6 5 5 4 3 3 3 3 
3 4 5 5 6 7 8 9 10 11 12 13 14 15 16 17 18 
19 20 21 22 23 24 25 26 27 28 29 30 31 32 33 34 35 
36 37 38 39 40 41 41 41 42 42 42 43 43 43 44 44 44 
44 44 43 43 43 42 42 42 41 41 41 41 41 41 41 41 41 
41 41 41 41 41 41 41 41 41 41 42 42 42 43 36 36 35 
34 33 32 32 31 30 29 29 28 27 26 26 25 25 24 23 23 
22 22 21 21 21 20 20 20 20 20 20 20 20 20 20 20 20 
20 21 21 20 19 18 17 16 15 14 13 13 12 11 10 9 8 
7 7 6 5 5 4 4 4 4 4 5 5 6 7 8 8 9 
10 11 12 13 14 15 16 17 18 19 20 21 22 23 24 25 26 
27 28 29 30 31 32 33 34 35 36 37 38 39 40 41 42 42 
43 43 43 44 44 44 45 45 45 45 44 44 44 43 43 43 43 
42 42 42 42 42 42 42 42 42 42 42 42 42 42 42 42 42 
42 42 43 43 43 43 37 36 35 35 34 33 32 31 31 30 29 
29 28 27 27 26 25 25 24 24 23 23 22 22 22 21 21 21 
21 21 21 21 21 21 21 21 21 21 22 21 20 19 18 18 17 
16 15 14 13 12 11 10 10 9 8 7 7 6 5 5 5 5 
5 5 5 6 7 7 8 9 10 11 12 13 13 14 15 16 17 
18 19 20 21 22 23 24 25 26 27 28 29 30 31 32 33 34 
35 36 37 38 39 40 41 42 43 43 44 44 44 45 45 46 46 
46 46 45 45 45 44 44 44 44 43 43 43 43 43 43 43 43 
43 43 43 43 43 43 43 43 43 43 43 44 44 44 44 38 37 
36 35 34 34 33 32 31 31 30 29 29 28 27 27 26 26 25 
25 24 24 23 23 23 22 22 22 22 22 22 22 22 22 22 22 
22 22 23 22 21 20 19 18 17 16 15 14 13 13 12 11 10 
9 9 8 7 7 6 6 6 6 6 6 6 7 7 8 9 10 
10 11 12 13 14 15 16 17 18 18 19 20 21 22 23 24 25 
26 27 28 29 30 31 32 33 34 35 36 37 38 39 40 41 42 
43 44 45 45 45 46 46 47 47 47 47 46 46 46 45 45 45 
45 44 44 44 44 44 44 44 44 44 44 44 44 44 44 44 44 
44 44 44 45 45 45 45 38 37 37 36 35 34 33 33 32 31 
31 30 29 29 28 28 27 26 26 25 25 25 24 24 24 23 23 
23 23 23 23 23 23 23 23 23 23 23 23 22 21 20 19 18 
17 17 16 15 14 13 12 12 11 10 9 9 8 8 7 7 7 
7 7 7 7 8 8 9 9 10 11 12 13 13 14 15 16 17 
18 19 20 21 22 23 24 25 25 26 27 28 29 30 31 32 33 
34 35 36 37 38 39 40 41 42 43 44 45 46 46 47 47 47 
48 48 48 47 47 47 46 46 46 46 45 45 45 45 45 45 45 
45 45 45 45 45 45 45 45 45 45 45 45 46 46 46 46 39 
38 37 36 36 35 34 33 33 32 31 31 30 30 29 28 28 27 
27 26 26 26 25 25 25 24 24 24 24 24 24 24 24 24 24 
24 24 24 23 22 21 21 20 19 18 17 16 15 15 14 13 12 
12 11 10 10 9 8 8 8 8 8 8 8 8 8 9 10 10 
11 12 12 13 14 15 16 17 17 18 19 20 21 22 23 24 25 
26 27 28 29 30 31 32 32 33 34 35 36 37 38 39 40 41 
42 43 44 45 46 47 48 48 48 49 49 49 48 48 48 47 47 
47 47 46 46 46 46 46 46 46 46 46 46 46 46 46 46 46 
46 46 46 46 47 47 47 47 39 39 38 37 36 36 35 34 33 
33 32 32 31 30 30 29 29 28 28 27 27 26 26 26 25 25 
25 25 25 25 25 25 25 25 25 25 25 25 24 23 22 21 20 
19 18 18 17 16 15 14 14 13 12 12 11 10 10 9 9 9 
9 9 9 9 9 9 10 10 11 12 12 13 14 15 15 16 17 
18 19 20 21 21 22 23 24 25 26 27 28 29 30 31 32 33 
34 35 36 37 38 39 40 41 41 42 43 44 45 46 47 48 49 
49 50 50 49 49 49 49 48 48 48 48 47 47 47 47 47 47 
47 47 47 47 47 47 47 47 47 47 47 47 47 48 48 48 48 
40 39 38 38 37 36 36 35 34 34 33 32 32 31 31 30 30 
29 29 28 28 27 27 27 26 26 26 26 26 26 26 26 26 26 
26 26 26 25 24 23 22 21 21 20 19 18 17 17 16 15 14 
14 13 12 12 11 11 10 10 10 10 10 10 10 10 10 11 11 
12 12 13 14 14 15 16 17 18 18 19 20 21 22 23 24 25 
26 26 27 28 29 30 31 32 33 34 35 36 37 38 39 40 41 
42 43 44 45 46 47 48 49 50 50 51 51 50 50 50 50 49 
49 49 49 48 48 48 48 48 48 48 48 48 48 48 48 48 48 
48 48 48 48 48 49 49 49 49 41 40 39 38 38 37 36 36 
35 34 34 33 33 32 31 31 30 30 29 29 29 28 28 28 27 
27 27 27 27 27 27 27 27 27 27 27 26 25 25 24 23 22 
21 20 20 19 18 17 16 16 15 14 14 13 13 12 12 11 11 
11 11 11 11 11 11 11 12 12 13 13 14 14 15 16 17 17 
18 19 20 21 21 22 23 24 25 26 27 28 29 30 31 31 32 
33 34 35 36 37 38 39 40 41 42 43 44 45 46 47 48 49 
50 51 52 52 51 51 51 50 50 50 50 50 49 49 49 49 49 
49 49 49 49 49 49 49 49 49 49 49 49 49 49 50 50 50 
50 41 41 40 39 38 38 37 36 36 35 35 34 33 33 32 32 
31 31 30 30 30 29 29 29 28 28 28 28 28 28 28 28 28 
28 28 28 27 26 25 24 23 23 22 21 20 19 19 18 17 16 
16 15 15 14 13 13 13 12 12 12 12 12 12 12 12 12 13 
13 13 14 15 15 16 16 17 18 19 20 20 21 22 23 24 25 
25 26 27 28 29 30 31 32 33 34 35 36 37 37 38 39 40 
41 42 43 44 45 46 47 48 49 50 51 52 53 52 52 52 51 
51 51 51 50 50 50 50 50 50 50 50 50 50 50 50 50 50 
50 50 50 50 50 50 50 51 51 51 42 41 41 40 39 38 38 
37 37 36 35 35 34 34 33 33 32 32 31 31 31 30 30 30 
29 29 29 29 29 29 29 29 29 29 29 28 27 26 26 25 24 
23 22 22 21 20 19 19 18 17 17 16 15 15 14 14 13 13 
13 13 13 13 13 13 13 13 13 14 14 15 15 16 17 17 18 
19 19 20 21 22 23 23 24 25 26 27 28 29 29 30 31 32 
33 34 35 36 37 38 39 40 41 42 43 43 44 45 46 47 48 
49 50 51 52 53 53 53 53 52 52 52 52 51 51 51 51 51 
51 51 51 51 51 51 51 51 51 51 51 51 51 51 51 51 52 
52 52 43 42 41 41 40 39 39 38 37 37 36 36 35 34 34 
34 33 33 32 32 31 31 31 31 30 30 30 30 30 30 30 30 
30 30 30 29 28 27 26 25 25 24 23 22 21 21 20 19 19 
18 17 17 16 16 15 15 14 14 14 14 14 14 14 14 14 14 
14 15 15 16 16 17 17 18 19 19 20 21 22 22 23 24 25 
26 26 27 28 29 30 31 32 33 34 34 35 36 37 38 39 40 
41 42 43 44 45 46 47 48 49 50 50 51 52 53 54 54 54 
53 53 53 53 52 52 52 52 52 52 52 52 52 52 52 52 52 
52 52 52 52 52 52 52 52 53 53 53 43 43 42 41 41 40 
39 39 38 38 37 36 36 35 35 34 34 34 33 33 32 32 32 
32 31 31 31 31 31 31 31 31 31 31 30 29 28 28 27 26 
25 24 24 23 22 21 21 20 19 19 18 18 17 17 16 16 15 
15 15 15 15 15 15 15 15 15 15 16 16 17 17 18 18 19 
19 20 21 21 22 23 24 25 25 26 27 28 29 30 30 31 32 
33 34 35 36 37 38 39 39 40 41 42 43 44 45 46 47 48 
49 50 51 52 53 54 55 55 55 54 54 54 54 53 53 53 53 
53 53 53 53 53 53 53 53 53 53 53 53 53 53 53 53 53 
54 54 54 44 43 43 42 41 41 40 40 39 38 38 37 37 36 
36 35 35 34 34 34 33 33 33 32 32 32 32 32 32 32 32 
32 32 31 31 30 29 28 27 27 26 25 24 24 23 22 21 21 
20 20 19 18 18 17 17 17 16 16 16 16 16 16 16 16 16 
16 16 17 17 17 18 18 19 20 20 21 21 22 23 24 24 25 
26 27 28 28 29 30 31 32 33 34 34 35 36 37 38 39 40 
41 42 43 44 44 45 46 47 48 49 50 51 52 53 54 55 56 
56 55 55 55 55 54 54 54 54 54 54 54 54 54 54 54 54 
54 54 54 54 54 54 54 54 54 55 55 55 