P2
37 28
17
17 17 16 16 15 15 14 13 12 12 11 10 10 9 9 8 7 
6 5 4 3 2 1 1 1 2 3 4 5 6 6 5 5 4 
4 4 4 17 16 15 15 14 14 13 12 12 11 10 10 9 8 
8 7 7 6 5 4 3 2 1 0 1 2 3 4 5 6 5 
5 4 3 3 3 3 16 15 15 14 13 13 13 12 11 10 9 
9 8 8 7 7 6 5 5 4 3 2 1 1 1 2 3 4 
5 6 5 4 3 2 2 2 2 15 14 14 13 13 12 12 11 
10 10 9 8 7 7 6 6 5 5 4 3 3 2 2 2 2 
2 3 4 5 6 5 4 3 2 1 1 1 14 14 13 12 12 
11 11 10 10 9 8 7 7 6 5 5 5 4 3 2 2 2 
2 2 2 3 4 5 5 6 5 4 3 2 1 0 1 14 13 
12 12 11 10 10 9 9 8 8 7 6 5 5 4 4 4 3 
2 1 1 1 1 2 2 3 4 5 6 5 4 3 2 1 1 
1 13 12 12 11 10 10 9 8 8 8 7 6 5 5 4 3 
3 3 3 2 1 0 0 1 1 2 3 4 5 6 5 4 3 
2 2 2 2 13 12 11 10 9 9 8 8 7 7 7 6 5 
4 3 2 2 2 2 2 1 1 1 0 1 2 3 4 5 6 
5 5 4 3 3 3 3 12 11 10 10 9 8 7 7 6 6 
6 6 5 4 3 2 1 1 1 2 2 2 1 1 1 2 3 
4 5 5 5 5 5 4 4 4 4 12 11 10 9 8 7 7 
6 5 5 5 5 5 4 3 2 1 0 1 2 2 2 1 0 
1 2 3 4 5 5 4 4 4 4 4 5 5 11 10 9 8 
8 7 6 5 5 4 4 4 4 4 3 2 1 1 1 1 1 
1 1 1 1 2 3 4 5 4 3 3 3 3 3 4 5 10 
10 9 8 7 6 5 5 4 3 3 3 3 3 3 2 2 2 
2 1 0 1 2 2 2 2 3 4 4 3 2 2 2 2 2 
3 4 9 9 8 8 7 6 5 4 3 2 2 2 2 2 2 
2 2 3 2 1 1 1 1 1 1 2 3 4 4 3 2 1 
1 1 2 3 4 9 8 7 7 6 6 5 4 3 2 1 1 
1 1 1 1 2 3 2 2 2 2 1 0 1 2 3 4 4 
3 2 1 0 1 2 3 4 8 7 7 6 5 5 5 4 3 
2 1 0 0 1 0 1 2 3 3 3 3 2 1 1 1 2 
3 4 4 3 2 1 1 1 2 3 4 8 7 6 5 5 4 
4 4 3 2 1 1 0 1 1 1 2 3 4 4 3 2 2 
2 2 2 3 4 4 3 2 2 2 2 2 3 4 7 6 5 
5 4 3 3 3 3 2 2 1 1 1 2 2 2 3 4 5 
4 3 3 3 3 3 4 5 5 4 3 3 3 3 3 4 5 
7 6 5 4 3 2 2 2 2 2 2 2 2 2 2 3 3 
4 5 5 5 4 4 4 4 4 5 5 5 5 4 4 4 4 
4 5 5 7 6 5 4 3 2 1 1 1 2 2 1 1 1 
2 3 4 4 5 5 5 5 5 5 5 5 5 6 6 5 5 
5 5 5 5 5 6 7 6 5 4 3 2 1 0 1 2 2 
1 0 1 2 3 3 3 4 5 5 6 6 6 6 6 6 7 
7 6 6 6 6 6 6 6 7 7 6 5 4 3 2 1 1 
1 2 2 1 1 1 2 2 2 2 3 4 5 6 7 7 7 
7 7 8 8 7 7 7 7 7 7 7 8 7 6 5 4 3 
2 2 2 2 2 2 2 2 2 1 1 1 2 3 4 5 6 
7 8 8 8 8 8 8 8 8 8 8 8 8 8 8 7 6 
5 5 4 3 3 3 3 3 3 3 3 2 1 0 1 2 3 
4 5 6 7 8 9 9 9 9 9 9 9 9 9 9 9 9 
9 8 7 6 5 5 4 4 4 4 4 4 4 3 2 1 0 
1 2 3 4 5 6 7 8 9 10 10 10 10 10 10 10 10 
10 10 10 10 8 7 7 6 5 5 5 5 5 5 5 4 3 
2 1 1 1 2 3 4 5 6 7 8 9 10 11 11 11 11 
11 11 11 11 11 11 11 9 8 7 7 6 6 6 6 6 6 
5 4 3 2 2 2 2 2 3 4 5 6 7 8 9 10 11 
12 12 12 12 12 12 12 12 12 12 9 9 8 8 7 7 7 
7 7 6 5 5 4 3 3 3 3 3 4 5 5 6 7 8 
9 10 11 12 13 13 13 13 13 13 13 13 13 10 10 9 8 
8 8 8 8 8 7 6 5 5 4 4 4 4 4 5 5 6 
7 8 8 9 10 11 12 13 14 14 14 14 14 14 14 14 