P2
145 109
37
23 23 23 23 23 23 23 23 23 23 23 23 22 22 22 22 22 
21 21 21 20 20 20 20 20 19 19 19 19 19 19 19 19 18 
18 18 18 18 18 18 18 18 18 18 18 18 18 18 18 18 19 
19 20 20 21 21 22 22 23 24 24 24 24 25 25 25 26 26 
26 27 27 27 27 28 28 28 29 29 29 30 30 31 31 32 33 
33 33 33 32 32 32 32 31 31 31 31 31 30 30 30 30 30 
30 30 30 30 30 30 30 29 29 29 28 28 28 28 28 28 28 
28 28 28 28 28 28 28 28 29 29 29 30 30 30 31 31 32 
32 33 33 34 35 35 36 36 37 22 22 22 22 22 22 22 22 
22 22 22 22 21 21 21 21 21 21 20 20 19 19 19 19 19 
18 18 18 18 18 18 18 18 18 17 17 17 17 17 17 17 17 
17 17 17 17 17 17 17 18 18 18 19 19 20 20 21 22 22 
23 23 23 23 24 24 24 25 25 25 26 26 26 26 27 27 27 
28 28 29 29 30 30 31 31 32 32 32 32 31 31 31 31 30 
30 30 30 30 29 29 29 29 29 29 29 29 29 29 29 29 28 
28 28 27 27 27 27 27 27 27 27 27 27 27 27 27 27 27 
28 28 28 29 29 29 30 30 31 31 32 33 33 34 34 35 36 
36 21 21 21 21 21 21 21 21 21 21 21 21 20 20 20 20 
20 20 19 19 18 18 18 18 18 18 17 17 17 17 17 17 17 
17 16 16 16 16 16 16 16 16 16 16 16 16 16 16 16 17 
17 17 18 18 19 20 20 21 21 22 22 22 22 23 23 23 24 
24 25 25 25 25 25 26 26 26 27 27 28 28 29 29 30 30 
31 32 31 31 31 30 30 30 29 29 29 29 29 28 28 28 28 
28 28 28 28 28 28 28 28 27 27 27 26 26 26 26 26 26 
26 26 26 26 26 26 26 26 26 27 27 27 28 28 29 29 30 
30 31 31 32 32 33 34 34 35 36 20 20 20 20 20 20 20 
20 20 20 20 20 19 19 19 19 19 19 18 18 18 17 17 17 
17 17 16 16 16 16 16 16 16 16 15 15 15 15 15 15 15 
15 15 15 15 15 15 15 15 16 16 17 17 18 18 19 19 20 
21 21 21 21 21 22 22 22 23 23 24 24 24 24 25 25 25 
26 26 26 27 27 28 28 29 30 30 31 30 30 30 29 29 29 
28 28 28 28 28 27 27 27 27 27 27 27 27 27 27 27 27 
26 26 26 25 25 25 25 25 25 25 25 25 25 25 25 25 25 
25 26 26 26 27 27 28 28 29 29 30 30 31 32 32 33 33 
34 35 19 19 19 19 19 19 19 19 19 19 19 19 18 18 18 
18 18 18 17 17 17 16 16 16 16 16 15 15 15 15 15 15 
15 15 14 14 14 14 14 14 14 14 14 14 14 14 14 14 14 
15 15 16 16 17 17 18 19 19 20 20 20 20 20 21 21 21 
22 22 23 23 23 23 24 24 24 25 25 25 26 26 27 28 28 
29 29 30 29 29 29 28 28 28 27 27 27 27 27 26 26 26 
26 26 26 26 26 26 26 26 26 26 25 25 25 24 24 24 24 
24 24 24 24 24 24 24 24 24 25 25 25 26 26 26 27 27 
28 28 29 30 30 31 31 32 33 33 34 18 18 18 18 18 18 
18 18 18 18 18 18 18 17 17 17 17 17 17 16 16 15 15 
15 15 15 14 14 14 14 14 14 14 14 13 13 13 13 13 13 
13 13 13 13 13 13 13 13 13 14 14 15 15 16 17 17 18 
19 19 19 19 19 19 20 20 21 21 21 22 22 22 22 23 23 
23 24 24 25 25 26 26 27 27 28 29 29 29 28 28 27 27 
27 26 26 26 26 26 25 25 25 25 25 25 25 25 25 25 25 
25 25 24 24 24 23 23 23 23 23 23 23 23 23 23 23 23 
23 24 24 24 25 25 25 26 26 27 28 28 29 29 30 31 31 
32 33 33 18 17 17 17 17 17 17 17 17 17 17 17 17 16 
16 16 16 16 16 15 15 14 14 14 14 14 13 13 13 13 13 
13 13 13 13 12 12 12 12 12 12 12 12 12 12 12 12 12 
13 13 13 14 15 15 16 16 17 18 18 18 18 18 18 19 19 
20 20 21 21 21 21 21 22 22 22 23 23 24 24 25 25 26 
27 27 28 28 28 27 27 26 26 26 25 25 25 25 25 25 24 
24 24 24 24 24 24 24 24 24 24 24 23 23 23 22 22 22 
22 22 22 22 22 22 22 22 22 22 23 23 23 24 24 25 25 
26 26 27 27 28 29 29 30 31 31 32 33 17 16 16 16 16 
16 16 16 16 16 16 16 16 15 15 15 15 15 15 14 14 13 
13 13 13 13 13 12 12 12 12 12 12 12 12 11 11 11 11 
11 11 11 11 11 11 11 11 11 12 12 13 13 14 14 15 16 
17 17 17 17 17 17 18 18 18 19 19 20 20 20 20 20 21 
21 21 22 22 23 23 24 25 25 26 26 27 27 27 26 26 26 
25 25 25 24 24 24 24 24 23 23 23 23 23 23 23 23 23 
23 23 23 22 22 22 21 21 21 21 21 21 21 21 21 21 21 
21 21 22 22 22 23 23 24 24 25 25 26 27 27 28 29 29 
30 31 31 32 16 15 15 15 15 15 15 15 15 15 15 15 15 
14 14 14 14 14 14 13 13 13 12 12 12 12 12 11 11 11 
11 11 11 11 11 10 10 10 10 10 10 10 10 10 10 10 10 
10 11 11 12 12 13 14 14 15 16 16 16 16 16 16 17 17 
17 18 18 19 19 19 19 19 20 20 21 21 21 22 23 23 24 
24 25 26 26 26 26 25 25 25 24 24 24 23 23 23 23 23 
22 22 22 22 22 22 22 22 22 22 22 22 21 21 21 20 20 
20 20 20 20 20 20 20 20 20 20 20 21 21 21 22 22 23 
23 24 25 25 26 26 27 28 29 29 30 31 32 15 14 14 14 
14 14 14 14 14 14 14 14 14 13 13 13 13 13 13 13 12 
12 11 11 11 11 11 10 10 10 10 10 10 10 10 9 9 9 
9 9 9 9 9 9 9 9 9 9 10 10 11 12 12 13 14 
15 15 15 15 15 15 15 16 16 17 17 18 18 18 18 18 18 
19 19 20 20 21 21 22 22 23 24 24 25 25 25 25 25 24 
24 23 23 23 22 22 22 22 22 21 21 21 21 21 21 21 21 
21 21 21 21 21 20 20 19 19 19 19 19 19 19 19 19 19 
19 19 19 20 20 21 21 21 22 23 23 24 24 25 26 26 27 
28 29 29 30 31 14 13 13 13 13 13 13 13 13 13 13 13 
13 13 12 12 12 12 12 12 11 11 10 10 10 10 10 9 9 
9 9 9 9 9 9 8 8 8 8 8 8 8 8 8 8 8 
8 8 9 10 10 11 12 12 13 14 14 14 14 14 14 14 15 
15 16 16 17 17 17 17 17 18 18 18 19 19 20 20 21 22 
22 23 24 24 24 24 24 24 23 23 22 22 22 21 21 21 21 
21 20 20 20 20 20 20 20 20 20 20 20 20 20 19 19 18 
18 18 18 18 18 18 18 18 18 18 18 18 19 19 20 20 21 
21 22 22 23 24 24 25 26 26 27 28 29 30 30 13 13 12 
12 12 12 12 12 12 12 12 12 12 12 11 11 11 11 11 11 
10 10 9 9 9 9 9 8 8 8 8 8 8 8 8 8 7 
7 7 7 7 7 7 7 7 7 7 8 8 9 9 10 11 12 
13 13 13 13 13 13 13 13 14 14 15 15 16 16 16 16 16 
17 17 17 18 18 19 20 20 21 21 22 23 23 23 23 23 23 
22 22 21 21 21 20 20 20 20 20 19 19 19 19 19 19 19 
19 19 19 19 19 19 18 18 18 17 17 17 17 17 17 17 17 
17 17 17 18 18 18 19 19 20 20 21 22 22 23 24 24 25 
26 27 27 28 29 30 12 12 11 11 11 11 11 11 11 11 11 
11 11 11 10 10 10 10 10 10 10 9 8 8 8 8 8 8 
7 7 7 7 7 7 7 7 6 6 6 6 6 6 6 6 6 
6 6 7 7 8 9 10 10 11 12 12 12 12 12 12 12 13 
13 13 14 15 15 15 15 15 15 16 16 17 17 18 18 19 19 
20 21 21 22 22 22 22 22 22 21 21 21 20 20 19 19 19 
19 19 18 18 18 18 18 18 18 18 18 18 18 18 18 17 17 
17 16 16 16 16 16 16 16 16 16 16 16 17 17 17 18 18 
19 20 20 21 21 22 23 24 24 25 26 27 28 28 29 11 11 
10 10 10 10 10 10 10 10 10 10 10 10 9 9 9 9 9 
9 9 8 8 7 7 7 7 7 6 6 6 6 6 6 6 6 
5 5 5 5 5 5 5 5 5 5 5 6 7 7 8 9 10 
11 11 11 11 11 11 11 11 12 12 13 13 14 14 14 14 14 
14 15 15 16 16 17 17 18 19 19 20 21 21 21 21 21 21 
21 21 20 20 19 19 18 18 18 18 18 18 17 17 17 17 17 
17 17 17 17 17 17 17 17 16 16 15 15 15 15 15 15 15 
15 15 15 15 16 16 17 17 18 18 19 19 20 21 21 22 23 
24 25 25 26 27 28 29 10 10 9 9 9 9 9 9 9 9 
9 9 9 9 8 8 8 8 8 8 8 7 7 6 6 6 6 
6 5 5 5 5 5 5 5 5 5 4 4 4 4 4 4 4 
4 4 5 5 6 7 8 8 9 10 10 10 10 10 10 10 10 
11 11 12 12 13 13 13 13 13 13 14 14 15 15 16 17 17 
18 19 19 20 20 20 20 20 20 20 20 19 19 18 18 18 17 
17 17 17 17 16 16 16 16 16 16 16 16 16 16 16 16 16 
15 15 14 14 14 14 14 14 14 14 14 14 14 15 15 16 16 
17 17 18 19 19 20 21 22 22 23 24 25 26 26 27 28 10 
9 8 8 8 8 8 8 8 8 8 8 8 8 8 7 7 7 
7 7 7 7 6 5 5 5 5 5 5 4 4 4 4 4 5 
5 4 3 3 3 3 3 3 3 3 3 4 5 5 6 7 8 
9 9 9 9 9 9 9 9 9 10 10 11 12 12 12 12 12 
12 13 13 13 14 15 15 16 16 17 18 19 19 19 19 19 19 
19 19 19 18 18 17 17 17 16 16 16 16 16 15 15 15 15 
15 15 15 15 15 15 15 15 15 14 14 13 13 13 13 13 13 
13 13 13 13 13 14 14 15 15 16 17 17 18 19 19 20 21 
22 23 23 24 25 26 27 28 9 8 8 7 7 7 7 7 7 
7 7 7 7 7 7 6 6 6 6 6 6 6 5 5 4 4 
4 4 4 3 3 3 3 3 4 4 3 2 2 2 2 2 2 
2 2 2 3 4 5 6 7 8 8 8 8 8 8 8 8 8 
8 9 10 10 11 11 11 11 11 11 12 12 13 13 14 14 15 
16 17 17 18 18 18 18 18 18 18 18 18 18 17 17 16 16 
15 15 15 15 15 14 14 14 14 14 14 14 14 14 14 14 15 
14 13 13 13 12 12 12 12 12 12 12 12 12 13 13 13 14 
15 15 16 16 17 18 19 20 20 21 22 23 24 25 25 26 27 
8 7 7 6 6 6 6 6 6 6 6 6 6 6 6 5 5 
5 5 5 5 5 5 4 3 3 3 3 3 2 2 2 2 2 
3 4 3 2 1 1 1 2 1 1 1 2 3 4 5 6 7 
7 8 7 7 7 7 7 7 7 8 8 9 9 10 10 10 10 
10 10 11 11 12 12 13 14 14 15 16 17 17 17 17 17 17 
17 17 17 17 17 16 16 15 15 14 14 14 14 14 13 13 13 
13 13 13 13 13 13 13 13 14 13 13 12 12 11 11 11 11 
11 11 11 11 11 12 12 13 13 14 14 15 16 17 17 18 19 
20 21 21 22 23 24 25 26 27 7 7 6 5 5 5 5 5 
5 5 5 5 5 5 5 5 4 4 4 4 4 5 4 3 2 
2 2 2 2 2 1 1 1 2 3 4 3 2 1 0 1 2 
1 0 1 2 3 4 5 5 6 7 7 6 6 6 6 6 6 
6 7 7 8 9 9 9 9 9 9 9 10 10 11 12 12 13 
14 15 15 16 16 16 16 16 16 16 16 16 16 16 15 15 14 
14 13 13 13 13 13 13 12 12 12 12 12 12 12 12 12 13 
13 12 12 11 11 10 10 10 10 10 10 10 10 10 11 11 12 
12 13 14 14 15 16 17 18 18 19 20 21 22 23 24 25 26 
26 7 6 5 5 4 4 4 4 4 5 5 4 4 4 4 4 
3 3 3 3 3 4 3 2 2 1 1 1 2 2 1 0 1 
2 3 3 3 2 1 1 1 2 1 1 1 2 3 3 4 5 
5 6 6 5 5 5 5 5 5 5 6 7 7 8 8 8 8 
8 8 8 9 10 10 11 12 12 13 14 15 15 15 15 15 15 
15 15 15 15 15 15 15 14 13 13 13 12 12 12 12 12 11 
11 11 11 11 11 11 11 11 12 12 12 11 10 10 9 9 9 
9 9 9 9 9 9 10 10 11 12 12 13 14 15 15 16 17 
18 19 20 21 21 22 23 24 25 26 6 5 5 4 3 3 3 
3 3 4 4 3 3 3 3 3 2 2 2 2 2 3 3 2 
1 1 0 1 2 2 1 1 1 2 2 2 2 2 2 2 2 
2 2 2 2 2 2 2 3 4 5 6 5 5 4 4 4 4 
4 5 5 6 7 7 7 7 7 7 7 8 8 9 9 10 11 
12 13 13 14 14 14 14 14 14 14 14 14 14 14 14 14 13 
13 12 12 11 11 11 11 11 10 10 10 10 10 10 10 10 10 
11 11 11 10 10 9 8 8 8 8 8 8 8 8 8 9 10 
10 11 12 12 13 14 15 16 17 17 18 19 20 21 22 23 24 
25 26 6 5 4 3 2 2 2 2 2 3 3 2 2 2 2 
2 2 1 1 1 2 3 3 2 1 0 1 1 2 2 2 2 
2 2 1 1 1 2 3 3 3 3 3 2 1 1 1 2 3 
4 5 5 5 4 3 3 3 3 3 4 5 5 6 6 6 6 
6 6 6 7 7 8 9 10 10 11 12 13 13 13 13 13 13 
13 13 13 13 13 13 14 13 12 12 11 11 10 10 10 10 10 
9 9 9 9 9 9 9 9 9 10 10 10 9 9 8 8 7 
7 7 7 7 7 7 8 8 9 9 10 11 12 13 13 14 15 
16 17 18 19 20 21 22 23 24 25 25 6 5 4 3 2 1 
1 1 2 3 3 2 1 1 1 2 2 1 0 1 2 3 3 
2 1 1 1 1 1 1 2 3 3 2 1 0 1 2 2 3 
4 4 3 2 1 0 1 2 3 4 5 4 4 3 2 2 2 
2 2 3 4 5 5 5 5 5 5 5 5 6 7 7 8 9 
10 11 11 12 12 12 12 12 12 12 12 12 12 12 13 13 12 
12 11 10 10 9 9 9 9 9 8 8 8 8 8 8 8 8 
8 9 10 10 9 8 7 7 6 6 6 6 6 6 6 7 7 
8 9 10 10 11 12 13 14 15 16 17 18 18 19 20 21 22 
23 24 25 6 5 4 3 2 1 0 1 2 3 3 2 1 0 
1 2 2 1 1 1 2 3 3 2 2 2 2 1 0 1 2 
2 3 2 1 1 1 1 2 3 4 4 3 2 1 1 1 2 
3 4 4 3 3 3 2 1 1 1 2 3 4 5 5 4 4 
4 4 4 5 5 6 7 8 8 9 10 10 11 11 11 11 11 
11 11 11 11 11 11 12 12 12 11 10 10 9 8 8 8 8 
8 8 7 7 7 7 7 7 7 8 8 9 9 8 7 7 6 
5 5 5 5 5 5 5 6 7 7 8 9 10 11 12 13 13 
14 15 16 17 18 19 20 21 22 23 24 25 6 5 4 3 2 
1 1 1 2 3 3 2 1 1 1 2 2 2 2 2 2 3 
4 3 3 3 2 1 1 1 1 2 2 2 2 1 0 1 2 
3 4 4 3 2 2 2 2 2 3 4 3 2 2 2 2 1 
0 1 2 3 4 5 4 3 3 3 3 3 4 5 5 6 7 
8 9 9 9 10 10 10 10 10 10 10 10 10 10 10 11 11 
11 10 9 9 8 8 7 7 7 7 7 6 6 6 6 6 6 
6 7 7 8 8 8 7 6 5 5 4 4 4 4 4 5 5 
6 7 8 8 9 10 11 12 13 14 15 16 17 18 19 20 21 
22 23 24 25 6 5 4 3 2 2 2 2 2 2 2 2 2 
2 2 2 3 3 3 3 3 4 5 4 4 3 2 2 1 0 
1 2 1 1 1 1 1 1 2 3 4 4 4 3 3 3 3 
3 4 4 3 2 1 1 1 1 1 1 2 3 4 4 3 2 
2 2 2 2 3 4 5 6 7 8 8 8 8 9 10 9 9 
9 9 9 9 9 9 9 10 10 10 10 9 8 7 7 6 6 
6 6 6 5 5 5 5 5 5 5 6 7 7 8 7 6 5 
5 4 3 3 3 3 3 4 5 5 6 7 8 9 10 11 12 
13 14 15 16 17 18 19 20 21 22 23 24 25 6 5 5 4 
3 2 2 2 2 2 1 1 1 2 3 3 4 4 4 4 4 
4 4 4 5 4 3 2 1 1 1 1 1 0 1 2 2 2 
2 3 4 3 3 3 3 3 4 4 4 4 3 2 1 0 0 
1 2 2 2 3 4 4 3 2 1 1 1 2 3 4 5 6 
7 7 7 7 8 8 9 8 8 8 8 8 8 8 8 8 9 
10 10 9 8 7 7 6 5 5 5 5 5 5 4 4 4 4 
4 5 5 6 7 8 7 6 5 4 3 2 2 2 2 2 3 
4 5 6 7 8 9 10 11 12 13 14 15 16 17 18 19 20 
21 22 23 24 25 7 6 5 4 3 2 1 1 1 2 1 0 
1 2 3 4 4 4 4 3 3 3 3 3 4 4 3 2 1 
1 1 1 0 1 1 2 3 3 3 4 3 2 2 2 2 2 
3 4 3 3 3 2 1 1 1 1 2 3 3 4 5 4 3 
2 1 0 1 2 3 4 5 6 6 6 6 6 7 7 8 8 
7 7 7 7 7 7 7 8 8 9 9 8 8 7 6 5 5 
4 4 4 4 4 3 3 3 3 3 4 5 5 6 7 7 6 
5 4 3 2 1 1 1 2 3 4 5 6 7 8 9 10 11 
12 13 14 15 16 17 18 19 20 21 22 23 24 25 7 6 5 
4 3 2 1 0 1 2 1 1 1 2 3 3 3 3 3 2 
2 2 2 2 3 4 3 2 1 0 1 1 1 1 2 2 3 
4 4 4 3 2 1 1 1 2 3 3 2 2 2 2 2 2 
2 2 2 3 4 5 4 3 2 2 1 1 1 2 3 4 5 
5 5 5 5 5 6 7 7 7 6 6 6 6 6 6 6 7 
7 8 9 8 7 6 5 5 4 3 3 3 3 3 2 2 2 
2 2 3 4 5 6 7 7 6 5 4 3 2 1 0 1 2 
3 4 5 6 7 8 9 10 11 12 13 14 15 16 17 18 19 
20 21 22 23 24 25 7 6 5 4 3 2 1 1 1 2 2 
2 2 2 2 2 2 2 3 2 1 1 1 2 3 4 3 2 
1 1 1 0 1 2 2 3 4 5 5 4 3 2 1 0 1 
2 3 3 2 1 1 1 2 3 3 3 3 3 4 5 4 3 
2 1 1 1 2 2 3 4 4 4 4 4 4 5 5 6 7 
6 5 5 5 5 5 5 5 6 7 7 8 8 7 6 5 4 
3 2 2 2 2 2 2 1 1 1 2 3 4 5 6 7 7 
6 5 4 3 2 1 1 1 2 3 4 5 6 7 8 9 10 
11 12 13 14 15 16 17 18 19 20 21 22 23 24 25 7 6 
5 4 3 2 2 2 2 2 3 3 3 2 1 1 1 2 3 
2 1 0 1 2 3 4 3 2 2 2 1 1 1 2 3 4 
5 5 5 4 3 2 1 1 1 2 3 3 2 1 0 1 2 
2 2 2 2 2 3 4 4 3 2 1 0 1 1 2 3 4 
3 3 3 3 3 4 5 5 6 5 5 4 4 4 4 4 5 
5 6 7 8 8 7 6 5 4 3 2 1 1 1 2 2 1 
0 1 2 3 4 5 6 7 7 6 5 4 3 2 2 2 2 
2 3 4 5 6 7 8 9 10 11 12 13 14 15 16 17 18 
19 20 21 22 23 24 25 7 6 5 5 4 3 3 3 3 3 
4 4 3 2 1 0 1 2 3 2 1 1 1 2 3 4 4 
3 3 2 2 2 2 2 3 4 5 6 5 4 3 2 2 2 
2 2 3 3 2 1 0 1 2 2 1 1 1 2 3 3 3 
3 2 1 1 0 1 2 3 3 2 2 2 2 2 3 4 5 
5 5 4 3 3 3 3 3 4 5 5 6 7 8 7 6 5 
4 3 2 1 0 1 2 2 1 1 1 2 3 4 5 6 7 
7 6 5 5 4 3 3 3 3 3 4 5 5 6 7 8 9 
10 11 12 13 14 15 16 17 18 19 20 21 22 23 24 25 8 
7 6 5 5 4 4 4 4 4 5 4 3 2 1 1 1 2 
3 2 2 2 2 2 3 4 5 4 4 3 3 3 3 3 4 
5 5 6 5 5 4 3 3 3 3 3 4 3 2 1 1 1 
2 2 1 0 1 2 2 2 2 2 2 2 1 1 1 2 3 
3 2 1 1 1 2 3 4 5 5 4 3 2 2 2 2 2 
3 4 5 6 7 8 7 6 5 4 3 2 1 1 1 2 2 
2 2 2 2 3 4 5 6 7 8 7 6 5 5 4 4 4 
4 4 5 5 6 7 8 8 9 10 11 12 13 14 15 16 17 
18 19 20 21 22 23 24 25 8 7 7 6 5 5 5 5 5 
5 5 4 3 2 2 2 2 2 3 3 3 3 3 3 4 5 
5 5 5 4 4 4 4 4 5 5 6 7 6 5 5 4 4 
4 4 4 4 3 2 1 0 1 2 2 1 1 1 2 1 1 
1 2 3 2 2 2 2 2 3 3 2 1 0 1 2 3 4 
5 5 4 3 2 1 1 1 2 3 4 5 6 7 8 7 6 
5 4 3 2 2 2 2 2 2 3 3 3 3 4 5 5 6 
7 7 7 6 6 5 5 5 5 5 5 5 6 7 7 8 9 
10 11 12 13 13 14 15 16 17 18 19 20 21 22 23 24 25 
9 8 7 7 6 6 6 6 5 5 5 5 4 3 3 3 3 
3 4 4 4 4 4 4 5 5 6 6 5 5 5 5 5 5 
5 6 7 7 7 6 5 5 5 5 5 5 4 3 2 1 1 
1 2 2 1 1 1 2 1 0 1 2 3 3 3 3 3 3 
4 3 2 1 1 1 2 3 4 5 5 4 3 2 1 0 1 
2 3 4 5 6 7 8 7 6 5 5 4 3 2 1 1 1 
2 3 4 4 4 5 5 6 7 7 7 6 5 5 5 5 5 
5 5 5 6 7 7 8 9 10 10 11 12 13 14 15 16 17 
18 18 19 20 21 22 23 24 25 9 9 8 8 7 7 6 5 
5 4 4 4 4 4 4 4 4 4 5 5 5 5 5 5 5 
6 7 7 6 6 6 6 6 6 6 7 7 8 7 7 6 6 
6 6 6 5 4 3 2 2 2 2 2 1 1 0 1 2 1 
1 1 2 3 3 3 3 3 3 4 3 2 2 2 2 2 3 
4 5 5 4 3 2 1 1 1 2 3 4 5 6 7 8 8 
7 6 5 4 3 2 1 0 1 2 3 4 5 5 5 6 7 
7 7 6 5 5 4 4 4 4 4 4 5 5 6 7 8 8 
9 10 11 12 13 14 15 16 17 18 19 20 21 22 23 24 25 
25 10 10 9 8 7 6 5 5 4 3 3 3 3 3 4 4 
4 5 5 6 6 6 6 6 6 7 7 8 7 7 7 7 7 
7 7 8 8 9 8 8 7 7 7 7 6 5 5 4 3 3 
3 3 2 1 0 1 1 1 1 0 1 2 3 2 2 2 2 
2 3 4 3 3 3 3 3 4 5 5 5 4 3 2 2 2 
2 2 3 4 5 6 7 8 8 7 6 5 4 3 2 1 0 
1 2 3 4 5 6 6 7 7 7 6 5 5 4 3 3 3 
3 3 3 4 5 5 6 7 8 9 10 11 12 13 14 15 16 
17 18 19 20 21 22 23 24 25 26 11 10 9 8 7 6 5 
4 3 2 2 2 2 2 3 3 3 4 5 5 6 7 7 7 
7 8 8 8 8 8 8 8 8 8 8 8 8 8 9 8 8 
8 8 8 7 6 5 5 4 4 4 3 2 1 1 1 0 1 
1 1 1 2 3 2 1 1 1 2 3 4 4 4 4 4 4 
5 5 6 5 5 4 3 3 3 3 3 4 5 5 6 7 8 
8 7 6 5 4 3 2 1 1 1 2 3 4 5 6 7 8 
8 7 6 5 4 3 2 2 2 2 2 2 3 4 5 6 7 
8 9 10 11 12 13 14 15 16 17 18 19 20 21 22 23 24 
25 26 11 10 9 8 7 6 5 4 3 2 1 1 1 2 2 
2 2 3 4 5 6 7 8 8 8 8 8 8 7 7 7 7 
7 7 7 7 7 8 8 9 9 9 9 8 7 7 6 5 5 
5 4 3 2 2 2 1 1 1 2 2 2 2 3 2 1 0 
1 2 3 4 5 5 5 5 5 5 6 7 6 5 5 4 4 
4 4 4 5 5 6 7 8 8 8 7 6 5 4 3 2 2 
2 2 2 3 4 5 6 7 8 8 7 6 5 4 3 2 1 
1 1 1 2 3 4 5 6 7 8 9 10 11 12 13 14 15 
16 17 18 19 20 21 22 23 24 25 26 11 10 9 8 7 6 
5 4 3 2 1 0 1 1 1 1 2 3 4 5 6 7 8 
9 9 8 7 7 6 6 6 6 6 6 6 6 6 7 7 8 
9 10 10 9 8 7 7 6 5 5 4 4 3 3 2 2 2 
2 2 3 3 3 3 2 1 1 1 2 3 4 5 6 6 6 
6 6 7 7 7 6 5 5 5 5 5 5 5 6 7 7 8 
9 8 7 6 5 5 4 3 3 3 3 3 4 5 5 6 7 
8 8 7 6 5 4 3 2 1 0 0 1 2 3 4 5 6 
7 8 9 10 11 12 13 14 15 16 17 18 19 20 21 22 23 
24 25 26 11 10 9 8 7 6 5 4 3 2 1 1 1 1 
0 1 2 3 4 5 6 7 8 9 8 7 7 6 5 5 5 
5 5 5 5 5 5 6 7 7 8 9 10 9 8 7 6 5 
5 4 3 3 3 3 3 3 3 3 3 4 4 4 3 2 2 
2 2 2 3 4 5 5 5 5 5 5 6 6 6 5 5 4 
4 4 4 4 5 5 6 7 8 8 8 8 7 6 5 5 4 
4 4 4 4 5 5 6 7 8 8 8 7 6 5 4 3 2 
1 1 1 1 2 3 4 5 6 7 8 9 10 11 12 13 14 
15 16 17 18 19 20 21 22 23 24 25 26 11 10 9 8 7 
6 5 4 3 2 2 2 2 1 1 1 2 3 4 5 6 7 
8 8 8 7 6 5 5 4 4 4 4 4 4 4 5 5 6 
7 8 8 9 9 8 7 6 5 4 3 2 2 2 2 2 3 
4 4 4 5 5 5 4 3 3 3 3 3 4 5 4 4 4 
4 4 5 5 5 5 5 4 3 3 3 3 3 4 5 5 6 
7 8 9 8 7 7 6 5 5 5 5 5 5 5 6 6 7 
7 8 8 7 6 5 4 3 2 2 2 2 2 2 3 4 5 
6 7 8 9 10 11 12 13 14 15 16 17 18 19 20 21 22 
23 24 25 26 11 10 9 8 7 6 5 5 4 3 3 3 2 
2 2 2 2 3 4 5 6 7 8 8 7 6 5 5 4 3 
3 3 3 3 3 3 4 5 5 6 7 8 9 9 8 7 6 
5 4 3 2 1 1 1 2 3 4 5 5 5 6 5 5 4 
3 3 3 3 3 4 3 3 3 3 3 4 4 4 5 4 3 
2 2 2 2 2 3 4 5 6 7 8 9 9 8 7 7 6 
6 5 5 5 5 5 5 5 6 7 7 8 7 6 5 5 4 
3 3 3 3 3 3 4 5 5 6 7 8 9 10 11 12 13 
14 15 16 17 18 19 20 21 22 23 24 25 26 11 10 9 8 
8 7 6 5 5 4 4 4 3 3 3 3 3 4 5 5 6 
7 8 8 7 6 5 4 3 2 2 2 2 2 2 2 3 4 
5 6 7 8 9 8 8 7 6 5 4 3 2 1 0 1 2 
3 4 5 5 6 6 5 4 3 2 2 2 2 2 3 2 2 
2 2 2 3 3 3 4 4 3 2 1 1 1 2 3 4 5 
6 7 8 9 9 8 8 7 6 5 5 4 4 4 4 4 5 
5 6 7 8 8 7 6 5 5 4 4 4 4 4 4 5 5 
6 7 8 8 9 10 11 12 13 14 15 16 17 18 19 20 21 
22 23 24 25 26 12 11 10 9 8 7 7 6 5 5 5 5 
4 4 4 4 4 5 5 6 7 7 7 8 7 6 5 4 3 
2 1 1 1 1 1 2 3 4 5 6 7 8 9 8 7 6 
5 5 4 3 2 1 1 1 2 3 3 4 5 5 6 5 4 
3 2 1 1 1 2 3 2 1 1 1 2 2 2 2 3 4 
3 2 1 0 1 2 3 4 5 6 7 8 9 9 8 7 6 
5 5 4 3 3 3 3 3 4 5 5 6 7 8 7 7 6 
5 5 5 5 5 5 5 5 6 7 7 8 9 10 11 12 13 
13 14 15 16 17 18 19 20 21 22 23 24 25 26 12 11 10 
10 9 8 7 7 6 6 6 5 5 5 5 5 5 5 6 6 
6 6 6 7 7 6 5 4 3 2 1 0 1 0 1 2 3 
4 5 6 7 8 9 8 7 6 5 4 3 2 2 2 2 2 
2 2 2 3 4 5 6 5 4 3 2 1 0 1 2 3 2 
1 0 1 1 1 1 2 3 4 3 2 1 1 1 2 3 4 
5 6 7 8 9 9 8 7 6 5 4 3 2 2 2 2 2 
3 4 5 6 7 8 8 7 6 5 5 4 4 4 4 4 5 
5 6 7 8 8 9 10 11 12 13 14 15 16 17 18 19 20 
21 22 23 24 25 26 13 12 11 10 9 9 8 8 7 7 7 
6 6 6 6 6 5 5 5 5 5 5 5 6 7 6 5 4 
3 2 1 1 1 1 1 2 3 4 5 6 7 8 9 8 7 
6 5 4 3 2 1 1 1 1 1 1 2 3 4 5 6 5 
4 3 2 1 1 1 2 3 2 1 1 1 1 0 1 2 3 
4 3 2 1 0 1 2 3 4 5 6 7 8 9 9 8 7 
6 5 4 3 2 1 1 1 2 3 4 5 6 7 8 7 6 
5 5 4 3 3 3 3 3 4 5 5 6 7 8 9 10 11 
12 13 14 15 16 17 18 19 20 21 22 23 24 25 26 13 12 
12 11 10 10 9 8 8 8 8 7 7 7 6 5 5 4 4 
4 4 4 5 5 6 6 5 4 3 2 2 2 2 2 2 2 
3 4 5 6 7 8 9 8 7 6 5 4 3 2 1 0 0 
1 0 1 2 3 4 5 6 5 4 3 2 2 2 2 2 3 
2 2 2 2 1 1 1 2 3 4 3 2 1 1 1 2 3 
4 5 6 7 8 9 9 8 7 6 5 4 3 2 1 0 1 
2 3 4 5 6 7 8 7 6 5 4 3 2 2 2 2 2 
3 4 5 6 7 8 9 10 11 12 13 14 15 16 17 18 19 
20 21 22 23 24 25 26 14 13 12 12 11 10 10 9 8 7 
7 6 6 6 5 5 4 3 3 3 3 3 4 5 5 6 5 
5 4 3 3 3 3 3 3 3 4 5 5 6 7 8 9 8 
7 6 5 4 3 2 1 1 1 1 1 1 2 3 4 5 6 
5 5 4 3 3 3 3 3 4 3 3 3 2 2 2 2 2 
3 4 3 2 2 2 2 2 3 4 5 6 7 8 9 9 8 
7 6 5 4 3 2 1 1 1 2 3 4 5 6 7 8 7 
6 5 4 3 2 1 1 1 2 3 4 5 6 7 8 9 10 
11 12 13 14 15 16 17 18 19 20 21 22 23 24 25 26 14 
13 13 12 11 10 9 8 7 7 6 5 5 5 5 4 3 2 
2 2 2 2 3 4 5 6 6 5 5 4 4 4 4 4 4 
4 5 5 6 7 8 8 9 8 7 6 5 4 3 2 2 2 
1 1 0 1 2 3 4 5 6 6 5 5 4 4 4 4 4 
5 4 4 4 3 3 3 3 3 4 5 4 3 3 3 3 3 
4 5 5 6 7 8 9 9 8 7 6 5 4 3 2 2 2 
2 2 3 4 5 6 7 8 7 6 5 4 3 2 1 0 1 
2 3 4 5 6 7 8 9 10 11 12 13 14 15 16 17 18 
19 20 21 22 23 24 25 26 14 13 12 11 10 9 8 8 7 
6 5 5 4 4 4 4 3 2 1 1 1 2 3 4 5 6 
6 6 5 5 5 5 5 5 5 5 5 6 7 7 8 9 9 
8 7 6 5 5 4 3 3 2 1 0 1 1 2 3 4 5 
6 7 6 5 5 5 5 5 5 5 5 5 5 4 4 4 4 
4 5 5 5 4 4 4 4 4 5 5 6 7 8 8 9 9 
8 7 6 5 5 4 3 3 3 3 3 4 5 5 6 7 8 
7 6 5 4 3 2 1 1 1 2 3 4 5 6 7 8 9 
10 11 12 13 14 15 16 17 18 19 20 21 22 23 24 25 26 
14 13 12 11 10 9 8 7 6 5 5 4 3 3 3 3 3 
2 1 0 1 2 3 4 5 6 5 5 5 5 5 5 5 6 
6 6 6 7 7 8 9 10 9 8 8 7 6 5 5 4 3 
2 1 1 1 2 2 3 4 5 6 7 7 6 6 6 6 6 
6 6 6 6 5 5 5 5 5 5 5 6 5 5 5 5 5 
5 5 6 7 7 8 9 10 9 8 7 7 6 5 5 4 4 
4 4 4 5 5 6 7 8 8 7 6 5 4 3 2 2 2 
2 2 3 4 5 6 7 8 9 10 11 12 13 14 15 16 17 
18 19 20 21 22 23 24 25 26 14 13 12 11 10 9 8 7 
6 5 4 3 2 2 2 2 2 2 1 1 1 2 3 4 5 
5 5 4 4 4 4 4 5 5 6 7 7 8 8 9 9 10 
10 9 8 7 7 6 5 4 3 2 2 2 2 2 3 4 5 
5 6 7 8 7 7 7 7 7 7 7 7 7 6 6 6 6 
6 6 6 7 6 6 6 6 6 6 6 7 7 8 9 10 9 
8 8 7 6 5 5 4 4 4 4 4 5 5 6 7 7 8 
8 7 6 5 5 4 3 3 3 3 3 4 5 5 6 7 8 
9 10 11 12 13 14 15 16 17 18 19 20 21 22 23 24 25 
26 14 13 12 11 10 9 8 7 6 5 4 3 2 1 1 1 
2 2 2 2 2 2 3 4 5 5 4 3 3 3 3 3 4 
5 5 6 7 8 9 10 9 9 9 9 9 8 7 6 5 5 
4 3 3 3 3 3 4 5 5 6 7 8 8 8 8 8 8 
8 8 8 8 8 7 7 6 6 6 6 6 6 6 7 7 7 
7 7 7 8 8 9 9 10 9 8 7 6 5 5 4 3 3 
3 3 3 4 5 5 6 7 8 8 8 7 6 5 5 4 4 
4 4 4 5 5 6 7 8 8 9 10 11 12 13 14 15 16 
17 18 19 20 21 22 23 24 25 26 14 13 12 11 10 9 8 
7 6 5 4 3 2 1 0 1 2 3 3 3 3 3 4 5 
5 4 3 2 2 2 2 2 3 4 5 6 7 8 9 9 8 
8 8 8 8 8 8 7 6 5 5 4 4 4 4 4 5 5 
6 7 7 8 9 9 9 9 9 9 9 9 8 7 7 6 5 
5 5 5 5 5 5 6 7 7 8 8 8 8 9 10 10 10 
9 8 7 6 5 4 3 2 2 2 2 2 3 4 5 6 7 
8 9 8 7 7 6 5 5 5 5 5 5 5 6 7 7 8 
9 10 11 12 13 13 14 15 16 17 18 19 20 21 22 23 24 
25 26 14 13 12 11 10 9 8 7 6 5 4 3 2 1 1 
1 2 3 4 4 4 4 5 5 5 4 3 2 1 1 1 2 
3 4 5 6 7 8 8 8 8 7 7 7 7 7 7 7 7 
6 5 5 5 5 5 5 5 6 6 7 7 8 9 10 10 10 
10 10 9 8 8 7 6 5 5 4 4 4 4 4 5 5 6 
7 8 8 9 9 10 10 10 10 9 8 7 6 5 4 3 2 
1 1 1 2 3 4 5 6 7 8 9 9 8 7 7 6 6 
6 6 6 6 6 7 7 8 9 10 10 11 12 13 14 15 16 
17 18 18 19 20 21 22 23 24 25 26 14 13 12 11 10 9 
8 7 6 5 4 3 2 2 2 2 2 3 4 5 5 5 5 
6 5 4 3 2 1 0 1 2 3 4 5 6 7 7 8 7 
7 6 6 6 6 6 6 6 7 6 5 5 5 5 5 5 5 
5 5 6 7 7 8 9 10 11 11 10 9 8 7 6 5 5 
4 3 3 3 3 3 4 5 5 6 7 8 9 10 9 9 9 
9 9 8 7 6 5 4 3 2 1 0 1 2 3 4 5 6 
7 8 9 9 8 8 7 7 7 7 7 7 7 7 8 8 9 
9 10 11 12 12 13 14 15 16 17 17 18 19 20 21 22 23 
24 25 26 14 13 12 11 10 9 8 7 6 5 5 4 3 3 
3 3 3 4 5 5 6 6 6 6 5 4 3 2 1 1 1 
2 3 4 5 6 6 6 7 7 6 5 5 5 5 5 5 5 
6 5 5 4 4 4 4 4 4 4 5 5 6 7 8 8 9 
10 10 10 9 8 7 6 5 4 3 2 2 2 2 2 3 4 
5 6 7 8 9 9 8 8 8 8 8 8 7 6 5 4 3 
2 1 1 1 2 3 4 5 6 7 8 9 8 7 7 6 6 
6 6 6 6 6 7 7 8 8 9 9 10 11 12 13 13 14 
15 16 17 18 19 20 21 22 23 24 25 25 14 13 12 11 10 
9 8 8 7 6 5 5 4 4 4 4 4 5 5 6 7 7 
7 6 5 4 3 2 2 2 2 2 3 4 5 5 5 5 6 
6 5 5 4 4 4 4 4 5 5 5 4 3 3 3 3 3 
3 3 4 5 5 6 7 8 9 10 9 9 8 8 7 6 5 
4 3 2 1 1 1 2 3 4 5 6 7 8 9 8 8 7 
7 7 7 7 7 6 5 4 3 2 2 2 2 2 3 4 5 
6 7 8 8 7 7 6 5 5 5 5 5 5 5 6 6 7 
7 8 9 10 10 11 12 13 14 15 16 17 18 18 19 20 21 
22 23 24 25 14 13 13 12 11 10 9 8 7 7 6 5 5 
5 5 5 5 5 6 7 7 7 7 6 5 5 4 3 3 3 
3 3 4 4 4 4 4 5 5 5 5 4 3 3 3 3 3 
4 5 4 3 2 2 2 2 2 2 2 3 4 5 6 7 8 
9 10 9 8 7 7 6 6 5 4 3 2 1 0 1 2 3 
4 5 6 7 8 8 7 7 6 6 6 6 6 6 6 5 4 
3 2 1 1 1 2 3 4 5 6 7 8 8 7 6 5 5 
4 4 4 4 4 5 5 5 6 7 7 8 9 10 11 12 13 
13 14 15 16 17 18 19 20 21 22 23 24 25 15 14 13 12 
11 10 10 9 8 7 7 6 6 6 6 6 6 6 7 7 8 
7 6 5 5 4 4 4 4 4 4 4 3 3 3 3 3 4 
5 5 4 3 2 2 2 2 2 3 4 4 3 2 1 1 1 
1 1 2 3 4 5 6 7 8 9 9 8 7 7 6 5 5 
5 4 3 2 1 1 1 2 3 4 5 6 7 8 7 7 6 
5 5 5 5 5 5 5 5 4 3 2 1 0 1 2 3 4 
5 6 7 8 7 6 5 5 4 3 3 3 3 3 4 4 5 
5 6 7 8 8 9 10 11 12 13 14 15 16 17 18 19 20 
21 22 23 24 25 15 14 13 13 12 11 10 9 9 8 8 7 
7 7 7 7 7 7 8 8 7 6 5 5 4 3 3 3 3 
3 4 3 2 2 2 2 2 3 4 5 4 3 2 1 1 1 
2 3 4 4 3 2 1 0 0 0 1 2 3 4 5 6 7 
8 9 8 8 7 6 5 5 4 4 4 3 2 2 2 2 2 
3 4 5 5 6 7 7 6 5 5 4 4 4 4 4 5 5 
4 3 2 1 1 1 2 3 4 5 6 7 8 7 6 5 4 
3 2 2 2 2 2 3 3 4 5 5 6 7 8 9 10 11 
12 13 14 15 16 17 18 19 20 21 22 23 24 25 16 15 14 
13 12 12 11 10 10 9 8 8 8 8 8 8 8 8 8 8 
7 6 5 4 3 2 2 2 2 2 3 3 2 1 1 1 2 
3 4 5 4 3 2 1 0 1 2 3 4 4 3 2 1 1 
1 1 1 2 3 4 5 6 7 8 9 8 7 6 5 5 4 
3 3 3 3 3 2 2 2 2 2 3 4 5 6 7 6 5 
5 4 3 3 3 3 3 4 5 4 3 2 2 2 2 2 3 
4 5 6 7 8 7 6 5 4 3 2 1 1 1 2 2 2 
3 4 5 6 7 8 9 10 11 12 13 14 15 16 17 18 19 
20 21 22 23 24 25 16 15 15 14 13 12 12 11 10 10 9 
9 9 9 9 9 9 9 9 8 7 6 5 4 3 2 1 1 
1 2 3 3 2 1 0 1 2 3 4 5 4 3 2 1 1 
1 2 3 4 4 3 2 2 2 2 2 2 2 3 4 5 6 
7 8 9 8 7 6 5 4 3 2 2 2 2 2 2 1 1 
1 2 3 4 5 6 7 6 5 4 3 2 2 2 2 2 3 
4 5 4 3 3 3 3 3 4 5 5 6 7 8 7 6 5 
4 3 2 1 0 1 1 1 2 3 4 5 6 7 8 9 10 
11 12 13 14 15 16 17 18 19 20 21 21 22 23 24 15 15 
14 14 13 13 12 12 11 11 10 10 10 10 10 10 10 10 9 
8 7 6 5 4 3 2 1 0 1 2 3 3 2 1 1 1 
2 3 4 5 4 3 2 2 2 2 2 3 4 5 4 3 3 
3 3 3 3 3 4 5 5 6 7 8 9 8 7 6 5 4 
3 2 1 1 1 2 2 1 0 1 2 3 4 5 6 7 6 
5 4 3 2 1 1 1 2 3 4 5 5 4 4 4 4 4 
5 5 6 7 7 8 7 6 5 4 3 2 1 1 1 0 1 
2 3 4 5 6 7 8 9 10 11 12 13 14 15 16 17 17 
18 19 20 21 22 23 24 15 14 13 13 13 12 12 12 12 12 
11 11 11 11 11 11 11 10 9 8 7 6 5 4 3 2 1 
1 1 2 3 3 2 2 2 2 2 3 4 4 4 4 3 3 
3 3 3 4 5 5 5 4 4 4 4 4 4 4 5 5 6 
7 8 8 9 8 7 6 5 4 3 2 1 0 1 2 2 1 
1 1 2 3 4 5 6 7 6 5 4 3 2 1 0 1 2 
3 4 5 5 5 4 4 4 4 4 5 5 6 7 8 7 6 
5 4 3 2 2 2 1 1 1 2 3 4 5 6 7 8 9 
10 11 12 13 13 14 15 16 17 18 19 20 21 22 23 24 14 
13 13 12 12 11 11 11 11 11 11 11 11 11 12 12 11 10 
9 8 7 6 5 4 3 2 2 2 2 2 3 4 3 3 3 
3 3 3 3 3 3 3 4 3 3 3 3 3 4 5 5 5 
5 5 5 5 5 5 5 6 7 7 8 9 9 8 7 6 5 
4 3 2 1 1 1 2 2 2 2 2 2 3 4 5 6 7 
6 5 4 3 2 1 1 1 2 3 4 5 5 4 3 3 3 
3 3 4 5 5 6 7 7 6 5 5 4 3 3 2 2 2 
2 2 3 4 5 6 7 8 9 10 10 11 12 13 14 15 16 
17 18 18 19 20 21 22 23 13 12 12 11 11 10 10 10 10 
10 10 10 10 10 11 11 11 10 9 8 7 6 5 5 4 3 
3 3 3 3 4 5 4 4 4 4 3 2 2 2 2 2 3 
2 2 2 2 2 3 4 5 4 4 4 4 4 5 5 6 7 
7 8 9 10 9 8 7 6 5 4 3 2 2 2 2 2 3 
3 3 3 3 4 5 5 6 7 6 5 4 3 2 2 2 2 
2 3 4 5 4 3 2 2 2 2 2 3 4 5 6 7 8 
7 6 5 5 4 4 3 3 3 3 3 4 5 5 6 7 7 
8 9 10 11 12 13 13 14 15 16 17 18 19 20 21 22 23 
12 12 11 10 10 9 9 9 9 9 9 9 9 9 10 10 11 
10 9 8 8 7 6 5 5 4 4 4 4 4 5 5 5 5 
5 4 3 2 1 1 1 2 3 2 1 1 1 2 3 4 4 
3 3 3 3 3 4 5 5 6 7 8 9 10 9 8 7 6 
5 5 4 3 3 3 3 3 3 3 3 3 3 4 5 5 6 
7 6 5 5 4 3 2 2 2 2 2 3 4 4 3 2 1 
1 1 2 3 4 5 6 7 8 7 7 6 5 4 3 2 2 
2 2 2 3 4 5 5 6 7 8 8 9 10 11 12 13 14 
15 16 17 18 19 20 21 22 23 12 11 10 10 9 8 8 8 
8 8 8 8 8 8 9 10 10 11 10 9 8 7 7 6 5 
5 5 5 5 5 5 6 6 6 5 4 3 2 1 0 1 2 
3 2 1 0 1 2 3 4 3 2 2 2 2 2 3 4 5 
6 7 7 8 9 9 8 8 7 6 5 5 4 4 4 4 3 
2 2 2 2 2 3 4 5 6 7 6 6 5 4 3 2 1 
1 1 2 3 4 4 3 2 1 0 1 2 3 4 5 6 7 
8 8 7 6 5 4 3 2 1 1 1 2 3 3 4 5 5 
6 7 8 9 10 11 12 13 14 15 16 17 18 19 20 21 22 
23 11 10 9 9 8 8 7 7 7 7 7 7 7 8 8 9 
9 10 10 10 9 8 7 7 6 6 6 6 6 6 6 7 7 
6 5 4 3 2 1 1 1 2 3 2 1 1 1 2 3 4 
3 2 1 1 1 2 3 4 5 5 6 7 8 8 9 9 8 
7 7 6 5 5 5 5 4 3 2 1 1 1 2 3 4 5 
6 6 5 5 5 4 3 2 1 0 1 2 3 4 4 3 2 
1 1 1 2 3 4 5 6 7 8 7 6 5 5 4 3 2 
1 0 1 2 2 2 3 4 5 6 7 8 9 10 11 12 13 
14 15 16 17 18 19 20 21 22 23 10 10 9 8 7 7 6 
6 6 6 6 6 6 7 7 8 9 10 10 10 9 9 8 8 
7 7 7 6 6 6 6 6 6 6 5 4 3 2 2 2 2 
2 3 2 2 2 2 2 3 4 3 2 1 0 1 2 3 3 
4 5 5 6 7 8 9 9 9 8 7 7 6 6 6 5 4 
3 2 1 0 1 2 3 4 5 6 5 5 4 4 4 3 2 
1 1 1 2 3 4 4 3 2 2 2 2 2 3 4 5 6 
7 8 7 6 5 4 3 2 2 1 1 1 1 1 2 3 4 
5 6 7 8 9 10 11 12 13 14 15 16 17 18 19 20 21 
21 22 10 9 8 7 7 6 5 5 5 5 5 5 5 6 7 
7 8 9 10 11 10 10 9 8 7 7 6 5 5 5 5 5 
5 5 5 5 4 3 3 3 3 3 4 3 3 3 3 3 4 
4 3 2 1 1 1 2 2 2 3 4 5 6 7 8 8 8 
8 8 8 8 7 7 6 5 4 3 2 1 1 1 2 3 4 
5 5 5 4 3 3 3 3 2 2 2 2 2 3 4 5 4 
3 3 3 3 3 4 5 5 6 7 8 7 6 5 4 3 2 
1 1 0 1 0 1 2 3 4 5 6 7 8 9 10 11 12 
13 14 15 16 17 17 18 19 20 21 22 9 8 8 7 6 5 
5 4 4 4 4 4 5 5 6 7 8 8 9 10 10 9 8 
8 7 6 5 5 4 4 4 4 4 4 5 5 5 4 4 4 
4 4 5 4 4 4 4 4 5 4 3 2 2 2 1 1 1 
2 3 4 5 6 7 8 8 7 7 7 7 7 7 7 6 5 
4 3 2 2 2 2 2 3 4 5 5 4 3 2 2 2 2 
2 3 3 3 3 4 5 5 5 4 4 4 4 4 5 5 6 
7 8 8 7 6 5 4 3 2 1 0 1 1 1 1 2 3 
4 5 6 7 8 9 10 11 12 13 13 14 15 16 17 18 19 
20 21 22 9 8 7 6 5 5 4 3 3 3 3 3 4 5 
5 6 7 8 9 10 10 9 8 7 6 5 5 4 3 3 3 
3 3 3 4 5 5 5 5 5 5 5 5 5 5 5 5 5 
5 5 4 3 3 2 1 0 1 2 3 4 5 6 7 7 7 
6 6 6 6 6 6 6 6 5 5 4 3 2 2 2 2 2 
3 4 5 4 3 2 1 1 1 2 3 4 4 4 5 5 6 
5 5 5 5 5 5 5 6 7 7 8 8 7 6 5 4 3 
2 1 1 1 2 2 2 2 3 4 5 6 7 8 9 10 10 
11 12 13 14 15 16 17 18 18 19 20 21 9 8 7 6 5 
4 3 2 2 2 2 2 3 4 5 6 7 8 9 10 10 9 
8 7 6 5 4 3 2 2 2 2 2 2 3 4 5 6 6 
6 6 6 6 6 6 6 6 6 6 5 5 4 3 2 1 1 
1 2 3 4 5 5 6 7 6 5 5 5 5 5 5 5 6 
6 5 4 3 2 1 1 1 2 3 4 5 4 3 2 1 0 
1 2 3 4 5 5 5 6 7 6 6 6 6 6 6 6 7 
7 8 8 8 7 6 5 4 3 2 2 2 2 2 3 3 3 
4 5 5 6 7 7 8 9 10 11 12 13 13 14 15 16 17 
18 19 20 21 9 8 7 6 5 4 3 2 1 1 1 2 3 
4 5 6 7 8 9 10 9 9 8 7 6 5 4 3 2 1 
1 1 1 2 3 4 5 6 7 7 7 7 7 7 7 7 7 
7 7 6 5 4 3 2 2 2 2 2 2 3 4 5 6 6 
5 5 4 4 4 4 4 5 5 6 5 4 3 2 1 0 1 
2 3 4 5 4 3 2 1 1 1 2 3 4 5 6 6 7 
6 6 6 6 6 6 6 6 6 6 7 7 8 7 6 5 5 
4 3 3 3 3 3 4 4 4 4 4 5 5 6 7 8 8 
9 10 11 12 13 14 15 16 17 18 19 20 21 9 8 7 6 
5 4 3 2 1 0 1 2 3 4 5 6 7 8 9 9 8 
8 8 7 6 5 4 3 2 1 0 0 1 2 3 4 5 6 
7 8 8 8 8 8 8 8 8 8 7 6 5 5 4 3 2 
1 1 1 2 3 4 5 6 5 5 4 3 3 3 3 3 4 
5 5 5 4 3 2 1 1 1 2 3 4 5 4 3 2 2 
2 2 2 3 4 5 6 7 6 5 5 5 5 5 5 5 5 
5 5 6 7 7 8 7 6 5 5 4 4 4 4 4 3 3 
3 3 3 4 5 5 6 7 8 9 10 11 12 13 14 15 16 
17 18 19 20 21 9 8 7 6 5 4 3 2 1 1 1 2 
3 4 5 6 7 8 8 8 8 7 7 7 6 5 4 3 2 
1 1 1 1 2 3 4 5 6 7 8 9 9 9 9 9 9 
9 8 8 7 6 5 4 3 2 1 0 1 2 3 4 5 6 
5 4 3 2 2 2 2 2 3 4 5 5 4 3 2 2 2 
2 2 3 4 5 5 4 3 3 3 3 3 4 5 5 6 6 
5 5 4 4 4 4 4 4 4 4 5 5 6 7 8 7 7 
6 5 5 5 5 4 3 2 2 2 2 2 3 4 5 6 7 
8 9 10 11 12 13 14 15 16 17 18 19 20 21 9 8 7 
6 5 4 3 2 2 2 2 2 3 4 5 5 6 7 8 7 
7 6 6 6 6 5 4 3 2 2 2 2 2 2 3 4 5 
6 7 8 9 10 10 10 10 10 10 9 8 7 6 5 4 3 
2 1 1 1 2 3 4 5 6 5 4 3 2 1 1 1 2 
3 4 5 5 5 4 3 3 3 3 3 4 5 5 5 5 4 
4 4 4 4 5 5 6 6 5 5 4 3 3 3 3 3 3 
3 3 4 5 5 6 7 8 7 7 6 6 5 5 4 3 2 
1 1 1 2 3 4 5 6 7 8 9 10 11 12 13 14 15 
16 17 18 19 20 21 9 8 7 6 5 4 3 2 1 1 1 
2 2 3 4 5 6 7 7 7 6 5 5 5 5 5 5 4 
3 3 3 3 3 3 4 5 5 6 7 8 9 10 10 11 11 
10 10 9 8 7 6 5 4 3 2 2 2 2 2 3 4 5 
5 5 4 3 2 1 0 1 2 3 4 5 6 5 5 4 4 
4 4 4 4 5 5 6 5 5 5 5 5 5 5 6 7 6 
5 4 3 2 2 2 2 2 2 2 2 3 4 5 6 7 8 
8 8 7 6 5 4 3 2 2 1 0 1 2 3 4 5 6 
7 8 9 10 11 12 13 14 15 16 17 18 19 20 21 9 8 
7 6 5 4 3 2 1 0 1 1 2 3 4 5 6 7 7 
6 5 5 4 4 4 4 4 5 4 4 4 4 4 4 5 5 
5 6 7 7 8 9 10 11 10 9 9 8 8 7 6 5 5 
4 3 3 3 3 3 4 4 4 5 5 4 3 2 1 1 1 
2 3 4 5 6 5 5 4 3 3 3 3 3 4 5 5 6 
6 6 6 6 6 6 7 7 6 5 4 3 2 1 1 1 1 
1 1 2 3 4 5 6 7 8 9 8 7 6 5 4 3 2 
1 1 1 1 2 3 4 5 6 7 8 9 10 11 12 13 14 
15 16 17 18 19 20 21 9 8 7 6 5 4 3 2 1 1 
0 1 2 3 4 5 6 7 6 5 5 4 3 3 3 3 3 
4 5 4 4 4 4 4 4 4 5 5 6 7 8 8 9 10 
10 9 8 7 7 6 6 6 5 5 4 4 4 3 3 3 3 
3 4 5 4 3 2 2 2 2 2 3 4 5 6 5 4 3 
2 2 2 2 2 3 4 5 6 7 7 7 7 7 7 8 7 
6 5 4 3 2 1 0 0 1 0 1 2 3 4 5 6 7 
8 9 8 7 6 5 4 3 2 1 0 0 1 2 3 4 5 
6 7 8 9 10 11 12 13 14 15 16 17 18 19 20 21 9 
8 7 6 5 4 3 2 2 1 1 1 2 3 4 5 6 7 
6 5 4 3 2 2 2 2 2 3 4 3 3 3 3 3 3 
3 4 5 5 6 7 8 9 10 9 8 7 7 6 5 5 5 
5 5 5 4 3 2 2 2 2 2 3 4 5 4 3 3 3 
3 3 4 5 5 6 5 4 3 2 1 1 1 2 3 4 5 
6 7 8 8 8 8 8 8 7 6 5 4 3 2 1 1 0 
1 0 1 2 3 4 5 6 7 8 9 8 7 6 5 4 3 
2 1 1 1 1 2 3 4 5 6 7 8 9 10 11 12 13 
14 15 16 17 18 19 20 21 9 8 7 6 5 5 4 3 2 
2 2 2 2 3 4 5 6 7 6 5 4 3 2 1 1 1 
2 3 3 2 2 2 2 2 2 2 3 4 5 6 7 8 9 
9 8 8 7 6 5 5 4 4 4 4 4 3 3 2 1 1 
1 2 2 3 4 5 4 4 4 4 4 5 5 6 6 5 4 
3 2 1 0 1 2 3 4 5 6 7 8 9 9 9 9 8 
7 6 5 4 3 2 2 1 1 1 0 1 2 3 4 5 6 
7 8 9 8 7 6 5 4 3 2 1 0 1 2 2 3 4 
5 6 7 8 9 10 11 12 13 14 15 16 17 18 19 20 21 
9 8 8 7 6 5 5 4 3 3 3 3 3 4 5 5 6 
7 6 5 4 3 2 1 0 1 2 3 3 2 1 1 1 1 
1 2 3 4 5 6 7 8 9 9 8 7 6 5 5 4 3 
3 3 3 3 2 2 2 1 0 1 1 2 3 4 5 5 5 
5 5 5 5 6 7 6 5 4 3 2 1 1 1 2 3 4 
5 6 7 8 9 10 10 9 8 7 6 5 5 4 3 2 2 
2 1 1 1 2 3 4 5 6 7 8 9 8 7 6 5 4 
3 2 1 1 1 2 2 3 4 5 6 7 8 9 10 11 12 
13 14 15 16 17 18 19 20 21 10 9 8 7 7 6 5 5 
4 4 4 4 4 5 5 6 7 7 6 5 4 3 2 1 1 
1 2 3 3 2 1 0 1 0 1 2 3 4 5 6 7 8 
9 9 8 7 6 5 4 3 2 2 2 2 2 2 1 1 1 
1 0 1 2 3 4 5 6 6 6 6 6 6 7 7 6 5 
4 3 2 2 2 2 2 3 4 5 6 7 8 9 10 10 9 
8 8 7 6 5 5 4 3 3 2 2 2 2 2 3 4 5 
6 7 8 9 8 7 6 5 4 3 2 2 1 1 1 2 3 
4 5 6 7 8 9 10 11 12 13 14 15 16 17 18 19 20 
21 10 10 9 8 7 7 6 5 5 5 5 5 5 5 6 7 
7 7 6 5 4 3 2 2 2 2 2 3 3 2 1 1 1 
1 1 2 3 4 5 6 7 8 9 9 8 7 6 5 4 3 
2 1 1 1 2 2 1 0 1 1 1 1 2 3 4 5 6 
7 7 7 7 7 8 7 6 5 5 4 3 3 3 3 3 4 
5 5 6 7 8 9 10 11 10 9 8 7 7 6 5 5 4 
3 2 1 1 1 2 3 4 5 6 7 8 9 8 7 6 5 
5 4 3 2 1 0 1 2 3 4 5 6 7 8 9 10 11 
12 13 14 15 16 17 18 19 20 21 11 10 9 9 8 7 7 
6 6 6 6 6 6 6 7 7 8 7 6 5 5 4 3 3 
3 3 3 4 3 2 2 1 1 1 2 2 3 4 5 6 7 
8 9 9 8 7 6 5 4 3 2 1 0 1 1 1 1 1 
1 1 0 1 2 3 4 5 6 7 8 8 8 8 8 8 7 
6 5 5 4 4 4 4 4 5 5 6 7 8 8 9 10 11 
10 10 9 8 7 7 6 5 4 3 2 1 0 1 2 3 4 
5 6 7 8 9 8 8 7 6 5 4 3 2 1 1 1 2 
3 4 5 6 7 8 9 10 11 12 13 14 15 16 17 18 19 
20 21 12 11 10 9 9 8 8 7 7 7 7 7 7 7 8 
8 8 8 7 6 5 5 4 4 4 4 4 5 4 3 2 1 
0 1 2 3 4 5 5 6 7 8 9 9 8 7 6 5 4 
3 2 1 1 1 1 0 1 1 2 1 1 1 2 3 4 5 
6 7 8 9 9 9 9 8 7 7 6 5 5 5 5 5 5 
5 6 7 7 8 9 10 11 12 11 10 9 9 8 7 6 5 
4 3 2 1 1 1 2 3 4 5 6 7 8 9 9 8 7 
6 5 4 3 2 1 0 1 2 3 4 5 6 7 8 9 10 
11 12 13 14 15 16 17 18 19 20 21 12 12 11 10 10 9 
8 8 8 8 8 8 8 8 8 9 9 8 7 7 6 5 5 
5 5 5 5 5 4 3 2 1 1 1 2 3 4 5 6 7 
8 8 9 9 8 7 6 5 4 3 2 2 2 2 1 1 0 
1 2 2 2 2 2 3 4 5 6 7 8 9 10 10 10 9 
8 7 7 6 6 6 6 6 6 6 7 7 8 9 10 10 11 
12 12 11 10 9 8 7 6 5 4 3 2 2 2 2 2 3 
4 5 6 7 8 9 9 8 7 6 5 4 3 2 1 1 1 
2 3 4 5 6 7 8 9 10 11 12 13 14 15 16 17 18 
19 20 21 13 12 12 11 10 10 9 9 9 9 9 9 9 9 
9 10 10 9 8 7 7 6 6 6 6 6 6 5 4 3 2 
2 2 2 2 3 4 5 6 7 8 9 10 9 8 7 6 5 
5 4 3 3 3 2 2 1 1 1 2 3 3 3 3 4 5 
5 6 7 8 9 10 11 10 9 9 8 8 7 7 7 7 7 
7 7 8 8 9 9 10 11 12 13 12 11 10 9 8 7 6 
5 5 4 3 3 3 3 3 4 5 5 6 7 8 9 9 8 
7 6 5 4 3 2 2 2 2 2 3 4 5 6 7 8 9 
10 11 12 13 14 15 16 17 18 19 20 21 14 13 12 12 11 
11 10 10 10 10 10 10 10 10 10 11 10 9 9 8 8 7 
7 7 7 7 6 5 5 4 3 3 3 3 3 4 5 5 6 
7 8 9 10 9 8 8 7 6 5 5 4 4 4 3 2 2 
2 2 2 3 4 4 4 5 5 6 7 8 8 9 10 11 11 
10 10 9 8 8 8 8 8 8 8 8 8 9 10 10 11 12 
12 13 12 11 10 9 8 8 7 6 5 5 4 4 4 4 4 
5 5 6 7 8 8 9 9 8 7 6 5 5 4 3 3 3 
3 3 4 5 5 6 7 8 9 10 11 12 13 14 15 16 17 
18 19 20 21 14 14 13 13 12 12 11 11 11 11 11 11 11 
11 11 12 11 10 10 9 8 8 8 8 8 8 7 6 5 5 
4 4 4 4 4 5 5 6 7 8 8 9 10 10 9 8 7 
7 6 5 5 5 5 4 3 3 3 3 3 4 5 5 5 5 
6 7 7 8 9 10 11 12 12 11 10 10 9 9 9 9 9 
9 9 9 9 10 10 11 12 12 13 13 13 12 11 10 9 8 
7 7 6 5 5 5 5 5 5 5 6 7 7 8 9 10 9 
8 8 7 6 5 5 4 4 4 4 4 5 5 6 7 8 8 
9 10 11 12 13 14 15 16 17 18 19 20 21 15 15 14 13 
13 13 12 12 12 12 12 12 12 12 12 12 12 11 10 10 9 
9 9 9 9 8 7 7 6 5 5 5 5 5 5 5 6 7 
7 8 9 10 11 10 10 9 8 7 7 6 6 6 5 5 4 
4 4 4 4 5 5 6 6 6 7 7 8 9 10 10 11 12 
12 12 11 11 10 10 10 10 10 10 10 10 10 11 11 12 12 
13 14 14 13 12 11 10 10 9 8 7 7 6 6 6 6 6 
6 6 7 7 8 9 10 10 10 9 8 7 7 6 5 5 5 
5 5 5 5 6 7 7 8 9 10 11 12 13 13 14 15 16 
17 18 19 20 21 16 15 15 14 14 13 13 13 13 13 13 13 
13 13 13 13 12 12 11 11 10 10 10 10 10 9 8 7 7 
6 6 6 6 6 6 6 7 7 8 9 10 10 11 11 10 9 
9 8 8 7 7 7 6 5 5 5 5 5 5 5 6 7 7 
7 8 8 9 9 10 11 12 13 13 13 12 12 11 11 11 11 
11 11 11 11 11 12 12 13 13 14 14 14 13 13 12 11 10 
9 9 8 8 7 7 7 7 7 7 7 8 8 9 9 10 11 
10 10 9 8 7 7 6 6 6 6 6 6 6 7 7 8 9 
10 10 11 12 13 14 15 16 17 18 18 19 20 21 17 16 16 
15 15 14 14 14 14 14 14 14 14 14 14 14 13 13 12 12 
11 11 11 11 10 9 9 8 8 7 7 7 7 7 7 7 8 
8 9 9 10 11 12 12 11 10 10 9 8 8 8 7 7 6 
6 6 6 6 6 6 7 7 8 8 8 9 10 10 11 12 12 
13 14 13 13 13 12 12 12 12 12 12 12 12 12 13 13 13 
14 15 15 15 14 13 12 12 11 10 10 9 8 8 8 8 8 
8 8 8 8 9 10 10 11 12 11 10 9 9 8 8 7 7 
7 7 7 7 7 8 8 9 9 10 11 12 13 13 14 15 16 
17 18 19 20 21 22 18 17 17 16 16 15 15 15 15 15 15 
15 15 15 15 15 14 13 13 13 12 12 12 12 11 10 10 9 
8 8 8 8 8 8 8 8 8 9 10 10 11 12 12 12 12 
11 10 10 9 9 9 8 8 7 7 7 7 7 7 7 8 8 
9 9 9 10 10 11 12 12 13 14 15 14 14 13 13 13 13 
13 13 13 13 13 13 13 14 14 15 15 16 15 15 14 13 12 
12 11 10 10 9 9 9 9 9 9 9 9 9 10 10 11 12 
12 12 11 10 10 9 8 8 8 8 8 8 8 8 8 9 10 
10 11 12 12 13 14 15 16 17 17 18 19 20 21 22 18 18 
17 17 17 16 16 16 16 16 16 16 16 16 16 15 15 14 14 
13 13 13 13 12 12 11 10 10 9 9 9 9 9 9 9 9 
9 10 10 11 12 12 13 13 12 12 11 11 10 10 10 9 8 
8 8 8 8 8 8 8 8 9 10 10 10 11 11 12 12 13 
14 14 15 15 15 14 14 14 14 14 14 14 14 14 14 14 15 
15 16 16 17 16 15 14 14 13 12 12 11 11 10 10 10 10 
10 10 10 10 10 11 11 12 12 13 12 12 11 10 10 9 9 
9 9 9 9 9 9 9 10 10 11 12 12 13 14 15 15 16 
17 18 19 20 21 21 22 19 19 18 18 18 17 17 17 17 17 
17 17 17 17 17 16 16 15 15 14 14 14 14 13 12 12 11 
11 10 10 10 10 10 10 10 10 10 11 11 12 12 13 14 14 
13 13 12 12 11 11 10 10 9 9 9 9 9 9 9 9 9 
10 10 11 11 12 12 13 13 14 14 15 16 16 16 15 15 15 
15 15 15 15 15 15 15 15 16 16 17 17 17 17 16 15 14 
14 13 13 12 12 11 11 11 11 11 11 11 11 11 12 12 13 
13 14 13 12 12 11 11 10 10 10 10 10 10 10 10 10 11 
11 12 12 13 14 14 15 16 17 18 18 19 20 21 22 23 20 
20 19 19 18 18 18 18 18 18 18 18 18 18 18 17 17 16 
16 15 15 15 14 14 13 13 12 12 11 11 11 11 11 11 11 
11 11 12 12 13 13 14 14 15 14 13 13 13 12 12 11 11 
10 10 10 10 10 10 10 10 10 11 11 12 12 13 13 13 14 
15 15 16 16 17 17 16 16 16 16 16 16 16 16 16 16 16 
17 17 17 18 18 17 16 16 15 15 14 13 13 13 12 12 12 
12 12 12 12 12 12 13 13 13 14 14 14 13 13 12 12 11 
11 11 11 11 11 11 11 11 12 12 13 13 14 14 15 16 17 
17 18 19 20 21 21 22 23 21 21 20 20 19 19 19 19 19 
19 19 19 19 19 18 18 17 17 17 16 16 16 15 15 14 13 
13 13 12 12 12 12 12 12 12 12 12 13 13 13 14 15 15 
15 15 14 14 13 13 13 12 12 11 11 11 11 11 11 11 11 
11 12 12 13 13 13 14 14 15 15 16 17 17 18 18 17 17 
17 17 17 17 17 17 17 17 17 18 18 18 19 19 18 17 17 
16 15 15 14 14 13 13 13 13 13 13 13 13 13 13 13 14 
14 15 15 15 14 13 13 13 12 12 12 12 12 12 12 12 12 
13 13 13 14 15 15 16 16 17 18 19 20 20 21 22 23 24 
22 21 21 21 20 20 20 20 20 20 20 20 20 20 19 19 18 
18 18 17 17 17 16 15 15 14 14 13 13 13 13 13 13 13 
13 13 13 13 14 14 15 15 16 16 16 15 15 14 14 13 13 
13 12 12 12 12 12 12 12 12 12 13 13 13 14 14 15 15 
16 16 17 17 18 19 18 18 18 18 18 18 18 18 18 18 18 
18 18 19 19 20 19 19 18 17 17 16 16 15 15 14 14 14 
14 14 14 14 14 14 14 14 15 15 16 16 15 15 14 14 13 
13 13 13 13 13 13 13 13 13 13 14 14 15 15 16 17 17 
18 19 19 20 21 22 23 23 24 23 22 22 22 21 21 21 21 
21 21 21 21 21 21 20 20 19 19 18 18 18 17 17 16 16 
15 15 14 14 14 14 14 14 14 14 14 14 14 15 15 16 16 
17 17 17 16 16 15 15 14 14 13 13 13 13 13 13 13 13 
13 13 13 14 14 15 15 16 16 17 17 18 18 19 19 19 19 
19 19 19 19 19 19 19 19 19 19 19 20 20 21 20 19 19 
18 18 17 17 16 16 15 15 15 15 15 15 15 15 15 15 15 
16 16 17 17 16 16 15 15 14 14 14 14 14 14 14 14 14 
14 14 15 15 16 16 17 17 18 19 19 20 21 22 22 23 24 
25 24 23 23 23 22 22 22 22 22 22 22 22 22 21 21 21 
20 20 19 19 19 18 18 17 17 16 16 15 15 15 15 15 15 
15 15 15 15 15 16 16 17 17 18 18 17 17 17 16 16 15 
15 14 14 14 14 14 14 14 14 14 14 14 15 15 16 16 17 
17 17 18 18 19 20 20 20 20 20 20 20 20 20 20 20 20 
20 20 20 21 21 21 21 20 20 19 18 18 17 17 17 16 16 
16 16 16 16 16 16 16 16 16 17 17 17 18 17 17 16 16 
15 15 15 15 15 15 15 15 15 15 15 16 16 17 17 18 18 
19 19 20 21 21 22 23 24 25 25 25 24 24 24 23 23 23 
23 23 23 23 23 23 22 22 21 21 21 20 20 20 19 18 18 
17 17 17 16 16 16 16 16 16 16 16 16 16 16 17 17 17 
18 18 19 18 18 18 17 17 16 16 15 15 15 15 15 15 15 
15 15 15 15 16 16 17 17 18 18 18 19 19 20 20 21 21 
21 21 21 21 21 21 21 21 21 21 21 21 22 22 22 22 21 
20 20 19 19 18 18 18 17 17 17 17 17 17 17 17 17 17 
17 18 18 18 18 18 17 17 17 16 16 16 16 16 16 16 16 
16 16 16 17 17 17 18 18 19 20 20 21 21 22 23 24 24 
25 26 26 25 25 25 24 24 24 24 24 24 24 24 24 23 23 
22 22 22 21 21 20 20 19 19 18 18 18 17 17 17 17 17 
17 17 17 17 17 17 18 18 18 19 19 20 19 19 18 18 17 
17 17 16 16 16 16 16 16 16 16 16 16 16 17 17 17 18 
18 19 19 20 20 21 21 22 22 22 22 22 22 22 22 22 22 
22 22 22 22 23 23 23 22 22 21 21 20 20 19 19 18 18 
18 18 18 18 18 18 18 18 18 18 18 19 19 19 19 18 18 
18 17 17 17 17 17 17 17 17 17 17 17 18 18 18 19 19 
20 20 21 22 22 23 24 24 25 26 27 26 26 26 25 25 25 
25 25 25 25 25 25 25 24 24 23 23 23 22 22 21 21 20 
20 19 19 18 18 18 18 18 18 18 18 18 18 18 18 18 19 
19 20 20 21 20 20 19 19 18 18 18 17 17 17 17 17 17 
17 17 17 17 17 18 18 18 19 19 20 20 21 21 21 22 23 
23 23 23 23 23 23 23 23 23 23 23 23 23 24 24 24 23 
23 22 21 21 21 20 20 19 19 19 19 19 19 19 19 19 19 
19 19 19 20 20 20 20 19 19 18 18 18 18 18 18 18 18 
18 18 18 18 18 19 19 20 20 21 21 22 22 23 24 24 25 
26 26 27 27 27 27 26 26 26 26 26 26 26 26 26 25 25 
25 24 24 24 23 23 22 21 21 21 20 20 19 19 19 19 19 
19 19 19 19 19 19 19 19 20 20 21 21 21 21 21 20 20 
19 19 18 18 18 18 18 18 18 18 18 18 18 18 18 19 19 
20 20 21 21 21 22 22 23 23 24 24 24 24 24 24 24 24 
24 24 24 24 24 25 25 25 24 23 23 22 22 21 21 21 20 
20 20 20 20 20 20 20 20 20 20 20 20 21 21 21 21 20 
20 19 19 19 19 19 19 19 19 19 19 19 19 19 20 20 21 
21 21 22 23 23 24 24 25 26 26 27 28 