P2
148 111
77
77 77 76 75 74 74 73 72 72 71 70 70 69 68 68 67 66 
66 65 65 64 63 63 62 62 61 61 60 60 59 59 58 58 57 
56 55 55 54 53 52 51 51 50 49 48 48 47 46 45 45 44 
43 43 42 41 40 39 38 37 36 35 34 33 32 31 31 30 29 
28 27 26 25 24 23 22 21 21 20 19 18 17 17 16 15 14 
14 13 13 12 12 11 11 11 11 11 11 11 11 11 12 12 13 
13 14 14 15 16 17 17 18 19 20 21 21 22 23 24 25 26 
27 28 29 30 31 31 32 33 34 35 36 37 38 39 40 41 42 
43 44 45 46 46 47 48 49 50 51 52 53 77 76 75 75 74 
73 72 72 71 70 70 69 68 68 67 66 66 65 64 64 63 63 
62 61 61 60 60 59 59 58 58 57 57 56 56 55 54 53 52 
52 51 50 49 48 48 47 46 45 45 44 43 43 42 41 41 40 
39 38 37 36 35 34 33 32 31 30 29 28 27 26 26 25 24 
23 22 21 20 19 18 18 17 16 15 14 14 13 12 12 11 11 
10 10 10 10 10 10 10 10 10 11 11 12 12 13 14 14 15 
16 17 18 18 19 20 21 22 23 24 25 26 26 27 28 29 30 
31 32 33 34 35 36 37 38 39 40 41 42 42 43 44 45 46 
47 48 49 50 51 52 52 76 75 75 74 73 72 72 71 70 70 
69 68 67 67 66 65 65 64 64 63 62 62 61 61 60 59 59 
58 58 57 57 56 56 55 55 54 53 53 52 51 50 49 49 48 
47 46 46 45 44 43 43 42 41 41 40 39 39 38 37 36 35 
34 33 32 31 30 29 28 27 26 25 24 23 22 21 21 20 19 
18 17 16 15 15 14 13 12 12 11 10 10 9 9 9 9 9 
9 9 9 9 10 10 11 12 12 13 14 15 15 16 17 18 19 
20 21 21 22 23 24 25 26 27 28 29 30 31 32 33 34 35 
36 37 38 38 39 40 41 42 43 44 45 46 47 47 48 49 50 
51 52 75 75 74 73 72 72 71 70 70 69 68 67 67 66 65 
65 64 63 63 62 62 61 60 60 59 59 58 57 57 56 56 55 
55 55 54 54 53 52 51 50 50 49 48 47 46 46 45 44 43 
43 42 41 41 40 39 39 38 37 36 35 34 33 32 32 31 30 
29 28 27 26 25 24 23 22 21 20 19 18 17 17 16 15 14 
13 12 12 11 10 10 9 8 8 8 8 8 8 8 8 8 9 
10 10 11 12 12 13 14 15 16 17 17 18 19 20 21 22 23 
24 25 26 27 28 29 30 31 32 32 33 34 35 36 37 38 39 
40 41 42 42 43 44 45 46 47 48 49 50 51 52 75 74 73 
73 72 71 70 70 69 68 67 67 66 65 65 64 63 63 62 61 
61 60 60 59 58 58 57 57 56 56 55 55 54 54 53 53 52 
51 51 50 49 48 47 47 46 45 44 43 43 42 41 41 40 39 
38 38 37 37 36 35 34 33 32 31 30 29 28 27 26 25 25 
24 23 22 21 20 19 18 17 16 15 14 13 13 12 11 10 9 
9 8 8 7 7 7 7 7 7 7 8 8 9 9 10 11 12 
13 13 14 15 16 17 18 19 20 21 22 23 24 25 25 26 27 
28 29 30 31 32 33 34 35 36 37 38 38 39 40 41 42 43 
44 45 46 47 48 49 49 50 51 74 73 73 72 71 70 70 69 
68 67 67 66 65 65 64 63 63 62 61 61 60 59 59 58 58 
57 56 56 55 55 54 54 53 53 52 52 51 51 50 49 48 48 
47 46 45 44 44 43 42 41 41 40 39 38 38 37 36 36 35 
35 34 33 32 31 30 29 28 27 26 25 24 23 22 21 20 19 
18 18 17 16 15 14 13 12 11 10 10 9 8 7 7 6 6 
6 6 6 6 6 7 7 8 9 10 10 11 12 13 14 15 16 
17 18 18 19 20 21 22 23 24 25 26 27 28 29 30 31 32 
33 34 34 35 36 37 38 39 40 41 42 43 44 44 45 46 47 
48 49 50 51 74 73 72 71 70 70 69 68 67 67 66 65 65 
64 63 62 62 61 60 60 59 59 58 57 57 56 56 55 54 54 
53 53 52 52 51 51 50 50 49 49 48 47 46 45 45 44 43 
42 41 41 40 39 38 38 37 36 36 35 34 34 33 33 32 31 
30 29 28 27 26 25 24 23 22 21 20 19 18 17 16 15 14 
13 13 12 11 10 9 8 7 7 6 5 5 5 5 5 5 5 
6 7 7 8 9 10 11 12 13 13 14 15 16 17 18 19 20 
21 22 23 24 25 26 27 28 29 30 30 31 32 33 34 35 36 
37 38 39 39 40 41 42 43 44 45 46 47 48 49 50 51 73 
72 71 71 70 69 68 68 67 66 65 65 64 63 62 62 61 60 
60 59 58 58 57 57 56 55 55 54 54 53 53 52 51 51 51 
50 50 49 49 48 47 46 46 45 44 43 42 42 41 40 39 38 
38 37 36 36 35 34 34 33 32 32 31 31 30 29 28 27 26 
25 24 23 22 21 20 19 18 17 16 15 14 13 12 11 10 9 
8 8 7 6 5 5 4 4 4 4 4 5 5 6 7 8 8 
9 10 11 12 13 14 15 16 17 18 19 20 21 22 23 24 25 
26 26 27 28 29 30 31 32 33 34 34 35 36 37 38 39 40 
41 42 43 44 45 46 47 48 49 50 50 72 72 71 70 69 68 
68 67 66 65 65 64 63 62 62 61 60 60 59 58 58 57 56 
56 55 55 54 53 53 52 52 51 51 50 50 49 49 48 48 47 
47 46 45 44 43 43 42 41 40 39 39 38 37 36 36 35 34 
33 33 32 32 31 30 30 29 29 28 27 26 25 24 23 22 21 
20 19 18 17 16 15 14 13 12 11 10 9 8 7 6 5 5 
4 3 3 3 3 3 4 5 5 6 7 8 9 10 11 12 13 
14 15 16 17 18 19 20 21 22 23 23 24 25 26 27 28 29 
29 30 31 32 33 34 35 36 37 38 39 40 41 42 43 43 44 
45 46 47 48 49 50 72 71 70 69 69 68 67 66 65 65 64 
63 62 62 61 60 60 59 58 58 57 56 56 55 54 54 53 53 
52 51 51 50 50 49 49 48 48 47 47 47 46 45 44 44 43 
42 41 40 40 39 38 37 36 36 35 34 33 33 32 31 31 30 
30 29 28 28 27 26 26 25 24 23 22 21 20 19 18 17 16 
15 14 13 12 11 10 9 8 7 6 5 4 3 2 2 2 2 
2 3 4 5 6 7 8 9 10 11 12 13 14 15 16 17 18 
19 20 20 21 22 23 24 25 25 26 27 28 29 30 31 32 33 
34 35 36 37 37 38 39 40 41 42 43 44 45 46 47 48 49 
50 71 70 70 69 68 67 66 66 65 64 63 63 62 61 60 60 
59 58 58 57 56 55 55 54 54 53 52 52 51 51 50 49 49 
48 48 47 47 46 46 46 45 45 44 43 42 41 41 40 39 38 
37 37 36 35 34 33 33 32 31 31 30 29 29 28 28 27 26 
26 25 24 24 23 22 21 20 19 18 17 16 15 14 13 12 11 
10 9 8 7 6 5 4 3 2 1 1 1 2 3 4 5 6 
7 8 9 10 11 12 13 14 15 16 17 17 18 19 20 21 21 
22 23 24 25 26 27 28 29 30 31 31 32 33 34 35 36 37 
38 39 40 41 42 43 44 45 46 47 48 49 50 71 70 69 68 
67 67 66 65 64 63 63 62 61 60 60 59 58 57 57 56 55 
55 54 53 53 52 52 51 50 50 49 49 48 48 47 47 46 46 
45 45 44 44 43 43 42 41 40 39 38 38 37 36 35 34 34 
33 32 31 31 30 29 29 28 27 27 26 26 25 24 24 23 22 
21 21 20 19 18 17 16 15 14 13 12 11 10 9 8 7 6 
5 4 3 2 1 0 1 2 3 4 5 6 7 8 9 10 11 
12 13 14 14 15 16 17 18 18 19 20 21 22 23 24 25 26 
26 27 28 29 30 31 32 33 34 35 36 37 38 39 40 41 42 
43 44 45 46 47 48 49 50 70 69 68 68 67 66 65 64 64 
63 62 61 60 60 59 58 58 57 56 55 55 54 53 53 52 51 
51 50 50 49 48 48 47 47 46 46 45 45 44 44 43 43 43 
42 41 40 39 39 38 37 36 35 35 34 33 32 31 31 30 29 
29 28 27 27 26 25 25 24 24 23 22 21 21 20 19 19 18 
17 16 15 14 13 12 11 10 9 8 7 6 5 4 3 2 1 
1 1 2 3 4 5 6 7 8 9 10 11 12 12 13 14 15 
15 16 17 18 19 20 21 21 22 23 24 25 26 27 28 29 30 
31 32 33 34 35 36 37 38 39 40 41 41 42 43 44 45 46 
47 48 49 69 69 68 67 66 65 65 64 63 62 61 61 60 59 
58 58 57 56 55 55 54 53 53 52 51 51 50 49 49 48 48 
47 46 46 45 45 44 44 43 43 42 42 42 41 41 40 39 38 
37 36 36 35 34 33 32 32 31 30 29 29 28 27 26 26 25 
25 24 23 23 22 21 21 20 19 19 18 17 17 16 15 14 13 
12 11 10 9 8 7 6 5 4 3 2 1 0 1 2 3 4 
5 6 7 8 9 9 10 11 12 12 13 14 15 16 17 17 18 
19 20 21 22 23 24 25 26 27 28 29 30 31 32 32 33 34 
35 36 37 38 39 40 41 42 43 44 45 46 47 48 49 69 68 
67 66 66 65 64 63 62 62 61 60 59 58 58 57 56 55 55 
54 53 53 52 51 50 50 49 49 48 47 47 46 46 45 44 44 
43 43 42 42 42 41 41 40 40 39 38 38 37 36 35 34 33 
33 32 31 30 29 29 28 27 26 26 25 24 24 23 23 22 21 
21 20 19 19 18 17 16 16 15 14 14 13 12 11 10 9 8 
7 6 5 4 3 2 1 1 1 2 3 4 5 6 7 7 8 
9 9 10 11 12 13 13 14 15 16 17 18 19 20 21 22 23 
24 25 25 26 27 28 29 30 31 32 33 34 35 36 37 38 39 
40 41 42 43 44 45 46 47 48 49 68 67 67 66 65 64 63 
63 62 61 60 59 59 58 57 56 55 55 54 53 53 52 51 50 
50 49 48 48 47 47 46 45 45 44 44 43 43 42 42 41 41 
40 40 39 39 39 38 37 36 35 34 34 33 32 31 30 30 29 
28 27 26 26 25 24 24 23 22 22 21 21 20 19 19 18 17 
17 16 15 14 14 13 12 12 11 10 9 8 7 6 5 4 3 
2 2 2 2 2 3 4 5 5 6 7 7 8 9 10 10 11 
12 13 14 15 16 17 18 18 19 20 21 22 23 24 25 26 27 
28 29 30 31 32 33 34 35 36 37 38 39 40 41 42 43 44 
45 46 47 48 49 68 67 66 65 64 64 63 62 61 60 60 59 
58 57 56 56 55 54 53 53 52 51 50 50 49 48 48 47 46 
46 45 45 44 43 43 42 42 41 41 40 40 39 39 39 38 38 
37 37 36 35 34 33 32 31 31 30 29 28 27 27 26 25 24 
24 23 22 22 21 20 20 19 19 18 17 16 16 15 14 14 13 
12 12 11 10 10 9 8 7 6 5 5 4 3 3 3 3 3 
4 4 4 5 5 6 7 7 8 9 10 11 12 13 13 14 15 
16 17 18 19 20 21 22 23 24 25 26 27 28 29 30 31 32 
33 34 35 36 37 38 39 40 41 42 43 44 45 46 47 48 49 
67 66 66 65 64 63 62 61 61 60 59 58 57 57 56 55 54 
53 53 52 51 50 50 49 48 48 47 46 46 45 44 44 43 43 
42 41 41 40 40 39 39 38 38 38 37 37 37 36 35 34 34 
33 32 31 30 29 28 28 27 26 25 24 24 23 22 21 21 20 
20 19 18 18 17 17 16 15 14 14 13 12 12 11 10 9 9 
8 8 7 7 6 5 5 4 4 4 3 3 3 3 3 4 5 
5 6 7 8 8 9 10 11 12 13 14 15 16 17 18 19 20 
21 22 23 24 25 26 27 28 29 30 31 32 33 34 35 36 37 
38 39 40 41 42 43 44 45 46 47 48 49 67 66 65 64 63 
62 62 61 60 59 58 58 57 56 55 54 54 53 52 51 50 50 
49 48 48 47 46 46 45 44 44 43 42 42 41 41 40 39 39 
38 38 38 37 37 36 36 36 35 35 34 33 32 31 30 30 29 
28 27 26 25 25 24 23 22 21 21 20 19 19 18 18 17 17 
16 15 14 14 13 12 12 11 10 10 9 8 7 7 6 6 6 
6 5 5 4 3 2 2 2 2 2 3 4 5 5 6 7 8 
9 10 11 12 13 14 15 16 17 18 19 20 21 22 23 24 25 
26 27 28 29 30 31 32 33 34 35 36 37 38 39 40 41 42 
43 44 45 46 47 48 49 66 65 65 64 63 62 61 60 59 59 
58 57 56 55 55 54 53 52 51 51 50 49 48 48 47 46 45 
45 44 43 43 42 42 41 40 40 39 39 38 38 37 37 36 36 
35 35 35 34 34 34 33 32 31 30 29 28 27 26 26 25 24 
23 22 22 21 20 19 19 18 17 17 16 16 15 15 14 13 12 
12 11 10 9 9 8 7 7 6 5 5 5 5 5 5 4 3 
2 1 1 1 2 2 3 4 5 6 7 8 9 10 11 12 13 
14 15 16 17 18 19 20 21 22 23 24 25 26 27 28 29 30 
31 32 33 34 35 36 37 38 39 40 41 42 43 44 45 46 47 
48 49 66 65 64 63 62 61 61 60 59 58 57 56 56 55 54 
53 52 52 51 50 49 48 48 47 46 45 45 44 43 43 42 41 
41 40 40 39 38 38 37 37 36 36 35 35 34 34 34 33 33 
33 32 31 30 29 29 28 27 26 25 24 23 23 22 21 20 19 
19 18 17 17 16 15 15 14 14 13 12 12 11 10 10 9 8 
7 7 6 5 5 4 4 4 4 4 4 3 2 1 0 1 1 
2 3 4 5 6 7 8 9 10 11 12 13 14 15 16 17 18 
19 20 21 22 23 24 25 26 27 28 29 30 31 32 33 34 35 
36 37 38 39 40 41 42 43 44 45 46 47 48 49 65 64 64 
63 62 61 60 59 58 57 57 56 55 54 53 53 52 51 50 49 
49 48 47 46 46 45 44 43 43 42 41 41 40 39 39 38 38 
37 36 36 35 35 34 34 34 33 33 32 32 32 32 31 30 29 
28 27 26 25 25 24 23 22 21 20 20 19 18 17 16 16 15 
15 14 13 13 13 12 11 10 9 9 8 7 7 6 5 5 4 
3 3 3 3 3 4 3 2 1 0 0 1 2 3 4 5 6 
7 8 9 10 11 12 13 14 15 16 17 18 19 20 21 22 23 
24 25 26 27 28 29 30 31 32 33 34 35 36 37 38 39 40 
41 42 43 44 45 46 47 48 49 65 64 63 62 61 60 60 59 
58 57 56 55 54 54 53 52 51 50 50 49 48 47 46 46 45 
44 43 43 42 41 41 40 39 39 38 37 37 36 36 35 34 34 
34 33 33 32 32 31 31 31 31 30 30 29 28 27 26 25 24 
23 22 21 21 20 19 18 17 17 16 15 14 14 13 13 12 12 
11 10 10 9 8 7 7 6 5 5 4 3 2 2 2 2 2 
3 3 2 1 1 1 1 2 3 4 5 6 7 8 9 10 11 
12 13 14 15 16 17 18 19 20 21 22 23 24 25 26 27 28 
29 30 31 32 33 34 35 36 37 38 39 40 41 42 43 44 45 
46 47 48 49 64 63 63 62 61 60 59 58 57 56 56 55 54 
53 52 51 51 50 49 48 47 47 46 45 44 43 43 42 41 41 
40 39 38 38 37 37 36 35 35 34 34 33 33 32 32 31 31 
31 30 30 30 29 29 28 27 26 26 25 24 23 22 21 20 19 
18 18 17 16 15 14 14 13 12 12 11 11 10 10 9 8 7 
7 6 5 5 4 3 3 2 1 1 1 2 3 3 2 2 2 
2 2 2 3 4 5 6 7 8 9 10 11 12 13 14 15 16 
17 18 19 20 21 22 23 24 25 26 27 28 29 30 31 32 33 
34 35 36 37 38 39 40 41 42 43 44 45 46 47 48 49 64 
63 62 61 60 59 59 58 57 56 55 54 53 53 52 51 50 49 
48 48 47 46 45 44 44 43 42 41 41 40 39 38 38 37 36 
36 35 35 34 33 33 32 32 31 31 30 30 30 29 29 29 28 
28 28 27 26 25 24 23 22 21 21 20 19 18 17 16 15 15 
14 13 12 12 11 10 10 9 9 8 8 7 6 5 5 4 3 
2 2 2 1 0 1 2 3 4 3 3 3 3 3 3 4 5 
5 6 7 8 9 10 11 12 13 14 15 16 17 18 19 20 21 
22 23 24 25 26 27 28 29 30 31 32 33 34 35 36 37 38 
39 40 41 42 43 44 45 46 47 48 49 63 63 62 61 60 59 
58 57 56 55 55 54 53 52 51 50 49 49 48 47 46 45 45 
44 43 42 41 41 40 39 38 38 37 36 36 35 34 34 33 33 
32 31 31 30 30 29 29 29 28 28 28 27 27 27 27 26 25 
24 23 22 21 20 19 18 17 17 16 15 14 13 12 12 11 10 
10 9 8 8 8 7 6 5 5 4 3 3 2 1 1 1 1 
1 2 3 4 4 4 4 4 4 4 5 5 6 7 8 8 9 
10 11 12 13 14 15 16 17 18 19 20 21 22 23 24 25 26 
27 28 29 30 31 32 33 34 35 36 37 38 39 40 41 42 43 
44 45 46 47 48 49 63 62 61 60 59 59 58 57 56 55 54 
53 52 51 51 50 49 48 47 46 46 45 44 43 42 42 41 40 
39 38 38 37 36 36 35 34 34 33 32 32 31 31 30 30 29 
29 28 28 27 27 27 26 26 26 26 25 25 24 23 22 21 20 
19 18 17 16 15 14 13 13 12 11 10 9 9 8 8 7 7 
7 6 5 4 3 2 2 2 1 0 1 2 2 2 3 4 5 
5 5 5 5 5 5 6 7 7 8 9 10 11 12 13 13 14 
15 16 17 18 19 20 21 22 23 24 25 26 27 28 29 30 31 
32 33 34 35 36 37 38 39 40 41 42 43 44 45 46 47 48 
49 63 62 61 60 59 58 57 56 55 55 54 53 52 51 50 49 
48 48 47 46 45 44 43 43 42 41 40 39 39 38 37 36 36 
35 34 33 33 32 32 31 30 30 29 29 28 28 27 27 26 26 
26 25 25 25 25 25 24 23 22 21 20 19 18 18 17 16 15 
14 13 12 11 10 10 9 8 7 7 6 6 6 5 5 4 3 
2 1 1 1 1 1 2 3 3 4 5 5 6 6 6 6 6 
6 7 7 8 9 10 10 11 12 13 14 15 16 17 18 18 19 
20 21 22 23 24 25 26 27 28 29 30 31 32 33 34 35 36 
37 38 39 40 41 42 43 44 45 46 47 48 49 62 61 60 60 
59 58 57 56 55 54 53 52 51 51 50 49 48 47 46 45 44 
44 43 42 41 40 40 39 38 37 36 36 35 34 33 33 32 31 
31 30 30 29 28 28 27 27 26 26 26 25 25 25 24 24 24 
24 23 23 22 21 20 19 18 17 16 15 14 13 13 12 11 10 
9 8 7 7 6 5 5 5 5 4 4 3 2 1 0 1 2 
2 2 3 4 5 5 6 7 7 7 7 7 7 8 8 9 9 
10 11 12 13 13 14 15 16 17 18 19 20 21 22 23 24 25 
25 26 27 28 29 30 31 32 33 34 35 36 37 38 39 40 41 
42 43 44 45 46 47 48 49 62 61 60 59 58 57 56 55 55 
54 53 52 51 50 49 48 47 47 46 45 44 43 42 41 41 40 
39 38 37 37 36 35 34 33 33 32 31 31 30 29 29 28 28 
27 26 26 25 25 25 24 24 24 23 23 23 23 22 22 22 21 
20 19 18 17 16 15 14 13 12 11 10 9 8 8 7 6 5 
5 4 4 4 3 3 3 2 1 1 1 2 3 3 4 5 5 
6 7 7 8 8 8 8 8 8 9 10 10 11 12 12 13 14 
15 16 17 17 18 19 20 21 22 23 24 25 26 27 28 29 30 
31 32 32 33 34 35 36 37 38 39 40 41 42 43 44 45 46 
47 48 49 62 61 60 59 58 57 56 55 54 53 52 51 50 50 
49 48 47 46 45 44 43 43 42 41 40 39 38 38 37 36 35 
34 34 33 32 31 31 30 29 29 28 27 27 26 26 25 25 24 
24 23 23 23 22 22 22 22 21 21 21 21 20 19 18 17 16 
15 14 13 12 11 10 9 8 7 6 5 5 4 3 3 3 2 
2 2 2 1 0 1 2 3 4 5 5 6 7 7 8 9 9 
9 9 9 9 10 10 11 12 12 13 14 15 15 16 17 18 19 
20 21 21 22 23 24 25 26 27 28 29 30 31 32 33 34 35 
36 37 38 39 40 41 41 42 43 44 45 46 47 48 49 61 60 
59 58 57 57 56 55 54 53 52 51 50 49 48 47 46 46 45 
44 43 42 41 40 39 39 38 37 36 35 35 34 33 32 31 31 
30 29 29 28 27 27 26 25 25 24 24 23 23 22 22 22 21 
21 21 21 20 20 20 20 20 19 18 17 16 15 14 13 12 11 
10 9 8 7 6 5 4 3 2 2 2 2 1 1 1 1 1 
1 2 3 4 5 6 7 7 8 9 9 10 10 10 10 10 11 
11 12 12 13 14 14 15 16 17 18 18 19 20 21 22 23 24 
25 26 26 27 28 29 30 31 32 33 34 35 36 37 38 39 40 
41 42 43 44 45 46 47 48 49 49 61 60 59 58 57 56 55 
54 53 52 52 51 50 49 48 47 46 45 44 43 42 42 41 40 
39 38 37 36 36 35 34 33 32 32 31 30 29 29 28 27 26 
26 25 25 24 23 23 22 22 21 21 21 20 20 20 20 19 19 
19 19 19 19 18 17 16 15 14 13 12 11 10 9 8 7 6 
5 4 3 2 1 1 1 1 0 1 0 1 2 2 3 4 5 
5 6 7 8 9 10 11 11 11 11 11 12 12 13 13 14 14 
15 16 17 17 18 19 20 21 21 22 23 24 25 26 27 28 29 
30 31 31 32 33 34 35 36 37 38 39 40 41 42 43 44 45 
46 46 47 48 49 61 60 59 58 57 56 55 54 53 52 51 50 
49 48 47 47 46 45 44 43 42 41 40 39 38 38 37 36 35 
34 33 33 32 31 30 29 29 28 27 26 26 25 24 24 23 23 
22 21 21 21 20 20 19 19 19 19 18 18 18 18 18 18 18 
17 16 15 14 13 12 11 10 9 8 7 6 5 4 3 2 1 
0 1 1 1 1 1 1 2 2 2 3 4 5 6 7 8 9 
10 11 12 12 12 12 13 13 13 14 15 15 16 16 17 18 19 
20 20 21 22 23 24 25 25 26 27 28 29 30 31 32 33 34 
35 36 37 37 38 39 40 41 42 43 43 44 45 46 47 47 48 
60 59 58 57 56 55 55 54 53 52 51 50 49 48 47 46 45 
44 43 42 42 41 40 39 38 37 36 35 34 34 33 32 31 30 
30 29 28 27 26 26 25 24 24 23 22 22 21 21 20 20 19 
19 18 18 18 18 18 17 17 17 17 17 17 17 16 15 14 13 
12 11 10 9 8 7 6 5 4 3 2 1 1 1 2 2 2 
2 1 1 1 2 3 4 5 6 7 8 9 10 11 12 13 13 
13 13 14 14 15 15 16 17 17 18 19 19 20 21 22 23 23 
24 25 26 27 28 29 29 30 31 32 33 34 35 36 37 38 38 
39 40 41 41 42 43 44 44 45 46 47 48 60 59 58 57 56 
55 54 53 52 51 50 49 49 48 47 46 45 44 43 42 41 40 
39 38 38 37 36 35 34 33 32 31 31 30 29 28 27 27 26 
25 24 24 23 22 22 21 20 20 19 19 18 18 18 17 17 17 
17 16 16 16 16 16 16 16 16 15 14 13 12 11 10 9 8 
7 6 5 4 3 2 2 2 2 2 2 2 2 1 0 1 2 
3 4 5 6 7 8 9 10 11 12 13 14 14 14 15 15 16 
16 17 17 18 19 19 20 21 22 22 23 24 25 26 26 27 28 
29 30 31 32 33 34 34 35 36 36 37 38 38 39 40 41 41 
42 43 44 45 45 46 47 60 59 58 57 56 55 54 53 52 51 
50 49 48 47 46 45 44 44 43 42 41 40 39 38 37 36 35 
34 34 33 32 31 30 29 28 28 27 26 25 24 24 23 22 21 
21 20 20 19 18 18 17 17 17 16 16 16 16 15 15 15 15 
15 15 15 15 14 14 13 12 11 10 9 8 7 6 5 5 4 
3 3 3 2 1 1 1 2 1 0 1 2 3 4 5 6 7 
8 9 10 11 12 13 14 15 15 16 16 17 17 18 18 19 19 
20 21 21 22 23 24 25 25 26 27 28 29 30 30 31 32 32 
33 34 34 35 36 36 37 38 38 39 40 41 42 42 43 44 45 
46 46 59 58 57 57 56 55 54 53 52 51 50 49 48 47 46 
45 44 43 42 41 40 39 39 38 37 36 35 34 33 32 31 30 
30 29 28 27 26 25 25 24 23 22 21 21 20 19 19 18 18 
17 17 16 16 15 15 15 15 14 14 14 14 14 14 14 14 14 
13 12 12 11 10 9 8 8 7 6 5 5 4 4 3 2 1 
0 1 2 1 1 1 2 3 4 5 6 7 8 9 10 11 12 
13 14 15 16 17 17 17 18 18 19 20 20 21 21 22 23 24 
24 25 26 27 28 28 29 29 30 30 31 32 32 33 33 34 35 
36 36 37 38 39 39 40 41 42 43 43 44 45 46 59 58 57 
56 55 54 53 52 51 50 50 49 48 47 46 45 44 43 42 41 
40 39 38 37 36 35 34 34 33 32 31 30 29 28 27 26 26 
25 24 23 22 22 21 20 19 19 18 17 17 16 16 15 15 14 
14 14 14 13 13 13 13 13 13 13 13 13 12 12 11 10 10 
9 9 8 7 7 6 5 5 4 3 2 1 1 1 1 1 1 
2 2 3 4 5 6 7 8 9 10 11 12 13 14 15 16 17 
18 18 19 19 20 20 21 22 22 23 24 24 25 26 26 26 27 
27 28 28 29 30 30 31 31 32 33 33 34 35 36 36 37 38 
39 40 40 41 42 43 44 44 45 59 58 57 56 55 54 53 52 
51 50 49 48 47 46 45 44 43 43 42 41 40 39 38 37 36 
35 34 33 32 31 30 29 29 28 27 26 25 24 23 23 22 21 
20 19 19 18 17 17 16 15 15 14 14 13 13 13 13 13 12 
12 12 12 12 12 12 12 12 11 10 10 9 8 8 8 8 7 
7 6 5 4 3 2 1 0 1 1 0 1 2 3 4 5 5 
6 7 8 9 10 11 12 13 14 15 16 17 18 19 20 20 21 
21 22 22 23 23 24 24 24 25 25 25 26 26 27 28 28 29 
29 30 31 31 32 33 33 34 35 36 37 37 38 39 40 41 41 
42 43 44 45 59 58 57 56 55 54 53 52 51 50 49 48 47 
46 45 44 43 42 41 40 39 38 37 37 36 35 34 33 32 31 
30 29 28 27 26 25 25 24 23 22 21 20 20 19 18 17 16 
16 15 15 14 13 13 13 12 12 12 12 11 11 11 11 11 11 
11 11 11 10 9 9 8 8 7 7 7 6 6 6 5 4 3 
2 1 0 1 1 1 1 2 3 4 5 6 7 8 8 9 10 
11 12 13 14 15 16 17 18 19 20 21 21 22 22 22 22 22 
23 23 23 24 24 25 25 26 26 27 27 28 29 29 30 31 31 
32 33 34 34 35 36 37 38 38 39 40 41 42 43 43 44 58 
57 57 56 55 54 53 52 51 50 49 48 47 46 45 44 43 42 
41 40 39 38 37 36 35 34 33 32 31 31 30 29 28 27 26 
25 24 23 22 21 21 20 19 18 17 17 16 15 14 14 13 13 
12 12 11 11 11 11 10 10 10 10 10 10 10 10 10 10 9 
8 7 7 6 6 6 5 5 5 5 4 3 2 1 1 1 1 
1 2 2 3 4 5 6 7 8 9 10 11 12 13 13 14 15 
16 17 18 19 20 21 21 21 21 21 21 21 22 22 22 23 23 
24 24 25 25 26 27 27 28 29 29 30 31 31 32 33 34 35 
35 36 37 38 39 39 40 41 42 43 44 58 57 56 55 54 53 
52 51 50 50 49 48 47 46 45 44 43 42 41 40 39 38 37 
36 35 34 33 32 31 30 29 28 27 26 26 25 24 23 22 21 
20 19 18 18 17 16 15 14 14 13 12 12 11 11 10 10 10 
10 9 9 9 9 9 9 9 9 9 9 8 7 7 6 5 5 
5 5 4 4 4 3 3 2 2 2 1 0 1 2 3 4 5 
5 6 7 8 9 10 11 12 13 14 15 16 17 18 18 19 20 
20 20 20 20 20 20 20 21 21 21 22 22 23 23 24 25 25 
26 26 27 28 29 29 30 31 32 32 33 34 35 36 36 37 38 
39 40 41 42 42 43 57 57 56 55 54 53 52 51 50 49 48 
47 46 45 44 43 42 41 41 40 39 38 37 36 35 34 33 32 
31 30 29 28 27 26 25 24 23 22 21 21 20 19 18 17 16 
15 15 14 13 12 12 11 10 10 9 9 9 9 8 8 8 8 
8 8 8 8 8 8 8 7 6 5 5 4 4 4 3 3 3 
2 2 2 2 2 1 1 1 2 3 4 5 6 7 8 8 9 
10 11 12 13 14 15 16 17 18 19 19 19 19 19 19 19 19 
19 19 20 20 21 21 21 22 23 23 24 24 25 26 26 27 28 
29 29 30 31 32 33 33 34 35 36 37 38 38 39 40 41 42 
43 57 56 55 54 54 53 52 51 50 49 48 47 46 45 44 43 
42 41 40 39 38 37 36 35 34 33 32 32 31 30 29 28 27 
26 25 24 23 22 21 20 19 18 17 17 16 15 14 13 12 12 
11 10 10 9 8 8 8 8 8 7 7 7 7 7 7 7 8 
8 7 6 5 5 4 3 3 3 2 2 2 2 1 1 1 2 
2 2 2 2 3 4 5 6 7 8 9 10 11 12 13 13 14 
15 16 17 18 18 18 18 18 18 18 18 18 18 18 19 19 20 
20 21 21 22 22 23 24 24 25 26 26 27 28 29 30 30 31 
32 33 34 34 35 36 37 38 39 40 41 42 42 56 55 55 54 
53 52 51 50 49 49 48 47 46 45 44 43 42 41 40 39 38 
37 36 35 34 33 32 31 30 29 28 27 26 25 25 24 23 22 
21 20 19 18 17 16 15 14 13 13 12 11 10 9 9 8 8 
7 7 7 7 6 6 6 6 6 6 6 7 7 7 6 5 4 
3 2 2 2 2 1 1 1 1 0 1 2 3 3 3 3 4 
5 5 6 7 8 9 10 11 12 13 14 15 16 17 17 17 17 
17 17 17 17 17 17 17 17 18 18 18 19 19 20 20 21 22 
22 23 24 24 25 26 27 27 28 29 30 31 31 32 33 34 35 
36 37 38 38 39 40 41 41 55 55 54 53 52 52 51 50 49 
48 47 46 45 44 44 43 42 41 40 39 38 37 36 35 34 33 
32 31 30 29 28 27 26 25 24 23 22 21 20 19 18 18 17 
16 15 14 13 12 11 10 10 9 8 7 7 6 6 6 6 5 
5 5 5 5 5 5 6 7 7 6 5 4 3 2 1 1 1 
1 0 1 1 0 1 2 3 4 4 4 5 5 6 7 8 8 
9 10 11 12 13 14 15 16 17 16 16 16 16 16 16 16 16 
16 16 16 17 17 17 18 18 19 20 20 21 21 22 23 24 24 
25 26 27 28 28 29 30 31 32 33 34 34 35 36 37 38 39 
40 40 40 55 54 53 53 52 51 50 49 49 48 47 46 45 44 
43 42 41 40 39 39 38 37 36 35 34 33 32 31 30 29 28 
27 26 25 24 23 22 21 20 19 18 17 16 15 14 13 13 12 
11 10 9 8 7 7 6 5 5 5 5 5 4 4 4 4 4 
5 5 6 6 6 5 4 3 2 1 0 1 1 1 1 1 1 
1 2 3 4 5 5 5 6 7 7 8 9 10 11 12 13 13 
14 15 16 16 15 15 15 15 15 15 15 15 15 15 15 16 16 
17 17 18 18 19 19 20 21 21 22 23 24 25 25 26 27 28 
29 30 30 31 32 33 34 35 36 37 38 38 39 39 39 54 53 
53 52 51 50 50 49 48 47 46 46 45 44 43 42 41 40 39 
38 37 36 35 34 34 33 32 31 30 29 28 27 26 25 24 23 
22 21 20 19 18 17 16 15 14 13 12 11 10 9 8 8 7 
6 5 5 4 4 4 4 3 3 3 3 3 4 5 5 5 6 
5 4 3 2 1 1 1 2 2 2 2 2 2 2 3 4 5 
6 6 7 7 8 9 10 10 11 12 13 14 15 16 15 15 14 
14 14 14 14 14 14 14 14 14 14 15 15 16 16 17 17 18 
19 19 20 21 22 22 23 24 25 26 26 27 28 29 30 31 32 
33 34 34 35 36 37 38 38 38 38 54 53 52 51 50 50 49 
48 47 47 46 45 44 43 43 42 41 40 39 38 37 36 35 34 
33 32 31 30 29 29 28 27 26 25 24 23 22 21 20 19 18 
17 16 15 14 13 12 11 10 9 8 7 6 5 5 4 3 3 
3 3 2 2 2 2 2 3 4 4 5 5 5 4 3 2 2 
2 2 2 3 3 3 3 3 3 4 5 5 6 7 8 8 9 
9 10 11 12 13 13 14 15 15 14 14 13 13 13 13 13 13 
13 13 13 13 13 14 14 15 15 16 17 17 18 19 19 20 21 
22 23 23 24 25 26 27 28 29 29 30 31 32 33 34 35 36 
36 37 37 37 37 53 52 51 51 50 49 48 48 47 46 45 44 
44 43 42 41 40 39 38 37 37 36 35 34 33 32 31 30 29 
28 27 26 25 25 24 23 22 21 20 19 18 17 16 15 14 13 
12 11 10 9 8 7 6 5 4 3 2 2 2 2 2 1 1 
1 2 3 3 3 4 5 5 4 4 3 3 3 3 3 4 4 
4 4 4 4 5 5 6 7 8 8 9 10 10 11 12 12 13 
14 14 14 14 13 13 13 12 12 12 12 12 12 12 12 12 13 
13 13 14 15 15 16 16 17 18 19 20 20 21 22 23 24 25 
25 26 27 28 29 30 31 32 33 34 34 35 35 36 36 36 37 
52 52 51 50 49 48 48 47 46 45 45 44 43 42 41 41 40 
39 38 37 36 35 34 33 32 31 31 30 29 28 27 26 25 24 
23 22 21 20 19 18 18 17 16 15 14 13 12 11 10 9 8 
7 6 5 4 3 2 1 1 1 2 1 0 1 2 2 2 2 
3 4 4 3 3 3 3 3 4 4 5 5 5 5 5 5 5 
6 7 7 8 9 10 10 11 12 12 13 14 14 13 13 13 13 
12 12 11 11 11 11 11 11 11 11 11 12 12 13 13 14 14 
15 16 17 17 18 19 20 21 21 22 23 24 25 26 27 28 29 
30 31 31 32 33 33 34 34 35 35 35 36 52 51 50 49 49 
48 47 46 46 45 44 43 42 42 41 40 39 38 38 37 36 35 
34 33 32 31 30 29 28 27 26 26 25 24 23 22 21 20 19 
18 17 16 15 14 13 13 12 11 10 9 8 7 6 5 4 3 
2 1 0 1 2 1 1 1 1 1 1 2 3 4 3 2 2 
2 2 2 3 4 5 6 6 6 6 6 6 7 7 8 9 10 
10 11 12 12 13 14 13 13 13 12 12 12 11 11 10 10 10 
10 10 10 10 10 10 11 11 12 12 13 14 14 15 16 17 18 
18 19 20 21 22 23 24 25 26 26 27 28 29 30 31 31 32 
33 33 33 34 34 34 35 51 50 50 49 48 47 46 46 45 44 
43 43 42 41 40 39 39 38 37 36 36 35 34 33 32 31 30 
29 28 27 26 25 24 23 22 21 21 20 19 18 17 16 15 14 
13 12 11 10 9 8 8 7 6 5 4 3 2 1 0 1 2 
2 2 2 1 0 1 2 3 3 3 2 1 1 1 2 3 4 
5 6 7 7 7 7 7 8 8 9 9 10 11 12 13 13 13 
13 13 12 12 11 11 11 10 10 9 9 9 9 9 9 9 9 
9 10 10 11 12 12 13 14 15 15 16 17 18 19 20 21 21 
22 23 24 25 26 27 28 29 29 30 31 31 32 32 32 33 33 
33 34 51 50 49 48 47 47 46 45 44 43 43 42 41 40 40 
39 38 37 36 36 35 34 33 32 32 31 30 29 28 27 26 25 
24 23 22 21 20 19 18 17 17 16 15 14 13 12 11 10 9 
8 7 6 5 5 4 3 2 1 1 1 2 2 2 2 1 1 
1 2 2 2 3 2 1 0 1 2 3 4 5 6 7 8 8 
8 8 8 9 10 10 11 12 12 12 12 12 12 12 11 11 10 
10 10 9 9 8 8 8 8 8 8 8 8 8 9 10 10 11 
12 12 13 14 15 16 17 17 18 19 20 21 22 23 24 25 26 
27 27 28 29 29 30 31 31 31 32 32 32 32 33 50 49 48 
48 47 46 45 44 44 43 42 41 41 40 39 38 37 37 36 35 
34 33 33 32 31 30 29 28 27 26 25 25 24 23 22 21 20 
19 18 17 16 15 14 13 13 12 11 10 9 8 7 6 5 4 
3 2 2 2 2 2 2 1 1 1 2 1 1 1 1 2 3 
2 1 1 1 2 3 4 5 6 7 8 9 9 9 9 10 10 
11 12 12 12 11 11 11 11 11 10 10 9 9 9 8 8 8 
7 7 7 7 7 7 7 8 8 9 9 10 11 12 13 13 14 
15 16 17 18 19 20 21 22 23 24 25 25 26 27 27 28 29 
29 30 30 30 31 31 31 31 32 49 49 48 47 46 45 45 44 
43 42 41 41 40 39 38 38 37 36 35 34 34 33 32 31 31 
30 29 28 27 26 25 24 23 22 21 20 19 18 18 17 16 15 
14 13 12 11 10 10 9 8 7 6 5 4 3 2 1 1 1 
2 2 1 0 1 1 1 0 0 1 2 2 2 2 2 2 2 
3 4 5 6 7 8 9 10 10 10 11 11 11 11 11 11 10 
10 10 10 10 10 9 8 8 8 8 7 7 6 6 6 6 6 
6 6 7 7 8 9 10 10 11 12 13 14 15 16 17 18 18 
19 20 21 22 23 24 25 25 26 26 27 28 29 29 29 29 30 
30 30 31 31 49 48 47 46 46 45 44 43 42 42 41 40 39 
38 38 37 36 35 35 34 33 32 31 31 30 29 29 28 27 26 
25 24 23 22 21 20 19 18 17 16 15 14 13 13 12 11 10 
9 8 7 7 6 5 4 3 2 1 0 1 2 2 1 1 0 
1 1 1 1 1 1 1 1 2 3 3 3 4 5 5 6 7 
8 9 10 10 10 10 10 10 10 10 10 9 9 9 9 9 9 
8 8 7 7 7 6 6 5 5 5 5 5 5 5 6 7 7 
8 9 10 11 12 13 13 14 15 16 17 18 19 20 21 22 23 
23 24 24 25 26 26 27 28 28 28 28 29 29 29 30 30 48 
48 47 46 45 44 43 43 42 41 40 39 39 38 37 36 36 35 
34 33 32 32 31 30 29 29 28 27 26 26 25 24 23 22 21 
20 19 18 17 16 15 14 13 12 11 10 9 8 8 7 6 5 
5 4 3 2 1 1 1 2 2 2 1 1 1 2 2 2 2 
1 0 1 2 3 4 4 5 5 6 7 8 8 9 9 9 9 
9 9 9 9 9 9 8 8 8 8 8 8 7 7 6 6 6 
5 5 5 4 4 4 4 4 5 5 6 7 8 8 9 10 11 
12 13 14 15 16 17 18 19 20 21 21 22 22 23 24 24 25 
26 26 27 27 27 27 28 28 28 29 29 48 47 46 45 44 44 
43 42 41 40 40 39 38 37 36 36 35 34 33 33 32 31 30 
29 29 28 27 26 26 25 24 24 23 22 21 20 19 18 17 16 
15 14 13 12 11 10 9 8 7 6 5 5 4 3 3 2 2 
2 2 2 3 2 2 2 2 2 3 3 2 1 1 1 2 3 
4 5 5 6 7 7 8 9 8 8 8 8 8 8 8 8 8 
8 8 7 7 7 7 7 7 6 5 5 5 5 4 4 3 3 
3 3 3 4 5 5 6 7 8 9 10 11 12 13 14 15 16 
17 18 19 19 20 20 21 22 22 23 24 24 25 26 26 26 26 
26 27 27 27 28 28 47 47 46 45 44 43 42 41 41 40 39 
38 37 37 36 35 34 33 33 32 31 30 30 29 28 27 26 26 
25 24 24 23 22 22 21 20 19 18 17 16 15 14 13 12 11 
10 9 8 7 6 5 4 3 2 2 2 2 2 3 3 4 3 
3 3 2 2 2 2 2 2 2 2 2 3 4 5 6 7 7 
8 8 8 8 7 7 7 7 7 7 7 8 7 7 6 6 6 
6 6 6 5 5 4 4 4 3 3 2 2 2 2 2 3 4 
5 6 7 8 9 10 11 12 13 14 15 16 17 17 18 18 19 
20 20 21 21 22 23 24 24 25 25 25 25 25 26 26 26 27 
27 47 46 45 44 43 43 42 41 40 39 38 38 37 36 35 34 
34 33 32 31 31 30 29 28 27 27 26 25 24 24 23 22 22 
21 20 19 18 18 17 16 15 14 13 12 11 10 9 8 7 6 
5 4 3 2 1 1 1 2 3 4 3 2 2 2 2 1 1 
1 2 3 3 3 3 4 5 5 6 7 8 7 7 7 7 6 
6 6 6 6 6 6 7 7 6 5 5 5 5 5 5 5 4 
3 3 3 2 2 2 1 1 1 2 3 4 5 6 7 8 9 
10 11 12 13 14 15 16 16 17 17 18 18 19 19 20 21 21 
22 23 24 24 24 24 24 25 25 25 26 26 26 46 46 45 44 
43 42 41 40 39 39 38 37 36 35 35 34 33 32 31 31 30 
29 28 28 27 26 25 24 24 23 22 21 21 20 20 19 18 17 
16 15 14 13 13 12 11 10 9 8 7 6 5 4 3 2 1 
0 1 2 3 4 3 2 1 1 1 1 0 1 2 3 4 4 
4 5 5 6 6 7 7 6 6 6 6 5 5 5 5 5 5 
5 6 6 5 5 4 4 4 4 4 4 3 2 2 2 2 1 
1 1 0 1 2 3 4 5 6 7 8 9 10 11 12 13 14 
14 15 15 16 16 17 17 18 19 19 20 21 22 22 23 23 23 
23 23 24 24 24 25 25 25 46 45 44 43 42 42 41 40 39 
38 37 36 36 35 34 33 32 32 31 30 29 29 28 27 26 25 
25 24 23 22 21 21 20 19 19 18 18 17 16 15 14 13 12 
11 10 9 8 8 7 6 5 4 3 2 1 1 1 2 3 3 
3 2 1 0 1 1 0 1 2 3 4 5 5 5 5 5 5 
6 6 5 5 5 5 5 4 4 4 4 4 5 5 5 5 4 
3 3 3 3 3 4 3 2 1 1 1 1 0 1 1 1 2 
3 4 5 6 7 8 9 10 11 12 13 13 13 14 14 15 15 
16 17 17 18 19 19 20 21 22 22 22 22 22 22 23 23 23 
24 24 25 46 45 44 43 42 41 40 39 38 38 37 36 35 34 
33 33 32 31 30 29 29 28 27 26 26 25 24 23 22 22 21 
20 19 19 18 17 17 16 16 15 14 13 12 11 10 9 8 7 
6 5 5 4 3 2 2 2 2 2 2 2 2 2 1 1 1 
1 1 1 2 3 4 4 4 4 4 4 5 5 5 5 4 4 
4 4 3 3 3 3 3 4 5 5 4 3 2 2 2 2 2 
3 3 2 1 0 1 1 1 1 2 2 2 3 4 5 6 7 
8 9 10 11 12 12 12 13 13 13 14 15 15 16 16 17 18 
19 20 20 21 21 21 21 21 21 22 22 22 23 23 24 45 44 
43 42 42 41 40 39 38 37 36 35 34 34 33 32 31 30 30 
29 28 27 26 26 25 24 23 23 22 21 20 19 19 18 17 17 
16 15 15 14 14 13 12 11 10 9 8 7 6 5 4 3 2 
2 2 2 2 3 2 1 1 1 2 2 2 2 2 2 2 3 
4 3 3 3 3 3 4 4 4 4 3 3 3 3 2 2 2 
2 2 3 4 5 4 3 2 1 1 1 2 3 2 2 1 1 
1 2 2 2 2 3 3 4 5 5 6 7 8 9 10 11 11 
11 11 12 12 13 13 14 14 15 16 17 17 18 19 20 20 20 
20 20 20 20 21 21 21 22 22 23 45 44 43 42 41 40 39 
38 38 37 36 35 34 33 32 31 31 30 29 28 27 27 26 25 
24 24 23 22 21 20 20 19 18 17 16 16 15 15 14 13 13 
12 12 11 10 9 8 7 6 5 4 3 2 1 1 1 2 3 
2 1 0 1 2 3 3 3 3 3 3 4 3 2 2 2 2 
2 3 3 3 3 2 2 2 2 2 1 1 1 2 3 4 5 
4 3 2 1 0 1 2 3 2 1 1 1 2 2 3 3 3 
4 4 5 5 6 7 8 8 9 10 10 10 10 10 11 11 12 
12 13 14 14 15 16 17 18 18 19 19 19 19 19 19 19 20 
20 21 21 21 22 44 44 43 42 41 40 39 38 37 36 35 34 
34 33 32 31 30 29 28 28 27 26 25 24 24 23 22 21 21 
20 19 18 17 17 16 15 14 14 13 13 12 12 11 10 9 9 
8 7 6 5 4 3 2 1 0 1 2 3 2 1 1 1 2 
3 3 4 4 4 4 4 3 2 1 1 1 2 3 2 2 2 
2 1 1 1 1 1 0 1 2 3 4 5 4 3 2 1 1 
1 2 3 2 1 0 1 2 3 3 3 3 4 5 5 6 7 
7 8 9 9 9 9 9 9 9 10 10 11 12 12 13 14 15 
15 16 17 18 18 18 18 18 18 18 18 19 19 20 20 21 21 
44 43 42 41 40 39 39 38 37 36 35 34 33 32 31 30 30 
29 28 27 26 25 25 24 23 22 21 21 20 19 18 18 17 16 
15 14 14 13 12 12 11 11 10 10 9 8 7 7 6 5 4 
3 2 1 1 1 2 3 2 1 1 1 2 2 2 3 4 4 
4 4 3 2 1 0 1 2 3 2 1 1 1 1 0 1 0 
1 1 1 2 3 4 5 4 3 2 2 2 2 2 3 2 1 
1 1 2 2 2 2 2 3 4 5 6 7 8 8 8 8 8 
8 8 8 8 9 10 10 11 12 12 13 14 15 16 17 17 17 
17 17 17 17 17 18 18 18 19 19 20 20 44 43 42 41 40 
39 38 37 36 35 34 34 33 32 31 30 29 28 27 26 26 25 
24 23 22 22 21 20 19 19 18 17 16 15 15 14 13 12 12 
11 10 10 9 9 8 7 7 6 5 5 4 3 2 2 2 2 
2 3 2 1 0 1 1 1 2 3 3 3 3 3 3 2 1 
1 1 2 3 2 1 0 1 1 1 0 1 1 0 1 2 3 
4 5 5 4 3 3 3 3 3 3 2 2 2 2 2 1 1 
1 2 3 4 5 6 7 8 7 7 7 7 7 7 7 8 8 
9 9 10 11 12 13 13 14 15 16 16 16 16 16 16 16 16 
17 17 17 18 18 19 20 43 43 42 41 40 39 38 37 36 35 
34 33 32 31 30 29 29 28 27 26 25 24 23 23 22 21 20 
19 19 18 17 17 16 15 14 13 12 12 11 10 10 9 8 8 
8 7 6 5 5 4 4 4 3 3 3 3 3 3 2 1 0 
1 0 1 2 2 2 2 2 2 3 2 2 2 2 2 3 2 
1 1 1 2 1 0 1 1 0 1 2 3 4 5 5 5 4 
4 4 4 4 4 3 2 2 2 2 1 0 1 2 3 4 5 
6 7 7 6 6 6 6 6 6 6 7 7 8 9 10 10 11 
12 13 14 15 15 15 15 15 15 15 15 15 16 16 17 17 18 
18 19 43 42 41 40 39 38 37 37 36 35 34 33 32 31 30 
29 28 27 26 25 25 24 23 22 21 20 20 19 18 17 16 16 
15 14 13 13 12 11 10 9 9 8 8 7 7 6 5 5 4 
3 3 3 3 3 4 4 4 3 2 1 1 1 1 1 2 2 
1 1 1 2 3 3 3 3 3 3 3 2 2 2 2 2 1 
1 1 1 1 1 2 3 4 5 6 5 5 5 5 5 5 4 
3 2 1 1 1 1 1 1 2 3 4 5 6 6 6 5 5 
5 5 5 5 5 6 7 7 8 9 10 11 12 13 13 14 14 
14 14 14 14 14 14 14 15 15 16 16 17 17 18 43 42 41 
40 39 38 37 36 35 34 33 32 31 31 30 29 28 27 26 25 
24 23 22 21 21 20 19 18 17 17 16 15 14 14 13 12 11 
10 10 9 8 7 7 6 6 6 5 4 3 2 2 2 2 2 
3 4 4 3 2 2 2 2 2 2 2 1 1 0 1 2 3 
4 4 4 4 4 4 3 3 3 3 2 2 1 1 1 2 2 
2 3 4 5 6 6 6 6 6 6 5 4 3 2 1 0 1 
2 2 2 2 3 4 5 5 5 5 5 4 4 4 4 4 5 
5 6 7 8 8 9 10 11 12 13 13 13 13 13 13 13 13 
13 13 14 14 15 15 16 17 17 42 41 41 40 39 38 37 36 
35 34 33 32 31 30 29 28 27 26 26 25 24 23 22 21 20 
19 18 18 17 16 15 14 14 13 12 12 11 10 9 8 7 7 
6 5 5 5 5 4 3 2 1 1 1 2 3 4 5 4 3 
3 3 3 3 3 2 1 0 1 1 2 3 4 5 5 5 5 
5 4 4 4 4 3 2 1 0 1 2 3 3 4 5 5 6 
7 7 7 7 6 5 4 3 2 1 1 1 2 3 3 3 4 
4 4 4 4 4 4 3 3 3 3 3 4 5 5 6 7 8 
9 10 11 12 12 12 12 12 12 12 12 12 12 13 13 13 14 
15 15 16 16 42 41 40 39 38 38 37 36 35 34 33 32 31 
30 29 28 27 26 25 24 23 22 21 21 20 19 18 17 16 15 
15 14 13 12 12 11 10 9 8 8 7 6 5 5 4 4 4 
3 2 2 1 0 1 2 3 4 5 5 4 4 4 4 4 3 
2 1 1 1 2 2 3 4 5 6 6 6 5 5 5 5 4 
3 2 1 0 1 2 2 2 3 4 5 6 7 8 7 7 6 
5 4 3 2 2 2 2 2 3 4 4 3 3 3 3 3 3 
3 2 2 2 2 2 3 4 5 6 7 8 9 10 11 12 11 
11 11 11 11 11 11 11 11 12 12 13 13 14 14 15 16 41 
40 39 39 38 37 36 35 34 33 32 32 31 30 29 28 27 26 
25 24 23 22 21 20 19 18 17 17 16 15 14 13 12 12 11 
10 10 9 8 7 6 5 5 4 3 3 3 2 2 1 1 1 
1 2 3 4 5 5 5 5 5 5 4 3 2 1 0 1 2 
3 4 5 5 6 7 7 6 6 6 5 4 3 2 1 1 1 
1 1 2 3 4 5 6 7 7 7 6 5 5 4 4 3 3 
3 3 3 4 4 3 2 2 2 2 2 2 2 2 1 1 1 
2 3 4 5 6 7 8 9 10 11 11 10 10 10 10 10 10 
10 10 10 11 11 12 12 13 14 14 15 41 40 39 38 37 36 
36 35 34 33 32 31 30 29 28 27 26 25 25 24 23 22 21 
20 19 18 17 16 15 14 13 13 12 11 10 9 9 8 8 7 
6 5 4 3 2 2 2 2 1 1 0 1 2 2 3 4 5 
6 6 6 6 5 4 3 2 1 1 1 2 3 4 5 6 7 
8 8 7 7 6 5 4 3 2 1 1 1 0 1 2 3 4 
5 6 7 7 6 5 5 4 3 3 3 3 3 3 3 3 3 
3 2 1 1 1 1 1 1 2 1 0 1 2 3 4 5 6 
7 8 9 10 10 10 9 9 9 9 9 9 9 9 9 10 10 
11 12 12 13 14 15 40 39 38 38 37 36 35 34 33 33 32 
31 30 29 28 27 26 25 24 23 22 21 20 19 18 18 17 16 
15 14 13 12 11 10 10 9 8 7 7 6 6 5 4 3 2 
1 1 1 1 0 0 1 2 2 3 4 5 6 7 7 6 5 
4 3 2 1 0 1 2 3 4 5 6 7 8 8 8 7 6 
5 4 3 2 1 0 1 1 1 2 3 4 5 6 6 6 5 
5 4 3 2 2 2 2 2 2 2 2 2 2 2 1 0 1 
1 0 1 2 1 1 1 2 3 4 5 6 7 8 9 10 10 
9 8 8 8 8 8 8 8 8 8 9 10 10 11 12 12 13 
14 40 39 38 37 36 35 34 34 33 32 31 30 30 29 28 27 
26 25 24 23 22 21 20 19 18 17 16 15 14 13 13 12 11 
10 9 8 7 7 6 5 5 5 4 3 2 1 0 1 1 1 
0 1 1 2 3 4 5 6 7 7 6 5 4 3 2 1 1 
1 2 3 4 5 6 7 7 8 8 7 6 5 4 3 2 1 
1 1 1 2 2 3 4 5 5 5 5 5 4 3 2 2 1 
1 1 2 2 1 1 1 2 2 1 1 1 1 1 1 2 2 
2 2 2 3 4 5 6 7 8 9 9 9 8 8 7 7 7 
7 7 7 7 8 8 9 9 10 11 12 13 13 39 38 38 37 
36 35 34 33 32 31 31 30 29 28 27 27 26 25 24 23 22 
21 20 19 18 17 16 15 14 13 12 11 10 9 8 8 7 6 
5 5 4 4 3 2 2 1 1 1 0 1 0 0 1 2 3 
4 5 6 7 7 6 5 4 3 2 1 0 1 2 3 4 5 
5 6 6 7 7 7 6 5 4 3 2 2 1 0 1 2 3 
4 4 4 4 5 5 4 3 2 2 1 1 0 1 1 1 1 
0 1 2 2 2 2 2 2 2 2 2 3 3 3 3 4 5 
5 6 7 8 9 9 8 7 7 6 6 6 6 6 6 6 7 
7 8 9 10 10 11 12 13 39 38 37 36 35 34 34 33 32 
31 30 29 28 28 27 26 25 24 24 23 22 21 20 19 18 17 
16 15 14 13 12 11 10 9 8 7 6 5 5 4 3 3 3 
2 1 1 0 0 1 1 0 1 1 2 3 4 5 6 7 7 
6 5 4 3 2 1 1 1 2 2 3 4 5 5 5 6 7 
7 6 5 5 4 3 2 1 1 1 2 3 3 3 3 3 4 
4 3 2 2 1 1 0 1 1 0 1 1 1 1 2 3 3 
3 3 3 3 3 3 4 4 4 4 5 5 6 7 8 8 9 
8 7 7 6 5 5 5 5 5 5 5 6 7 7 8 9 10 
11 12 13 39 38 37 36 35 34 33 32 31 30 30 29 28 27 
26 25 25 24 23 22 21 21 20 19 18 17 16 15 14 13 12 
11 10 9 8 7 6 5 4 3 2 2 2 2 1 0 1 1 
1 1 0 1 2 2 3 4 5 6 7 7 6 5 4 3 2 
1 0 1 1 2 3 4 4 4 5 5 6 7 7 6 5 4 
3 2 2 2 2 2 2 2 2 2 2 3 4 3 2 1 1 
0 0 1 1 1 1 2 2 2 2 3 4 4 4 4 4 4 
4 5 5 5 5 5 6 7 7 8 9 8 8 7 6 5 5 
4 4 4 4 4 5 5 6 7 8 8 9 10 11 12 38 37 
36 35 34 34 33 32 31 30 29 28 27 26 26 25 24 23 22 
22 21 20 19 19 18 17 16 15 14 13 12 11 10 9 8 7 
6 5 4 3 2 1 1 1 1 1 1 2 2 1 1 1 2 
2 3 4 5 6 7 7 6 5 4 3 2 1 1 0 1 2 
3 3 3 3 4 5 5 6 7 6 5 5 4 3 3 3 3 
3 2 1 1 1 2 3 3 2 2 1 0 0 1 1 2 2 
2 2 2 2 3 4 3 3 3 3 3 4 5 5 6 6 6 
6 7 7 8 9 9 8 7 6 5 5 4 3 3 3 3 3 
4 5 5 6 7 8 9 10 11 12 38 37 36 35 34 33 32 
31 30 29 29 28 27 26 25 24 23 23 22 21 20 19 19 18 
17 17 16 15 14 13 12 11 10 9 8 7 6 5 4 3 2 
1 0 1 2 2 2 2 2 1 0 1 1 2 3 4 5 6 
7 7 6 5 4 3 2 2 1 1 1 2 2 2 2 2 3 
4 5 6 7 7 6 5 5 4 4 4 4 3 2 1 0 1 
2 3 3 2 1 1 1 1 1 1 1 1 1 1 1 2 3 
3 2 2 2 2 2 3 4 5 5 6 7 7 8 8 9 9 
9 8 7 6 5 4 3 2 2 2 2 2 3 4 5 6 7 
8 9 10 11 12 37 37 36 35 34 33 32 31 30 29 28 27 
26 25 25 24 23 22 21 20 20 19 18 17 16 16 15 15 14 
13 12 11 10 9 8 7 6 5 4 3 2 1 1 1 2 3 
3 3 2 1 0 0 1 2 3 4 5 6 7 7 6 5 5 
4 3 2 2 2 2 2 1 1 1 2 3 4 5 6 7 7 
7 6 5 5 5 5 4 3 2 1 1 1 2 3 3 2 1 
0 1 1 1 0 1 1 0 0 1 2 3 3 2 1 1 1 
2 3 3 4 5 5 6 7 8 9 10 10 9 8 7 6 5 
4 3 2 1 1 1 2 3 4 5 6 7 8 9 10 11 12 
37 36 35 34 33 32 31 31 30 29 28 27 26 25 24 23 22 
21 21 20 19 18 17 17 16 15 14 14 13 13 12 11 10 9 
8 7 6 5 4 3 2 2 2 2 2 3 4 3 2 1 0 
0 1 2 3 4 5 6 7 7 6 5 5 5 4 3 3 3 
3 2 1 0 1 2 3 4 5 6 7 7 6 5 5 5 5 
5 4 3 2 2 2 2 2 3 3 2 1 1 1 0 0 1 
1 1 1 1 1 2 3 3 2 1 0 1 2 2 2 3 4 
5 6 7 8 9 10 10 9 8 7 6 5 4 3 2 1 0 
1 2 3 4 5 6 7 8 9 10 11 12 37 36 35 34 33 
32 31 30 29 28 27 26 26 25 24 23 22 21 20 19 18 18 
17 16 15 14 14 13 12 12 11 11 10 9 8 7 6 5 5 
4 3 3 3 3 3 4 4 3 2 1 0 1 1 2 3 4 
5 6 6 6 5 5 4 4 4 4 4 4 3 2 1 1 1 
2 3 4 5 6 6 6 5 5 4 4 4 4 4 4 3 3 
3 3 3 4 3 2 2 2 1 1 1 1 1 1 2 2 2 
2 3 3 2 1 1 1 1 1 2 3 4 5 6 7 8 9 
9 9 9 8 7 6 5 4 3 2 1 1 1 2 3 4 5 
6 7 8 9 10 11 12 37 36 35 34 33 32 31 30 29 28 
27 26 25 24 23 22 21 21 20 19 18 17 16 15 15 14 13 
12 12 11 10 10 9 9 8 8 7 6 5 5 4 4 3 3 
3 3 3 3 2 1 1 1 2 2 3 4 5 5 5 5 5 
4 3 3 3 3 3 4 3 2 2 2 2 2 3 4 5 5 
5 5 5 4 3 3 3 3 3 4 4 4 4 4 4 5 4 
3 3 2 2 2 2 1 0 1 2 3 3 3 3 3 2 2 
1 0 0 1 2 3 4 5 6 7 8 8 8 8 9 8 7 
6 5 4 3 2 2 2 2 2 3 4 5 6 7 8 9 10 
11 12 36 35 34 33 32 32 31 30 29 28 27 26 25 24 23 
22 21 20 19 18 17 17 16 15 14 13 12 12 11 10 10 9 
8 8 8 8 7 6 5 5 4 3 2 2 2 2 2 2 2 
2 2 2 2 3 4 5 5 5 4 4 4 3 2 2 2 2 
2 3 4 3 3 3 3 3 4 4 4 4 5 5 4 3 2 
2 2 2 2 3 4 5 5 5 5 5 5 4 4 3 3 2 
1 1 0 1 2 3 3 3 2 2 2 2 1 1 1 1 2 
3 4 5 6 7 7 7 7 8 8 8 7 6 5 5 4 3 
3 3 3 3 4 5 5 6 7 8 9 10 11 12 36 35 34 
33 32 31 30 29 28 27 26 25 25 24 23 22 21 20 19 18 
17 16 15 14 13 13 12 11 10 9 9 8 8 7 7 7 7 
6 5 4 3 2 2 1 1 1 2 2 1 1 1 2 3 3 
3 4 4 4 3 3 3 3 2 1 1 1 2 3 3 2 2 
2 2 2 3 3 3 3 4 5 4 3 2 1 1 1 2 3 
4 5 6 6 6 6 5 5 5 4 3 2 1 0 0 1 2 
2 2 2 2 1 1 1 2 2 2 2 2 3 4 5 5 6 
6 6 6 7 7 7 7 7 6 5 5 4 4 4 4 4 5 
5 6 7 8 8 9 10 11 12 36 35 34 33 32 31 30 29 
28 27 26 25 24 23 22 21 20 19 18 18 17 16 15 14 13 
12 11 10 10 9 8 7 7 6 6 6 6 6 5 4 3 2 
1 1 0 1 2 1 1 0 1 2 2 2 2 3 3 3 2 
2 2 2 2 1 0 1 2 3 3 2 1 1 1 2 2 2 
2 2 3 4 4 3 2 1 0 1 2 3 4 5 5 5 5 
5 6 6 5 4 3 2 1 1 0 1 1 1 1 1 1 1 
0 1 2 2 2 2 2 2 3 4 5 5 5 5 5 6 6 
6 6 6 7 6 5 5 5 5 5 5 5 6 7 7 8 9 
10 11 12 13 36 35 34 33 32 31 30 29 28 27 26 25 24 
23 22 21 20 19 18 17 16 15 14 13 13 12 11 10 9 8 
7 7 6 5 5 5 5 5 5 4 3 2 1 0 0 1 2 
1 0 0 1 1 1 1 2 2 2 3 2 1 1 1 2 1 
1 1 2 3 3 2 1 0 1 2 1 1 1 2 3 4 4 
3 2 1 1 1 2 2 3 4 4 4 4 5 5 5 5 4 
3 2 2 1 0 1 1 0 1 0 1 1 1 1 2 2 1 
1 1 2 3 4 4 4 4 4 5 5 5 5 5 5 6 7 
6 6 6 6 6 6 6 7 7 8 9 10 10 11 12 13 36 
35 34 33 32 31 30 29 28 27 26 25 24 23 22 21 20 19 
18 17 16 15 14 13 12 11 10 9 8 8 7 6 5 5 4 
4 4 4 4 4 3 2 1 1 1 1 2 1 1 1 1 1 
0 1 1 1 2 2 2 1 0 1 2 2 2 2 2 2 2 
2 1 1 1 1 1 0 1 2 3 4 4 3 2 2 1 1 
1 2 3 3 3 3 3 4 4 5 4 3 2 2 2 1 0 
1 1 1 1 1 1 1 0 1 1 2 1 0 1 2 3 3 
3 3 3 3 4 4 4 4 4 5 5 6 7 7 7 7 7 
7 7 8 8 9 9 10 11 12 12 13 36 35 34 33 32 31 
30 29 28 27 26 25 24 23 22 21 20 19 18 17 16 15 14 
13 12 11 10 9 8 7 6 5 5 4 3 3 3 3 3 4 
3 2 2 2 2 2 2 2 2 2 1 0 1 1 0 1 1 
1 1 1 0 1 2 3 2 1 1 1 1 1 2 2 2 1 
0 1 1 2 3 3 3 3 3 2 1 0 1 2 2 2 2 
2 2 3 3 4 3 2 2 1 1 1 1 1 2 2 2 2 
2 1 1 0 1 1 1 1 1 2 3 2 2 2 2 2 3 
3 3 3 3 4 5 5 6 7 8 8 8 8 8 8 9 9 
9 10 10 11 12 12 36 35 34 33 32 31 30 29 28 27 26 
25 24 23 22 21 20 19 18 17 16 15 14 13 12 11 10 9 
8 7 6 5 4 3 2 2 2 2 2 3 2 2 2 2 2 
3 3 3 3 2 1 1 1 1 1 1 0 0 0 1 1 1 
2 3 2 1 0 1 0 1 2 3 2 1 1 1 2 2 2 
2 2 2 3 2 1 1 1 2 2 1 1 1 2 2 2 3 
3 2 1 1 0 1 1 1 2 2 2 1 1 1 1 1 0 
1 2 2 2 2 2 2 1 1 1 2 2 2 2 2 2 3 
4 5 6 7 8 8 8 8 8 8 8 8 8 9 10 10 11 
12 36 35 34 33 32 31 30 29 28 27 26 25 24 23 22 21 
20 19 18 17 16 15 14 13 12 11 10 9 8 7 6 5 4 
3 2 1 1 1 2 3 2 1 1 1 2 3 4 4 3 2 
2 2 2 2 2 1 1 0 1 1 2 2 2 3 2 1 1 
1 1 1 2 3 2 2 2 2 2 2 1 1 1 2 2 2 
2 2 2 2 2 1 0 1 1 1 2 3 3 2 1 0 0 
1 0 1 2 1 1 1 0 0 1 1 1 1 2 3 2 1 
1 1 1 0 1 1 1 1 1 1 2 3 4 5 6 7 7 
7 7 7 7 7 7 7 8 8 9 9 10 11 36 35 34 33 
32 31 30 29 28 27 26 25 24 23 22 21 20 19 18 17 16 
15 14 13 12 11 10 9 8 7 6 5 4 3 2 1 0 1 
2 2 2 1 0 1 2 3 4 5 4 3 3 3 3 3 2 
1 1 0 1 2 2 2 2 2 2 2 2 2 2 2 2 3 
3 2 2 2 2 2 1 0 1 1 1 1 2 3 3 3 2 
1 1 0 0 1 2 3 3 2 1 1 1 1 1 1 2 1 
0 1 1 1 1 2 2 2 2 3 2 1 0 1 0 0 0 
1 0 0 0 1 2 3 4 5 6 6 6 6 6 6 6 6 
6 6 7 7 8 9 10 10 36 35 34 33 32 31 30 29 28 
27 26 25 24 23 22 21 20 19 18 17 16 15 14 13 12 11 
10 9 8 7 6 5 4 3 2 1 1 1 2 1 1 1 0 
1 2 3 4 4 3 2 2 2 2 2 2 1 0 1 1 1 
1 1 1 2 2 2 2 2 2 2 2 2 2 2 1 1 1 
1 1 1 1 0 0 1 2 3 4 3 2 2 1 1 1 1 
2 3 3 2 2 2 2 2 2 2 2 1 0 1 2 2 2 
2 3 3 3 3 2 1 1 1 1 1 1 0 0 0 1 1 
2 3 4 5 5 5 5 5 5 5 5 5 5 5 6 7 7 
8 9 10 36 35 34 33 32 31 30 29 28 27 26 25 24 23 
22 21 20 19 18 17 16 15 14 13 12 11 10 9 8 7 6 
5 4 3 2 2 1 1 1 1 0 1 1 1 2 3 4 4 
3 2 1 1 1 1 1 1 0 0 1 1 0 0 1 1 1 
1 1 1 1 1 1 2 2 1 1 0 0 1 0 1 1 1 
1 1 2 3 4 4 3 2 2 2 2 2 2 3 4 3 3 
3 2 2 2 2 2 1 0 1 2 3 3 3 4 4 4 3 
2 2 2 2 2 2 1 1 1 1 1 2 2 3 3 4 4 
4 4 4 4 4 4 4 4 5 5 6 7 8 8 9 36 35 
34 33 32 31 30 29 28 27 26 25 24 23 22 21 20 19 18 
17 16 15 14 13 12 11 10 9 8 7 6 5 5 4 3 2 
1 0 0 1 1 1 2 2 2 3 4 4 3 2 1 0 0 
0 0 0 0 0 0 0 1 0 0 0 0 0 1 0 0 0 
1 1 1 1 0 0 0 1 1 1 2 2 2 2 2 3 4 
5 4 3 3 3 3 3 3 4 4 3 2 2 2 1 1 1 
1 1 1 1 2 3 4 4 5 5 5 4 3 3 3 3 3 
2 1 1 1 1 1 2 2 2 2 3 3 3 3 3 3 3 
3 3 3 4 5 5 6 7 8 9 36 35 34 33 32 31 30 
29 28 27 26 25 24 23 22 21 20 19 18 17 16 15 14 13 
12 11 10 9 8 8 7 6 5 4 3 2 1 1 1 1 2 
2 2 3 3 4 5 4 3 2 1 1 1 1 1 1 1 1 
1 1 1 1 1 0 0 1 1 1 0 0 0 1 0 0 0 
0 1 1 2 2 2 3 3 3 3 4 5 5 5 4 4 4 
4 4 4 5 4 3 2 1 1 1 0 1 0 1 2 2 2 
3 4 5 5 6 5 5 4 4 4 4 3 2 1 0 1 0 
1 1 1 1 2 3 2 2 2 2 2 2 2 2 2 3 4 
5 6 7 8 9 36 35 34 33 32 31 30 29 28 27 26 25 
24 23 22 21 20 19 18 17 16 15 14 13 13 12 11 10 9 
8 7 6 5 4 3 2 2 2 2 2 2 3 3 4 4 5 
5 4 3 2 2 1 0 1 2 2 2 2 2 2 2 2 1 
1 1 0 0 1 1 1 1 1 1 1 0 0 1 2 2 3 
3 4 4 4 4 5 5 6 5 5 5 5 5 5 5 5 4 
3 2 1 0 1 1 1 1 1 2 3 3 4 5 5 6 7 
6 5 5 5 5 4 3 2 1 1 1 1 1 1 0 1 2 
2 2 1 1 1 2 1 1 1 2 3 4 5 6 7 8 9 
36 35 34 33 32 31 30 29 28 27 26 25 24 23 22 21 20 
19 18 18 17 16 15 14 13 12 11 10 9 8 7 6 5 5 
4 3 3 3 3 3 3 4 4 5 5 5 5 5 4 3 2 
1 1 1 2 3 3 3 3 3 3 2 2 2 1 1 1 1 
2 2 2 2 2 1 1 1 1 2 3 4 4 5 5 5 5 
5 5 5 5 5 5 4 4 4 4 4 4 3 2 1 1 1 
2 2 2 2 2 3 4 5 5 6 7 7 7 6 6 6 5 
4 3 2 2 2 2 2 2 1 1 1 1 1 2 1 0 1 
2 1 0 1 2 3 4 5 6 7 8 9 36 35 34 33 32 
31 30 29 28 27 26 25 25 24 23 22 21 20 19 18 17 16 
15 14 13 12 11 10 9 8 8 7 6 5 5 4 4 4 4 
4 4 5 5 5 6 6 6 5 4 3 2 2 2 2 2 2 
2 2 2 2 2 2 3 2 2 2 2 2 1 1 1 2 2 
2 1 1 1 2 2 3 4 4 4 5 4 4 4 4 4 4 
4 3 3 3 3 3 4 3 2 2 2 2 2 3 3 3 3 
4 5 5 6 7 7 8 8 7 7 6 5 5 4 3 3 3 
3 3 2 2 1 0 0 1 2 1 1 1 2 1 1 1 2 
3 4 5 6 7 8 9 36 35 34 33 32 32 31 30 29 28 
27 26 25 24 23 22 21 20 19 18 17 16 15 14 13 13 12 
11 10 9 8 7 7 6 5 5 5 5 5 5 5 5 6 6 
7 7 6 5 5 4 3 3 3 3 3 2 1 1 1 1 1 
2 3 3 2 1 1 1 1 0 1 1 2 2 1 0 1 1 
2 3 3 3 3 4 3 3 3 3 3 3 3 2 2 2 2 
2 3 4 3 3 3 3 3 4 4 4 4 5 5 6 7 7 
8 9 8 8 8 7 6 5 5 4 4 4 4 4 3 2 1 
1 1 1 2 2 2 2 2 2 2 2 2 3 4 5 6 7 
8 9 37 36 35 34 33 32 31 30 29 28 27 26 25 24 23 
22 21 20 19 18 18 17 16 15 14 13 12 11 10 10 9 8 
7 7 6 6 6 6 6 6 6 6 7 7 8 8 7 6 5 
5 4 4 4 4 3 2 1 0 0 0 1 2 3 3 2 1 
0 1 1 1 0 1 1 1 1 0 0 1 2 2 2 2 2 
3 2 2 2 2 2 2 2 2 1 1 1 2 3 4 4 4 
4 4 4 5 5 5 5 5 6 7 7 8 9 9 9 9 8 
7 7 6 5 5 5 5 5 4 3 2 2 2 2 1 1 1 
2 3 3 3 3 3 3 4 5 5 6 7 8 9 37 36 35 
34 33 32 31 30 29 28 27 26 25 25 24 23 22 21 20 19 
18 17 16 15 14 13 13 12 11 10 9 9 8 8 7 7 7 
7 7 7 7 7 8 8 8 8 7 7 6 5 5 5 5 4 
3 2 1 1 1 1 1 2 3 3 2 1 1 1 2 1 1 
1 1 0 1 0 1 1 2 1 1 1 2 3 2 1 1 1 
1 1 1 1 1 0 1 2 3 4 5 5 5 5 5 5 6 
6 6 6 7 7 8 9 10 10 10 10 9 8 7 7 6 6 
6 6 5 5 4 3 3 3 2 1 0 1 2 3 4 4 4 
4 4 5 5 6 7 8 8 9 37 36 35 34 33 32 31 31 
30 29 28 27 26 25 24 23 22 21 20 19 18 17 17 16 15 
14 13 12 12 11 10 10 9 8 8 8 8 8 8 8 8 8 
8 9 9 9 8 7 7 6 6 6 5 4 3 2 2 2 2 
2 2 2 3 3 2 2 2 2 2 1 1 1 1 1 0 1 
1 2 2 1 0 1 2 3 2 1 0 1 1 0 0 1 1 
1 1 2 3 4 5 6 6 6 6 6 7 7 7 7 8 8 
9 9 10 11 11 10 9 9 8 8 7 7 7 7 6 5 5 
4 4 3 2 1 1 1 2 3 4 5 5 5 5 5 6 7 
7 8 9 10 37 37 36 35 34 33 32 31 30 29 28 27 26 
25 24 23 22 21 21 20 19 18 17 16 15 15 14 13 12 12 
11 10 10 9 9 9 9 9 9 9 9 9 9 10 10 9 9 
8 8 7 7 6 5 5 4 3 3 3 3 3 3 3 4 3 
2 1 1 1 1 1 0 0 1 0 0 1 2 2 2 1 1 
1 2 3 2 1 1 1 1 1 1 1 2 2 2 2 3 4 
5 6 7 7 7 7 8 8 8 8 8 9 10 10 11 12 12 
11 10 10 9 8 8 8 8 7 7 6 5 5 4 3 2 2 
2 2 2 3 4 5 6 6 6 6 7 7 8 9 10 10 38 
37 36 35 34 33 32 31 30 29 28 27 26 26 25 24 23 22 
21 20 19 18 18 17 16 15 14 14 13 12 12 11 11 10 10 
10 10 10 10 10 10 10 10 11 11 10 10 9 8 8 8 7 
6 5 5 4 4 4 4 4 4 4 4 3 2 1 0 0 1 
1 0 0 1 1 1 1 2 3 2 2 2 2 2 3 2 2 
2 2 2 2 2 2 2 3 3 3 4 5 5 6 7 8 8 
8 8 9 9 9 9 10 10 11 12 12 12 12 11 10 10 9 
9 9 9 8 7 7 6 5 5 4 3 3 3 3 3 4 5 
5 6 7 7 7 8 8 9 9 10 11 38 37 36 35 34 33 
32 31 31 30 29 28 27 26 25 24 23 22 21 21 20 19 18 
17 17 16 15 14 14 13 13 12 12 11 11 11 11 11 11 11 
11 11 11 12 12 11 10 10 9 9 8 7 7 6 5 5 5 
5 5 5 5 5 4 3 2 1 0 0 0 1 1 1 1 2 
2 2 2 3 3 3 3 3 3 4 3 3 3 3 3 3 3 
3 3 4 4 4 5 5 6 7 8 8 9 9 9 10 10 10 
10 11 11 12 12 13 13 12 12 11 11 10 10 10 9 9 8 
8 7 6 5 5 4 4 4 4 4 5 5 6 7 8 8 8 
8 9 10 10 11 12 