P2
5 5
18
6 6 6 7 8 6 -1 6 7 8 6 6 6 7 18 11 11 
11 -1 18 16 16 18 18 18 