P2
37 28
997
38 39 40 41 42 43 44 44 46 47 48 49 50 14 52 53 54 
55 56 57 58 59 59 59 60 61 62 63 64 67 68 69 70 71 
71 71 72 75 76 77 78 79 80 81 82 83 84 85 86 87 88 
89 53 54 55 56 57 58 59 -1 59 60 61 62 63 64 104 105 
106 107 108 108 108 109 112 113 114 115 116 117 118 119 119 121 122 
123 124 125 126 127 128 129 56 57 58 59 59 59 60 61 62 63 
64 141 142 143 144 145 145 145 146 149 150 151 152 153 154 155 156 
157 158 159 160 161 162 163 164 165 166 167 168 95 96 96 96 97 
98 99 100 140 141 142 143 144 145 -1 145 146 186 187 188 189 190 
191 192 193 194 195 196 197 198 199 200 201 202 203 204 205 205 205 
207 207 208 209 210 211 140 141 142 143 144 145 145 145 146 223 224 
225 226 227 228 229 230 231 232 232 234 235 236 237 238 239 240 241 
242 242 242 244 244 245 246 247 248 249 178 179 180 181 182 182 182 
183 260 261 262 263 264 265 266 267 268 269 269 271 272 273 274 275 
276 240 241 242 -1 242 -1 244 245 246 247 248 249 215 216 217 218 
219 219 219 220 297 298 299 300 301 302 303 304 305 306 306 306 309 
310 311 312 313 313 241 242 242 281 -1 281 282 283 284 285 286 252 
253 254 255 256 256 256 257 334 335 336 337 338 339 340 341 342 343 
343 343 345 347 348 349 350 350 350 279 279 281 281 281 282 283 284 
285 286 363 364 365 365 293 293 293 294 371 372 373 374 375 376 377 
378 379 380 380 380 382 347 348 349 350 -1 350 351 354 355 -1 355 
356 357 358 359 399 400 401 402 402 402 403 404 405 408 409 410 411 
412 413 414 415 416 417 417 417 419 419 421 349 350 350 350 427 427 
355 355 355 356 357 358 359 436 437 438 439 439 439 440 441 442 445 
409 447 448 449 450 451 452 453 454 454 454 456 456 458 458 387 387 
426 427 -1 427 392 392 393 394 395 396 473 474 475 476 476 476 477 
478 479 482 483 484 485 486 487 488 489 490 491 491 491 493 493 495 
495 496 424 426 427 427 427 503 503 504 505 506 507 510 511 512 513 
513 513 514 515 516 519 520 521 522 486 487 488 489 490 491 -1 491 
-1 493 -1 495 496 497 463 464 464 503 -1 503 504 505 506 507 510 
511 512 513 -1 513 514 515 516 556 557 558 559 560 487 488 489 490 
491 491 491 493 493 495 495 496 497 500 501 502 503 503 503 504 505 
506 507 510 511 512 513 513 513 514 515 516 593 594 595 596 597 598 
598 526 527 528 528 567 -1 567 532 532 533 534 537 538 539 540 540 
540 541 542 543 544 547 548 549 550 550 550 551 552 553 630 631 632 
633 634 635 635 635 564 565 566 567 567 567 568 569 570 571 572 575 
576 577 577 577 578 579 580 581 584 585 586 587 587 587 588 589 590 
667 668 669 670 671 672 672 672 673 602 603 604 604 604 605 606 607 
608 609 612 613 614 614 614 615 616 617 618 621 622 623 624 624 624 
625 626 627 704 705 706 707 708 709 709 709 710 711 714 715 715 715 
716 717 718 719 720 649 650 651 651 651 652 653 654 655 658 659 660 
661 661 661 662 663 664 704 705 706 707 708 709 -1 709 710 711 714 
715 -1 715 716 754 755 756 757 758 687 688 688 688 689 690 691 692 
695 696 697 698 698 698 699 700 701 704 705 706 707 708 709 709 709 
710 711 714 715 715 715 791 791 792 793 794 795 796 725 725 725 726 
727 728 729 732 733 734 735 735 735 736 737 738 741 742 743 744 745 
746 746 746 747 748 751 752 752 791 -1 791 792 793 794 795 796 797 
762 762 763 764 765 766 769 770 771 772 772 772 773 774 775 778 779 
780 781 782 783 783 783 784 785 788 789 790 791 791 791 792 793 794 
795 796 797 798 799 800 801 802 803 806 807 808 809 809 809 810 811 
812 815 816 817 818 819 820 820 820 821 822 862 863 864 865 -1 865 
866 867 868 869 870 871 872 873 874 838 839 840 843 844 845 846 846 
846 847 848 849 852 853 854 855 856 857 857 857 858 861 862 863 864 
865 865 865 866 867 868 869 870 871 872 873 874 875 876 877 880 881 
882 883 883 883 884 885 886 889 890 891 892 893 894 894 894 895 898 
899 900 901 902 902 902 903 904 905 906 907 908 909 910 911 912 913 
914 917 918 919 920 920 920 921 922 923 926 927 928 929 930 931 931 
931 934 935 936 937 938 939 939 939 940 941 942 943 944 945 946 947 
948 949 950 951 954 955 956 957 957 957 958 959 960 963 964 965 966 
967 968 968 970 971 972 973 974 975 976 976 976 977 978 979 980 981 
982 983 984 985 986 987 988 991 992 993 994 994 994 995 996 997 