P2
37 28
997
38 39 40 41 42 43 43 45 46 47 48 49 49 49 50 51 52 
53 56 56 56 57 58 59 60 62 63 63 65 66 67 67 68 69 
70 71 72 75 76 76 78 79 80 80 82 83 84 85 86 86 86 
87 88 89 90 93 93 93 94 95 96 97 99 100 100 102 103 104 
104 105 106 107 108 109 112 113 113 115 116 117 117 119 120 121 122 
123 123 123 124 125 126 127 130 130 130 131 132 133 134 136 137 137 
139 140 141 141 142 143 144 145 146 149 150 150 152 153 154 155 156 
157 158 159 160 160 160 161 162 163 164 165 167 167 168 169 170 171 
173 174 174 176 177 178 178 179 180 181 182 183 186 187 188 189 190 
191 192 192 194 195 196 197 197 197 198 199 200 202 202 204 204 205 
206 207 208 210 211 211 213 214 215 215 216 217 218 219 220 223 224 
225 225 227 228 229 229 231 232 233 234 234 234 235 236 237 239 239 
241 241 242 243 244 246 247 248 248 250 251 252 252 253 254 255 256 
257 260 261 262 262 264 265 266 266 268 269 270 271 271 271 272 273 
274 276 276 278 278 279 280 281 283 284 285 285 287 288 289 289 290 
291 292 293 294 297 298 299 299 301 302 303 304 305 306 307 308 308 
308 309 310 311 313 313 315 315 316 317 318 320 321 322 322 324 325 
326 326 327 328 329 330 331 334 335 336 337 338 339 340 341 341 343 
344 345 345 345 346 347 349 350 350 352 352 353 354 355 357 358 359 
359 361 362 363 363 364 365 366 367 368 371 372 373 374 374 376 377 
378 378 380 381 382 382 382 383 384 386 387 387 389 389 390 391 393 
394 395 396 396 398 399 400 400 401 402 403 404 405 408 409 410 411 
411 413 414 415 415 417 418 419 419 419 420 421 423 424 424 426 426 
427 428 430 431 432 433 433 435 436 437 437 438 439 440 441 442 445 
446 447 448 448 450 451 452 452 454 455 456 456 456 457 458 460 461 
461 463 463 464 465 467 468 469 470 470 472 473 474 474 475 476 477 
478 479 482 483 484 485 485 487 488 489 489 489 492 493 493 493 494 
496 497 498 498 500 500 501 502 504 505 506 507 507 509 510 511 511 
512 513 514 515 516 519 520 521 522 522 523 525 526 526 526 529 530 
530 530 531 533 534 535 535 537 537 538 541 541 542 543 544 544 546 
547 548 548 549 550 551 552 553 556 557 558 559 559 560 562 563 563 
563 565 567 567 567 568 570 571 572 572 574 574 575 578 578 579 580 
581 581 583 584 585 585 586 587 588 589 590 593 594 595 596 596 597 
598 600 600 600 602 567 -1 567 605 607 608 609 609 611 611 612 615 
615 616 617 618 618 620 621 622 622 623 624 625 626 627 630 631 632 
633 633 634 635 600 -1 600 -1 -1 -1 -1 605 -1 -1 -1 609 -1 
611 649 652 652 653 654 655 655 657 658 659 659 660 661 662 663 664 
630 631 632 633 -1 -1 -1 -1 -1 637 602 603 -1 -1 -1 -1 -1 
-1 646 -1 -1 649 652 -1 -1 -1 -1 655 -1 -1 -1 659 660 661 
662 663 664 667 668 669 670 -1 -1 -1 -1 -1 674 639 678 -1 -1 
-1 644 -1 -1 683 -1 -1 -1 -1 -1 -1 -1 -1 692 -1 -1 -1 
696 697 698 699 700 701 667 668 669 670 670 671 672 673 674 674 750 
678 678 679 680 680 682 683 683 685 686 687 688 689 690 691 692 692 
694 695 696 696 697 698 699 700 701 741 742 743 744 -1 -1 -1 746 
-1 748 -1 750 715 716 717 756 -1 756 759 -1 -1 -1 -1 -1 763 
-1 -1 766 -1 -1 -1 770 771 772 773 774 775 778 779 780 781 -1 
-1 -1 -1 -1 785 -1 787 788 753 755 756 756 756 796 -1 -1 -1 
-1 763 763 765 766 766 768 -1 -1 807 808 809 810 811 812 778 779 
780 781 781 782 783 784 785 785 787 787 788 789 792 793 793 793 796 
796 797 798 799 799 800 802 803 842 843 -1 -1 844 845 846 847 848 
849 815 816 817 818 818 819 820 821 822 822 824 824 825 826 829 830 
830 832 833 833 834 835 836 836 837 839 840 879 880 -1 -1 881 882 
883 884 885 886 852 853 854 855 855 856 857 858 859 859 861 861 862 
863 866 867 867 869 870 870 871 872 873 873 874 876 878 879 880 880 
881 881 882 883 884 885 886 889 890 891 892 892 893 894 895 896 896 
898 898 899 900 903 904 905 906 907 907 908 909 910 910 911 914 915 
916 917 917 918 918 919 920 921 922 923 926 927 928 929 929 930 931 
932 933 933 935 935 936 937 940 940 942 943 944 944 945 946 947 947 
948 951 952 953 954 954 955 955 956 957 958 959 960 963 964 965 966 
966 967 968 969 970 970 972 972 973 974 975 977 979 980 981 981 982 
983 984 984 985 988 989 990 991 991 992 992 993 994 995 996 997 