P2
40 30
1158
41 42 43 44 45 46 47 48 49 49 51 52 53 54 55 16 57 
58 59 60 61 62 63 63 63 64 65 66 67 28 69 70 71 72 
73 74 75 76 77 78 81 82 83 84 85 86 87 88 89 90 91 
92 93 94 95 96 97 58 99 100 101 102 103 103 103 104 105 66 
107 108 109 110 111 112 113 114 115 116 117 118 121 122 123 124 125 
126 127 128 129 130 131 132 133 134 135 136 137 138 139 100 101 102 
103 -1 103 104 145 146 147 148 149 150 151 152 153 154 155 156 157 
158 161 162 163 164 165 166 167 168 169 170 171 172 173 174 175 176 
177 178 179 180 141 142 143 -1 143 184 185 186 187 188 189 190 191 
192 193 194 195 196 197 198 201 202 203 204 205 206 207 208 209 210 
211 212 213 214 215 216 217 218 219 220 221 221 143 143 -1 184 185 
186 187 188 189 190 191 192 193 194 195 196 197 198 241 242 243 244 
245 246 247 248 249 250 251 252 253 254 255 256 257 258 259 260 261 
261 262 224 -1 224 225 226 227 228 229 230 231 232 233 234 235 236 
237 238 281 282 283 284 285 286 287 288 289 290 291 292 293 294 294 
296 297 298 299 300 261 -1 -1 262 224 224 225 226 227 228 229 230 
231 232 233 234 235 236 237 318 321 322 323 324 325 326 327 328 329 
330 331 332 333 334 334 296 297 298 299 300 -1 -1 262 262 264 264 
265 266 267 268 269 270 271 272 273 274 355 356 357 358 361 362 363 
364 365 366 367 368 369 370 371 372 373 374 374 375 337 338 339 340 
-1 301 -1 342 343 344 305 306 307 308 309 310 311 392 393 394 395 
396 397 398 401 402 403 404 405 406 407 408 409 410 411 412 413 414 
414 415 415 418 379 380 -1 -1 342 342 343 344 345 346 347 428 429 
430 431 432 433 434 435 436 437 438 441 402 443 444 445 446 447 448 
449 450 451 452 453 454 454 455 455 458 459 459 380 -1 421 422 383 
384 385 467 467 468 469 470 471 472 473 474 475 476 477 478 481 482 
483 444 445 486 487 488 489 490 491 492 493 494 494 495 495 458 459 
-1 -1 421 421 422 423 506 506 507 507 508 509 510 511 512 513 514 
475 517 517 518 521 522 523 524 485 526 487 488 489 490 491 492 493 
494 -1 -1 495 536 538 459 460 460 461 462 463 546 546 547 547 548 
549 550 551 552 553 554 555 556 557 558 561 562 563 564 565 566 567 
568 569 570 531 532 533 534 -1 495 -1 536 -1 538 500 500 501 584 
585 586 586 587 587 588 589 590 591 552 593 594 595 596 597 598 601 
602 603 604 605 606 607 568 609 610 611 612 573 574 -1 -1 -1 -1 
538 538 620 621 621 624 624 626 626 627 627 628 629 630 631 632 633 
635 635 636 637 638 641 642 643 644 645 646 647 648 649 650 651 652 
653 614 -1 575 -1 577 577 660 660 661 661 664 664 626 -1 -1 627 
628 629 670 671 672 673 674 675 676 677 678 681 682 683 684 685 686 
687 688 689 690 651 652 653 -1 614 -1 616 697 698 660 -1 -1 661 
664 -1 -1 626 627 627 709 709 710 711 712 714 714 715 716 717 718 
721 722 723 724 725 726 727 728 729 730 731 731 653 653 695 -1 695 
-1 -1 -1 660 -1 701 664 664 665 -1 706 749 749 749 750 751 752 
754 754 755 756 757 758 721 722 763 764 765 766 767 768 769 770 771 
771 733 -1 733 695 -1 697 698 699 741 -1 741 742 785 785 706 706 
749 -1 749 750 751 794 794 794 795 796 797 798 801 802 803 764 765 
806 807 808 809 810 771 -1 -1 -1 773 776 -1 776 817 739 781 -1 
781 822 785 -1 -1 786 -1 749 749 750 833 834 834 834 835 836 837 
838 841 842 843 844 845 846 807 808 809 810 -1 -1 -1 773 773 816 
-1 -1 817 858 781 781 -1 822 -1 -1 786 786 788 788 789 790 873 
874 874 874 875 876 877 878 881 882 883 884 885 886 887 888 809 810 
810 811 -1 -1 853 816 816 817 -1 858 901 901 822 864 -1 -1 -1 
866 -1 868 869 910 873 874 -1 874 875 876 877 878 921 922 923 924 
925 926 927 928 929 929 891 -1 -1 -1 893 896 -1 896 -1 898 901 
-1 901 943 864 -1 -1 906 868 949 950 950 873 874 874 874 875 876 
877 878 921 922 923 924 925 926 927 928 929 -1 -1 891 892 -1 -1 
-1 896 -1 -1 -1 -1 -1 -1 -1 943 -1 906 -1 -1 -1 -1 950 
991 993 914 914 915 916 917 918 961 962 963 964 965 966 967 968 969 
-1 -1 970 973 -1 -1 -1 -1 -1 -1 -1 -1 941 942 943 985 -1 
-1 947 948 -1 -1 -1 991 1033 1034 1034 1035 1036 1037 1038 961 962 963 
964 965 966 967 968 969 969 970 970 1013 -1 974 975 -1 -1 -1 -1 
980 1061 1062 1063 1025 -1 986 986 989 989 990 -1 -1 -1 -1 1034 1035 
1036 1037 1038 1001 1002 1003 1004 1005 1006 1007 1008 1009 1009 1010 1010 1013 1013 
-1 -1 -1 -1 -1 -1 -1 -1 -1 -1 1063 1025 1025 1026 1029 1029 1031 
1031 1032 -1 1034 1034 1035 1036 1037 1038 1041 1042 1043 1044 1045 1046 1047 1048 
1049 1049 1050 1052 1053 1054 1054 1055 -1 -1 -1 1059 1060 1061 1062 1063 1063 
1065 1065 1066 1069 1070 1071 1071 1073 1073 1073 1074 1075 1076 1077 1078 1081 1082 
1083 1084 1085 1086 1087 1088 1089 1089 1090 1132 1133 1134 -1 1134 1096 1097 1098 
1098 1100 1101 1102 1103 1103 1104 1105 1106 1108 1110 1111 1112 1113 1113 1113 1114 
1115 1116 1117 1118 1121 1122 1123 1124 1125 1126 1127 1128 1129 1129 1131 1132 1133 
1134 1134 1134 1136 1137 1138 1138 1139 1141 1142 1143 1143 1144 1146 1146 1147 1150 
1150 1152 1153 1153 1153 1154 1155 1156 1157 1158 