P2
37 28
997
38 39 40 41 42 43 44 45 46 47 48 49 49 50 51 51 53 
53 54 55 56 59 60 60 60 61 62 63 64 65 66 67 68 69 
70 71 72 75 39 77 78 79 80 81 82 83 84 85 86 86 87 
88 88 90 90 91 92 93 96 97 97 97 98 99 100 101 102 103 
104 105 107 107 108 109 112 113 114 78 116 117 118 119 120 121 122 
123 123 124 125 125 127 127 128 129 130 133 134 134 134 135 136 137 
138 139 140 141 142 143 144 145 146 149 150 151 152 153 117 118 119 
120 121 122 123 -1 -1 -1 125 -1 127 128 129 167 170 171 171 171 
172 173 174 175 176 177 178 179 180 181 182 183 186 187 188 189 190 
191 192 193 157 158 159 160 -1 -1 -1 -1 127 127 203 204 204 206 
208 208 208 209 210 211 212 213 214 216 216 217 218 219 220 223 224 
225 226 227 228 229 230 231 195 196 197 -1 161 -1 163 163 240 240 
241 241 243 208 -1 208 209 210 248 249 250 251 252 253 254 255 256 
257 260 261 262 263 264 265 266 267 268 269 233 234 -1 -1 199 199 
275 240 -1 -1 241 -1 -1 208 208 284 285 285 286 287 288 289 290 
291 292 293 294 297 261 299 300 301 302 303 304 305 306 306 307 234 
-1 -1 273 -1 -1 -1 -1 278 243 -1 -1 282 321 322 322 323 325 
325 326 327 328 329 330 331 334 335 336 300 338 339 340 341 342 306 
-1 -1 307 272 -1 310 275 276 -1 -1 315 281 281 282 321 -1 -1 
322 323 362 362 363 364 365 366 367 368 371 372 373 374 375 339 340 
341 342 -1 -1 -1 344 347 -1 347 385 351 -1 315 315 355 -1 355 
-1 321 322 322 399 399 399 400 401 402 403 404 405 408 409 410 411 
412 413 377 378 379 -1 -1 -1 381 384 -1 -1 385 351 351 -1 389 
-1 -1 -1 -1 394 432 398 399 -1 399 400 401 402 403 404 405 445 
446 447 448 449 450 451 415 416 -1 -1 381 456 421 -1 385 460 425 
-1 389 389 391 -1 393 -1 -1 432 470 399 399 399 400 401 402 477 
478 479 482 483 484 485 486 487 488 488 489 416 -1 -1 -1 -1 -1 
-1 -1 460 -1 462 465 -1 -1 -1 -1 -1 -1 470 509 509 511 511 
512 513 514 515 516 482 483 484 485 486 487 488 -1 -1 -1 454 455 
-1 -1 -1 -1 -1 -1 -1 -1 -1 465 -1 -1 468 469 -1 -1 -1 
509 548 548 549 550 551 552 553 482 483 484 485 486 487 488 488 489 
490 529 -1 493 -1 -1 -1 -1 498 499 500 501 540 -1 -1 541 507 
507 -1 -1 -1 -1 548 549 550 551 552 553 519 520 521 522 523 524 
525 525 526 527 529 529 -1 -1 -1 -1 -1 -1 -1 -1 -1 575 540 
541 541 544 545 545 546 -1 548 548 549 550 551 552 553 556 557 558 
559 560 561 562 562 563 565 566 567 567 568 -1 -1 571 572 573 574 
575 575 577 578 578 579 582 582 584 584 584 585 586 587 588 589 590 
593 594 595 596 597 598 599 599 600 639 640 641 -1 641 606 607 607 
609 610 611 612 612 613 615 615 616 619 620 621 621 621 622 623 624 
625 626 627 630 631 632 633 634 635 636 636 638 639 640 641 641 641 
643 644 644 645 647 648 649 649 650 652 652 653 655 657 658 658 658 
659 660 661 662 663 664 667 668 669 670 671 672 673 674 675 676 677 
678 678 678 679 681 681 682 684 685 686 686 687 688 689 690 693 694 
695 695 695 696 697 698 699 700 701 704 705 706 707 708 709 710 711 
712 713 714 715 715 715 716 718 718 719 720 722 723 723 724 725 727 
727 730 731 732 732 732 733 734 735 736 737 738 741 742 743 744 745 
746 747 748 749 750 751 752 752 752 753 754 755 756 757 759 760 760 
761 762 764 766 767 768 769 769 769 770 771 772 773 774 775 778 779 
780 781 782 783 784 785 786 787 788 789 789 789 790 791 793 793 794 
796 797 797 798 799 800 803 804 805 806 806 806 807 808 809 810 811 
812 815 816 817 817 819 820 821 822 823 824 825 826 826 826 827 828 
830 830 831 833 834 834 835 836 837 840 841 842 843 843 843 844 845 
846 847 848 849 852 853 854 855 856 857 858 859 860 861 862 863 863 
863 864 865 866 867 868 869 871 871 872 873 874 877 878 879 880 880 
880 881 882 883 884 885 886 889 890 891 892 893 894 895 896 897 898 
899 900 900 900 901 902 903 905 905 906 908 908 909 910 911 914 915 
916 917 917 917 918 919 920 921 922 923 926 927 928 929 930 931 932 
933 934 935 936 937 937 937 938 939 940 942 942 943 945 945 946 947 
948 951 952 953 954 954 954 955 956 957 958 959 960 963 964 965 966 
967 968 969 970 971 972 973 974 974 974 975 976 977 978 979 980 982 
982 983 984 985 988 989 990 991 991 991 992 993 994 995 996 997 