P2
37 28
997
38 38 38 40 42 43 44 44 44 46 47 47 48 49 50 53 53 
53 54 55 56 59 60 61 61 61 63 63 66 66 66 67 68 69 
70 71 72 75 75 75 77 78 80 81 81 81 83 84 84 85 86 
87 88 90 90 91 92 93 96 97 98 98 98 100 100 103 103 103 
104 105 106 107 108 109 112 112 112 114 115 117 118 118 118 120 121 
121 122 123 125 125 127 127 128 129 130 133 134 135 135 135 137 137 
140 140 140 141 142 143 144 145 146 149 149 149 151 152 154 155 155 
155 157 158 158 159 160 162 162 164 164 165 166 167 170 171 172 172 
172 174 174 177 177 177 178 179 180 181 182 183 186 186 186 188 189 
189 155 -1 155 -1 -1 158 196 198 199 199 201 201 202 203 205 205 
208 209 209 209 211 211 214 214 214 215 216 217 218 219 220 186 -1 
186 -1 -1 189 -1 -1 -1 157 158 -1 196 235 236 236 238 238 239 
240 242 242 245 246 246 246 248 248 251 251 251 252 253 254 255 256 
257 186 186 -1 188 189 264 191 -1 -1 -1 231 196 235 -1 -1 236 
-1 238 239 277 279 279 282 283 283 283 285 285 288 288 288 289 290 
291 292 293 294 260 -1 224 -1 262 -1 264 -1 230 231 -1 269 -1 
235 236 275 -1 275 314 314 316 316 282 283 -1 283 -1 285 288 -1 
288 289 290 291 292 293 294 260 260 335 262 262 264 264 266 266 269 
269 308 -1 -1 -1 310 275 314 -1 314 -1 316 317 283 283 -1 285 
285 288 288 288 289 290 291 292 293 294 334 335 -1 335 373 301 301 
303 378 306 306 308 308 -1 -1 347 -1 349 314 314 316 316 317 357 
358 -1 358 359 362 -1 362 363 364 365 366 367 368 334 335 335 -1 
373 374 414 414 415 415 416 419 383 -1 347 347 349 349 425 425 427 
427 428 357 358 358 358 359 362 362 362 363 364 365 366 367 368 371 
372 373 373 448 448 414 -1 -1 415 416 419 -1 -1 420 423 -1 423 
-1 425 -1 427 428 431 432 -1 432 433 473 473 473 474 475 476 477 
478 479 482 483 484 448 -1 448 414 414 415 415 416 419 419 -1 457 
423 423 423 425 425 427 427 428 431 432 432 432 472 473 -1 473 474 
475 476 477 478 479 482 483 484 -1 448 448 525 525 525 452 529 529 
457 457 457 460 460 460 537 537 537 464 465 542 543 543 543 472 473 
473 473 474 475 476 477 478 479 482 483 484 484 484 524 525 -1 525 
563 566 566 566 568 568 569 572 536 537 -1 537 538 578 542 543 -1 
543 544 584 584 584 585 586 587 588 552 553 519 520 521 521 521 598 
598 525 -1 563 566 -1 566 -1 568 569 609 610 610 537 537 538 615 
615 580 -1 580 581 584 -1 584 585 586 587 625 626 627 630 631 631 
558 597 598 -1 598 563 638 566 566 566 568 568 569 609 610 -1 -1 
611 612 615 -1 615 580 580 620 621 -1 621 622 660 661 662 663 664 
667 668 668 668 597 598 598 598 638 -1 638 -1 640 -1 642 643 609 
610 610 -1 648 688 652 -1 652 -1 654 655 658 -1 658 696 697 698 
699 700 701 704 705 705 705 706 635 710 710 638 638 638 640 679 -1 
679 717 718 720 648 648 648 688 -1 652 652 654 654 694 695 -1 -1 
696 697 698 699 700 701 704 705 -1 705 706 709 710 -1 710 675 675 
677 679 679 -1 717 757 757 722 -1 722 688 688 688 765 765 766 766 
695 695 696 696 697 698 699 700 701 741 742 -1 742 743 783 783 710 
785 785 786 715 716 717 717 792 757 -1 757 722 797 797 725 764 765 
-1 -1 766 767 770 -1 770 771 772 773 774 775 741 742 742 742 782 
783 -1 -1 -1 785 786 826 827 791 -1 -1 792 757 757 797 -1 797 
798 764 765 765 -1 803 804 807 -1 807 808 809 810 811 812 778 779 
779 779 782 783 783 784 -1 822 823 826 827 -1 -1 -1 829 794 794 
797 797 797 798 801 802 803 803 803 843 844 -1 844 845 846 847 848 
849 815 816 816 816 819 820 820 822 822 822 823 826 827 827 828 829 
829 830 833 834 834 834 835 838 839 840 840 840 843 844 844 844 845 
846 847 848 849 852 853 853 853 856 857 858 859 859 859 860 863 864 
864 865 866 866 867 870 871 871 871 872 873 876 877 877 877 880 881 
881 881 882 883 884 885 886 889 890 890 892 893 893 895 896 896 896 
897 900 901 901 902 903 903 904 905 908 908 908 909 910 913 914 914 
914 917 918 918 918 919 920 921 922 923 926 927 927 929 930 931 932 
933 933 933 934 937 938 938 939 940 940 941 942 945 945 945 946 947 
950 951 951 953 954 955 955 955 956 957 958 959 960 963 964 964 966 
966 968 969 970 970 970 971 974 975 975 976 977 977 978 979 982 982 
982 983 984 987 988 988 990 991 992 992 992 993 994 995 996 997 