P2
37 28
997
38 39 40 41 42 43 44 45 46 47 48 49 49 51 52 16 54 
55 56 57 58 58 58 59 60 61 62 65 66 67 68 68 68 69 
70 71 72 75 76 77 78 79 80 81 82 83 84 85 86 87 88 
89 90 91 55 56 57 58 -1 58 59 60 61 62 102 103 104 105 
105 105 106 107 108 109 112 113 114 115 116 117 118 119 120 121 122 
123 124 125 126 127 128 129 56 57 58 58 58 59 60 61 62 139 
140 141 142 142 142 143 144 145 146 149 150 151 152 153 154 155 156 
157 158 159 160 161 162 163 164 165 166 167 167 168 95 95 96 97 
98 138 139 140 141 142 -1 142 143 144 145 146 186 187 188 189 190 
191 192 193 194 195 196 197 198 199 200 200 202 203 204 204 205 205 
206 207 208 135 138 139 140 141 142 142 142 143 144 145 146 223 224 
225 226 227 228 229 230 231 232 233 234 235 236 237 237 202 203 204 
-1 -1 205 206 207 208 209 175 176 177 178 179 179 179 180 181 182 
183 260 261 262 263 264 265 266 267 268 269 270 271 272 273 274 274 
274 203 204 204 -1 242 243 244 245 246 212 213 214 215 216 216 216 
217 218 219 220 297 298 299 300 301 302 303 304 305 306 307 308 309 
310 311 311 311 312 314 242 242 242 243 244 245 246 323 324 251 252 
253 253 253 254 255 256 257 334 335 336 337 338 339 340 341 342 343 
307 308 309 310 311 -1 311 351 351 316 -1 316 317 318 319 320 360 
361 362 362 362 363 364 291 292 293 294 371 372 373 374 375 376 377 
378 379 380 380 381 309 310 311 311 311 351 -1 351 316 316 317 318 
319 396 397 398 399 399 399 400 401 402 403 404 405 408 409 410 411 
412 413 414 415 416 417 417 418 419 347 348 348 348 351 351 351 353 
353 354 355 356 433 434 435 436 436 436 437 438 439 440 441 442 445 
446 447 448 449 450 451 452 453 454 454 455 456 456 457 385 387 388 
388 464 464 464 465 466 467 470 471 472 473 473 473 474 475 476 477 
478 479 482 483 484 485 486 487 488 489 490 491 491 492 493 493 494 
495 424 462 463 464 -1 464 465 466 467 470 471 472 473 -1 473 474 
475 476 477 478 479 519 520 521 522 523 524 525 489 490 491 -1 -1 
-1 493 494 495 496 462 463 464 464 464 465 466 467 470 471 472 473 
473 473 474 475 476 477 478 479 556 557 558 559 560 561 562 562 490 
491 491 492 493 493 494 495 496 499 500 501 501 501 502 503 504 507 
508 509 510 510 510 511 512 513 514 515 516 593 594 595 596 597 598 
599 599 599 528 603 603 603 530 531 532 533 536 537 538 538 538 539 
540 541 544 545 546 547 547 547 548 549 550 551 552 553 593 594 595 
596 597 598 599 -1 599 600 603 -1 603 604 605 606 570 573 574 575 
575 575 576 577 578 581 582 583 584 584 584 585 586 587 588 589 590 
593 594 595 596 597 598 599 599 599 639 640 -1 640 641 642 680 681 
682 611 612 612 612 613 614 615 618 619 620 621 621 621 622 623 624 
625 626 627 630 631 632 633 634 635 636 636 636 639 640 640 640 716 
716 717 718 719 720 649 649 649 650 651 652 655 656 657 658 658 658 
659 660 661 662 663 664 667 668 669 670 671 672 673 673 673 676 677 
677 753 753 753 754 755 756 757 758 686 686 687 688 689 692 693 694 
695 695 695 696 697 698 699 700 701 704 705 706 707 708 709 710 710 
710 713 751 752 753 -1 753 754 755 756 757 758 759 760 724 725 726 
729 730 731 732 732 732 733 734 735 736 737 738 741 742 743 744 745 
746 747 747 749 750 751 752 753 753 753 754 755 756 757 758 759 760 
761 762 763 766 767 768 769 769 769 770 771 772 773 774 775 778 779 
780 781 782 783 784 784 786 787 788 789 790 790 790 791 792 793 794 
795 796 797 798 799 800 803 804 805 806 806 806 807 808 809 810 811 
812 815 816 817 818 819 820 821 822 823 824 825 826 827 827 827 828 
829 830 831 832 833 834 835 836 837 840 841 842 843 843 843 844 845 
846 847 848 849 852 853 854 855 856 857 858 859 860 861 862 863 864 
864 864 865 866 867 868 869 870 871 872 873 874 877 878 879 880 880 
880 881 882 883 884 885 886 889 890 891 892 893 893 895 896 897 898 
899 900 901 901 901 902 903 904 905 906 907 908 909 910 911 912 915 
916 917 917 917 918 919 920 921 922 923 926 927 928 929 930 931 932 
933 934 935 936 937 938 938 938 939 940 941 942 943 944 945 946 947 
948 949 950 953 954 954 954 955 956 957 958 959 960 963 964 965 966 
967 968 969 970 971 972 973 974 975 975 975 976 977 978 979 980 981 
982 983 984 985 986 987 990 991 991 991 992 993 994 995 996 997 