P2
37 28
997
38 39 40 40 42 43 44 45 46 46 47 47 48 51 51 52 53 
54 54 55 56 57 58 60 61 62 63 64 64 65 66 67 68 69 
70 71 72 75 76 77 77 79 80 81 82 83 83 84 84 85 88 
88 89 90 91 91 92 93 94 95 97 98 99 100 101 101 102 103 
104 105 106 107 108 109 112 113 114 115 116 117 118 119 120 120 121 
121 122 125 125 126 127 128 128 129 130 131 132 134 135 136 137 138 
138 139 140 141 142 143 144 145 146 149 150 151 152 152 154 155 156 
157 157 158 158 159 162 162 163 164 165 165 166 167 168 171 171 172 
173 174 175 175 176 177 178 179 180 181 182 183 186 187 188 189 189 
191 192 193 194 194 195 195 196 199 199 200 201 202 202 203 204 205 
208 208 209 210 211 212 212 213 214 215 216 217 218 219 220 223 224 
225 226 226 228 229 230 231 231 232 232 233 236 236 237 238 239 239 
240 241 242 245 245 246 247 248 249 249 250 251 252 253 254 255 256 
257 260 261 262 263 264 265 266 267 268 268 269 269 270 273 273 274 
275 276 276 277 278 279 280 282 283 284 285 286 286 287 288 289 290 
291 292 293 294 297 298 299 300 301 301 303 304 305 305 306 306 307 
310 310 311 312 313 313 314 315 317 317 319 320 321 322 323 323 324 
325 326 327 328 329 330 331 334 335 336 337 338 338 340 341 342 342 
343 343 344 347 347 348 349 350 350 351 352 354 354 356 357 358 359 
360 360 361 362 363 364 365 366 367 368 371 372 373 374 375 375 377 
378 379 379 380 380 381 384 384 385 386 387 387 388 389 391 391 393 
394 395 396 397 397 398 399 400 401 402 403 404 405 408 409 410 411 
412 412 414 415 416 416 417 417 418 421 421 422 423 424 424 425 426 
428 428 430 431 432 433 434 434 435 436 437 438 439 440 441 442 445 
446 447 448 449 449 450 452 453 453 454 454 455 458 458 459 460 461 
461 462 465 465 465 467 468 469 470 471 471 472 473 474 475 476 477 
478 479 482 483 484 485 486 486 487 489 490 490 491 491 492 495 495 
496 497 498 498 499 502 502 502 504 505 506 507 508 508 509 510 511 
512 513 514 515 516 519 520 521 522 523 523 524 525 527 527 528 528 
530 532 532 533 534 535 535 536 539 539 539 541 542 543 544 545 545 
546 547 548 549 550 551 552 553 556 557 558 559 560 560 561 562 527 
-1 -1 528 567 532 -1 -1 -1 -1 535 536 576 576 576 578 579 580 
581 582 582 583 584 585 586 587 588 589 590 593 594 595 596 560 -1 
-1 -1 562 -1 -1 -1 -1 -1 -1 -1 -1 -1 572 611 576 -1 576 
-1 -1 -1 -1 -1 582 583 584 585 586 587 588 589 590 630 631 632 
596 -1 -1 -1 -1 -1 564 -1 -1 -1 -1 -1 -1 -1 -1 609 -1 
-1 -1 -1 -1 -1 -1 -1 -1 619 620 621 622 623 624 625 626 627 
630 631 632 -1 -1 -1 598 599 -1 -1 602 603 604 605 606 -1 -1 
-1 -1 -1 -1 -1 614 -1 -1 -1 -1 -1 656 657 658 659 660 661 
662 663 664 630 631 632 632 -1 -1 -1 -1 -1 -1 675 640 641 642 
644 644 -1 -1 -1 -1 -1 -1 687 -1 -1 -1 -1 -1 693 694 695 
696 697 698 699 700 701 704 705 706 -1 -1 671 672 673 674 675 675 
676 678 680 681 682 682 683 684 685 686 687 687 689 690 691 -1 693 
693 694 695 696 697 698 699 700 701 704 705 706 706 707 707 709 710 
711 712 712 713 714 717 718 719 719 720 721 722 723 724 724 726 765 
-1 -1 766 804 805 806 807 808 809 810 811 812 741 742 743 743 744 
744 745 747 748 749 749 750 751 754 755 756 756 757 758 759 760 761 
761 764 765 765 766 -1 804 805 806 807 808 809 810 811 812 778 779 
780 780 781 781 782 784 785 786 786 787 788 791 792 793 793 794 795 
796 797 798 800 801 802 802 804 804 804 805 806 807 808 809 810 811 
812 815 816 817 817 818 818 819 820 822 823 823 824 825 828 829 830 
830 831 832 833 834 836 837 838 839 840 841 841 841 842 843 844 845 
846 847 848 849 852 853 854 854 855 855 856 857 859 860 860 861 862 
865 866 867 867 868 869 870 871 873 874 875 875 877 878 878 878 879 
880 881 882 883 884 885 886 889 890 891 891 892 892 893 894 896 897 
897 898 899 902 903 904 904 905 906 907 908 910 911 912 913 914 915 
915 915 916 917 918 919 920 921 922 923 926 927 928 928 929 929 930 
931 933 934 934 935 936 939 940 941 941 942 943 944 946 947 948 948 
950 951 952 952 952 953 954 955 956 957 958 959 960 963 964 965 965 
966 966 967 968 969 971 971 972 973 976 977 978 978 979 980 981 983 
984 985 986 987 988 989 989 989 990 991 992 993 994 995 996 997 