P2
37 28
997
38 39 40 41 41 41 42 43 45 45 46 47 50 51 52 52 52 
53 54 57 58 58 60 61 62 62 62 63 64 65 66 67 68 69 
70 71 72 75 76 77 78 78 78 79 82 82 82 83 84 87 88 
89 89 89 90 91 94 95 95 97 98 99 99 99 100 101 102 103 
104 105 106 107 108 109 112 113 114 115 115 115 116 119 119 119 120 
121 124 125 126 126 126 127 128 131 132 132 133 135 136 136 136 137 
138 139 140 141 142 143 144 145 146 149 150 151 152 152 152 153 156 
156 156 157 158 161 162 163 163 163 164 165 168 169 169 170 172 173 
173 173 174 175 176 177 178 179 180 181 182 183 149 150 151 152 -1 
152 153 193 193 193 194 195 197 199 200 200 200 201 203 205 206 206 
207 208 210 210 210 211 212 213 214 215 216 217 218 219 220 149 150 
151 152 152 152 192 193 -1 193 194 234 234 199 200 -1 200 201 240 
242 243 243 244 245 210 -1 210 211 212 213 214 215 216 217 218 219 
220 186 187 188 189 264 264 264 193 193 193 194 271 271 271 200 200 
200 277 277 277 243 -1 -1 -1 245 210 210 211 212 213 214 215 216 
217 218 219 220 223 261 262 263 264 -1 264 265 230 230 270 271 -1 
271 272 237 276 277 -1 277 280 -1 244 245 245 247 247 248 249 250 
251 252 253 254 255 256 257 260 261 262 263 264 264 264 265 267 267 
270 271 271 271 272 348 313 314 -1 -1 315 -1 317 -1 319 320 321 
285 286 287 288 289 290 291 292 293 294 297 298 299 300 301 301 301 
302 303 306 307 308 308 308 385 385 385 351 -1 315 315 317 317 319 
319 320 321 322 323 324 325 326 327 328 329 330 331 334 335 336 337 
338 338 338 339 340 417 418 419 419 384 385 -1 385 351 351 351 352 
354 354 356 356 357 358 359 360 398 362 363 364 365 366 367 368 371 
372 373 374 375 375 375 451 453 454 455 456 456 456 385 385 385 425 
-1 425 465 465 465 466 393 394 395 396 397 398 399 400 401 402 403 
404 405 408 409 410 485 486 487 488 488 490 491 492 456 -1 456 457 
422 422 425 425 425 465 -1 465 466 467 468 432 433 434 435 436 437 
475 439 440 441 442 519 520 521 522 523 524 525 525 525 491 492 -1 
456 456 457 534 535 535 535 462 465 465 465 466 467 468 469 544 545 
546 547 548 549 550 551 552 553 556 557 558 559 560 561 562 562 562 
491 492 492 492 493 494 534 535 -1 535 573 576 576 576 577 578 579 
580 581 582 583 584 585 586 587 588 589 590 593 594 595 596 597 561 
562 -1 562 563 529 529 529 530 533 534 535 535 -1 573 576 -1 576 
577 578 616 617 618 619 620 621 622 623 624 625 626 627 630 631 632 
633 634 634 562 562 562 563 639 566 566 567 570 571 572 573 573 -1 
611 576 576 577 653 653 654 655 656 657 658 659 660 661 662 663 664 
630 631 632 633 634 -1 634 599 599 676 676 676 677 678 681 681 609 
610 611 611 611 613 613 690 690 690 691 692 693 694 695 696 697 698 
699 700 701 630 631 632 633 634 634 634 635 712 713 713 713 714 717 
718 718 718 647 648 648 648 724 689 690 -1 690 691 692 693 694 695 
696 697 698 699 700 701 667 668 669 670 671 671 671 672 712 713 -1 
713 714 754 755 755 755 756 685 760 761 761 761 690 690 690 691 692 
693 694 695 696 697 698 699 700 701 704 705 706 707 708 708 708 711 
712 713 713 713 714 754 755 -1 755 756 757 760 761 -1 761 762 727 
727 728 729 730 731 732 733 734 735 736 737 738 741 742 743 744 745 
745 745 748 749 750 750 750 751 754 755 755 755 756 757 760 761 761 
761 762 764 764 765 766 767 768 769 770 771 772 773 774 775 778 779 
780 781 782 782 784 785 786 787 787 787 788 791 792 792 792 793 794 
797 798 798 798 799 800 801 802 803 804 805 806 807 808 809 810 811 
812 815 816 817 818 819 819 821 822 823 824 824 824 827 828 829 829 
829 830 831 834 835 835 835 836 837 838 839 840 841 842 843 844 845 
846 847 848 849 852 853 854 855 856 856 858 859 860 861 861 861 864 
865 866 866 866 867 868 871 872 872 872 873 874 875 877 877 878 879 
880 881 882 883 884 885 886 889 890 891 892 893 894 895 896 897 898 
898 898 901 902 903 903 903 904 905 908 909 909 909 910 911 912 913 
914 915 916 917 918 919 920 921 922 923 926 927 928 929 929 931 932 
933 934 935 935 935 938 939 940 940 940 941 942 945 946 946 946 947 
948 949 950 951 952 953 954 955 956 957 958 959 960 963 964 965 966 
967 968 969 970 971 972 972 974 975 976 977 977 977 978 979 982 983 
983 983 984 985 986 987 988 990 990 991 992 993 994 995 996 997 