P2
37 28
997
38 39 40 41 42 43 44 45 46 47 48 49 50 51 51 52 53 
53 54 55 56 57 58 61 62 63 64 64 64 65 66 67 68 69 
70 71 72 75 76 77 78 79 43 81 82 83 84 85 86 87 88 
88 89 90 90 91 92 93 94 95 98 99 100 101 101 101 102 103 
104 105 106 107 108 109 112 113 114 115 116 117 118 119 120 121 122 
123 124 125 125 126 127 127 128 129 130 131 132 135 136 137 138 138 
138 139 140 141 142 143 144 145 146 149 150 151 152 153 154 155 156 
120 121 122 123 124 125 -1 -1 -1 127 128 166 167 168 169 172 173 
174 175 175 175 176 177 178 179 180 181 182 183 186 187 188 189 190 
191 192 193 194 121 122 123 124 125 125 126 127 202 203 203 204 205 
206 209 209 211 212 212 212 213 214 215 216 217 218 219 220 223 224 
225 226 227 228 229 230 231 232 196 197 198 199 -1 -1 -1 -1 -1 
203 204 242 243 246 246 211 212 -1 212 213 214 215 216 217 218 256 
257 260 261 262 263 264 265 266 267 268 269 269 197 198 199 199 200 
201 202 203 203 279 279 280 283 283 284 212 212 212 213 214 215 290 
291 292 293 294 297 298 299 300 301 302 303 304 305 306 306 306 308 
310 274 -1 274 314 314 279 -1 279 280 283 -1 -1 284 249 324 324 
325 326 327 329 329 330 331 334 335 336 337 338 339 340 341 342 343 
343 343 345 310 -1 -1 311 314 -1 -1 -1 316 317 283 283 -1 321 
360 361 361 362 363 364 366 366 367 368 334 335 336 337 338 339 340 
341 342 343 -1 343 -1 345 310 311 -1 349 314 -1 -1 353 354 357 
358 -1 358 -1 -1 361 362 363 403 403 403 404 405 334 335 336 337 
338 339 340 341 342 343 343 343 345 345 347 349 349 424 352 352 353 
353 430 430 431 358 358 360 361 361 362 439 440 440 440 441 442 445 
446 410 411 412 413 414 415 416 417 -1 417 -1 419 420 423 -1 -1 
424 389 390 429 430 -1 -1 -1 432 -1 434 472 473 476 477 477 477 
478 479 482 483 484 485 486 487 414 415 416 417 417 456 -1 456 495 
496 423 -1 461 500 500 429 430 430 431 -1 469 434 -1 472 473 476 
477 -1 477 478 479 519 520 521 522 523 524 525 526 490 491 -1 491 
-1 493 -1 -1 -1 -1 -1 -1 500 501 467 467 506 -1 506 -1 -1 
509 510 476 477 477 477 478 479 556 557 558 559 560 561 562 563 564 
564 491 491 493 493 495 496 497 498 499 500 500 501 578 578 506 506 
506 508 509 509 585 585 587 587 514 515 516 556 557 558 559 560 561 
562 563 564 -1 -1 565 604 569 -1 -1 570 -1 -1 -1 574 575 578 
-1 578 -1 580 -1 -1 583 -1 585 -1 587 625 626 627 593 594 595 
596 597 598 599 600 601 -1 565 604 -1 604 569 -1 -1 -1 -1 574 
649 649 578 578 617 -1 617 582 583 622 -1 622 -1 -1 625 626 627 
593 594 595 596 597 598 599 600 601 601 601 604 604 643 -1 -1 -1 
-1 -1 647 -1 649 652 -1 652 617 617 619 620 622 622 622 624 -1 
662 663 664 630 631 632 633 634 635 636 637 638 638 638 641 641 643 
643 644 -1 -1 -1 684 649 649 652 652 652 654 654 655 658 659 659 
659 662 662 662 663 664 667 668 669 670 671 672 673 674 675 675 675 
715 716 717 -1 717 682 683 684 684 686 686 689 689 689 690 691 692 
695 696 696 698 699 699 699 700 701 704 705 706 707 708 709 710 711 
712 712 712 715 716 717 717 717 719 720 721 721 722 723 726 726 726 
727 729 729 732 733 733 735 736 736 736 737 738 741 742 743 744 745 
746 747 748 749 749 751 752 753 754 754 754 755 757 758 758 759 761 
763 763 763 764 765 766 769 770 771 772 773 773 773 774 775 778 779 
780 781 782 783 784 785 786 787 788 789 790 791 791 791 792 794 795 
795 796 797 800 800 800 801 802 804 806 806 808 809 810 810 810 811 
812 815 816 817 818 819 820 821 822 822 824 825 826 827 828 828 828 
829 830 832 832 833 834 837 837 837 838 839 840 843 843 845 846 847 
847 847 848 849 852 853 854 855 856 857 858 859 860 861 862 863 864 
865 865 865 866 867 869 869 870 871 874 874 874 875 876 877 880 881 
882 883 884 884 884 885 886 889 890 891 892 893 894 895 896 897 898 
899 900 901 902 902 902 903 904 906 906 907 908 909 911 911 912 913 
914 916 918 919 920 921 921 921 922 923 926 927 928 929 930 931 931 
933 934 935 936 937 938 939 939 939 940 941 943 943 944 945 946 948 
948 949 950 951 953 955 956 957 958 958 958 959 960 963 964 965 966 
967 968 969 970 971 972 973 974 975 976 976 976 977 978 979 980 981 
982 983 985 985 986 987 988 989 992 993 994 995 995 995 996 997 