P2
37 28
115
82 82 82 82 82 82 82 82 82 82 82 82 82 96 97 97 41 
41 41 41 41 110 110 110 110 110 110 110 110 110 110 110 88 88 
84 84 84 21 82 82 82 82 82 82 82 82 82 82 82 82 96 
97 97 41 41 41 41 41 110 110 110 110 110 110 110 110 110 110 
88 88 84 84 84 84 21 21 21 82 82 82 82 82 82 82 82 
82 82 96 97 97 41 41 41 41 41 110 110 110 110 110 110 110 
110 110 88 88 88 84 84 84 84 21 21 21 21 10 82 82 82 
82 82 82 82 82 96 97 97 41 41 41 41 47 110 110 110 110 
110 110 110 110 88 88 88 84 84 84 84 84 21 21 21 21 21 
10 10 10 42 42 42 42 42 83 95 40 41 41 70 47 47 46 
110 110 110 110 110 110 88 88 88 84 84 84 84 84 84 21 21 
21 21 21 21 10 10 10 76 76 76 76 83 44 40 40 70 70 
47 47 46 110 110 110 110 110 88 88 88 88 84 84 84 84 84 
84 21 21 21 21 21 21 21 10 10 10 33 33 33 31 44 44 
98 70 70 47 47 46 75 110 110 87 88 88 88 88 84 84 84 
84 84 84 84 23 21 21 21 21 21 21 21 10 10 10 17 33 
32 55 55 98 71 50 35 35 46 74 106 106 87 88 88 88 84 
84 84 84 84 84 84 84 23 23 23 21 21 21 21 21 21 10 
10 17 17 32 54 54 98 71 72 36 36 74 74 106 87 87 88 
88 88 84 84 84 84 84 84 84 84 23 23 23 23 23 21 21 
21 21 21 20 18 18 89 89 89 109 37 37 36 36 45 45 45 
69 87 88 88 84 84 84 84 84 84 84 84 84 23 23 23 23 
23 23 22 22 22 22 12 11 11 90 90 109 109 37 37 108 108 
51 103 102 105 105 104 84 84 84 84 84 84 84 84 84 84 23 
23 23 23 23 23 23 16 16 16 14 11 30 93 93 109 100 99 
99 108 108 51 64 102 53 104 104 58 84 84 84 84 84 84 107 
107 107 23 23 23 23 23 23 23 23 9 16 15 19 30 29 63 
94 100 100 112 112 79 79 67 66 52 59 58 58 92 92 107 107 
107 107 107 107 107 23 23 23 23 23 23 23 23 9 13 15 19 
24 101 77 27 26 57 25 78 56 79 80 81 52 59 111 39 92 
92 107 107 107 107 107 107 107 23 23 23 23 23 23 23 23 9 
13 62 62 24 115 60 34 28 57 25 78 56 86 86 85 85 111 
111 73 48 49 107 107 107 107 107 107 107 23 23 23 23 23 23 
23 23 9 13 62 62 7 6 8 1 5 113 114 38 91 91 86 
85 85 111 73 73 48 65 107 107 107 107 107 107 107 23 23 23 
23 23 23 23 23 9 62 62 7 7 6 2 4 5 113 114 38 
91 91 86 85 85 85 73 73 65 65 65 107 107 107 107 107 107 
23 23 23 23 23 23 23 23 9 3 3 3 3 3 2 4 4 
113 114 38 91 91 91 85 85 85 73 65 65 65 65 65 107 107 
107 107 107 23 23 23 23 23 23 23 23 3 3 3 3 3 3 
2 4 4 4 114 38 91 91 91 85 85 85 73 65 65 65 65 
65 65 107 107 107 107 23 23 23 23 23 23 23 3 3 3 3 
3 3 3 3 4 4 4 114 38 91 91 91 91 85 85 65 65 
65 65 65 65 65 65 107 107 107 23 23 23 23 23 23 3 3 
3 3 3 3 3 3 3 4 4 4 4 38 91 91 91 91 85 
85 65 65 65 65 65 65 65 65 65 107 107 23 23 23 23 23 
3 3 3 3 3 3 3 3 3 3 3 4 4 4 38 91 91 
91 91 85 65 65 65 65 65 65 65 65 65 65 65 107 23 23 
23 23 3 3 3 3 3 3 3 3 3 3 3 3 4 4 4 
38 91 91 91 91 91 65 65 65 65 65 65 65 65 65 65 65 
65 23 23 23 23 3 3 3 3 3 3 3 3 3 3 3 3 
4 4 4 38 91 91 91 91 91 65 65 65 65 65 65 65 65 
65 65 65 65 23 23 23 3 3 3 3 3 3 3 3 3 3 
3 3 3 3 4 4 4 91 91 91 91 91 65 65 65 65 65 
65 65 65 65 65 65 65 23 23 3 3 3 3 3 3 3 3 
3 3 3 3 3 3 3 4 4 4 91 91 91 91 91 65 65 
65 65 65 65 65 65 65 65 65 65 23 3 3 3 3 3 3 
3 3 3 3 3 3 3 3 3 3 4 4 4 91 91 91 91 
91 65 65 65 65 65 65 65 65 65 65 65 65 3 3 3 3 
3 3 3 3 3 3 3 3 3 3 3 3 3 3 4 4 91 
91 91 91 91 65 65 65 65 65 65 65 65 65 65 65 65 