P2
37 28
86
30 30 3 3 3 3 3 51 51 51 51 51 51 51 51 51 51 
51 34 34 34 34 34 34 34 68 70 70 58 80 72 72 72 72 
72 72 72 30 30 30 3 3 3 3 51 51 51 51 51 51 51 
51 51 51 51 34 34 34 34 34 34 34 68 70 70 58 80 72 
72 72 72 72 72 72 30 30 30 3 3 3 3 51 51 51 51 
51 51 51 51 51 51 51 34 34 34 34 34 34 34 68 70 70 
58 80 72 72 72 72 72 72 72 30 30 30 3 3 3 3 51 
51 51 51 51 51 51 51 51 51 51 43 34 34 34 34 34 34 
68 70 70 58 80 72 72 72 72 72 72 72 30 30 30 3 3 
3 3 3 51 51 51 51 51 51 51 51 51 43 43 34 34 34 
34 34 34 68 70 70 58 80 72 72 72 72 72 72 72 30 30 
30 30 3 3 3 3 51 51 51 51 51 51 51 51 51 43 43 
34 34 34 34 34 82 68 70 70 58 80 72 72 72 72 72 72 
72 30 30 30 30 3 3 3 3 51 51 51 51 51 51 51 51 
51 43 43 34 34 34 34 34 82 68 70 70 58 80 72 72 72 
72 72 72 72 30 30 30 30 3 3 3 3 51 51 51 51 51 
51 51 51 51 43 43 34 34 34 34 34 82 68 70 70 58 80 
72 72 72 72 72 72 72 30 30 30 30 3 3 3 3 3 51 
51 51 51 51 51 51 49 43 43 34 34 34 34 34 82 68 70 
70 58 80 72 72 72 72 72 72 72 30 30 30 30 30 3 3 
3 3 51 51 51 51 51 51 51 49 43 43 34 34 34 34 64 
82 68 70 70 58 80 72 72 72 72 72 72 72 30 30 30 30 
30 3 3 3 3 51 51 51 51 51 51 51 49 43 43 34 34 
34 34 64 82 68 70 70 58 80 72 72 72 72 72 72 72 30 
30 30 30 30 3 3 3 3 51 51 51 51 51 51 51 49 43 
43 34 34 34 34 64 82 68 70 70 58 80 72 72 72 72 72 
72 72 30 30 30 30 30 3 3 3 3 3 51 51 51 51 51 
53 49 43 43 34 34 34 34 64 82 68 70 70 58 80 72 72 
72 72 72 72 72 30 30 30 30 30 41 3 3 3 3 51 51 
51 51 51 53 49 43 43 34 34 34 64 64 82 68 70 70 58 
80 72 72 72 72 72 72 72 30 30 30 30 30 41 3 3 3 
3 20 51 51 51 51 53 49 43 43 34 34 34 64 64 82 68 
70 70 58 80 72 72 72 72 72 72 72 30 30 30 30 30 41 
37 3 3 3 20 51 51 51 54 53 49 43 43 34 34 34 64 
64 82 68 70 70 58 80 72 72 72 72 72 72 72 30 30 30 
30 30 41 37 3 3 3 20 47 45 54 54 53 49 43 43 34 
34 36 64 64 82 68 70 70 58 80 72 72 72 72 72 72 72 
30 30 30 30 30 41 37 14 1 1 20 47 17 28 12 22 29 
2 2 38 36 36 64 64 82 68 70 70 58 80 72 72 72 72 
72 72 72 16 16 16 16 16 15 27 48 5 5 20 26 26 23 
13 22 39 75 75 65 83 21 24 73 8 7 9 9 59 18 78 
78 78 78 78 78 78 16 16 16 16 16 15 27 48 5 5 35 
26 26 23 13 13 39 75 75 65 83 21 24 73 8 7 9 9 
59 18 78 78 78 78 78 78 78 25 25 25 25 25 42 31 31 
46 46 35 35 26 23 13 85 85 85 86 86 66 57 67 55 55 
74 71 71 10 77 19 19 19 19 19 19 19 50 50 50 50 50 
52 44 33 32 32 40 40 40 23 85 85 85 85 76 76 56 84 
60 55 55 74 71 71 10 81 61 61 61 61 61 61 61 50 50 
50 50 50 52 44 33 32 32 40 40 40 40 85 85 85 85 76 
76 56 84 60 60 55 74 71 62 62 62 63 63 63 63 63 63 
63 50 50 50 50 50 52 44 33 32 32 40 40 40 40 85 85 
85 76 76 76 56 84 60 60 60 74 71 69 69 69 79 79 79 
79 79 79 79 50 50 50 50 50 52 44 33 32 32 40 40 40 
40 85 85 85 76 76 76 56 84 60 60 60 74 69 69 69 69 
79 79 79 79 79 79 79 50 50 50 50 50 52 44 33 32 32 
40 40 40 40 85 85 76 76 76 76 56 84 60 60 60 69 69 
69 69 69 79 79 79 79 79 79 79 50 50 50 50 50 52 44 
33 32 32 40 40 40 40 85 85 76 76 76 76 56 84 60 60 
60 69 69 69 69 69 79 79 79 79 79 79 79 50 50 50 50 
50 52 44 33 32 32 40 40 40 40 40 85 76 76 76 76 56 
84 60 60 60 69 69 69 69 69 79 79 79 79 79 79 79 