P2
37 28
130
77 77 77 94 16 16 16 16 16 17 18 18 18 18 18 93 93 
93 93 93 93 80 80 80 80 80 105 105 57 57 57 57 57 57 
57 57 57 77 77 77 94 20 16 16 16 16 17 18 18 18 18 
18 92 93 93 93 93 93 80 80 80 80 80 105 105 57 57 57 
57 57 57 57 57 57 77 77 77 94 20 16 16 16 16 17 18 
18 18 18 92 92 93 93 93 93 93 80 80 80 80 80 105 105 
57 57 57 57 57 57 57 57 57 77 77 77 94 20 16 16 16 
16 17 18 18 18 15 92 92 93 93 93 93 93 80 80 80 80 
80 105 105 57 57 57 57 57 57 57 57 57 77 77 77 94 20 
20 16 16 16 17 18 18 15 31 92 92 93 93 93 93 107 107 
80 80 80 80 105 105 57 57 57 57 57 57 57 57 57 77 77 
77 94 20 20 11 32 14 17 18 15 15 31 92 92 93 93 93 
93 107 107 80 80 80 80 105 105 57 57 57 57 57 57 57 57 
57 77 77 96 94 20 36 11 90 91 13 13 15 31 31 92 92 
93 93 93 129 107 107 80 80 80 80 105 105 57 57 57 57 57 
57 57 57 57 97 97 96 95 95 36 36 89 91 13 12 12 24 
31 92 29 29 29 129 129 107 107 80 80 80 80 105 105 57 57 
57 57 57 57 57 57 57 97 97 87 95 95 36 36 89 89 12 
12 5 5 44 26 26 29 129 129 129 107 107 107 80 80 106 105 
105 57 57 57 57 57 57 57 57 57 87 87 87 87 86 36 36 
89 109 12 12 5 5 45 23 23 27 27 129 129 107 107 107 58 
58 58 58 58 84 84 84 84 84 84 84 84 84 87 87 87 86 
86 86 62 62 109 109 109 40 22 22 23 23 27 27 128 128 126 
126 126 58 58 58 58 58 84 84 84 84 84 84 84 84 84 87 
87 86 86 2 2 62 62 109 109 109 40 40 72 72 127 127 127 
128 128 126 126 126 69 69 69 69 69 82 82 82 82 82 82 82 
82 82 6 6 6 2 2 2 62 62 109 109 109 40 40 39 39 
127 127 127 128 128 126 126 126 69 69 69 69 82 82 82 82 82 
82 82 82 82 82 6 6 6 6 2 2 108 108 108 109 111 111 
39 39 39 127 127 127 67 67 67 126 126 70 70 70 70 82 82 
82 82 82 82 82 82 82 82 6 6 6 6 6 108 108 108 108 
115 111 111 111 113 113 113 120 67 67 67 67 67 118 70 70 70 
70 70 83 83 83 83 83 83 83 83 83 6 6 6 6 6 79 
79 108 115 115 111 111 111 113 113 113 120 120 120 67 67 67 118 
118 71 71 71 71 83 83 83 83 83 83 9 9 9 41 41 41 
6 79 79 79 79 115 114 111 111 111 113 113 113 120 120 120 121 
121 121 118 118 118 71 71 4 4 4 4 4 9 9 9 9 9 
41 41 41 41 79 79 79 79 114 114 114 110 110 112 112 112 120 
120 120 66 66 116 119 119 119 3 3 3 51 51 51 9 9 9 
9 9 9 41 41 41 41 41 79 101 101 114 114 114 110 75 75 
75 104 104 103 66 66 66 116 116 119 119 3 3 50 50 50 9 
9 9 9 9 9 9 41 41 41 41 41 101 101 101 101 114 114 
110 75 75 104 104 103 103 117 117 117 116 116 116 81 81 55 55 
50 50 9 9 9 9 9 9 9 47 47 47 47 47 98 98 101 
130 130 130 75 75 104 104 43 103 103 103 117 65 65 116 81 81 
81 55 55 55 123 123 123 123 123 123 123 123 47 47 47 47 98 
98 98 102 130 130 130 85 85 76 76 43 43 103 103 65 65 65 
65 81 81 81 52 52 52 124 124 124 124 124 124 124 124 47 47 
47 47 98 98 98 102 59 59 59 85 85 85 74 48 48 103 103 
65 65 65 65 81 81 52 52 52 125 125 125 125 125 125 125 125 
125 47 47 47 47 98 98 98 59 59 59 59 85 85 85 74 48 
48 48 65 65 65 65 65 81 52 52 52 52 125 125 125 125 125 
125 125 125 125 47 47 47 47 98 98 59 59 59 59 59 85 85 
85 74 48 48 48 65 65 65 65 65 65 52 52 52 52 125 125 
125 125 125 125 125 125 125 47 47 47 98 98 98 59 59 59 59 
59 85 85 85 74 48 48 48 48 65 65 65 65 65 52 52 52 
52 125 125 125 125 125 125 125 125 125 47 47 47 98 98 59 59 
59 59 59 59 85 85 85 74 48 48 48 48 65 65 65 65 65 
52 52 52 125 125 125 125 125 125 125 125 125 125 47 47 47 98 
98 59 59 59 59 59 59 85 85 85 74 48 48 48 48 65 65 
65 65 65 52 52 52 125 125 125 125 125 125 125 125 125 125 