P2
37 28
89
89 89 89 89 29 29 29 29 29 29 46 46 46 53 53 45 40 
38 38 38 38 38 38 70 59 76 80 78 78 78 78 78 78 78 
78 78 78 89 89 89 89 29 29 29 29 29 29 46 46 46 53 
53 45 40 38 38 38 38 38 38 70 59 76 80 78 78 78 78 
78 78 78 78 78 78 89 89 89 89 29 29 29 29 29 29 46 
46 46 53 53 45 40 38 38 38 38 38 38 70 59 76 80 78 
78 78 78 78 78 78 78 78 78 89 89 89 89 89 29 29 29 
29 29 46 46 46 53 53 45 40 38 38 38 38 38 70 70 59 
76 80 78 78 78 78 78 78 78 78 78 78 89 89 89 89 89 
29 29 29 29 29 46 46 46 53 53 45 40 38 38 38 38 38 
70 70 59 76 80 78 78 78 78 78 78 78 78 78 78 89 89 
89 89 89 29 29 29 29 29 46 46 46 53 53 45 40 38 38 
38 38 38 70 70 59 76 80 78 78 78 78 78 78 78 78 78 
78 89 89 89 89 89 29 29 29 29 29 46 46 46 53 53 45 
40 38 38 38 38 38 87 70 59 76 80 78 78 78 78 78 78 
78 78 78 78 89 89 89 89 89 89 29 29 29 29 46 46 46 
53 53 45 40 38 38 38 38 87 87 70 59 76 80 78 78 78 
78 78 78 78 78 78 78 89 89 89 89 89 89 29 29 29 29 
46 46 46 53 53 45 40 38 38 38 38 87 87 70 59 76 80 
78 78 78 78 78 78 78 78 78 78 89 89 89 89 89 89 29 
29 29 29 46 46 46 53 53 45 40 38 38 38 38 87 87 70 
59 76 80 78 78 78 78 78 78 78 78 78 78 89 89 89 89 
89 89 29 29 29 29 46 46 46 53 53 45 40 38 38 38 38 
87 87 70 59 76 80 78 78 78 78 78 78 78 78 78 78 89 
89 89 89 89 89 36 29 29 29 46 46 46 53 53 45 40 38 
38 38 87 87 87 70 59 76 80 78 78 78 78 78 78 78 78 
78 78 26 89 89 89 89 89 36 29 29 29 46 46 46 53 53 
45 40 38 38 38 87 87 87 70 59 76 80 78 78 78 78 78 
78 78 78 78 78 26 26 89 89 89 89 36 13 29 29 46 46 
33 53 53 45 40 38 38 38 87 87 87 70 59 76 80 78 78 
78 78 78 78 78 78 78 78 15 26 26 89 89 89 36 13 29 
29 46 46 33 53 53 45 40 38 38 38 87 87 87 70 59 76 
80 78 78 78 78 78 78 78 78 78 78 15 15 26 26 89 89 
36 13 13 5 16 30 33 11 21 28 35 41 41 73 87 87 87 
70 59 76 80 78 78 78 78 78 78 78 78 78 78 15 15 15 
26 26 27 42 4 1 5 43 22 12 37 25 2 10 72 72 73 
64 7 55 19 8 77 17 84 84 84 84 84 84 84 84 84 84 
15 15 15 15 14 31 42 4 49 44 43 22 12 37 25 86 85 
68 82 20 23 66 55 56 9 71 54 18 18 18 18 18 18 18 
18 18 18 15 15 15 15 51 48 34 32 39 47 47 22 12 37 
86 86 75 57 58 60 65 83 83 88 81 74 69 61 61 61 61 
61 61 61 61 61 61 50 50 50 50 52 48 34 32 39 47 47 
47 12 86 86 75 75 57 58 60 65 83 83 88 81 74 63 61 
61 61 61 61 61 61 61 61 61 50 50 50 50 52 52 34 32 
39 47 47 47 47 86 75 75 75 57 58 60 65 83 83 88 62 
62 67 67 79 79 79 79 79 79 79 79 79 50 50 50 50 52 
52 52 32 39 47 47 47 47 75 75 75 75 57 58 60 65 83 
83 62 62 62 67 79 79 79 79 79 79 79 79 79 79 50 50 
50 50 52 52 52 32 39 47 47 47 47 75 75 75 75 57 58 
60 65 83 62 62 62 62 79 79 79 79 79 79 79 79 79 79 
79 50 50 50 50 52 52 52 52 39 47 47 47 47 75 75 75 
75 57 58 60 65 62 62 62 62 79 79 79 79 79 79 79 79 
79 79 79 79 50 50 50 50 52 52 52 52 39 47 47 47 47 
75 75 75 75 57 58 60 65 62 62 62 62 79 79 79 79 79 
79 79 79 79 79 79 79 50 50 50 50 52 52 52 52 39 47 
47 47 47 75 75 75 75 57 58 60 65 62 62 62 79 79 79 
79 79 79 79 79 79 79 79 79 79 50 50 50 50 52 52 52 
52 39 47 47 47 47 75 75 75 75 57 58 60 62 62 62 62 
79 79 79 79 79 79 79 79 79 79 79 79 79 50 50 50 50 
52 52 52 52 52 47 47 47 47 75 75 75 75 57 58 60 62 
62 62 79 79 79 79 79 79 79 79 79 79 79 79 79 79 