P2
37 28
109
22 22 22 22 77 77 77 77 77 77 77 77 77 77 77 76 90 
90 90 90 90 90 37 107 107 107 107 107 107 107 107 107 107 107 
107 107 107 22 22 22 22 22 77 77 77 77 77 77 77 77 77 
77 76 90 90 90 90 90 37 37 107 107 107 107 107 107 107 107 
107 107 107 107 107 107 22 22 22 22 22 22 22 77 77 77 77 
77 77 77 77 76 90 90 90 90 37 37 37 107 107 107 107 107 
107 107 107 107 107 107 107 107 107 22 22 22 22 22 22 22 22 
77 77 77 77 77 77 77 76 90 90 90 37 37 37 37 42 107 
107 107 107 107 107 107 107 107 107 107 107 107 22 22 22 22 22 
22 22 22 22 77 77 77 77 77 77 76 90 36 37 37 37 37 
43 42 42 107 107 107 107 107 107 107 107 107 107 107 80 22 22 
22 22 22 22 22 22 22 22 72 72 72 72 72 79 78 36 37 
37 37 43 43 42 42 107 107 107 107 107 107 107 107 107 107 80 
80 22 22 22 22 22 22 22 22 22 22 22 72 72 72 72 79 
78 36 37 37 43 43 43 42 42 106 107 107 107 107 107 107 84 
84 80 80 80 22 22 22 22 22 22 22 22 22 22 22 22 17 
30 28 28 28 92 92 43 43 43 43 42 42 106 106 107 84 84 
84 84 84 80 80 80 80 22 22 22 22 22 22 22 22 22 22 
22 22 17 30 30 29 29 92 92 46 31 31 31 42 42 102 102 
64 84 84 84 84 84 80 80 80 80 22 22 22 22 22 22 22 
22 22 22 22 22 17 17 30 29 85 85 92 91 32 32 32 68 
68 68 68 64 84 84 84 84 80 80 80 80 80 22 22 22 22 
22 22 22 22 22 22 22 22 17 17 30 85 85 86 91 91 32 
32 104 104 47 68 68 64 84 84 84 80 80 80 80 80 80 10 
10 21 21 21 21 21 21 21 21 21 21 14 14 14 87 87 86 
86 91 32 104 104 104 47 98 98 100 100 99 99 80 80 80 80 
80 80 10 10 10 10 10 10 21 21 21 21 21 12 12 12 19 
27 87 105 105 94 94 104 104 104 47 58 58 100 99 99 99 80 
80 80 80 80 80 10 10 10 10 10 10 10 10 16 16 16 16 
18 18 19 27 57 89 95 94 94 94 104 104 62 62 62 48 52 
52 52 80 80 80 80 80 80 10 10 10 10 10 10 10 10 10 
10 16 16 18 18 19 27 57 89 95 94 94 94 50 50 62 62 
62 48 52 52 35 35 88 88 80 80 80 10 10 10 10 10 10 
10 10 10 10 13 13 54 23 23 109 109 93 71 24 24 24 50 
50 50 74 74 75 60 60 35 35 88 88 103 103 103 9 9 9 
9 9 9 9 9 9 9 13 54 54 54 23 96 53 26 25 24 
34 34 50 50 82 82 82 75 60 67 67 67 44 103 103 103 103 
9 9 9 9 9 9 9 9 9 9 9 54 54 7 7 6 8 
97 108 108 34 34 33 33 33 82 82 75 60 67 67 67 44 59 
59 59 59 9 9 9 9 9 9 9 9 9 9 9 54 54 7 
7 6 2 1 4 4 34 34 33 33 33 82 82 82 67 67 67 
67 59 59 59 59 59 9 9 9 9 9 9 9 9 9 9 9 
3 3 3 3 3 2 1 4 4 34 34 33 33 33 33 82 82 
67 67 67 59 59 59 59 59 59 9 9 9 9 9 9 9 9 
9 9 9 3 3 3 3 3 2 1 4 4 4 34 33 33 33 
33 82 82 67 67 67 59 59 59 59 59 59 9 9 9 9 9 
9 9 9 9 9 3 3 3 3 3 3 3 1 4 4 4 34 
33 33 33 33 33 82 67 67 59 59 59 59 59 59 59 9 9 
9 9 9 9 9 9 9 3 3 3 3 3 3 3 3 1 4 
4 4 4 33 33 33 33 33 82 67 67 59 59 59 59 59 59 
59 9 9 9 9 9 9 9 9 9 3 3 3 3 3 3 3 
3 3 4 4 4 4 33 33 33 33 33 33 67 67 59 59 59 
59 59 59 59 9 9 9 9 9 9 9 9 3 3 3 3 3 
3 3 3 3 3 4 4 4 4 33 33 33 33 33 33 67 59 
59 59 59 59 59 59 59 9 9 9 9 9 9 9 3 3 3 
3 3 3 3 3 3 3 3 4 4 4 4 4 33 33 33 33 
33 67 59 59 59 59 59 59 59 59 9 9 9 9 9 9 9 
3 3 3 3 3 3 3 3 3 3 3 4 4 4 4 4 33 
33 33 33 33 67 59 59 59 59 59 59 59 59 9 9 9 9 
9 9 3 3 3 3 3 3 3 3 3 3 3 3 3 4 4 
4 4 33 33 33 33 33 33 59 59 59 59 59 59 59 59 