P2
37 28
24
7 7 7 7 7 19 19 19 19 19 19 19 19 19 22 22 22 
22 22 22 22 22 22 22 22 22 22 22 22 22 12 12 12 12 
12 12 12 7 7 7 7 7 7 19 19 19 19 19 19 19 19 
19 15 22 22 22 22 22 22 22 22 22 22 22 22 22 22 12 
12 12 12 12 12 12 7 7 7 7 7 7 7 19 19 19 19 
19 19 19 19 15 15 15 15 22 22 22 22 22 22 22 22 22 
22 22 12 12 12 12 12 12 12 7 7 7 7 7 7 7 19 
19 19 19 19 19 19 19 19 15 15 15 15 15 22 22 22 22 
22 22 22 22 12 12 12 12 12 12 12 12 7 7 7 7 7 
7 7 7 19 19 19 19 19 19 19 19 19 15 15 15 15 15 
16 16 16 22 22 22 22 12 12 12 12 12 12 12 12 7 7 
7 7 7 7 7 7 7 19 19 19 19 19 19 19 19 19 15 
15 15 15 16 16 16 21 21 21 21 12 12 12 12 12 12 12 
12 7 7 7 7 7 7 7 7 7 7 19 19 19 19 19 19 
19 19 15 15 15 15 16 16 21 21 21 21 21 21 12 12 12 
12 12 12 12 7 7 7 7 7 7 7 7 7 7 7 19 19 
19 19 19 19 19 19 15 15 15 16 21 21 21 21 21 21 21 
12 12 12 12 12 12 12 7 7 7 7 7 7 7 7 7 7 
7 7 19 19 19 19 19 19 19 19 15 15 21 21 21 21 21 
21 21 17 17 17 12 12 12 12 12 7 7 7 7 7 7 7 
7 7 7 7 7 19 19 19 19 19 19 19 19 24 18 18 18 
18 18 18 18 18 17 17 17 17 17 17 17 12 2 7 7 7 
7 7 7 7 7 7 7 7 4 19 19 19 19 19 19 24 24 
24 18 18 18 18 18 18 17 17 17 17 17 17 17 17 17 2 
2 2 7 7 7 7 7 7 7 7 7 4 4 23 19 19 19 
24 24 24 24 24 18 18 18 18 18 17 17 17 17 17 17 17 
17 17 2 2 2 2 7 7 7 7 7 7 7 7 4 4 23 
23 23 19 24 24 24 24 9 9 9 9 9 9 17 17 17 17 
17 17 17 17 17 2 2 2 2 2 7 7 7 7 7 7 7 
4 4 23 23 23 23 24 24 24 9 9 9 9 9 9 9 17 
17 17 17 17 17 17 17 17 2 2 2 2 2 2 7 7 7 
7 7 7 4 4 23 23 23 23 24 24 24 9 9 9 9 9 
9 9 17 17 17 17 17 17 17 17 17 2 2 2 2 2 2 
2 2 7 7 7 7 14 14 23 23 23 23 23 24 9 9 9 
9 9 9 9 9 17 17 17 17 17 17 17 17 17 2 2 2 
2 2 2 2 2 2 7 7 14 14 14 23 23 23 23 23 9 
9 9 9 9 9 9 9 9 17 17 17 17 17 17 17 17 17 
2 2 2 2 2 2 2 2 2 2 14 14 14 14 14 23 23 
23 23 9 9 9 9 9 9 9 9 9 17 17 17 17 17 17 
17 17 17 2 2 2 2 2 2 2 2 2 2 10 10 10 10 
10 10 10 5 5 5 9 9 9 9 9 9 9 9 17 17 17 
17 17 17 17 17 17 2 2 2 2 2 2 2 2 2 2 10 
10 10 10 10 10 5 5 5 5 5 9 9 9 9 9 9 9 
17 17 17 17 17 17 17 17 17 2 2 2 2 2 2 2 2 
2 2 10 10 10 10 10 5 5 5 5 5 5 5 9 9 9 
9 9 9 17 17 17 17 17 17 17 17 17 2 2 2 2 2 
2 2 2 2 2 10 10 10 10 5 5 5 5 5 5 5 5 
5 9 9 9 9 9 17 17 17 17 17 17 17 17 17 2 2 
2 2 2 2 2 2 2 2 10 10 10 5 5 5 5 5 5 
5 5 5 5 5 5 9 9 9 17 17 17 17 17 17 17 17 
17 2 2 2 2 2 2 2 2 2 2 10 20 20 20 20 20 
20 20 20 20 20 20 20 20 20 20 9 9 17 17 17 17 17 
17 17 17 17 2 2 2 2 2 2 2 2 2 2 20 20 20 
20 20 20 20 20 20 20 20 20 20 20 20 20 20 9 17 17 
17 17 17 17 17 17 17 2 2 2 2 2 2 2 2 2 2 
20 20 20 20 20 20 20 20 20 20 20 20 20 20 20 20 20 
20 17 17 17 17 17 17 17 17 17 2 2 2 2 2 2 2 
2 2 20 20 20 20 20 20 20 20 20 20 20 20 20 20 20 
20 20 20 20 20 17 17 17 17 17 17 17 17 2 2 2 2 
2 2 2 2 20 20 20 20 20 20 20 20 20 20 20 20 20 
20 20 20 20 20 20 20 20 17 17 17 17 17 17 17 17 