P2
40 30
132
94 94 110 110 110 110 110 110 110 110 68 68 55 55 55 55 55 
55 55 55 55 55 55 55 55 55 55 55 55 55 55 55 55 55 
57 57 57 57 57 57 94 94 94 110 110 110 110 110 110 110 110 
68 68 68 55 55 55 55 55 55 55 55 55 55 55 55 55 55 
55 55 55 57 57 57 57 57 57 57 57 57 94 94 94 94 110 
110 110 110 110 110 110 110 68 68 68 67 55 55 55 55 55 55 
55 55 55 55 55 55 57 57 57 57 57 57 57 57 57 57 57 
57 94 94 94 94 94 110 110 110 110 110 110 110 68 68 68 68 
67 67 98 56 56 56 56 56 56 56 57 57 57 57 57 57 57 
57 57 57 57 57 57 57 94 94 94 94 94 94 110 110 110 110 
110 110 110 68 68 68 68 67 67 98 98 56 56 56 57 57 57 
57 57 57 57 57 57 57 57 57 57 57 57 57 94 94 94 94 
94 94 94 110 110 110 110 110 110 110 68 68 68 68 67 67 98 
98 98 57 57 57 57 57 57 57 57 57 57 57 57 57 57 57 
57 57 94 94 94 94 94 94 94 94 110 110 110 110 110 110 110 
68 68 68 68 67 67 98 98 98 57 57 57 57 57 57 57 57 
57 57 57 57 57 57 57 126 94 94 94 94 94 94 94 94 94 
110 110 110 110 110 110 58 68 68 68 68 67 67 98 98 57 57 
57 57 57 57 57 57 57 57 57 57 126 126 126 126 87 87 94 
94 94 94 94 94 94 94 110 110 110 110 110 110 58 68 68 68 
68 67 67 98 98 57 57 57 57 57 57 57 57 126 126 126 126 
126 126 126 87 87 87 87 94 94 94 94 94 94 94 110 110 110 
110 110 58 58 96 96 96 37 37 37 37 37 57 57 57 126 126 
126 126 126 126 126 126 126 126 126 87 87 87 87 87 87 94 94 
94 94 94 94 110 110 110 110 58 58 58 97 97 38 38 38 38 
38 38 126 126 126 126 126 126 126 126 126 126 126 126 99 20 87 
87 87 87 87 87 87 94 94 94 94 94 110 110 110 110 58 58 
118 59 38 38 38 38 38 125 126 126 126 126 126 126 126 126 126 
126 126 99 99 20 20 20 87 87 87 87 87 87 87 94 94 94 
94 110 110 110 58 58 118 59 59 38 38 38 125 125 126 126 126 
126 126 126 126 126 126 126 99 99 99 20 20 20 20 21 87 87 
87 87 87 87 87 94 94 94 110 111 111 44 44 59 59 59 49 
125 125 125 126 126 126 126 126 126 126 126 126 99 99 99 99 20 
20 20 20 20 21 21 87 87 87 87 87 87 45 45 95 109 43 
44 44 44 50 50 49 49 125 125 126 126 126 126 126 126 126 103 
99 99 99 99 99 20 20 20 20 20 20 21 21 15 87 87 87 
87 87 45 46 47 43 43 81 50 50 50 49 49 125 125 126 126 
126 126 126 103 103 99 99 99 99 99 99 20 20 20 20 20 20 
20 21 21 15 15 33 33 33 33 31 47 47 112 81 50 50 50 
49 49 86 125 126 126 126 126 103 103 103 99 99 99 99 99 99 
20 20 20 20 20 20 20 20 21 21 15 15 15 33 32 32 32 
112 112 81 53 35 35 49 49 86 121 121 121 103 103 103 103 99 
99 99 99 99 99 99 20 20 20 20 20 20 20 20 20 21 21 
15 15 15 32 32 61 61 112 81 53 82 82 82 84 84 121 80 
102 103 103 103 103 99 99 99 99 99 99 99 20 20 20 20 20 
20 20 20 20 20 21 21 11 11 11 104 104 104 112 81 36 36 
36 123 65 65 79 80 102 103 103 103 99 99 99 99 99 99 99 
99 9 9 20 20 20 20 20 20 20 20 20 19 18 18 18 105 
105 105 124 36 36 36 123 123 54 48 79 80 102 103 103 103 99 
99 99 99 99 99 99 99 9 9 9 9 9 9 20 20 20 20 
20 19 12 12 12 105 105 124 124 124 114 114 123 77 77 85 119 
119 120 120 120 99 99 99 99 99 99 99 99 99 9 9 9 9 
9 9 9 9 22 22 22 14 13 13 30 107 107 108 108 115 114 
114 114 77 77 74 78 78 120 120 63 63 99 99 99 99 99 99 
122 122 9 9 9 9 9 9 9 9 9 9 22 14 17 16 30 
29 107 113 115 115 127 127 89 89 91 92 78 75 64 64 63 63 
41 99 122 122 122 122 122 122 9 9 9 9 9 9 9 9 9 
9 10 10 71 69 23 116 88 26 25 72 24 127 62 90 91 92 
93 75 64 131 42 41 41 52 122 122 122 122 122 122 9 9 9 
9 9 9 9 9 9 9 10 10 71 70 23 132 66 34 27 72 
24 129 62 90 101 101 100 100 131 131 83 130 51 52 122 122 122 
122 122 122 9 9 9 9 9 9 9 9 9 9 10 10 70 70 
7 132 8 117 5 28 128 129 40 106 106 101 100 100 131 83 83 
130 51 76 122 122 122 122 122 122 9 9 9 9 9 9 9 9 
9 9 10 6 6 6 7 2 2 1 4 28 128 129 40 106 106 
101 100 100 100 83 83 130 76 76 76 122 122 122 122 122 9 9 
9 9 9 9 9 9 9 9 6 6 6 6 3 3 2 1 4 
4 128 129 40 106 106 106 100 100 100 83 83 76 76 76 76 76 
122 122 122 122 9 9 9 9 9 9 9 9 9 6 6 6 6 
6 3 3 2 1 4 4 4 129 40 106 106 106 100 100 100 83 
83 76 76 76 76 76 76 122 122 122 