P2
40 30
537
537 537 537 537 380 380 380 380 380 380 380 380 380 380 380 380 380 
380 380 380 380 380 380 380 380 380 380 380 380 380 380 380 380 380 
380 380 380 380 380 380 537 537 537 537 537 537 380 380 380 380 380 
380 380 380 380 380 380 380 380 380 380 380 380 380 380 380 380 380 
380 380 380 380 380 380 380 380 380 380 380 380 537 537 537 537 537 
537 537 380 380 380 380 380 380 380 380 380 380 380 380 380 380 380 
380 380 380 380 380 380 380 380 380 380 380 380 380 380 380 380 380 
380 537 537 537 537 537 537 537 537 380 380 380 380 380 380 380 380 
380 380 380 380 380 380 380 380 380 380 380 380 380 380 380 380 380 
380 380 380 380 380 380 380 537 537 537 537 537 537 537 537 537 537 
380 380 380 380 380 380 380 380 380 380 380 380 380 380 380 380 380 
380 380 380 380 380 380 380 380 380 380 380 380 380 537 537 537 537 
537 537 537 537 537 537 537 380 380 380 380 380 380 380 380 380 380 
380 380 380 380 380 380 380 380 380 380 380 380 380 380 380 380 380 
380 380 537 537 537 537 537 537 537 537 537 537 537 537 380 380 380 
380 380 380 380 380 380 380 380 380 380 380 380 380 380 380 380 380 
380 380 380 380 380 380 380 380 537 537 537 537 537 537 537 537 537 
537 537 537 537 537 380 380 380 380 380 380 380 380 380 380 380 380 
380 380 380 380 380 380 380 380 380 380 380 380 380 380 537 537 537 
537 537 537 537 537 537 537 537 537 537 537 537 380 380 380 380 380 
380 380 380 380 380 380 380 380 380 380 380 380 380 380 380 380 380 
380 380 380 537 537 537 537 537 537 537 537 537 537 537 537 537 537 
537 537 380 380 380 380 380 380 380 380 380 380 380 380 380 380 380 
380 380 380 380 380 380 380 380 380 537 537 537 537 537 537 537 537 
537 537 537 537 537 537 537 537 537 537 380 380 380 380 380 380 380 
380 380 380 380 380 380 380 380 380 380 380 380 380 380 380 537 537 
537 537 537 537 537 537 537 537 537 537 537 537 537 537 537 537 537 
380 380 380 380 380 380 380 380 380 380 380 380 380 380 380 380 380 
380 380 380 380 537 537 537 537 537 537 537 537 537 537 537 537 537 
537 537 537 537 537 537 537 380 380 380 380 380 380 380 380 380 380 
380 380 380 380 380 380 380 380 380 380 537 537 537 537 537 537 537 
537 537 537 537 537 537 537 537 537 537 537 537 537 537 537 380 380 
380 380 380 380 380 380 380 380 380 380 380 380 380 380 380 380 537 
537 537 537 537 537 537 537 537 537 537 537 537 537 537 537 537 537 
537 537 537 537 537 380 380 380 380 380 380 380 380 380 380 380 380 
380 380 380 380 380 537 537 537 537 537 537 537 537 537 537 537 537 
537 537 537 537 537 537 537 537 537 537 537 537 380 380 380 380 380 
380 380 380 380 380 380 380 380 380 380 380 537 537 537 537 537 537 
537 537 537 537 537 537 537 537 537 537 537 537 537 537 537 537 537 
537 537 537 380 380 380 380 380 380 380 380 380 380 380 380 380 380 
537 537 537 537 537 537 537 537 537 537 537 537 537 537 537 537 537 
537 537 537 537 537 537 537 537 537 537 380 380 380 380 380 380 380 
380 380 380 380 380 380 537 537 537 537 537 537 537 537 537 537 537 
537 537 537 537 537 537 537 537 537 537 537 537 537 537 537 537 537 
380 380 380 380 380 380 380 380 380 380 380 380 537 537 537 537 537 
537 537 537 537 537 537 537 537 537 537 537 537 537 537 537 537 537 
537 537 537 537 537 537 537 537 380 380 380 380 380 380 380 380 380 
380 537 537 537 537 537 537 537 537 537 537 537 537 537 537 537 537 
537 537 537 537 537 537 537 537 537 537 537 537 537 537 537 380 380 
380 380 380 380 380 380 380 537 537 537 537 537 537 537 537 537 537 
537 537 537 537 537 537 537 537 537 537 537 537 537 537 537 537 537 
537 537 537 537 537 380 380 380 380 380 380 380 380 537 537 537 537 
537 537 537 537 537 537 537 537 537 537 537 537 537 537 537 537 537 
537 537 537 537 537 537 537 537 537 537 537 537 537 380 380 380 380 
380 380 537 537 537 537 537 537 537 537 537 537 537 537 537 537 537 
537 537 537 537 537 537 537 537 537 537 537 537 537 537 537 537 537 
537 537 537 380 380 380 380 380 537 537 537 537 537 537 537 537 537 
537 537 537 537 537 537 537 537 537 537 537 537 537 537 537 537 537 
537 537 537 537 537 537 537 537 537 537 380 380 380 380 537 537 537 
537 537 537 537 537 537 537 537 537 537 537 537 537 537 537 537 537 
537 537 537 537 537 537 537 537 537 537 537 537 537 537 537 537 537 
537 380 380 537 537 537 537 537 537 537 537 537 537 537 537 537 537 
537 537 537 537 537 537 537 537 537 537 537 537 537 537 537 537 537 
537 537 537 537 537 537 537 537 380 537 537 537 537 537 537 537 537 
537 537 537 537 537 537 537 537 537 537 537 537 537 537 537 537 537 
537 537 537 537 537 537 537 537 537 537 537 537 537 537 537 537 537 
537 537 537 537 537 537 537 537 537 537 537 537 537 537 537 537 537 
537 537 537 537 537 537 537 537 537 537 537 537 537 537 537 537 537 
537 537 537 537 537 537 537 537 537 537 537 537 537 537 537 537 537 
537 537 537 537 537 537 537 537 537 537 537 537 537 537 537 537 537 
537 537 537 537 537 537 537 537 537 537 