P2
37 28
35
35 35 35 35 35 35 35 35 1 1 1 1 23 23 23 23 23 
23 23 21 21 21 29 29 29 29 29 29 29 29 29 29 29 29 
29 29 29 35 35 35 35 35 35 35 1 1 1 1 1 23 23 
23 23 23 23 23 21 21 21 29 29 29 29 29 29 29 29 29 
29 29 29 29 29 29 35 35 35 35 35 35 35 1 1 1 1 
1 23 23 23 23 23 23 23 21 21 21 32 29 29 29 29 29 
29 29 29 29 29 29 29 29 29 35 35 35 35 35 35 35 1 
1 1 1 1 23 23 23 23 23 23 23 21 21 21 32 29 29 
29 29 29 29 29 29 29 29 29 29 29 29 35 35 35 35 35 
35 35 1 1 1 1 1 20 23 23 23 23 23 25 21 21 21 
32 8 29 29 29 29 29 29 29 29 29 29 29 29 29 35 35 
35 35 35 35 1 1 1 1 1 20 20 23 23 23 23 23 25 
21 21 21 32 8 29 29 29 29 29 29 29 29 29 29 29 29 
29 35 35 35 35 28 28 28 1 1 1 1 20 20 20 23 23 
23 25 25 25 21 21 32 8 8 29 29 29 29 29 29 29 29 
29 29 29 29 35 28 28 28 28 28 28 28 1 1 20 20 20 
20 20 23 25 25 25 25 33 33 32 8 8 29 29 29 29 29 
29 29 29 29 29 29 29 28 28 28 28 28 28 28 28 1 1 
20 20 20 20 20 26 27 27 27 34 34 11 11 31 31 31 31 
29 29 29 29 29 29 29 29 29 29 28 28 28 28 28 28 28 
28 28 20 20 20 20 20 26 26 26 5 5 34 34 11 11 31 
31 31 31 31 29 29 29 29 29 29 29 29 29 28 28 28 28 
28 28 28 28 28 15 15 15 15 26 26 26 26 5 5 5 34 
11 11 31 31 31 31 31 31 31 29 29 29 29 29 29 29 28 
28 28 28 28 28 28 2 6 6 15 15 15 15 26 26 26 4 
4 4 3 3 3 3 31 31 31 31 31 31 31 29 29 29 29 
29 29 28 28 28 2 2 2 2 2 6 6 6 15 15 15 15 
26 26 4 4 4 3 3 3 3 3 3 31 31 31 31 31 31 
31 29 29 29 29 19 19 19 2 2 2 2 2 2 6 6 6 
15 15 15 17 17 17 17 4 3 3 3 3 3 3 3 24 24 
24 24 24 24 24 24 24 24 19 19 19 19 2 2 2 2 2 
6 6 6 6 15 15 17 17 17 17 16 13 13 13 13 13 13 
24 24 24 24 24 24 24 24 24 24 24 19 19 19 19 19 2 
2 2 2 2 6 6 6 6 17 17 17 17 16 16 13 13 13 
13 13 24 24 24 24 24 24 24 24 24 24 24 24 19 19 19 
19 19 19 2 2 2 2 7 6 6 6 17 17 17 16 16 12 
12 13 13 13 24 24 24 24 24 24 24 24 24 24 24 24 24 
19 19 19 19 19 19 19 2 2 7 7 7 7 7 9 9 16 
16 12 12 12 13 13 24 24 24 24 24 24 24 24 24 24 24 
24 24 24 19 19 19 19 19 19 19 19 7 7 7 7 7 9 
9 9 9 12 12 12 12 10 24 24 24 24 24 24 24 24 24 
24 24 24 24 24 24 19 19 19 19 19 19 19 19 7 7 7 
7 7 9 9 9 9 9 12 10 10 10 10 24 24 24 24 24 
24 24 24 24 24 24 24 24 24 19 19 19 19 19 19 19 7 
7 7 7 7 7 9 9 9 9 9 9 10 10 10 10 10 24 
24 24 24 24 24 24 24 24 24 24 24 24 19 19 19 19 19 
19 19 7 7 7 7 7 7 9 9 9 9 9 9 10 10 10 
10 10 24 24 24 24 24 24 24 24 24 24 24 24 24 19 19 
19 19 19 19 7 7 7 7 7 7 7 9 9 9 9 9 9 
10 10 10 10 10 10 24 24 24 24 24 24 24 24 24 24 24 
24 19 19 19 19 19 19 7 7 7 7 7 7 9 9 9 9 
9 9 9 10 10 10 10 10 10 10 24 24 24 24 24 24 24 
24 24 24 24 19 19 19 19 19 19 7 7 7 7 7 7 9 
9 9 9 9 9 9 10 10 10 10 10 10 10 24 24 24 24 
24 24 24 24 24 24 24 19 19 19 19 19 7 7 7 7 7 
7 7 9 9 9 9 9 9 9 10 10 10 10 10 10 10 10 
24 24 24 24 24 24 24 24 24 24 19 19 19 19 19 7 7 
7 7 7 7 7 9 9 9 9 9 9 9 10 10 10 10 10 
10 10 10 10 24 24 24 24 24 24 24 24 24 19 19 19 19 
7 7 7 7 7 7 7 9 9 9 9 9 9 9 9 10 10 
10 10 10 10 10 10 10 24 24 24 24 24 24 24 24 24 