P2
40 30
135
96 96 96 96 96 96 96 96 96 96 96 71 71 59 59 59 59 
59 59 59 59 59 59 59 59 59 59 59 59 59 59 59 61 61 
61 61 61 61 61 61 96 96 96 96 96 96 96 96 96 96 96 
71 71 71 40 59 59 59 59 59 59 59 59 59 59 59 59 59 
59 59 61 61 61 61 61 61 61 61 61 61 96 96 96 96 96 
96 96 96 96 96 96 96 71 71 71 40 40 59 59 59 59 59 
59 59 59 59 59 59 61 61 61 61 61 61 61 61 61 61 61 
61 96 96 96 96 96 96 96 96 96 96 96 96 96 71 71 71 
40 40 100 59 59 59 59 59 59 59 61 61 61 61 61 61 61 
61 61 61 61 61 61 61 96 96 96 96 96 96 96 96 96 96 
96 96 96 71 71 71 71 40 40 100 100 60 60 60 60 61 61 
61 61 61 61 61 61 61 61 61 61 61 61 61 96 96 96 96 
96 96 96 96 96 96 96 96 96 96 71 71 71 71 40 40 100 
100 100 60 61 61 61 61 61 61 61 61 61 61 61 61 61 61 
61 61 96 96 96 96 96 96 96 96 96 96 96 96 96 96 96 
71 71 71 71 40 40 100 100 100 61 61 61 61 61 61 61 61 
61 61 61 61 61 61 61 130 96 96 96 96 96 96 96 96 96 
96 96 96 96 96 96 62 71 71 71 71 40 40 100 100 61 61 
61 61 61 61 61 61 61 61 61 61 130 130 130 130 96 96 96 
96 96 96 96 96 96 96 96 96 96 96 96 113 62 71 71 71 
71 40 40 100 100 61 61 61 61 61 61 61 61 130 130 130 130 
130 130 130 88 96 96 96 96 96 96 96 96 96 96 96 96 96 
96 113 62 62 98 98 98 38 38 38 38 38 61 61 61 130 130 
130 130 130 130 130 130 130 130 130 88 88 88 88 96 96 96 96 
96 96 96 96 96 96 96 113 62 62 62 99 99 39 39 39 39 
39 39 130 130 130 130 130 130 130 130 130 130 130 130 101 20 88 
88 88 88 88 88 96 96 96 96 96 96 96 96 113 113 62 62 
121 63 39 39 39 39 39 129 130 130 130 130 130 130 130 130 130 
130 130 101 101 20 20 20 88 88 88 88 88 88 88 96 96 96 
96 96 113 113 62 62 121 63 63 39 39 39 129 129 130 130 130 
130 130 130 130 130 130 130 101 101 101 20 20 20 20 22 88 88 
88 88 88 88 88 95 95 95 113 114 114 46 46 63 63 63 51 
129 129 129 130 130 130 130 130 130 130 130 130 101 101 101 101 20 
20 20 20 20 22 22 88 88 88 88 88 88 47 47 97 112 45 
46 46 46 52 52 51 51 129 129 130 130 130 130 130 130 130 106 
101 101 101 101 101 20 20 20 20 20 20 22 22 15 88 88 88 
88 88 47 48 49 45 45 82 52 52 52 51 51 129 129 130 130 
130 130 130 106 106 101 101 101 101 101 101 20 20 20 20 20 20 
20 22 22 15 15 34 34 34 34 32 49 49 115 82 52 52 52 
51 51 87 129 130 130 130 130 106 106 106 101 101 101 101 101 101 
20 20 20 20 20 20 20 20 22 22 15 15 15 34 33 33 33 
115 115 82 55 36 36 51 51 85 124 124 124 106 106 106 106 101 
101 101 101 101 101 101 20 20 20 20 20 20 20 20 20 22 22 
15 15 15 33 33 65 65 115 82 55 83 83 83 85 85 124 81 
105 106 106 106 106 101 101 101 101 101 101 101 21 21 21 20 20 
20 20 20 20 20 22 22 11 11 11 107 107 107 115 82 37 37 
37 126 69 69 80 81 105 106 106 106 101 101 101 101 101 101 101 
101 21 21 21 21 21 21 20 20 20 20 20 19 18 18 18 108 
108 108 127 37 37 37 126 126 56 50 80 81 105 106 106 106 101 
101 101 101 101 101 101 101 21 21 21 21 21 21 21 21 20 20 
20 19 12 12 12 108 108 127 127 127 117 117 126 128 128 86 122 
122 123 123 123 101 101 101 101 101 101 101 101 101 21 21 21 21 
21 21 21 21 21 23 23 14 13 13 31 110 110 111 111 104 117 
117 117 128 128 77 79 79 123 123 67 67 101 101 101 101 101 101 
125 125 21 21 21 21 21 21 21 21 21 21 23 14 17 16 31 
30 110 116 118 104 104 131 66 66 91 92 79 94 68 68 67 67 
43 101 125 125 125 125 125 125 9 9 9 9 9 9 9 9 9 
9 10 10 74 72 24 119 89 27 26 75 25 131 66 90 91 92 
93 94 68 135 44 43 43 54 125 125 125 125 125 125 9 9 9 
9 9 9 9 9 9 9 10 10 74 73 24 119 70 35 28 75 
25 133 42 90 103 103 102 102 135 135 84 134 53 54 125 125 125 
125 125 125 9 9 9 9 9 9 9 9 9 9 10 10 73 73 
7 7 8 120 5 29 132 133 42 109 109 103 102 102 135 84 84 
134 53 78 125 125 125 125 125 125 9 9 9 9 9 9 9 9 
9 9 10 6 6 6 7 2 2 1 4 29 132 133 42 109 109 
103 102 102 102 84 84 134 78 78 78 125 125 125 125 125 9 9 
9 9 9 9 9 9 9 9 6 6 6 6 3 3 2 1 4 
4 132 133 42 109 109 109 102 102 102 84 84 78 78 78 78 78 
125 125 125 125 9 9 9 9 9 9 9 9 9 6 6 6 6 
6 3 3 2 1 4 4 4 133 42 109 109 109 102 102 102 84 
84 78 78 78 78 78 78 125 125 125 