P2
37 28
24
7 7 19 19 19 19 19 19 19 19 19 19 19 16 16 22 22 
22 22 22 22 22 22 22 22 22 22 12 12 12 12 12 12 12 
12 12 12 7 7 7 19 19 19 19 19 19 19 19 19 19 16 
16 16 16 22 22 22 22 22 22 22 22 22 22 12 12 12 12 
12 12 12 12 12 12 7 7 7 7 19 19 19 19 19 19 19 
19 19 19 16 16 16 16 22 22 22 22 22 22 22 22 22 12 
12 12 12 12 12 12 12 12 12 7 7 7 7 7 19 19 19 
19 19 19 19 19 19 19 16 16 16 16 16 8 22 22 22 22 
22 12 12 12 12 12 12 12 12 12 12 12 7 7 7 7 7 
7 19 19 19 19 19 19 19 19 19 19 16 16 16 16 8 8 
8 8 8 22 12 12 12 12 12 12 12 12 12 12 12 7 7 
7 7 7 7 7 19 19 19 19 19 19 19 19 19 16 16 16 
16 8 8 8 8 8 8 12 12 12 12 12 12 12 12 12 12 
12 7 7 7 7 7 7 7 7 19 19 19 19 19 19 19 19 
19 16 16 16 21 21 21 21 21 21 12 12 12 12 12 12 12 
12 12 12 12 2 7 7 7 7 7 7 7 7 19 19 19 19 
19 19 19 19 19 24 21 21 21 21 21 21 21 17 17 12 12 
12 12 12 12 12 12 12 2 2 7 7 7 7 7 7 7 7 
19 19 19 19 19 19 19 24 24 18 18 18 18 18 18 18 17 
17 17 17 17 17 17 12 12 12 12 2 2 2 7 7 7 7 
7 7 7 7 14 19 19 19 19 19 24 24 24 18 18 18 18 
18 17 17 17 17 17 17 17 17 17 17 17 17 2 2 2 2 
7 7 7 7 7 7 7 14 23 19 19 19 19 24 24 24 18 
18 18 18 18 17 17 17 17 17 17 17 17 17 17 17 17 2 
2 2 2 2 7 7 7 7 7 7 14 23 23 23 19 24 24 
24 9 9 9 9 9 9 17 17 17 17 17 17 17 17 17 17 
17 17 2 2 2 2 2 2 7 7 7 7 7 14 23 23 23 
23 24 9 9 9 9 9 9 9 9 17 17 17 17 17 17 17 
17 17 17 17 17 2 2 2 2 2 2 2 7 7 7 7 14 
23 23 23 23 23 9 9 9 9 9 9 9 9 17 17 17 17 
17 17 17 17 17 17 17 17 2 2 2 2 2 2 2 2 7 
7 7 14 23 23 23 23 23 9 9 9 9 9 9 9 9 17 
17 17 17 17 17 17 17 17 17 17 17 2 2 2 2 2 2 
2 2 2 7 10 10 10 23 23 23 23 9 9 9 9 9 9 
9 9 17 17 17 17 17 17 17 17 17 17 17 17 2 2 2 
2 2 2 2 2 2 2 10 10 10 10 10 10 23 9 9 9 
9 9 9 9 9 17 17 17 17 17 17 17 17 17 17 17 17 
2 2 2 2 2 2 2 2 2 3 3 3 3 3 3 20 20 
20 9 9 9 9 9 9 9 17 17 17 17 17 17 17 17 17 
17 17 17 2 2 2 2 2 2 2 2 2 3 3 3 3 20 
20 20 20 20 20 9 9 9 9 9 9 17 17 17 17 17 17 
17 17 17 17 17 17 2 2 2 2 2 2 2 2 2 3 3 
3 20 20 20 20 20 20 20 20 9 9 9 9 9 17 17 17 
17 17 17 17 17 17 17 17 17 2 2 2 2 2 2 2 2 
2 3 20 20 20 20 20 20 20 20 20 20 20 20 9 9 9 
17 17 17 17 17 17 17 17 17 17 17 17 2 2 2 2 2 
2 2 2 3 20 20 20 20 20 20 20 20 20 20 20 20 20 
20 9 9 17 17 17 17 17 17 17 17 17 17 17 17 2 2 
2 2 2 2 2 2 20 20 20 20 20 20 20 20 20 20 20 
20 20 20 20 20 9 17 17 17 17 17 17 17 17 17 17 17 
17 2 2 2 2 2 2 2 20 20 20 20 20 20 20 20 20 
20 20 20 20 20 20 20 20 20 17 17 17 17 17 17 17 17 
17 17 17 17 2 2 2 2 2 2 20 20 20 20 20 20 20 
20 20 20 20 20 20 20 20 20 20 20 20 17 17 17 17 17 
17 17 17 17 17 17 17 2 2 2 2 2 2 20 20 20 20 
20 20 20 20 20 20 20 20 20 20 20 20 20 20 20 20 17 
17 17 17 17 17 17 17 17 17 17 2 2 2 2 2 20 20 
20 20 20 20 20 20 20 20 20 20 20 20 20 20 20 20 20 
20 20 20 17 17 17 17 17 17 17 17 17 17 2 2 2 2 
20 20 20 20 20 20 20 20 20 20 20 20 20 20 20 20 20 
20 20 20 20 20 20 17 17 17 17 17 17 17 17 17 17 