P2
145 109
25
3 3 3 3 3 3 3 3 3 3 3 3 3 15 15 15 15 
15 15 15 15 15 15 15 15 15 15 15 15 15 15 15 15 15 
15 15 15 15 15 15 15 15 15 15 15 24 24 24 24 24 24 
24 24 24 24 24 24 24 24 24 24 24 24 24 24 24 24 24 
24 24 24 24 24 24 24 24 24 24 24 24 24 24 24 24 24 
24 24 24 24 24 24 24 24 24 25 25 25 25 25 25 25 25 
25 25 25 25 25 25 25 25 25 25 25 25 25 25 25 25 25 
25 25 25 25 25 25 25 25 25 25 25 25 25 25 25 25 25 
25 25 25 25 25 25 25 25 25 3 3 3 3 3 3 3 3 
3 3 3 3 3 15 15 15 15 15 15 15 15 15 15 15 15 
15 15 15 15 15 15 15 15 15 15 15 15 15 15 15 15 15 
15 15 15 24 24 24 24 24 24 24 24 24 24 24 24 24 24 
24 24 24 24 24 24 24 24 24 24 24 24 24 24 24 24 24 
24 24 24 24 24 24 24 24 24 24 24 24 24 24 24 24 24 
24 25 25 25 25 25 25 25 25 25 25 25 25 25 25 25 25 
25 25 25 25 25 25 25 25 25 25 25 25 25 25 25 25 25 
25 25 25 25 25 25 25 25 25 25 25 25 25 25 25 25 25 
25 3 3 3 3 3 3 3 3 3 3 3 3 3 3 15 15 
15 15 15 15 15 15 15 15 15 15 15 15 15 15 15 15 15 
15 15 15 15 15 15 15 15 15 15 15 15 15 24 24 24 24 
24 24 24 24 24 24 24 24 24 24 24 24 24 24 24 24 24 
24 24 24 24 24 24 24 24 24 24 24 24 24 24 24 24 24 
24 24 24 24 24 24 24 24 24 24 25 25 25 25 25 25 25 
25 25 25 25 25 25 25 25 25 25 25 25 25 25 25 25 25 
25 25 25 25 25 25 25 25 25 25 25 25 25 25 25 25 25 
25 25 25 25 25 25 25 25 25 25 3 3 3 3 3 3 3 
3 3 3 3 3 3 3 15 15 15 15 15 15 15 15 15 15 
15 15 15 15 15 15 15 15 15 15 15 15 15 15 15 15 15 
15 15 15 15 15 24 24 24 24 24 24 24 24 24 24 24 24 
24 24 24 24 24 24 24 24 24 24 24 24 24 24 24 24 24 
24 24 24 24 24 24 24 24 24 24 24 24 24 24 24 24 24 
24 24 25 25 25 25 25 25 25 25 25 25 25 25 25 25 25 
25 25 25 25 25 25 25 25 25 25 25 25 25 25 25 25 25 
25 25 25 25 25 25 25 25 25 25 25 25 25 25 25 25 25 
25 25 3 3 3 3 3 3 3 3 3 3 3 3 3 3 3 
15 15 15 15 15 15 15 15 15 15 15 15 15 15 15 15 15 
15 15 15 15 15 15 15 15 15 15 15 15 15 15 24 24 24 
24 24 24 24 24 24 24 24 24 24 24 24 24 24 24 24 24 
24 24 24 24 24 24 24 24 24 24 24 24 24 24 24 24 24 
24 24 24 24 24 24 24 24 24 24 24 25 25 25 25 25 25 
25 25 25 25 25 25 25 25 25 25 25 25 25 25 25 25 25 
25 25 25 25 25 25 25 25 25 25 25 25 25 25 25 25 25 
25 25 25 25 25 25 25 25 25 25 25 3 3 3 3 3 3 
3 3 3 3 3 3 3 3 3 15 15 15 15 15 15 15 15 
15 15 15 15 15 15 15 15 15 15 15 15 15 15 15 15 15 
15 15 15 15 15 15 24 24 24 24 24 24 24 24 24 24 24 
24 24 24 24 24 24 24 24 24 24 24 24 24 24 24 24 24 
24 24 24 24 24 24 24 24 24 24 24 24 24 24 24 24 24 
24 24 24 25 25 25 25 25 25 25 25 25 25 25 25 25 25 
25 25 25 25 25 25 25 25 25 25 25 25 25 25 25 25 25 
25 25 25 25 25 25 25 25 25 25 25 25 25 25 25 25 25 
25 25 25 3 3 3 3 3 3 3 3 3 3 3 3 3 3 
3 3 15 15 15 15 15 15 15 15 15 15 15 15 15 15 15 
15 15 15 15 15 15 15 15 15 15 15 15 15 15 15 24 24 
24 24 24 24 24 24 24 24 24 24 24 24 24 24 24 24 24 
24 24 24 24 24 24 24 24 24 24 24 24 24 24 24 24 24 
24 24 24 24 24 24 24 24 24 24 24 24 25 25 25 25 25 
25 25 25 25 25 25 25 25 25 25 25 25 25 25 25 25 25 
25 25 25 25 25 25 25 25 25 25 25 25 25 25 25 25 25 
25 25 25 25 25 25 25 25 25 25 25 25 3 3 3 3 3 
3 3 3 3 3 3 3 3 3 3 3 15 15 15 15 15 15 
15 15 15 15 15 15 15 15 15 15 15 15 15 15 15 15 15 
15 15 15 15 15 15 15 15 24 24 24 24 24 24 24 24 24 
24 24 24 24 24 24 24 24 24 24 24 24 24 24 24 24 24 
24 24 24 24 24 24 24 24 24 24 24 24 24 24 24 24 24 
24 24 24 24 25 25 25 25 25 25 25 25 25 25 25 25 25 
25 25 25 25 25 25 25 25 25 25 25 25 25 25 25 25 25 
25 25 25 25 25 25 25 25 25 25 25 25 25 25 25 25 25 
25 25 25 25 3 3 3 3 3 3 3 3 3 3 3 3 3 
3 3 3 3 15 15 15 15 15 15 15 15 15 15 15 15 15 
15 15 15 15 15 15 15 15 15 15 15 15 15 15 15 15 15 
24 24 24 24 24 24 24 24 24 24 24 24 24 24 24 24 24 
24 24 24 24 24 24 24 24 24 24 24 24 24 24 24 24 24 
24 24 24 24 24 24 24 24 24 24 24 24 24 24 25 25 25 
25 25 25 25 25 25 25 25 25 25 25 25 25 25 25 25 25 
25 25 25 25 25 25 25 25 25 25 25 25 25 25 25 25 25 
25 25 25 25 25 25 25 25 25 25 25 25 25 3 3 3 3 
3 3 3 3 3 3 3 3 3 3 3 3 3 15 15 15 15 
15 15 15 15 15 15 15 15 15 15 15 15 15 15 15 15 15 
15 15 15 15 15 15 15 15 15 24 24 24 24 24 24 24 24 
24 24 24 24 24 24 24 24 24 24 24 24 24 24 24 24 24 
24 24 24 24 24 24 24 24 24 24 24 24 24 24 24 24 24 
24 24 24 24 24 24 25 25 25 25 25 25 25 25 25 25 25 
25 25 25 25 25 25 25 25 25 25 25 25 25 25 25 25 25 
25 25 25 25 25 25 25 25 25 25 25 25 25 25 25 25 25 
25 25 25 25 25 3 3 3 3 3 3 3 3 3 3 3 3 
3 3 3 3 3 3 15 15 15 15 15 15 15 15 15 15 15 
15 15 15 15 15 15 15 15 15 15 15 15 15 15 15 15 15 
15 24 24 24 24 24 24 24 24 24 24 24 24 24 24 24 24 
24 24 24 24 24 24 24 24 24 24 24 24 24 24 24 24 24 
24 24 24 24 24 24 24 24 24 24 24 24 24 24 24 25 25 
25 25 25 25 25 25 25 25 25 25 25 25 25 25 25 25 25 
25 25 25 25 25 25 25 25 25 25 25 25 25 25 25 25 25 
25 25 25 25 25 25 25 25 25 25 25 25 25 25 3 3 3 
3 3 3 3 3 3 3 3 3 3 3 3 3 3 3 15 15 
15 15 15 15 15 15 15 15 15 15 15 15 15 15 15 15 15 
15 15 15 15 15 15 15 15 15 15 24 24 24 24 24 24 24 
24 24 24 24 24 24 24 24 24 24 24 24 24 24 24 24 24 
24 24 24 24 24 24 24 24 24 24 24 24 24 24 24 24 24 
24 24 24 24 24 24 24 25 25 25 25 25 25 25 25 25 25 
25 25 25 25 25 25 25 25 25 25 25 25 25 25 25 25 25 
25 25 25 25 25 25 25 25 25 25 25 25 25 25 25 25 25 
25 25 25 25 25 25 3 3 3 3 3 3 3 3 3 3 3 
3 3 3 3 3 3 3 3 15 15 15 15 15 15 15 15 15 
15 15 15 15 15 15 15 15 15 15 15 15 15 15 15 15 15 
15 15 15 24 24 24 24 24 24 24 24 24 24 24 24 24 24 
24 24 24 24 24 24 24 24 24 24 24 24 24 24 24 24 24 
24 24 24 24 24 24 24 24 24 24 24 24 24 24 24 24 25 
25 25 25 25 25 25 25 25 25 25 25 25 25 25 25 25 25 
25 25 25 25 25 25 25 25 25 25 25 25 25 25 25 25 25 
25 25 25 25 25 25 25 25 25 25 25 25 25 25 25 3 3 
3 3 3 3 3 3 3 3 3 3 3 3 3 3 3 3 3 
15 15 15 15 15 15 15 15 15 15 15 15 15 15 15 15 15 
15 15 15 15 15 15 15 15 15 15 15 15 24 24 24 24 24 
24 24 24 24 24 24 24 24 24 24 24 24 24 24 24 24 24 
24 24 24 24 24 24 24 24 24 24 24 24 24 24 24 24 24 
24 24 24 24 24 24 24 24 25 25 25 25 25 25 25 25 25 
25 25 25 25 25 25 25 25 25 25 25 25 25 25 25 25 25 
25 25 25 25 25 25 25 25 25 25 25 25 25 25 25 25 25 
25 25 25 25 25 25 25 3 3 3 3 3 3 3 3 3 3 
3 3 3 3 3 3 3 3 3 3 15 15 15 15 15 15 15 
15 15 15 15 15 15 15 15 15 15 15 15 15 15 15 15 15 
15 15 15 15 24 24 24 24 24 24 24 24 24 24 24 24 24 
24 24 24 24 24 24 24 24 24 24 24 24 24 24 24 24 24 
24 24 24 24 24 24 24 24 24 24 24 24 24 24 24 24 24 
25 25 25 25 25 25 25 25 25 25 25 25 25 25 25 25 25 
25 25 25 25 25 25 25 25 25 25 25 25 25 25 25 25 25 
25 25 25 25 25 25 25 25 25 25 25 25 25 25 25 25 3 
3 3 3 3 3 3 3 3 3 3 3 3 3 3 3 3 3 
3 3 15 15 15 15 15 15 15 15 15 15 15 15 15 15 15 
15 15 15 15 15 15 15 15 15 15 15 15 15 24 24 24 24 
24 24 24 24 24 24 24 24 24 24 24 24 24 24 24 24 24 
24 24 24 24 24 24 24 24 24 24 24 24 24 24 24 24 24 
24 24 24 24 24 24 24 24 24 25 25 25 25 25 25 25 25 
25 25 25 25 25 25 25 25 25 25 25 25 25 25 25 25 25 
25 25 25 25 25 25 25 25 25 25 25 25 25 25 25 25 25 
25 25 25 25 25 25 25 25 3 3 3 3 3 3 3 3 3 
3 3 3 3 3 3 3 3 3 3 3 3 15 15 15 15 15 
15 15 15 15 15 15 15 15 15 15 15 15 15 15 15 15 15 
15 15 15 15 15 24 24 24 24 24 24 24 24 24 24 24 24 
24 24 24 24 24 24 24 24 24 24 24 24 24 24 24 24 24 
24 24 24 24 24 24 24 24 24 24 24 24 24 24 24 24 24 
24 25 25 25 25 25 25 25 25 25 25 25 25 25 25 25 25 
25 25 25 25 25 25 25 25 25 25 25 25 25 25 25 25 25 
25 25 25 25 25 25 25 25 25 25 25 25 25 25 25 25 25 
3 3 3 3 3 3 3 3 3 3 3 3 3 3 3 3 3 
3 3 3 3 15 15 15 15 15 15 15 15 15 15 15 15 15 
15 15 15 15 15 15 15 15 15 15 15 15 15 15 15 24 24 
24 24 24 24 24 24 24 24 24 24 24 24 24 24 24 24 24 
24 24 24 24 24 24 24 24 24 24 24 24 24 24 24 24 24 
24 24 24 24 24 24 24 24 24 24 25 25 25 25 25 25 25 
25 25 25 25 25 25 25 25 25 25 25 25 25 25 25 25 25 
25 25 25 25 25 25 25 25 25 25 25 25 25 25 25 25 25 
25 25 25 25 25 25 25 25 25 3 3 3 3 3 3 3 3 
3 3 3 3 3 3 3 3 3 3 3 3 3 3 15 15 15 
15 15 15 15 15 15 15 15 15 15 15 15 15 15 15 15 15 
15 15 15 15 15 15 15 24 24 24 24 24 24 24 24 24 24 
24 24 24 24 24 24 24 24 24 24 24 24 24 24 24 24 24 
24 24 24 24 24 24 24 24 24 24 24 24 24 24 24 24 24 
24 24 25 25 25 25 25 25 25 25 25 25 25 25 25 25 25 
25 25 25 25 25 25 25 25 25 25 25 25 25 25 25 25 25 
25 25 25 25 25 25 25 25 25 25 25 25 25 25 25 25 25 
25 3 3 3 3 3 3 3 3 3 3 3 3 3 3 3 3 
3 3 3 3 3 3 15 15 15 15 15 15 15 15 15 15 15 
15 15 15 15 15 15 15 15 15 15 15 15 15 15 15 15 24 
24 24 24 24 24 24 24 24 24 24 24 24 24 24 24 24 24 
24 24 24 24 24 24 24 24 24 24 24 24 24 24 24 24 24 
24 24 24 24 24 24 24 24 24 24 24 24 25 25 25 25 25 
25 25 25 25 25 25 25 25 25 25 25 25 25 25 25 25 25 
25 25 25 25 25 25 25 25 25 25 25 25 25 25 25 25 25 
25 25 25 25 25 25 25 25 25 25 3 3 3 3 3 3 3 
3 3 3 3 3 3 3 3 3 3 3 3 3 3 3 3 15 
15 15 15 15 15 15 15 15 15 15 15 15 15 15 15 15 15 
15 15 15 15 15 15 15 15 24 24 24 24 24 24 24 24 24 
24 24 24 24 24 24 24 24 24 24 24 24 24 24 24 24 24 
24 24 24 24 24 24 24 24 24 24 24 24 24 24 24 24 24 
24 24 24 24 25 25 25 25 25 25 25 25 25 25 25 25 25 
25 25 25 25 25 25 25 25 25 25 25 25 25 25 25 25 25 
25 25 25 25 25 25 25 25 25 25 25 25 25 25 25 25 25 
25 25 3 3 3 3 3 3 3 3 3 3 3 3 3 3 3 
3 3 3 3 3 3 3 3 15 15 15 15 15 15 15 15 15 
15 15 15 15 15 15 15 15 15 15 15 15 15 15 15 15 15 
24 24 24 24 24 24 24 24 24 24 24 24 24 24 24 24 24 
24 24 24 24 24 24 24 24 24 24 24 24 24 24 24 24 24 
24 24 24 24 24 24 24 24 24 24 24 24 24 25 25 25 25 
25 25 25 25 25 25 25 25 25 25 25 25 25 25 25 25 25 
25 25 25 25 25 25 25 25 25 25 25 25 25 25 25 25 25 
25 25 25 25 25 25 25 25 25 25 25 3 3 3 3 3 3 
3 3 3 3 3 3 3 3 3 3 3 3 3 3 3 3 3 
3 15 15 15 15 15 15 15 15 15 15 15 15 15 15 15 15 
15 15 15 15 15 15 15 15 15 15 24 24 24 24 24 24 24 
24 24 24 24 24 24 24 24 24 24 24 24 24 24 24 24 24 
24 24 24 24 24 24 24 24 24 24 24 24 24 24 24 24 24 
24 24 24 24 24 25 25 25 25 25 25 25 25 25 25 25 25 
25 25 25 25 25 25 25 25 25 25 25 25 25 25 25 25 25 
25 25 25 25 25 25 25 25 25 25 25 25 25 25 25 25 25 
25 25 25 3 3 3 3 3 3 3 3 3 3 3 3 3 3 
3 3 3 3 3 3 3 3 3 3 15 15 15 15 15 15 15 
15 15 15 15 15 15 15 15 15 15 15 15 15 15 15 15 15 
15 15 24 24 24 24 24 24 24 24 24 24 24 24 24 24 24 
24 24 24 24 24 24 24 24 24 24 24 24 24 24 24 24 24 
24 24 24 24 24 24 24 24 24 24 24 24 24 24 25 25 25 
25 25 25 25 25 25 25 25 25 25 25 25 25 25 25 25 25 
25 25 25 25 25 25 25 25 25 25 25 25 25 25 25 25 25 
25 25 25 25 25 25 25 25 25 25 25 25 3 3 3 3 3 
3 3 3 3 3 3 3 3 3 3 3 3 3 3 3 3 3 
3 3 3 15 15 15 15 15 15 15 15 15 15 15 15 15 15 
15 15 15 15 15 15 15 15 15 15 15 24 24 24 24 24 24 
24 24 24 24 24 24 24 24 24 24 24 24 24 24 24 24 24 
24 24 24 24 24 24 24 24 24 24 24 24 24 24 24 24 24 
24 24 24 24 24 24 25 25 25 25 25 25 25 25 25 25 25 
25 25 25 25 25 25 25 25 25 25 25 25 25 25 25 25 25 
25 25 25 25 25 25 25 25 25 25 25 25 25 25 25 25 25 
25 25 25 25 3 3 3 3 3 3 3 3 3 3 3 3 3 
3 3 3 3 3 3 3 3 3 3 3 3 15 15 15 15 15 
15 15 15 15 15 15 15 15 15 15 15 15 15 15 15 15 15 
15 15 15 24 24 24 24 24 24 24 24 24 24 24 24 24 24 
24 24 24 24 24 24 24 24 24 24 24 24 24 24 24 24 24 
24 24 24 24 24 24 24 24 24 24 24 24 24 24 24 25 25 
25 25 25 25 25 25 25 25 25 25 25 25 25 25 25 25 25 
25 25 25 25 25 25 25 25 25 25 25 25 25 25 25 25 25 
25 25 25 25 25 25 25 25 25 25 25 25 25 3 3 3 3 
3 3 3 3 3 3 3 3 3 3 3 3 3 3 3 3 3 
3 3 3 3 3 15 15 15 15 15 15 15 15 15 15 15 15 
15 15 15 15 15 15 15 15 15 15 15 15 24 24 24 24 24 
24 24 24 24 24 24 24 24 24 24 24 24 24 24 24 24 24 
24 24 24 24 24 24 24 24 24 24 24 24 24 24 24 24 24 
24 24 24 24 24 24 24 25 25 25 25 25 25 25 25 25 25 
25 25 25 25 25 25 25 25 25 25 25 25 25 25 25 25 25 
25 25 25 25 25 25 25 25 25 25 25 25 25 25 25 25 25 
25 25 25 25 25 3 3 3 3 3 3 3 3 3 3 3 3 
3 3 3 3 3 3 3 3 3 3 3 3 3 3 15 15 15 
15 15 15 15 15 15 15 15 15 15 15 15 15 15 15 15 15 
15 15 15 15 15 24 24 24 24 24 24 24 24 24 24 24 24 
24 24 24 24 24 24 24 24 24 24 24 24 24 24 24 24 24 
24 24 24 24 24 24 24 24 24 24 24 24 24 24 24 24 25 
25 25 25 25 25 25 25 25 25 25 25 25 25 25 25 25 25 
25 25 25 25 25 25 25 25 25 25 25 25 25 25 25 25 25 
25 25 25 25 25 25 25 25 25 25 25 25 25 25 3 3 3 
3 3 3 3 3 3 3 3 3 3 3 3 3 3 3 3 3 
3 3 3 3 3 3 3 15 15 15 15 15 15 15 15 15 15 
15 15 15 15 15 15 15 15 15 15 15 15 15 15 24 24 24 
24 24 24 24 24 24 24 24 24 24 24 24 24 24 24 24 24 
24 24 24 24 24 24 24 24 24 24 24 24 24 24 24 24 24 
24 24 24 24 24 24 24 24 25 25 25 25 25 25 25 25 25 
25 25 25 25 25 25 25 25 25 25 25 25 25 25 25 25 25 
25 25 25 25 25 25 25 25 25 25 25 25 25 25 25 25 25 
25 25 25 25 25 25 3 3 3 3 3 3 3 3 3 3 3 
3 3 3 3 3 3 3 3 3 3 3 3 3 3 3 3 15 
15 15 15 15 15 15 15 15 15 15 15 15 15 15 15 15 15 
15 15 15 15 15 15 24 24 24 24 24 24 24 24 24 24 24 
24 24 24 24 24 24 24 24 24 24 24 24 24 24 24 24 24 
24 24 24 24 24 24 24 24 24 24 24 24 24 24 24 24 24 
25 25 25 25 25 25 25 25 25 25 25 25 25 25 25 25 25 
25 25 25 25 25 25 25 25 25 25 25 25 25 25 25 25 25 
25 25 25 25 25 25 25 25 25 25 25 25 25 25 25 3 3 
3 3 3 3 3 3 3 3 3 3 3 3 3 3 3 3 3 
3 3 3 3 3 3 3 3 3 15 15 15 15 15 15 15 15 
15 15 15 15 15 15 15 15 15 15 15 15 15 15 15 24 24 
24 24 24 24 24 24 24 24 24 24 24 24 24 24 24 24 24 
24 24 24 24 24 24 24 24 24 24 24 24 24 24 24 24 24 
24 24 24 24 24 24 24 24 24 24 25 25 25 25 25 25 25 
25 25 25 25 25 25 25 25 25 25 25 25 25 25 25 25 25 
25 25 25 25 25 25 25 25 25 25 25 25 25 25 25 25 25 
25 25 25 25 25 25 25 3 3 3 3 3 3 3 3 3 3 
3 3 3 3 3 3 3 3 3 3 3 3 3 3 3 3 3 
3 15 15 15 15 15 15 15 15 15 15 15 15 15 15 15 15 
15 15 15 15 15 15 15 15 24 24 24 24 24 24 24 24 24 
24 24 24 24 24 24 24 24 24 24 24 24 24 24 24 24 24 
24 24 24 24 24 24 24 24 24 24 24 24 24 24 24 24 24 
24 16 16 16 25 25 25 25 25 25 25 25 25 25 25 25 25 
25 25 25 25 25 25 25 25 25 25 25 25 25 25 25 25 25 
25 25 25 25 25 25 25 25 25 25 25 25 25 25 25 25 3 
3 3 3 3 3 3 3 3 3 3 3 3 3 3 3 3 3 
3 3 3 3 3 3 3 3 3 3 3 15 15 15 15 15 15 
15 15 15 15 15 15 15 15 15 15 15 15 15 15 15 15 15 
24 24 24 24 24 24 24 24 24 24 24 24 24 24 24 24 24 
24 24 24 24 24 24 24 24 24 24 24 24 24 24 24 24 24 
24 24 24 24 24 24 24 24 24 24 16 16 16 16 16 25 25 
25 25 25 25 25 25 25 25 25 25 25 25 25 25 25 25 25 
25 25 25 25 25 25 25 25 25 25 25 25 25 25 25 25 25 
25 25 25 25 25 25 25 25 3 3 3 3 3 3 3 3 3 
3 3 3 3 3 3 3 3 3 3 3 3 3 3 3 3 3 
3 3 3 15 15 15 15 15 15 15 15 15 15 15 15 15 15 
15 15 15 15 15 15 15 15 15 24 24 24 24 24 24 24 24 
24 24 24 24 24 24 24 24 24 24 24 24 24 24 24 24 24 
24 24 24 24 24 24 24 24 24 24 24 24 24 24 24 24 24 
24 24 16 16 16 16 16 16 16 16 25 25 25 25 25 25 25 
25 25 25 25 25 25 25 25 25 25 25 25 25 25 25 25 25 
25 25 25 25 25 25 25 25 25 25 25 25 25 25 25 25 25 
3 3 3 3 3 3 3 3 3 3 3 3 3 3 3 3 3 
3 3 3 3 3 3 3 3 3 3 3 3 3 15 15 15 15 
15 15 15 15 15 15 15 15 15 15 15 15 15 15 15 15 15 
15 24 24 24 24 24 24 24 24 24 24 24 24 24 24 24 24 
24 24 24 24 24 24 24 24 24 24 24 24 24 24 24 24 24 
24 24 24 24 24 24 24 24 24 24 24 16 16 16 16 16 16 
16 16 16 16 25 25 25 25 25 25 25 25 25 25 25 25 25 
25 25 25 25 25 25 25 25 25 25 25 25 25 25 25 25 25 
25 25 25 25 25 25 25 25 25 3 3 3 3 3 3 3 3 
3 3 3 3 3 3 3 3 3 3 3 3 3 3 3 3 3 
3 3 3 3 3 15 15 15 15 15 15 15 15 15 15 15 15 
15 15 15 15 15 15 15 15 15 15 24 24 24 24 24 24 24 
24 24 24 24 24 24 24 24 24 24 24 24 24 24 24 24 24 
24 24 24 24 24 24 24 24 24 24 24 24 24 24 24 24 24 
24 24 24 16 16 16 16 16 16 16 16 16 16 16 16 16 25 
25 25 25 25 25 25 25 25 25 25 25 25 25 25 25 25 25 
25 25 25 25 25 25 25 25 25 25 25 25 25 25 25 25 25 
25 3 3 3 3 3 3 3 3 3 3 3 3 3 3 3 3 
3 3 3 3 3 3 3 3 3 3 3 3 3 3 3 15 15 
15 15 15 15 15 15 15 15 15 15 15 15 15 15 15 15 15 
15 15 15 24 24 24 24 24 24 24 24 24 24 24 24 24 24 
24 24 24 24 24 24 24 24 24 24 24 24 24 24 24 24 24 
24 24 24 24 24 24 24 24 24 24 24 16 16 16 16 16 16 
16 16 16 16 16 16 16 16 16 16 25 25 25 25 25 25 25 
25 25 25 25 25 25 25 25 25 25 25 25 25 25 25 25 25 
25 25 25 25 25 25 25 25 25 25 3 3 3 3 3 3 3 
3 3 3 3 3 3 3 3 3 3 3 3 3 3 3 3 3 
3 3 3 3 3 3 3 15 15 15 15 15 15 15 15 15 15 
15 15 15 15 15 15 15 15 15 15 15 15 24 24 24 24 24 
24 24 24 24 24 24 24 24 24 24 24 24 24 24 24 24 24 
24 24 24 24 24 24 24 24 24 24 24 24 24 24 24 24 24 
24 24 24 13 16 16 16 16 16 16 16 16 16 16 16 16 16 
16 16 16 16 16 25 25 25 25 25 25 25 25 25 25 25 25 
25 25 25 25 25 25 25 25 25 25 25 25 25 25 25 25 25 
25 25 3 3 3 3 3 3 3 3 3 3 3 3 3 3 3 
3 3 3 3 3 3 3 3 3 3 3 3 3 3 3 3 3 
15 15 15 15 15 15 15 15 15 15 15 15 15 15 15 15 15 
15 15 15 15 24 24 24 24 24 24 24 24 24 24 24 24 24 
24 24 24 24 24 24 24 24 24 24 24 24 24 24 24 24 24 
24 24 24 24 24 24 24 24 24 24 24 24 13 13 16 16 16 
16 16 16 16 16 16 16 16 16 16 16 16 16 16 16 16 25 
25 25 25 25 25 25 25 25 25 25 25 25 25 25 25 25 25 
25 25 25 25 25 25 25 25 25 25 25 3 3 3 3 3 3 
3 3 3 3 3 3 3 3 3 3 3 3 3 3 3 3 3 
3 3 3 3 3 3 3 3 3 15 15 15 15 15 15 15 15 
15 15 15 15 15 15 15 15 15 15 15 15 15 24 24 24 24 
24 24 24 24 24 24 24 24 24 24 24 24 24 24 24 24 24 
24 24 24 24 24 24 24 24 24 24 24 24 24 24 24 24 24 
24 24 24 7 13 13 13 13 16 16 16 16 16 16 16 16 16 
16 16 16 16 16 16 16 16 16 16 16 25 25 25 25 25 25 
25 25 25 25 25 25 25 25 25 25 25 25 25 25 25 25 25 
25 25 25 3 3 3 3 3 3 3 3 3 3 3 3 3 3 
3 3 3 3 3 3 3 3 3 3 3 3 3 3 3 3 3 
3 3 15 15 15 15 15 15 15 15 15 15 15 15 15 15 15 
15 15 15 15 15 24 24 24 24 24 24 24 24 24 24 24 24 
24 24 24 24 24 24 24 24 24 24 24 24 24 24 24 24 24 
24 24 24 24 24 24 24 24 24 24 24 24 7 13 13 13 13 
13 13 16 16 16 16 16 16 16 16 16 16 16 16 16 16 16 
16 16 16 16 16 25 25 25 25 25 25 25 25 25 25 25 25 
25 25 25 25 25 25 25 25 25 25 25 25 3 3 3 3 3 
3 3 3 3 3 3 3 3 3 3 3 3 3 3 3 3 3 
3 3 3 3 3 3 3 3 3 3 3 15 15 15 15 15 15 
15 15 15 15 15 15 15 15 15 15 15 15 15 15 24 24 24 
24 24 24 24 24 24 24 24 24 24 24 24 24 24 24 24 24 
24 24 24 24 24 24 24 24 24 24 24 24 24 24 24 24 24 
24 24 24 7 7 7 13 13 13 13 13 13 16 16 16 16 16 
16 16 16 16 16 16 16 16 16 16 16 16 16 16 16 16 16 
25 25 25 25 25 25 25 25 25 25 25 25 25 25 25 25 25 
25 25 25 25 3 3 3 3 3 3 3 3 3 3 3 3 3 
3 3 3 3 3 3 3 3 3 3 3 3 3 3 3 3 3 
3 3 3 3 15 15 15 15 15 15 15 15 15 15 15 15 15 
15 15 15 15 15 15 15 24 24 24 24 24 24 24 24 24 24 
24 24 24 24 24 24 24 24 24 24 24 24 24 24 24 24 24 
24 24 24 24 24 24 24 24 24 24 24 7 7 7 7 7 13 
13 13 13 13 13 13 16 16 16 16 16 16 16 16 16 16 16 
16 16 16 16 16 16 16 16 16 16 16 25 25 25 25 25 25 
25 25 25 25 25 25 25 25 25 25 25 25 25 3 3 3 3 
3 3 3 3 3 3 3 3 3 3 3 3 3 3 3 3 3 
3 3 3 3 3 3 3 3 3 3 3 3 3 15 15 15 15 
15 15 15 15 15 15 15 15 15 15 15 15 15 15 15 15 24 
24 24 24 24 24 24 24 24 24 24 24 24 24 24 24 24 24 
24 24 24 24 24 24 24 24 24 24 24 24 24 24 24 24 24 
24 24 7 7 7 7 7 7 7 13 13 13 13 13 13 13 13 
16 16 16 16 16 16 16 16 16 16 16 16 16 16 16 16 16 
16 16 16 16 14 14 14 14 14 14 14 14 14 14 14 14 14 
14 14 14 14 14 3 3 3 3 3 3 3 3 3 3 3 3 
3 3 3 3 3 3 3 3 3 3 3 3 3 3 3 3 3 
3 3 3 3 3 3 15 15 15 15 15 15 15 15 15 15 15 
15 15 15 15 15 15 15 15 24 24 24 24 24 24 24 24 24 
24 24 24 24 24 24 24 24 24 24 24 24 24 24 24 24 24 
24 24 24 24 24 24 24 24 24 24 24 7 7 7 7 7 7 
7 13 13 13 13 13 13 13 13 13 16 16 16 16 16 16 16 
16 16 16 16 16 16 16 16 16 16 16 16 16 14 14 14 14 
14 14 14 14 14 14 14 14 14 14 14 14 14 14 11 11 3 
3 3 3 3 3 3 3 3 3 3 3 3 3 3 3 3 3 
3 3 3 3 3 3 3 3 3 3 3 3 3 3 3 15 15 
15 15 15 15 15 15 15 15 15 15 15 15 15 15 15 15 15 
24 24 24 24 24 24 24 24 24 24 24 24 24 24 24 24 24 
24 24 24 24 24 24 24 24 24 24 24 24 24 24 24 24 24 
24 24 7 7 7 7 7 7 7 7 7 13 13 13 13 13 13 
13 13 13 13 16 16 16 16 16 16 16 16 16 16 16 16 16 
16 16 16 16 14 14 14 14 14 14 14 14 14 14 14 14 14 
14 14 14 14 14 14 11 11 11 11 11 11 11 11 3 3 3 
3 3 3 3 3 3 3 3 3 3 3 3 3 3 3 3 3 
3 3 3 3 3 3 3 3 15 15 15 15 15 15 15 15 15 
15 15 15 15 15 15 15 15 15 24 24 24 24 24 24 24 24 
24 24 24 24 24 24 24 24 24 24 24 24 24 24 24 24 24 
24 24 24 24 24 24 24 24 24 24 7 7 7 7 7 7 7 
7 7 7 7 13 13 13 13 13 13 13 13 13 13 13 16 16 
16 16 16 16 16 16 16 16 16 16 16 16 14 14 14 14 14 
14 14 14 14 14 14 14 14 14 14 14 14 14 14 14 11 11 
11 11 11 11 11 11 11 11 11 11 11 11 3 3 3 3 3 
3 3 3 3 3 3 3 3 3 3 3 3 3 3 3 3 3 
15 15 15 15 15 15 15 15 15 15 15 15 15 15 15 15 15 
15 15 24 24 24 24 24 24 24 24 24 24 24 24 24 24 24 
24 24 24 24 24 24 24 24 24 24 24 24 24 24 24 24 24 
24 7 7 7 7 7 7 7 7 7 7 7 7 8 13 13 13 
13 13 13 13 13 13 13 13 16 16 16 16 16 16 16 16 16 
16 16 16 16 14 14 14 14 14 14 14 14 14 14 14 14 14 
14 14 14 14 14 14 14 11 11 11 11 11 11 11 11 11 11 
11 11 11 11 11 11 11 11 11 11 3 3 3 3 3 3 3 
3 3 3 3 3 3 3 3 3 3 15 15 15 15 15 15 15 
15 15 15 15 15 15 15 15 15 15 15 24 24 24 24 24 24 
24 24 24 24 24 24 24 24 24 24 24 24 24 24 24 24 24 
24 24 24 24 24 24 24 24 24 7 7 7 7 7 7 7 7 
7 7 7 7 7 7 8 8 13 13 13 13 13 13 13 13 13 
13 13 16 16 16 16 16 16 16 16 16 16 14 14 14 14 14 
14 14 14 14 14 14 14 14 14 14 14 14 14 14 14 14 11 
11 11 11 11 11 11 11 11 11 11 11 11 11 11 11 11 11 
11 11 11 11 11 11 11 11 3 3 3 3 3 3 3 3 3 
3 3 15 15 15 15 15 15 15 15 15 15 15 15 15 15 15 
15 15 15 24 24 24 24 24 24 24 24 24 24 24 24 24 24 
24 24 24 24 24 24 24 24 24 24 24 24 24 24 24 24 24 
24 7 7 7 7 7 7 7 7 7 7 7 7 7 7 8 8 
8 13 13 13 13 13 13 13 13 13 13 13 16 16 16 16 16 
16 16 16 14 14 14 14 14 14 14 14 14 14 14 14 14 14 
14 14 14 14 14 14 14 14 11 11 11 11 11 11 11 11 11 
11 11 11 11 11 11 11 11 11 11 11 11 11 11 11 11 11 
11 11 11 11 11 11 3 3 3 3 3 3 15 15 15 15 15 
15 15 15 15 15 15 15 15 15 15 15 15 24 24 24 24 24 
24 24 24 24 24 24 24 24 24 24 24 24 24 24 24 24 24 
24 24 24 24 24 24 24 24 24 7 7 7 7 7 7 7 7 
7 7 7 7 7 7 7 7 8 8 8 8 13 13 13 13 13 
13 13 13 13 13 13 16 16 16 16 16 16 14 14 14 14 14 
14 14 14 14 14 14 14 14 14 14 14 14 14 14 14 14 14 
11 11 11 11 11 11 11 11 11 11 11 11 11 11 11 11 11 
11 11 11 11 11 11 11 11 11 11 11 11 11 11 11 11 11 
11 11 11 11 15 15 15 15 15 15 15 15 15 15 15 15 15 
15 15 15 15 24 24 24 24 24 24 24 24 24 24 24 24 24 
24 24 24 24 24 24 24 24 24 24 24 24 24 24 24 24 24 
7 7 7 7 7 7 7 7 7 7 7 7 7 7 7 7 7 
8 8 8 8 8 13 13 13 13 13 13 13 13 13 13 18 18 
18 18 18 18 14 14 14 14 14 14 14 14 14 14 14 14 14 
14 14 14 14 14 14 14 14 14 11 11 11 11 11 11 11 11 
11 11 11 11 11 11 11 11 11 11 11 11 11 11 11 11 11 
11 11 11 11 11 11 11 11 11 11 11 11 11 11 15 15 15 
15 15 15 15 15 15 15 15 15 15 15 15 15 21 21 24 24 
24 24 24 24 24 24 24 24 24 24 24 24 24 24 24 24 24 
24 24 24 24 24 24 24 24 7 7 7 7 7 7 7 7 7 
7 7 7 7 7 7 7 7 7 7 8 8 8 8 8 8 13 
13 13 13 13 13 13 13 13 18 18 18 18 18 14 14 14 14 
14 14 14 14 14 14 14 14 14 14 14 14 14 14 14 14 14 
14 11 11 11 11 11 11 11 11 11 11 11 11 11 11 11 11 
11 11 11 11 11 11 11 11 11 11 11 11 11 11 11 11 11 
11 11 11 11 11 11 11 11 15 15 15 15 15 15 15 15 15 
15 15 15 15 21 21 21 21 21 21 24 24 24 24 24 24 24 
24 24 24 24 24 24 24 24 24 24 24 24 24 24 24 24 7 
7 7 7 7 7 7 7 7 7 7 7 7 7 7 7 7 7 
7 7 8 8 8 8 8 8 8 13 13 13 13 13 13 13 13 
18 18 18 18 18 14 14 14 14 14 14 14 14 14 14 14 14 
14 14 14 14 14 14 14 14 14 14 11 11 11 11 11 11 11 
11 11 11 11 11 11 11 11 11 11 11 11 11 11 11 11 11 
11 11 11 11 11 11 11 11 11 11 11 11 11 11 11 10 10 
10 10 10 15 15 15 15 15 15 15 15 15 21 21 21 21 21 
21 21 21 21 21 21 24 24 24 24 24 24 24 24 24 24 24 
24 24 24 24 24 1 1 1 7 7 7 7 7 7 7 7 7 
7 7 7 7 7 7 7 7 7 7 7 7 8 8 8 8 8 
8 8 13 13 13 13 13 13 13 18 18 18 18 18 14 14 14 
14 14 14 14 14 14 14 14 14 14 14 14 14 14 14 14 14 
14 14 11 11 11 11 11 11 11 11 11 11 11 11 11 11 11 
11 11 11 11 11 11 11 11 11 11 11 11 11 11 11 11 11 
11 11 11 11 11 10 10 10 10 10 10 10 10 10 10 10 15 
15 15 21 21 21 21 21 21 21 21 21 21 21 21 21 21 21 
5 5 5 5 5 5 5 5 5 5 5 5 5 1 1 1 1 
7 7 7 7 7 7 7 7 7 7 7 7 7 7 7 7 7 
7 7 7 7 8 8 8 8 8 8 8 8 8 13 13 13 13 
13 13 18 18 18 19 19 19 19 19 19 19 19 19 19 19 19 
19 19 19 19 19 19 19 19 19 19 19 11 11 11 11 11 11 
11 11 11 11 11 11 11 11 11 11 11 11 11 11 11 11 11 
11 11 11 11 11 11 11 11 11 11 11 10 10 10 10 10 10 
10 10 10 10 10 10 10 10 10 10 10 21 21 21 21 21 21 
21 21 21 21 21 21 21 21 21 5 5 5 5 5 5 5 5 
5 5 5 5 1 1 1 1 1 1 7 7 7 7 7 7 7 
7 7 7 7 7 7 7 7 7 7 7 7 7 8 8 8 8 
8 8 8 8 8 8 13 13 17 17 17 17 17 17 19 19 19 
19 19 19 19 19 19 19 19 19 19 19 19 19 19 19 19 19 
19 19 19 11 11 11 11 11 11 11 11 11 11 11 11 11 11 
11 11 11 11 11 11 11 11 11 11 11 11 11 11 11 11 11 
11 10 10 10 10 10 10 10 10 10 10 10 10 10 10 10 10 
10 10 21 21 21 21 21 21 21 21 21 21 21 21 21 21 21 
21 5 5 5 5 5 5 5 5 5 5 5 5 1 1 1 1 
1 1 7 7 7 7 7 7 7 7 7 7 7 7 7 7 7 
7 7 7 7 7 7 8 8 8 8 8 8 8 8 8 8 17 
17 17 17 17 17 17 19 19 19 19 19 19 19 19 19 19 19 
19 19 19 19 19 19 19 19 19 19 19 19 11 11 11 11 11 
11 11 11 11 11 11 11 11 11 11 11 11 11 11 11 11 11 
11 11 11 11 11 11 11 11 10 10 10 10 10 10 10 10 10 
10 10 10 10 10 10 10 10 10 10 10 21 21 21 21 21 21 
21 21 21 21 21 21 21 21 21 21 5 5 5 5 5 5 5 
5 5 5 5 5 1 1 1 1 1 1 1 7 7 7 7 7 
7 7 7 7 7 7 7 7 7 7 7 7 7 7 7 8 8 
8 8 8 8 8 8 8 8 17 17 17 17 17 17 17 19 19 
19 19 19 19 19 19 19 19 19 19 19 19 19 19 19 19 19 
19 19 19 19 11 11 11 11 11 11 11 11 11 11 11 11 11 
11 11 11 11 11 11 11 11 11 11 11 11 11 11 10 10 10 
10 10 10 10 10 10 10 10 10 10 10 10 10 10 10 10 10 
10 10 21 21 21 21 21 21 21 21 21 21 21 21 21 21 21 
21 21 5 5 5 5 5 5 5 5 5 5 5 1 1 1 1 
1 1 1 1 7 7 7 7 7 7 7 7 7 7 7 7 7 
7 7 7 7 7 7 7 7 8 8 8 8 8 8 8 8 8 
8 17 17 17 17 17 17 19 19 19 19 19 19 19 19 19 19 
19 19 19 19 19 19 19 19 19 19 19 19 19 11 11 11 11 
11 11 11 11 11 11 11 11 11 11 11 11 11 11 11 11 11 
11 11 11 11 10 10 10 10 10 10 10 10 10 10 10 10 10 
10 10 10 10 10 10 10 10 10 10 10 21 21 21 21 21 21 
21 21 21 21 21 21 21 21 21 21 21 5 5 5 5 5 5 
5 5 5 5 5 1 1 1 1 1 1 1 1 7 7 7 7 
7 7 7 7 7 7 7 7 7 7 7 7 7 7 7 7 7 
8 8 8 8 8 8 8 8 8 8 17 17 17 17 17 17 19 
19 19 19 19 19 19 19 19 19 19 19 19 19 19 19 19 19 
19 19 19 19 19 11 11 11 11 11 11 11 11 11 11 11 11 
11 11 11 11 11 11 11 11 11 11 11 10 10 10 10 10 10 
10 10 10 10 10 10 10 10 10 10 10 10 10 10 10 10 10 
10 4 4 21 21 21 21 21 21 21 21 21 21 21 21 21 21 
21 21 5 5 5 5 5 5 5 5 5 5 5 1 1 1 1 
1 1 1 1 1 1 7 7 7 7 7 7 7 7 7 7 7 
7 7 7 7 7 7 7 7 7 7 8 8 8 8 8 8 8 
8 8 17 17 17 17 17 17 19 19 19 19 19 19 19 19 19 
19 19 19 19 19 19 19 19 19 19 19 19 19 19 11 11 11 
11 11 11 11 11 11 11 11 11 11 11 11 11 11 11 11 11 
10 10 10 10 10 10 10 10 10 10 10 10 10 10 10 10 10 
10 10 10 10 10 10 10 10 4 4 4 4 21 21 21 21 21 
21 21 21 21 21 21 21 21 21 21 21 5 5 5 5 5 5 
5 5 5 5 5 1 1 1 1 1 1 1 1 1 1 7 7 
7 7 7 7 7 7 7 7 7 7 7 7 7 7 7 7 7 
7 7 8 8 8 8 8 8 8 8 8 17 17 17 17 17 17 
17 19 19 19 19 19 19 19 19 19 19 19 19 19 19 19 19 
19 19 19 19 19 19 11 11 11 11 11 11 11 11 11 11 11 
11 11 11 11 11 11 11 10 10 10 10 10 10 10 10 10 10 
10 10 10 10 10 10 10 10 10 10 10 10 10 10 10 4 4 
4 4 4 4 21 21 21 21 21 21 21 21 21 21 21 21 21 
21 21 21 5 5 5 5 5 5 5 5 5 5 5 1 1 1 
1 1 1 1 1 1 1 7 7 7 7 7 7 7 7 7 7 
7 7 7 7 7 7 7 7 7 7 7 7 8 8 8 8 8 
8 8 8 17 17 17 17 17 17 17 19 19 19 19 19 19 19 
19 19 19 19 19 19 19 19 19 19 19 19 19 19 19 11 11 
11 11 11 11 11 11 11 11 11 11 11 11 11 11 10 10 10 
10 10 10 10 10 10 10 10 10 10 10 10 10 10 10 10 10 
10 10 10 10 4 4 4 4 4 4 4 4 4 21 21 21 21 
21 21 21 21 21 21 21 21 21 21 21 21 5 5 5 5 5 
5 5 5 5 5 1 1 1 1 1 1 1 1 1 1 1 1 
7 7 7 7 7 7 7 7 7 7 7 7 7 7 7 7 7 
7 7 7 7 8 8 8 8 8 8 8 8 17 17 17 17 17 
17 17 19 19 19 19 19 19 19 19 19 19 19 19 19 19 19 
19 19 19 19 19 19 19 11 11 11 11 11 11 11 11 11 11 
11 11 11 10 10 10 10 10 10 10 10 10 10 10 10 10 10 
10 10 10 10 10 10 10 10 10 10 10 4 4 4 4 4 4 
4 4 4 4 4 21 21 21 21 21 21 21 21 21 21 21 21 
21 21 21 21 5 5 5 5 5 5 5 5 5 5 1 1 1 
1 1 1 1 1 1 1 1 1 7 7 7 7 7 7 7 7 
7 7 7 7 7 7 7 7 7 7 7 7 7 7 8 8 8 
8 8 8 8 8 17 17 17 17 17 17 19 19 19 19 19 19 
19 19 19 19 19 19 19 19 19 19 19 19 19 19 19 19 11 
11 11 11 11 11 11 11 11 11 11 10 10 10 10 10 10 10 
10 10 10 10 10 10 10 10 10 10 10 10 10 10 10 20 20 
20 20 20 4 4 4 4 4 4 4 4 4 4 4 21 21 21 
21 21 21 21 21 21 21 21 21 21 21 21 21 5 5 5 5 
5 5 5 5 5 1 1 1 1 1 1 1 1 1 1 1 1 
1 7 7 7 7 7 7 7 7 7 7 7 7 7 7 7 7 
7 7 7 7 7 7 8 8 8 8 8 8 8 8 17 17 17 
17 17 17 19 19 19 19 19 19 19 19 19 19 19 19 19 19 
19 19 19 19 19 19 19 19 11 11 11 11 11 11 11 11 11 
10 10 10 10 10 10 10 10 10 10 10 10 10 10 10 10 10 
10 20 20 20 20 20 20 20 20 20 20 20 4 4 4 4 4 
4 4 4 4 4 4 21 21 21 21 21 21 21 21 21 21 21 
21 21 21 21 21 5 5 5 5 5 5 5 5 5 1 1 1 
1 1 1 1 1 1 1 1 1 1 1 7 7 7 7 7 7 
7 7 7 7 7 7 7 7 7 7 7 7 7 7 7 8 8 
8 8 8 8 8 8 17 17 17 17 17 17 19 19 19 19 19 
19 19 19 19 19 19 19 19 19 19 19 19 19 19 19 19 19 
11 11 11 11 11 11 10 10 10 10 10 10 10 10 10 10 10 
10 10 10 10 10 20 20 20 20 20 20 20 20 20 20 20 20 
20 20 20 20 4 4 4 4 4 4 4 4 4 4 4 21 21 
21 21 21 21 21 21 21 21 21 21 21 21 21 21 5 5 5 
5 5 5 5 5 5 1 1 1 1 1 1 1 1 1 1 1 
1 1 1 7 7 7 7 7 7 7 7 7 7 7 7 7 7 
7 7 7 7 7 7 7 7 8 8 8 8 8 8 8 17 17 
17 17 17 17 17 19 19 19 19 19 19 19 19 19 19 19 19 
19 19 19 19 19 19 19 19 19 11 11 11 11 10 10 10 10 
10 10 10 10 10 10 10 10 20 20 20 20 20 20 20 20 20 
20 20 20 20 20 20 20 20 20 20 20 20 20 4 4 4 4 
4 4 4 4 4 4 4 21 21 21 21 21 21 21 21 21 21 
21 21 21 21 21 21 5 5 5 5 5 5 5 5 1 1 1 
1 1 1 1 1 1 1 1 1 1 1 1 7 7 7 7 7 
7 7 7 7 7 7 7 7 7 7 7 7 7 7 7 7 7 
8 8 8 8 8 8 8 17 17 17 17 17 17 17 19 19 19 
19 19 19 19 19 19 19 19 19 19 19 19 19 19 19 19 19 
19 11 11 10 10 10 10 10 10 10 10 10 20 20 20 20 20 
20 20 20 20 20 20 20 20 20 20 20 20 20 20 20 20 20 
20 20 20 20 20 4 4 4 4 4 4 4 4 4 4 4 21 
21 21 21 21 21 21 21 21 21 21 21 21 21 21 21 5 5 
5 5 5 5 5 5 1 1 1 1 1 1 1 1 1 1 1 
1 1 1 1 7 7 7 7 7 7 7 7 7 7 7 7 7 
7 7 7 7 7 7 7 7 7 7 8 8 8 8 8 8 17 
17 17 17 17 17 17 19 19 19 19 19 19 19 19 19 19 19 
19 19 19 19 19 19 19 19 19 19 10 10 10 10 10 20 20 
20 20 20 20 20 20 20 20 20 20 20 20 20 20 20 20 20 
20 20 20 20 20 20 20 20 20 20 20 20 20 20 4 4 4 
4 4 4 4 4 4 4 4 4 21 21 21 21 21 21 21 21 
21 21 21 21 21 21 5 5 5 5 5 5 5 5 1 1 1 
1 1 1 1 1 1 1 1 1 1 1 1 1 1 7 7 7 
7 7 7 7 7 7 7 7 7 7 7 7 7 7 7 7 7 
7 7 8 8 8 8 8 8 8 17 17 17 17 17 17 19 19 
19 19 19 19 19 19 19 19 19 19 19 19 19 19 19 19 19 
19 19 20 20 20 20 20 20 20 20 20 20 20 20 20 20 20 
20 20 20 20 20 20 20 20 20 20 20 20 20 20 20 20 20 
20 20 20 20 20 20 4 4 4 4 4 4 4 4 4 4 4 
4 21 21 21 21 21 21 21 21 21 21 21 21 21 6 6 5 
5 5 5 5 5 5 1 1 1 1 1 1 1 1 1 1 1 
1 1 1 1 1 1 7 7 7 7 7 7 7 7 7 7 7 
7 7 7 7 7 7 7 7 7 7 7 7 8 8 8 8 8 
8 17 17 17 17 17 17 19 19 19 19 19 19 19 19 19 19 
19 19 19 19 19 19 19 19 19 19 19 20 20 20 20 20 20 
20 20 20 20 20 20 20 20 20 20 20 20 20 20 20 20 20 
20 20 20 20 20 20 20 20 20 20 20 20 20 20 20 4 4 
4 4 4 4 4 4 4 4 4 4 21 21 21 21 21 21 21 
21 21 21 21 21 6 6 6 6 5 5 5 5 5 5 1 1 
1 1 1 1 1 1 1 1 1 1 1 1 1 1 1 7 7 
7 7 7 7 7 7 7 7 7 7 7 7 7 7 7 7 7 
7 7 7 7 8 8 8 8 8 8 17 17 17 17 17 17 19 
19 19 19 19 19 19 19 19 19 19 19 19 19 19 19 19 19 
19 19 19 20 20 20 20 20 20 20 20 20 20 20 20 20 20 
20 20 20 20 20 20 20 20 20 20 20 20 20 20 20 20 20 
20 20 20 20 20 20 20 4 4 4 4 4 4 4 4 4 4 
4 4 21 21 21 21 21 21 21 21 21 21 6 6 6 6 6 
6 6 5 5 5 5 1 1 1 1 1 1 1 1 1 1 1 
1 1 1 1 1 1 1 1 7 7 7 7 7 7 7 7 7 
7 7 7 7 7 7 7 7 7 7 7 7 7 7 8 8 8 
8 8 17 17 17 17 17 17 19 19 19 19 19 19 19 19 19 
19 19 19 19 19 19 19 19 19 19 19 19 20 20 20 20 20 
20 20 20 20 20 20 20 20 20 20 20 20 20 20 20 20 20 
20 20 20 20 20 20 20 20 20 20 20 20 20 20 20 20 4 
4 4 4 4 4 4 4 4 4 4 4 21 21 21 21 21 21 
9 9 9 6 6 6 6 6 6 6 6 6 5 5 5 1 1 
1 1 1 1 1 1 1 1 1 1 1 1 1 1 1 1 1 
7 7 7 7 7 7 7 7 7 7 7 7 7 7 7 7 7 
7 7 7 7 7 7 8 8 8 8 8 17 17 17 17 17 17 
17 19 19 19 19 19 19 19 19 19 19 19 19 19 19 19 19 
19 19 19 19 20 20 20 20 20 20 20 20 20 20 20 20 20 
20 20 20 20 20 20 20 20 20 20 20 20 20 20 20 20 20 
20 20 20 20 20 20 20 20 4 4 4 4 4 4 4 4 4 
4 4 4 9 9 9 9 9 9 9 9 9 9 6 6 6 6 
6 6 6 6 6 5 1 1 1 1 1 1 1 1 1 1 1 
1 1 1 1 1 1 1 1 1 7 7 7 7 7 7 7 7 
7 7 7 7 7 7 7 7 7 7 7 7 7 7 7 7 8 
8 8 8 17 17 17 17 17 17 17 19 19 19 19 19 19 19 
19 19 19 19 19 19 19 19 19 19 19 19 19 20 20 20 20 
20 20 20 20 20 20 20 20 20 20 20 20 20 20 20 20 20 
20 20 20 20 20 20 20 20 20 20 20 20 20 20 20 20 20 
4 4 4 4 4 4 4 4 4 4 23 9 9 9 9 9 9 
9 9 9 9 9 9 6 6 6 6 6 6 6 6 5 1 1 
1 1 1 1 1 1 1 1 1 1 1 1 1 1 1 1 1 
1 1 7 7 7 7 7 7 7 7 7 7 7 7 7 7 7 
7 7 7 7 7 7 7 7 8 8 8 8 8 17 17 17 17 
17 17 19 19 19 19 19 19 19 19 19 19 19 19 19 19 19 
19 19 19 19 19 20 20 20 20 20 20 20 20 20 20 20 20 
20 20 20 20 20 20 20 20 20 20 20 20 20 20 20 20 20 
20 20 20 20 20 20 20 20 20 4 4 4 23 23 23 23 23 
23 23 23 23 9 9 9 9 9 9 9 9 9 9 9 9 6 
6 6 6 6 6 6 6 1 1 1 1 1 1 1 1 1 1 
1 1 1 1 1 1 1 1 1 1 1 7 7 7 7 7 7 
7 7 7 7 7 7 7 7 7 7 7 7 7 7 7 7 7 
7 8 8 8 8 17 17 17 17 17 17 19 19 19 19 19 19 
19 19 19 19 19 19 19 19 19 19 19 19 19 19 20 20 20 
20 20 20 20 20 20 20 20 20 20 20 20 20 20 20 20 20 
20 20 20 20 20 20 20 20 20 20 20 20 20 20 20 20 23 
23 23 23 23 23 23 23 23 23 23 23 23 23 9 9 9 9 
9 9 9 9 9 9 9 9 9 6 6 6 6 6 6 6 1 
1 1 1 1 1 1 1 1 1 1 1 1 1 1 1 1 1 
1 1 1 7 7 7 7 7 7 7 7 7 7 7 7 7 7 
7 7 7 7 7 7 7 7 7 7 8 8 8 8 17 17 17 
17 17 17 19 19 19 19 19 19 19 19 19 19 19 19 19 19 
19 19 19 19 19 19 20 20 20 20 20 20 20 20 20 20 20 
20 20 20 20 20 20 20 20 20 20 20 20 20 20 20 20 20 
20 20 20 20 20 23 23 23 23 23 23 23 23 23 23 23 23 
23 23 23 23 23 9 9 9 9 9 9 9 9 9 9 9 9 
9 9 6 6 6 6 6 6 1 1 1 1 1 1 1 1 1 
1 1 1 1 1 1 1 1 1 1 1 1 1 7 7 7 7 
7 7 7 7 7 7 7 7 7 7 7 7 7 7 7 7 7 
7 7 8 8 8 8 17 17 17 17 17 17 19 19 19 19 19 
19 19 19 19 19 19 19 19 19 19 19 19 19 19 19 20 20 
20 20 20 20 20 20 20 20 20 20 20 20 20 20 20 20 20 
20 20 20 20 20 20 20 20 20 20 20 20 23 23 23 23 23 
23 23 23 23 23 23 23 23 23 23 23 23 23 23 23 9 9 
9 9 9 9 9 9 9 9 9 9 9 9 6 6 6 6 6 
6 1 1 1 1 1 1 1 1 1 1 1 1 1 1 1 1 
1 1 1 1 1 7 7 7 7 7 7 7 7 7 7 7 7 
7 7 7 7 7 7 7 7 7 7 7 7 8 8 8 17 17 
17 17 17 17 19 19 19 19 19 19 19 19 19 19 19 19 19 
19 19 19 19 19 19 19 20 20 20 20 20 20 20 20 20 20 
20 20 20 20 20 20 20 20 20 20 20 20 20 20 20 20 20 
20 23 23 23 23 23 23 23 23 23 23 23 23 23 23 23 23 
23 23 23 23 23 23 23 9 9 9 9 9 9 9 9 9 9 
9 9 9 9 9 6 6 6 6 6 1 1 1 1 1 1 1 
1 1 1 1 1 1 1 1 1 1 1 1 1 1 7 7 7 
7 7 7 7 7 7 7 7 7 7 7 7 7 7 7 7 7 
7 7 7 7 8 8 8 17 17 17 17 17 17 17 19 19 19 
19 19 19 19 19 19 19 19 19 19 19 19 19 19 19 19 20 
20 20 20 20 20 20 20 20 20 20 20 20 20 20 20 20 20 
20 20 20 20 20 20 20 23 23 23 23 23 23 23 23 23 23 
23 23 23 23 23 23 23 23 23 23 23 23 23 23 23 23 9 
9 9 9 9 9 9 9 9 9 9 9 9 9 9 9 6 6 
6 6 1 1 1 1 1 1 1 1 1 1 1 1 1 1 1 
1 1 1 1 1 1 1 7 7 7 7 7 7 7 7 7 7 
7 7 7 7 7 7 7 7 7 7 7 7 7 7 8 8 8 
17 17 17 17 17 17 19 19 19 19 19 19 19 19 19 19 19 
19 19 19 19 19 19 19 19 20 20 20 20 20 20 20 20 20 
20 20 20 20 20 20 20 20 20 20 20 20 20 23 23 23 23 
23 23 23 23 23 23 23 23 23 23 23 23 23 23 23 23 23 
23 23 23 23 23 23 23 23 23 9 9 9 9 9 9 9 9 
9 9 9 9 9 9 9 9 6 6 6 6 1 1 1 1 1 
1 1 1 1 1 1 1 1 1 1 1 1 1 1 1 1 7 
7 7 7 7 7 7 7 7 7 7 7 7 7 7 7 7 7 
7 7 7 7 7 7 8 8 8 17 17 17 17 17 17 19 19 
19 19 19 19 19 19 19 19 19 19 19 19 19 19 19 19 19 
20 20 20 20 20 20 20 20 20 20 20 20 20 20 20 20 20 
20 20 23 23 23 23 23 23 23 23 23 23 23 23 23 23 23 
23 23 23 23 23 23 23 23 23 23 23 23 23 23 23 23 23 
23 9 9 9 9 9 9 9 9 9 9 9 9 9 9 9 9 
9 6 6 6 1 1 1 1 1 1 1 1 1 1 1 1 1 
1 1 1 1 1 1 1 1 1 7 7 7 7 7 7 7 7 
7 7 7 7 7 7 7 7 7 7 7 7 7 7 7 7 8 
8 17 17 17 17 17 17 19 19 19 19 19 19 19 19 19 19 
19 19 19 19 19 19 19 19 19 20 20 20 20 20 20 20 20 
20 20 20 20 20 20 20 20 20 23 23 23 23 23 23 23 23 
23 23 23 23 23 23 23 23 23 23 23 23 23 23 23 23 23 
23 23 23 23 23 23 23 23 23 23 9 9 9 9 9 9 9 
9 9 9 9 9 9 9 9 9 9 9 6 6 1 1 1 1 
1 1 1 1 1 1 1 1 1 1 1 1 1 1 1 1 1 
1 7 7 7 7 7 7 7 7 7 7 7 7 7 7 7 7 
7 7 7 7 7 7 7 7 8 8 17 17 17 17 17 17 19 
19 19 19 19 19 19 19 19 19 19 19 19 19 19 19 19 19 
19 20 20 20 20 20 20 20 20 20 20 20 20 20 20 22 22 
22 23 23 23 23 23 23 23 23 23 23 23 23 23 23 23 23 
23 23 23 23 23 23 23 23 23 23 23 23 23 23 23 23 23 
23 23 23 9 9 9 9 9 9 9 9 9 9 9 9 9 9 
9 9 9 9 6 1 1 1 1 1 1 1 1 1 1 1 1 
1 1 1 1 1 1 1 1 1 1 7 7 7 7 7 7 7 
7 7 7 7 7 7 7 7 7 7 7 7 7 7 7 7 7 
7 8 17 17 17 17 17 17 19 19 19 19 19 19 19 19 19 
19 19 19 19 19 19 19 19 19 19 20 20 20 20 20 20 20 
20 20 20 22 22 22 22 22 22 22 22 22 22 22 22 22 22 
22 22 22 22 22 22 22 22 22 22 22 22 22 22 22 22 22 
22 22 22 22 22 22 22 22 22 22 22 22 9 9 9 9 9 
9 9 9 9 9 9 9 9 9 9 9 9 9 9 6 1 1 
1 1 1 1 1 1 1 1 1 1 1 1 1 1 1 1 1 
1 1 1 7 7 7 7 7 7 7 7 7 7 7 7 7 7 
7 7 7 7 7 7 7 7 7 7 8 17 17 17 17 17 17 
19 19 19 19 19 19 19 19 19 19 19 19 19 19 19 19 19 
19 19 20 20 20 20 20 20 20 22 22 22 22 22 22 22 22 
22 22 22 22 22 22 22 22 22 22 22 22 22 22 22 22 22 
22 22 22 22 22 22 22 22 22 22 22 22 22 22 22 22 22 
22 22 22 22 22 9 9 9 9 9 9 9 9 9 9 9 9 
9 9 9 9 9 9 9 1 1 1 1 1 1 1 1 1 1 
1 1 1 1 1 1 1 1 1 1 1 1 7 7 7 7 7 
7 7 7 7 7 7 7 7 7 7 7 7 7 7 7 7 7 
7 7 7 8 17 17 17 17 17 17 19 19 19 19 19 19 19 
19 19 19 19 19 19 19 19 19 19 19 20 20 20 22 22 22 
22 22 22 22 22 22 22 22 22 22 22 22 22 22 22 22 22 
22 22 22 22 22 22 22 22 22 22 22 22 22 22 22 22 22 
22 22 22 22 22 22 22 22 22 22 22 22 22 22 9 9 9 
9 9 9 9 9 9 9 9 9 9 9 9 9 9 9 9 9 
1 1 1 1 1 1 1 1 1 1 1 1 1 1 1 1 1 
1 1 1 1 7 7 7 7 7 7 7 7 7 7 7 7 7 
7 7 7 7 7 7 7 7 7 7 7 7 8 17 17 17 17 
17 17 19 19 19 19 19 19 19 19 19 19 19 19 19 19 19 
19 19 19 22 22 22 22 22 22 22 22 22 22 22 22 22 22 
22 22 22 22 22 22 22 22 22 22 22 22 22 22 22 22 22 
22 22 22 22 22 22 22 22 22 22 22 22 22 22 22 22 22 
22 22 22 22 22 22 22 9 9 9 9 9 9 9 9 9 9 
9 9 9 9 9 9 9 9 9 1 1 1 1 1 1 1 1 
1 1 1 1 1 1 1 1 1 1 1 1 1 1 7 7 7 
7 7 7 7 7 7 7 7 7 7 7 7 7 7 7 7 7 
7 7 7 7 8 17 17 17 17 17 17 19 19 19 19 19 19 
19 19 19 19 19 19 19 19 19 19 19 19 22 22 22 22 22 
22 22 22 22 22 22 22 22 22 22 22 22 22 22 22 22 22 
22 22 22 22 22 22 22 22 22 22 22 22 22 22 22 22 22 
22 22 22 22 22 22 22 22 22 22 22 22 22 22 22 22 9 
9 9 9 9 9 9 9 9 9 9 9 9 9 9 9 9 9 
9 1 1 1 1 1 1 1 1 1 1 1 1 1 1 1 1 
1 1 1 1 1 1 7 7 7 7 7 7 7 7 7 7 7 
7 7 7 7 7 7 7 7 7 7 7 7 7 7 17 17 17 
17 17 17 19 19 19 19 19 19 19 19 19 19 19 19 19 19 
19 19 19 19 22 22 22 22 22 22 22 22 22 22 22 22 22 
22 22 22 22 22 22 22 22 22 22 22 22 22 22 22 22 22 
22 22 22 22 22 22 22 22 22 22 22 22 22 22 22 22 22 
22 22 22 22 22 22 22 22 22 9 9 9 9 9 9 9 9 
9 9 9 9 9 9 9 9 9 9 9 1 1 1 1 1 1 
1 1 1 1 1 1 1 1 1 1 1 1 1 1 1 7 7 
7 7 7 7 7 7 7 7 7 7 7 7 7 7 7 7 7 
7 7 7 7 7 7 17 17 17 17 17 17 19 19 19 19 19 
19 19 19 19 19 19 19 19 19 19 19 19 19 22 22 22 22 
22 22 22 22 22 22 22 22 22 22 22 22 22 22 22 22 22 
22 22 22 22 22 22 22 22 22 22 22 22 22 22 22 22 22 
22 22 22 22 22 22 22 22 22 22 22 22 22 22 22 22 22 
22 9 9 9 9 9 9 9 9 9 9 9 9 9 9 9 9 
9 9 9 1 1 1 1 1 1 1 1 1 1 1 1 1 1 
1 1 1 1 1 1 1 1 7 7 7 7 7 7 7 7 7 
7 7 7 7 7 7 7 7 7 7 7 7 7 7 7 7 17 
17 17 17 17 19 19 19 19 19 19 19 19 19 19 19 19 19 
19 19 19 19 19 22 22 22 22 22 22 22 22 22 22 22 22 
22 22 22 22 22 22 22 22 22 22 22 22 22 22 22 22 22 
22 22 22 22 22 22 22 22 22 22 22 22 22 22 22 22 22 
22 22 22 22 22 22 22 22 22 22 22 9 9 9 9 9 9 
9 9 9 9 9 9 9 9 9 9 9 9 9 1 1 1 1 
1 1 1 1 1 1 1 1 1 1 1 1 1 1 1 1 1 
7 7 7 7 7 7 7 7 7 7 7 7 7 7 7 7 7 
7 7 7 7 7 7 7 7 17 17 17 17 17 19 19 19 19 
19 19 19 19 19 19 19 19 19 19 19 19 19 19 22 22 22 
22 22 22 22 22 22 22 22 22 22 22 22 22 22 22 22 22 
22 22 22 22 22 22 22 22 22 22 22 22 22 22 22 22 22 
22 22 22 22 22 22 22 22 22 22 22 22 22 22 22 22 22 
22 22 22 9 9 9 9 9 9 9 9 9 9 9 9 9 9 
9 9 9 9 9 1 1 1 1 1 1 1 1 1 1 1 1 
1 1 1 1 1 1 1 1 1 7 7 7 7 7 7 7 7 
7 7 7 7 7 7 7 7 7 7 7 7 7 7 7 7 7 
17 17 17 17 17 17 19 19 19 19 19 19 19 19 19 19 19 
19 19 19 19 19 19 22 22 22 22 22 22 22 22 22 22 22 
22 22 22 22 22 22 22 22 22 22 22 22 22 22 22 22 22 
22 22 22 22 22 22 22 22 22 22 22 22 22 22 22 22 22 
22 22 22 22 22 22 22 22 22 22 22 22 22 9 9 9 9 
9 9 9 9 9 9 9 9 9 9 9 9 9 9 9 1 1 
1 1 1 1 1 1 1 1 1 1 1 1 1 1 1 1 1 
1 1 7 7 7 7 7 7 7 7 7 7 7 7 7 7 7 
7 7 7 7 7 7 7 7 7 7 17 17 17 17 17 19 19 
19 19 19 19 19 19 19 19 19 19 19 19 19 19 19 22 22 
22 22 22 22 22 22 22 22 22 22 22 22 22 22 22 22 22 
22 22 22 22 22 22 22 22 22 22 22 22 22 22 22 22 22 
22 22 22 22 22 22 22 22 22 22 22 22 22 22 22 22 22 
22 22 22 22 22 9 9 9 9 9 9 9 9 9 9 9 9 
9 9 9 9 9 9 9 1 1 1 1 1 1 1 1 1 1 
1 1 1 1 1 1 1 1 1 1 1 7 7 7 7 7 7 
7 7 7 7 7 7 7 7 7 7 7 7 7 7 7 7 7 
7 7 17 17 17 17 17 19 19 19 19 19 19 19 19 19 19 
19 19 19 19 19 19 19 22 22 22 22 22 22 22 22 22 22 
22 22 22 22 22 22 22 22 22 22 22 22 22 22 22 22 22 
22 22 22 22 22 22 22 22 22 22 22 22 22 22 22 22 22 
22 22 22 22 22 22 22 22 22 22 22 22 22 22 22 9 9 
9 9 9 9 9 9 9 9 9 9 9 9 9 9 9 9 1 
1 1 1 1 1 1 1 1 1 1 1 1 1 1 1 1 1 
1 1 1 7 7 7 7 7 7 7 7 7 7 7 7 7 7 
7 7 7 7 7 7 7 7 7 7 7 17 17 17 17 17 19 
19 19 19 19 19 19 19 19 19 19 19 19 19 19 19 19 22 
22 22 22 22 22 22 22 22 22 22 22 22 22 22 22 22 22 
22 22 22 22 22 22 22 22 22 22 22 22 22 22 22 22 22 
22 22 22 22 22 22 22 22 22 22 22 22 22 22 22 22 22 
22 22 22 22 22 22 22 9 9 9 9 9 9 9 9 9 9 
9 9 9 9 9 9 9 9 9 1 1 1 1 1 1 1 1 
1 1 1 1 1 1 1 1 1 1 1 1 1 7 7 7 7 
7 7 7 7 7 7 7 7 7 7 7 7 7 7 7 7 7 
7 7 7 7 17 17 17 17 19 19 19 19 19 19 19 19 19 
19 19 19 19 19 19 19 19 22 22 22 22 22 22 22 22 22 
22 22 22 22 22 22 22 22 22 22 22 22 22 22 22 22 22 
22 22 22 22 22 22 22 22 22 22 22 22 22 22 22 22 22 
22 22 22 22 22 22 22 22 22 22 22 22 22 22 22 22 22 
9 9 9 9 9 9 9 9 9 9 9 9 9 9 9 9 9 
9 1 1 1 1 1 1 1 1 1 1 1 1 1 1 1 1 
1 1 1 1 1 7 7 7 7 7 7 7 7 7 7 7 7 
7 7 7 7 7 7 7 7 7 7 7 7 7 17 17 17 17 
19 19 19 19 19 19 19 19 19 19 19 19 19 19 19 19 19 
22 22 22 22 22 22 22 22 22 22 22 22 22 22 22 22 22 
22 22 22 22 22 22 22 22 22 22 22 22 22 22 22 22 22 
22 22 22 22 22 22 22 22 22 22 22 22 22 22 22 22 22 
22 22 22 22 22 22 22 22 22 9 9 9 9 9 9 9 9 
9 9 9 9 9 9 9 9 9 9 9 1 1 1 1 1 1 
1 1 1 1 1 1 1 1 1 1 1 1 1 1 7 7 7 
7 7 7 7 7 7 7 7 7 7 7 7 7 7 7 7 7 
7 7 7 7 7 17 17 17 17 19 19 19 19 19 19 19 19 
19 19 19 19 19 19 19 19 19 22 22 22 22 22 22 22 22 
22 22 22 22 22 22 22 22 22 22 22 22 22 22 22 22 22 
22 22 22 22 22 22 22 22 22 22 22 22 22 22 22 22 22 
22 22 22 22 22 22 22 22 22 22 22 22 22 22 22 22 22 
22 22 9 9 9 9 9 9 9 9 9 9 9 9 9 9 9 
9 9 9 1 1 1 1 1 1 1 1 1 1 1 1 1 1 
1 1 1 1 1 1 1 7 7 7 7 7 7 7 7 7 7 
7 7 7 7 7 7 7 7 7 7 7 7 7 7 7 17 17 
17 17 19 19 19 19 19 19 19 19 19 19 19 19 19 19 19 
19 22 22 22 22 22 22 22 22 22 22 22 22 22 22 22 22 
22 22 22 22 22 22 22 22 22 22 22 22 22 22 22 22 22 
22 22 22 22 22 22 22 22 22 22 22 22 22 22 22 22 22 
22 22 22 22 22 22 22 22 22 22 22 22 9 9 9 9 9 
9 9 9 9 9 9 9 9 9 9 9 9 9 1 1 1 1 
1 1 1 1 1 1 1 1 1 1 1 1 1 1 1 1 7 
7 7 7 7 7 7 7 7 7 7 7 7 7 7 7 7 7 
7 7 7 7 7 7 7 17 17 17 17 19 19 19 19 19 19 
19 19 19 19 19 19 19 19 19 19 22 22 22 22 22 22 22 
22 22 22 22 22 22 22 22 22 22 22 22 22 22 22 22 22 
22 22 22 22 22 22 22 22 22 22 22 22 22 22 22 22 22 
22 22 22 22 22 22 22 22 22 22 22 22 22 22 22 22 22 
22 22 22 22 9 9 9 9 9 9 9 9 9 9 9 9 9 
9 9 9 9 9 1 1 1 1 1 1 1 1 1 1 1 1 
1 1 1 1 1 1 1 1 7 7 7 7 7 7 7 7 7 
7 7 7 7 7 7 7 7 7 7 7 7 7 7 7 7 7 
17 17 17 19 19 19 19 19 19 19 19 19 19 19 19 19 19 
19 19 22 22 22 22 22 22 22 22 22 22 22 22 22 22 22 
22 22 22 22 22 22 22 22 22 22 22 22 22 22 22 22 22 
22 22 22 22 22 22 22 22 22 22 22 22 22 22 22 22 22 
22 22 22 22 22 22 22 22 22 22 22 22 22 22 9 9 9 
9 9 9 9 9 9 9 9 9 9 9 9 9 9 1 1 1 
1 1 1 1 1 1 1 1 1 1 1 1 1 1 1 1 1 
1 7 7 7 7 7 7 7 7 7 7 7 7 7 7 7 7 
7 7 7 7 7 7 7 7 7 17 17 17 19 19 19 19 19 
19 19 19 19 19 19 19 19 19 19 19 22 22 22 22 22 22 
22 22 22 22 22 22 22 22 22 22 22 22 22 22 22 22 22 
22 22 22 22 22 22 22 22 22 22 22 22 22 22 22 22 22 
22 22 22 22 22 22 22 22 22 22 22 22 22 22 22 22 22 
22 22 22 22 22 22 9 9 9 9 9 9 9 9 9 9 9 
9 9 9 9 9 9 9 1 1 1 1 1 1 1 1 1 1 
1 1 1 1 1 1 1 1 1 1 7 7 7 7 7 7 7 
7 7 7 7 7 7 7 7 7 7 7 7 7 7 7 7 7 
7 17 17 17 19 19 19 19 19 19 19 19 19 19 19 19 19 
19 19 19 22 22 22 22 22 22 22 22 22 22 22 22 22 22 
22 22 22 22 22 22 22 22 22 22 22 22 22 22 22 22 22 
22 22 22 22 22 22 22 22 22 22 22 22 22 22 22 22 22 
22 22 22 22 22 22 22 22 22 22 22 22 22 22 22 22 9 
9 9 9 9 9 9 9 9 9 9 9 9 9 9 9 9 1 
1 1 1 1 1 1 1 1 1 1 1 1 1 1 1 1 1 
1 1 7 7 7 7 7 7 7 7 7 7 7 7 7 7 7 
7 7 7 7 7 7 7 7 7 7 7 17 17 19 19 19 19 
19 19 19 19 19 19 19 19 19 19 19 19 