P2
40 30
152
112 112 112 112 112 112 112 112 112 112 139 139 139 139 116 75 75 
75 75 75 75 75 75 75 75 75 75 75 75 75 78 78 78 78 
78 78 78 78 78 78 112 112 112 112 112 112 112 112 112 112 139 
139 139 139 139 116 116 75 75 75 75 75 75 75 75 75 75 75 
78 78 78 78 78 78 78 78 78 78 78 78 112 112 112 112 112 
112 112 112 112 112 112 139 139 139 139 139 116 116 116 75 75 75 
75 75 75 75 78 78 78 78 78 78 78 78 78 78 78 78 78 
78 112 112 112 112 112 112 112 112 112 112 112 112 139 139 139 139 
139 116 116 116 76 76 76 76 76 78 78 78 78 78 78 78 78 
78 78 78 78 78 78 78 112 112 112 112 112 112 112 112 112 112 
112 112 112 139 139 139 139 139 116 116 116 116 76 76 78 78 78 
78 78 78 78 78 78 78 78 78 78 78 78 78 112 112 112 112 
112 112 112 112 112 112 112 112 112 112 139 139 139 139 139 116 116 
116 117 77 77 77 77 77 77 77 77 77 77 77 77 77 77 77 
77 77 112 112 112 112 112 112 112 112 112 112 112 112 112 112 112 
139 139 139 139 139 116 116 117 117 77 77 77 77 77 77 77 77 
77 77 77 77 77 77 77 147 112 112 112 112 112 112 112 112 112 
112 112 112 112 112 112 139 139 139 139 139 139 60 117 117 77 77 
77 77 77 77 77 77 77 77 77 77 147 147 147 147 112 112 112 
112 112 112 112 112 112 112 112 112 112 112 112 130 140 140 140 140 
140 60 141 141 141 141 77 77 77 77 77 77 77 147 147 147 147 
147 147 147 112 112 112 112 112 112 112 112 112 112 112 112 112 112 
112 130 130 79 115 115 115 58 141 141 141 141 141 77 77 147 147 
147 147 147 147 147 147 147 147 118 38 112 112 112 112 112 112 112 
112 112 112 112 112 112 112 130 130 79 79 79 115 59 59 59 141 
141 141 147 147 147 147 147 147 147 147 147 147 147 118 118 38 38 
41 112 112 112 112 112 112 112 112 112 112 112 112 130 130 79 79 
79 80 59 59 59 59 142 142 147 147 147 147 147 147 147 147 147 
147 118 118 118 38 38 38 41 53 53 112 112 112 112 112 112 112 
112 112 130 130 129 66 79 80 80 59 59 59 142 142 147 147 147 
147 147 147 147 147 121 121 118 118 118 38 38 38 38 41 41 53 
53 53 53 111 111 111 111 111 130 129 129 66 66 80 80 80 70 
142 142 142 147 147 147 147 147 147 147 121 121 118 118 118 118 38 
38 38 38 38 41 41 53 53 53 53 53 67 67 67 114 113 65 
66 66 97 71 71 70 70 142 142 147 147 147 147 147 121 121 121 
118 118 118 118 118 38 38 38 38 38 38 41 41 41 53 53 53 
53 105 105 114 68 65 65 97 97 71 71 70 70 142 142 147 147 
147 147 121 121 121 121 118 118 118 118 118 38 38 38 38 38 38 
38 41 41 41 53 53 53 53 105 51 68 83 131 97 97 71 71 
70 70 104 142 147 147 121 121 121 121 121 118 118 118 118 118 118 
38 38 38 38 38 38 38 38 41 41 41 41 53 53 52 52 52 
83 131 98 97 56 56 70 70 104 101 101 121 121 121 121 121 121 
118 118 118 118 118 118 38 38 38 38 38 38 38 38 38 41 41 
41 33 33 33 52 82 83 131 98 99 99 99 99 69 69 101 101 
121 121 121 121 121 118 118 118 118 118 118 118 40 40 40 38 38 
38 38 38 38 38 41 41 27 39 39 122 122 122 123 98 57 57 
57 144 69 69 87 87 96 121 121 121 118 118 118 118 118 118 118 
118 40 40 40 40 40 40 38 38 38 38 38 37 36 39 39 124 
124 123 123 145 57 57 144 144 74 102 87 87 96 96 121 121 118 
118 118 118 118 118 118 118 40 40 40 40 40 40 40 40 38 38 
38 37 28 30 30 124 124 123 145 145 133 133 144 146 146 103 137 
137 138 138 138 85 118 118 118 118 118 118 118 118 40 40 40 40 
40 40 40 40 40 40 32 32 31 34 34 127 127 127 128 128 133 
133 133 107 146 92 95 95 138 86 85 85 118 118 118 118 118 118 
118 118 40 40 40 40 40 40 40 40 40 40 29 32 31 35 50 
49 127 132 148 134 120 149 84 107 107 108 95 110 93 86 85 85 
63 73 118 118 118 118 118 118 25 25 25 25 25 25 25 25 25 
25 26 26 89 89 42 135 106 45 44 48 43 149 84 107 119 119 
109 110 93 152 64 63 63 73 143 143 143 143 143 143 25 25 25 
25 25 25 25 25 25 25 26 26 90 90 42 135 88 55 54 46 
43 151 62 126 125 125 109 109 152 152 64 100 72 73 143 143 143 
143 143 143 25 25 25 25 25 25 25 25 25 25 26 26 90 90 
11 10 12 136 5 47 150 151 62 126 126 125 125 109 152 152 100 
100 72 94 143 143 143 143 143 143 25 25 25 25 25 25 25 25 
25 25 26 90 90 11 11 10 2 1 4 47 150 151 62 126 126 
125 125 125 152 100 100 100 94 94 94 143 143 143 143 143 25 25 
25 25 25 25 25 25 25 25 26 24 24 24 24 24 2 1 4 
4 150 151 62 126 126 126 125 125 152 100 100 94 94 94 94 94 
143 143 143 143 25 25 25 25 25 25 25 25 25 25 24 24 24 
24 24 24 2 1 4 4 4 151 62 126 126 126 125 125 125 100 
100 94 94 94 94 94 94 143 143 143 