P2
37 28
130
0 0 0 0 0 0 0 0 0 0 0 0 0 0 0 0 0 
0 0 0 0 0 0 0 0 0 0 0 0 0 0 0 0 0 
0 0 0 0 0 0 0 0 0 0 0 0 0 0 0 0 0 
0 0 0 0 0 0 0 0 0 0 0 0 0 0 0 0 0 
0 0 0 0 0 0 0 0 0 0 0 0 0 0 0 0 0 
0 0 0 0 0 0 0 0 0 0 0 0 0 0 0 0 0 
0 0 0 0 0 0 0 0 0 0 0 0 0 0 0 0 0 
0 0 0 0 0 0 0 0 0 0 0 0 0 0 0 0 0 
0 0 0 0 0 0 0 0 0 0 0 0 0 0 0 0 0 
0 0 16 0 17 18 0 0 0 0 0 0 0 0 0 0 0 
0 0 0 0 0 0 0 0 0 0 0 0 0 0 0 0 77 
0 94 20 0 11 32 14 0 0 15 0 0 0 0 0 0 0 
0 0 0 0 0 0 0 0 0 0 0 0 0 0 0 0 0 
0 0 0 96 0 0 0 0 90 91 13 0 0 0 31 92 0 
93 0 0 0 0 0 0 0 0 0 0 0 0 0 0 0 0 
0 0 0 0 0 97 0 95 0 36 0 89 0 0 12 0 24 
0 0 0 29 0 0 0 0 0 0 0 80 0 105 0 0 57 
0 0 0 0 0 0 0 0 0 0 0 0 0 0 0 0 0 
0 0 5 44 26 0 0 0 129 0 107 0 0 0 0 106 0 
0 0 0 0 0 0 0 0 0 0 0 0 87 0 0 0 0 
0 0 0 0 0 0 45 23 0 27 0 0 0 0 0 0 0 
0 58 0 0 0 84 0 0 0 0 0 0 0 0 0 0 86 
0 0 0 0 0 0 0 0 0 22 0 0 0 0 0 0 0 
0 0 0 0 0 0 0 0 0 0 0 0 0 0 0 0 0 
0 0 0 0 0 0 62 109 0 0 0 40 72 0 0 127 0 
128 0 126 0 0 0 0 69 0 0 0 0 0 0 0 0 0 
0 0 0 0 0 0 2 0 0 0 0 0 0 0 0 39 0 
0 0 0 0 0 0 0 0 0 0 0 0 0 0 82 0 0 
0 0 0 0 0 0 0 0 6 0 0 0 0 0 0 0 0 
0 0 0 0 0 0 0 0 0 0 0 0 0 0 0 0 0 
0 0 0 0 0 0 0 0 0 0 0 0 0 0 0 108 0 
0 0 0 0 0 0 0 0 0 0 67 0 0 0 0 0 70 
0 0 0 0 0 0 0 0 0 0 0 0 0 0 0 0 0 
0 0 115 0 0 111 0 113 0 0 0 0 0 0 0 0 0 
0 0 71 0 0 0 83 0 0 0 0 0 0 0 0 0 0 
0 0 0 79 0 0 0 0 0 0 0 0 0 0 0 120 121 
0 0 0 118 0 0 0 0 0 4 0 0 0 0 0 0 0 
0 0 0 0 0 0 0 0 0 114 0 110 0 112 0 0 0 
0 0 66 0 0 0 119 0 3 0 0 0 51 0 0 0 0 
0 0 0 0 0 0 0 0 0 0 0 0 0 0 0 0 75 
0 0 0 0 0 0 0 0 116 0 0 0 0 0 0 50 9 
0 0 0 0 0 0 0 0 41 0 0 0 0 101 0 0 0 
0 0 0 104 0 0 0 0 117 0 0 0 0 0 0 0 0 
0 0 0 0 0 0 0 0 0 0 0 47 0 0 0 0 0 
0 0 0 0 0 0 0 0 0 103 0 0 0 0 0 0 0 
81 55 0 0 0 123 0 0 0 0 0 0 0 0 0 0 0 
0 98 102 130 0 0 0 0 0 76 43 0 0 0 0 65 0 
0 0 0 0 52 0 0 0 124 0 0 0 0 0 0 0 0 
0 0 0 0 0 0 59 0 0 0 0 85 74 48 0 0 0 
0 0 0 0 0 0 0 0 0 0 0 125 0 0 0 0 0 
0 0 0 0 0 0 0 0 0 0 0 0 0 0 0 0 0 
0 0 0 0 0 0 0 0 0 0 0 0 0 0 0 0 0 
0 0 0 0 0 0 0 0 0 0 0 0 0 0 0 0 0 
0 0 0 0 0 0 0 0 0 0 0 0 0 0 0 0 0 
0 0 0 0 0 0 0 0 0 0 0 0 0 0 0 0 0 
0 0 0 0 0 0 0 0 0 0 0 0 0 0 0 0 0 
0 0 0 0 0 0 0 0 0 0 0 0 0 0 0 0 0 
0 0 0 0 0 0 0 0 0 0 0 0 0 0 0 0 0 
0 0 0 0 0 0 0 0 0 0 0 0 0 0 0 0 0 
0 0 0 0 0 0 0 0 0 0 0 0 0 0 0 0 0 
0 0 0 0 0 0 0 0 0 0 0 0 0 0 0 0 