P2
5 5
12
0 0 0 0 0 0 10 0 0 0 0 0 0 0 0 0 0 
0 12 0 0 0 0 0 0 