P2
5 5
14
12 11 12 13 14 11 10 11 12 13 12 11 12 13 14 13 12 
13 12 13 14 13 14 13 14 