P2
37 28
274
269 250 233 208 185 164 145 128 113 100 89 80 73 61 50 37 26 
17 10 5 2 1 2 5 10 17 26 25 18 13 10 9 10 13 
18 25 34 244 225 208 193 170 149 130 113 98 85 74 65 58 52 
41 32 25 16 9 4 1 0 1 4 9 16 25 20 13 8 5 
4 5 8 13 20 29 221 202 185 170 157 136 117 100 85 72 61 
52 45 40 34 25 18 13 10 5 2 1 2 5 10 17 26 17 
10 5 2 1 2 5 10 17 26 200 181 164 149 136 125 106 89 
74 61 50 41 34 29 26 20 13 8 5 4 4 4 5 8 13 
20 25 16 9 4 1 0 1 4 9 16 25 181 162 145 130 117 
106 97 80 65 52 41 32 25 20 17 16 10 5 2 1 1 2 
5 10 17 25 26 17 10 5 2 1 2 5 10 17 26 164 145 
128 113 100 89 80 73 58 45 34 25 18 13 10 9 9 4 1 
0 0 1 4 9 16 25 29 20 13 8 5 4 5 8 13 20 
29 149 130 113 98 85 74 65 58 53 40 29 20 13 8 5 4 
5 5 2 1 0 1 4 9 16 25 34 25 18 13 10 9 10 
13 18 25 34 130 117 100 85 72 61 52 45 40 37 26 17 10 
5 2 1 2 5 4 2 1 2 5 10 17 26 34 29 25 20 
17 16 17 20 25 32 41 113 100 89 74 61 50 41 34 29 26 
25 16 9 4 1 0 1 2 1 1 0 1 4 9 16 25 25 
20 17 16 17 20 25 29 34 41 50 98 85 74 65 52 41 32 
25 20 17 16 16 10 5 2 1 2 1 0 1 1 2 5 10 
17 25 18 13 10 9 10 13 18 25 34 45 58 85 72 61 52 
45 34 25 18 13 10 9 9 9 8 5 4 5 2 1 2 4 
5 8 13 20 20 13 8 5 4 5 8 13 20 29 40 53 74 
61 50 41 34 29 20 13 8 5 4 4 4 5 8 9 8 5 
4 2 1 2 5 10 17 17 10 5 2 1 2 5 10 17 26 
37 50 65 52 41 32 25 20 17 10 5 2 1 1 1 2 5 
10 13 9 4 1 0 1 4 9 16 16 9 4 1 0 1 4 
9 16 25 36 49 58 45 34 25 18 13 10 9 4 1 0 0 
0 1 4 9 16 10 5 2 1 2 5 10 17 17 10 5 2 
1 2 5 10 17 26 37 50 53 40 29 20 13 8 5 4 5 
2 1 1 1 2 5 10 17 13 8 5 4 5 8 13 20 20 
13 8 5 4 5 8 13 20 29 40 53 50 37 26 17 10 5 
2 1 2 5 2 1 2 5 8 13 20 18 13 10 9 10 13 
18 25 25 18 13 10 9 10 13 18 25 34 45 58 49 36 25 
16 9 4 1 0 1 4 1 0 1 4 9 16 25 25 20 17 
16 17 20 25 32 32 25 20 17 16 17 20 25 32 41 52 65 
50 37 26 17 10 5 2 1 2 4 1 0 1 4 9 13 18 
25 29 26 25 26 29 34 41 41 34 29 26 25 26 29 34 41 
50 61 74 53 40 29 20 13 8 5 4 5 5 2 1 2 4 
5 8 13 20 29 37 36 37 40 45 52 52 45 40 37 36 37 
40 45 52 61 72 85 58 45 34 25 18 13 10 9 10 8 5 
4 2 1 2 5 10 17 26 37 49 50 53 58 65 65 58 53 
50 49 50 53 58 65 74 85 98 65 52 41 32 25 20 17 16 
17 13 9 4 1 0 1 4 9 16 25 36 49 64 68 73 80 
80 73 68 65 64 65 68 73 80 89 100 113 74 61 50 41 34 
29 26 25 25 17 10 5 2 1 2 5 10 17 26 37 50 65 
82 90 97 97 90 85 82 81 82 85 90 97 106 117 130 85 72 
61 52 45 40 37 36 29 20 13 8 5 4 5 8 13 20 29 
40 53 68 85 104 116 116 109 104 101 100 101 104 109 116 125 136 
149 98 85 74 65 58 53 50 45 34 25 18 13 10 9 10 13 
18 25 34 45 58 73 90 109 130 137 130 125 122 121 122 125 130 
137 146 157 170 113 100 89 80 73 68 65 52 41 32 25 20 17 
16 17 20 25 32 41 52 65 80 97 116 137 160 153 148 145 144 
145 148 153 160 169 180 193 130 117 106 97 90 85 74 61 50 41 
34 29 26 25 26 29 34 41 50 61 74 89 106 125 146 169 178 
173 170 169 170 173 178 185 194 205 218 149 136 125 116 109 100 85 
72 61 52 45 40 37 36 37 40 45 52 61 72 85 100 117 136 
157 180 205 200 197 196 197 200 205 212 221 232 245 170 157 146 137 
130 113 98 85 74 65 58 53 50 49 50 53 58 65 74 85 98 
113 130 149 170 193 218 229 226 225 226 229 234 241 250 261 274 