P2
37 28
545
377 346 317 290 265 242 221 200 181 164 149 136 125 116 109 104 101 
100 101 104 109 116 125 136 146 157 170 185 202 221 242 265 290 317 
346 377 410 356 325 296 269 244 221 200 181 162 145 130 117 106 97 
90 85 82 81 82 85 90 97 106 116 125 136 149 164 181 200 221 
244 269 296 325 356 389 337 306 277 250 225 202 181 162 145 128 113 
100 89 80 73 68 65 64 65 68 73 80 89 97 106 117 130 145 
162 181 202 225 250 277 306 337 370 320 289 260 233 208 185 164 145 
128 113 98 85 74 65 58 53 50 49 50 53 58 65 73 80 89 
100 113 128 145 164 185 208 233 260 289 320 353 305 274 245 218 193 
170 149 130 113 98 85 72 61 52 45 40 37 36 37 40 45 52 
58 65 74 85 98 113 130 149 170 193 218 245 274 305 338 292 261 
232 205 180 157 136 117 100 85 72 61 50 41 34 29 26 25 26 
29 34 40 45 52 61 72 85 100 117 136 157 180 205 232 261 292 
325 281 250 221 194 169 146 125 106 89 74 61 50 41 32 25 20 
17 16 17 20 25 29 34 41 50 61 74 89 106 125 146 169 194 
221 250 281 314 272 241 212 185 160 137 116 97 80 65 52 41 32 
25 18 13 10 9 10 13 17 20 25 32 41 52 65 80 97 116 
137 160 185 212 241 272 305 265 234 205 178 153 130 109 90 73 58 
45 34 25 18 13 8 5 4 5 8 10 13 18 25 34 45 58 
73 90 109 130 153 178 205 234 265 298 260 229 200 173 148 125 104 
85 68 53 40 29 20 13 8 5 2 1 2 4 5 8 13 20 
29 40 53 68 85 104 125 148 173 200 229 260 293 257 226 197 170 
145 122 101 82 65 50 37 26 17 10 5 2 1 0 1 1 2 
5 10 17 26 37 50 65 82 101 122 145 170 197 226 257 290 256 
225 196 169 144 121 100 81 64 49 36 25 16 9 4 1 0 1 
1 0 1 4 9 16 25 36 49 64 81 100 121 144 169 196 225 
256 289 257 226 197 170 145 122 101 82 65 50 37 26 17 10 5 
2 1 1 0 1 2 5 10 17 26 37 50 65 82 101 122 145 
170 197 226 257 290 260 229 200 173 148 125 104 85 68 53 40 29 
20 13 8 5 4 2 1 2 5 8 13 20 29 40 53 68 85 
104 125 148 173 200 229 260 293 265 234 205 178 153 130 109 90 73 
58 45 34 25 18 13 10 8 5 4 5 8 13 18 25 34 45 
58 73 90 109 130 153 178 205 234 265 298 272 241 212 185 160 137 
116 97 80 65 52 41 32 25 20 17 13 10 9 10 13 18 25 
32 41 52 65 80 97 116 137 160 185 212 241 272 305 281 250 221 
194 169 146 125 106 89 74 61 50 41 34 29 25 20 17 16 17 
20 25 32 41 50 61 74 89 106 125 146 169 194 221 250 281 314 
292 261 232 205 180 157 136 117 100 85 72 61 52 45 40 34 29 
26 25 26 29 34 41 50 61 72 85 100 117 136 157 180 205 232 
261 292 325 305 274 245 218 193 170 149 130 113 98 85 74 65 58 
52 45 40 37 36 37 40 45 52 61 72 85 98 113 130 149 170 
193 218 245 274 305 338 320 289 260 233 208 185 164 145 128 113 100 
89 80 73 65 58 53 50 49 50 53 58 65 74 85 98 113 128 
145 164 185 208 233 260 289 320 353 337 306 277 250 225 202 181 162 
145 130 117 106 97 89 80 73 68 65 64 65 68 73 80 89 100 
113 128 145 162 181 202 225 250 277 306 337 370 356 325 296 269 244 
221 200 181 164 149 136 125 116 106 97 90 85 82 81 82 85 90 
97 106 117 130 145 162 181 200 221 244 269 296 325 356 389 377 346 
317 290 265 242 221 202 185 170 157 146 136 125 116 109 104 101 100 
101 104 109 116 125 136 149 164 181 200 221 242 265 290 317 346 377 
410 400 369 340 313 288 265 244 225 208 193 180 169 157 146 137 130 
125 122 121 122 125 130 137 146 157 170 185 202 221 242 265 288 313 
340 369 400 433 425 394 365 338 313 290 269 250 233 218 205 193 180 
169 160 153 148 145 144 145 148 153 160 169 180 193 208 225 244 265 
288 313 338 365 394 425 458 452 421 392 365 340 317 296 277 260 245 
232 218 205 194 185 178 173 170 169 170 173 178 185 194 205 218 233 
250 269 290 313 338 365 392 421 452 485 481 450 421 394 369 346 325 
306 289 274 260 245 232 221 212 205 200 197 196 197 200 205 212 221 
232 245 260 277 296 317 340 365 392 421 450 481 514 512 481 452 425 
400 377 356 337 320 305 289 274 261 250 241 234 229 226 225 226 229 
234 241 250 261 274 289 306 325 346 369 394 421 450 481 512 545 