P2
37 28
317
317 296 277 260 245 225 202 181 162 145 130 117 106 97 82 65 50 
37 26 17 10 5 2 1 2 5 10 17 26 37 41 32 25 20 
17 16 17 290 269 250 233 218 205 185 164 145 128 113 100 89 80 
73 61 49 36 25 16 9 4 1 0 1 4 9 16 25 36 34 
25 18 13 10 9 10 265 244 225 208 193 180 169 149 130 113 98 
85 74 65 58 52 41 32 25 17 10 5 2 1 2 5 10 17 
26 37 29 20 13 8 5 4 5 242 221 202 185 170 157 146 136 
117 100 85 72 61 52 45 40 34 25 18 13 10 8 5 4 5 
8 13 20 29 37 26 17 10 5 2 1 2 221 200 181 164 149 
136 125 116 106 89 74 61 50 41 34 29 26 20 13 8 5 4 
4 5 8 13 18 25 34 36 25 16 9 4 1 0 1 202 181 
162 145 130 117 106 97 90 80 65 52 41 32 25 20 17 16 10 
5 2 1 1 2 5 8 13 20 29 37 26 17 10 5 2 1 
2 185 164 145 128 113 100 89 80 73 68 58 45 34 25 18 13 
10 9 9 4 1 0 0 1 2 5 10 17 26 37 29 20 13 
8 5 4 5 170 149 130 113 98 85 74 65 58 53 50 40 29 
20 13 8 5 4 5 5 2 1 1 0 1 4 9 16 25 36 
34 25 18 13 10 9 10 157 136 117 100 85 72 61 52 45 40 
37 36 26 17 10 5 2 1 2 5 5 4 2 1 2 5 10 
17 26 34 29 26 25 20 17 16 17 146 125 106 89 74 61 50 
41 34 29 26 25 25 16 9 4 1 0 1 4 4 4 1 0 
1 4 9 16 25 25 20 17 16 17 20 25 26 130 116 97 80 
65 52 41 32 25 20 17 16 16 17 10 5 2 1 2 2 1 
2 2 1 2 5 10 17 25 18 13 10 9 10 13 18 25 113 
100 89 73 58 45 34 25 18 13 10 9 9 10 9 8 5 4 
4 1 0 1 4 4 5 8 13 20 20 13 8 5 4 5 8 
13 20 98 85 74 65 53 40 29 20 13 8 5 4 4 5 4 
5 8 9 5 2 1 2 2 1 2 5 10 17 17 10 5 2 
1 2 5 10 17 85 72 61 52 45 37 26 17 10 5 2 1 
1 2 1 2 5 10 8 5 4 4 1 0 1 4 9 16 16 
9 4 1 0 1 4 9 16 74 61 50 41 34 29 25 16 9 
4 1 0 0 1 0 1 4 9 13 10 9 5 2 1 2 5 
10 17 17 10 5 2 1 2 5 10 17 65 52 41 32 25 20 
17 16 10 5 2 1 0 1 1 2 5 10 17 17 13 8 5 
4 5 8 13 20 20 13 8 5 4 5 8 13 20 58 45 34 
25 18 13 10 9 10 8 5 2 1 2 4 5 8 13 20 25 
18 13 10 9 10 13 18 25 25 18 13 10 9 10 13 18 25 
53 40 29 20 13 8 5 4 5 8 8 5 4 5 8 10 13 
18 25 32 25 20 17 16 17 20 25 32 32 25 20 17 16 17 
20 25 32 50 37 26 17 10 5 2 1 2 5 5 2 1 2 
5 10 17 20 25 32 34 29 26 25 26 29 34 41 41 34 29 
26 25 26 29 34 41 49 36 25 16 9 4 1 0 1 4 4 
1 0 1 4 9 10 13 18 25 34 40 37 36 37 40 45 52 
52 45 40 37 36 37 40 45 52 50 37 26 17 10 5 2 1 
2 5 5 2 1 2 5 4 5 8 13 20 29 40 50 49 50 
53 58 65 65 58 53 50 49 50 53 58 65 53 40 29 20 13 
8 5 4 5 8 8 5 4 5 2 1 2 5 10 17 26 37 
50 64 65 68 73 80 80 73 68 65 64 65 68 73 80 58 45 
34 25 18 13 10 9 10 13 13 10 9 4 1 0 1 4 9 
16 25 36 49 64 81 85 90 97 97 90 85 82 81 82 85 90 
97 65 52 41 32 25 20 17 16 17 20 20 16 9 4 1 0 
1 4 9 16 25 36 49 64 81 100 109 116 116 109 104 101 100 
101 104 109 116 74 61 50 41 34 29 26 25 26 29 26 17 10 
5 2 1 2 5 10 17 26 37 50 65 82 101 122 137 137 130 
125 122 121 122 125 130 137 85 72 61 52 45 40 37 36 37 40 
29 20 13 8 5 4 5 8 13 20 29 40 53 68 85 104 125 
148 160 153 148 145 144 145 148 153 160 98 85 74 65 58 53 50 
49 50 45 34 25 18 13 10 9 10 13 18 25 34 45 58 73 
90 109 130 153 178 178 173 170 169 170 173 178 185 113 100 89 80 
73 68 65 64 65 52 41 32 25 20 17 16 17 20 25 32 41 
52 65 80 97 116 137 160 185 205 200 197 196 197 200 205 212 