P2
37 28
325
305 298 292 281 272 265 260 250 241 234 229 226 225 226 229 234 241 
250 257 256 257 260 265 272 281 289 289 290 289 289 289 290 293 298 
305 314 325 272 265 260 250 241 234 229 221 212 205 200 197 196 197 
200 205 212 221 226 225 226 229 234 241 250 256 256 257 256 256 256 
257 260 265 272 281 292 241 234 229 221 212 205 200 194 185 178 173 
170 169 170 173 178 185 194 197 196 197 200 205 212 221 225 225 226 
225 225 225 226 229 234 241 250 261 212 205 200 194 185 178 173 169 
160 153 148 145 144 145 148 153 160 169 170 169 170 173 178 185 194 
196 196 197 196 196 196 197 200 205 212 221 232 185 178 173 169 160 
153 148 145 137 130 125 122 121 122 125 130 137 144 145 144 145 148 
153 160 169 169 169 170 169 169 169 170 173 178 185 194 205 160 153 
148 145 137 130 125 122 116 109 104 101 100 101 104 109 116 121 122 
121 122 125 130 137 144 144 144 145 144 144 144 145 148 153 160 169 
180 137 130 125 122 116 109 104 101 97 90 85 82 81 82 85 90 
97 100 101 100 101 104 109 116 121 121 121 122 121 121 121 122 125 
130 137 146 157 116 109 104 101 97 90 85 82 80 73 68 65 64 
65 68 73 80 81 82 81 82 85 90 97 100 100 100 101 100 100 
100 101 104 109 116 125 136 97 90 85 82 80 73 68 65 64 58 
53 50 49 50 53 58 64 64 65 64 65 68 73 80 81 81 81 
82 81 81 81 82 85 90 97 106 117 80 73 68 65 64 58 53 
50 49 45 40 37 36 37 40 45 49 49 50 49 50 53 58 64 
64 64 64 65 64 64 64 65 68 73 80 89 100 65 58 53 50 
49 45 40 37 36 34 29 26 25 26 29 34 36 36 37 36 37 
40 45 49 49 49 49 50 49 49 49 50 53 58 65 74 85 52 
45 40 37 36 34 29 26 25 25 20 17 16 17 20 25 25 25 
26 25 26 29 34 36 36 36 36 37 36 36 36 37 40 45 52 
61 72 41 34 29 26 25 25 20 17 16 17 13 10 9 10 13 
16 16 16 17 16 17 20 25 25 25 25 25 26 25 25 25 26 
29 34 41 50 61 32 25 20 17 16 16 13 10 9 10 8 5 
4 5 8 9 9 9 10 9 10 13 17 16 16 16 16 17 16 
16 16 17 20 25 32 41 52 25 18 13 10 9 9 8 5 4 
5 4 2 1 2 5 4 4 4 5 4 5 8 10 9 9 9 
9 10 9 9 9 10 13 18 25 34 45 20 13 8 5 4 4 
4 2 1 2 1 1 0 1 2 1 1 1 2 1 2 5 5 
4 4 4 4 5 4 4 4 5 8 13 20 29 40 17 10 5 
2 1 1 1 1 0 1 0 0 0 0 1 0 0 0 1 0 
1 2 2 1 1 1 1 2 1 1 1 2 5 10 17 26 37 
16 9 4 1 0 0 0 0 0 1 1 1 0 0 0 0 0 
0 1 0 0 1 1 0 0 0 0 1 0 0 0 1 4 9 
16 25 36 16 9 4 1 0 0 0 0 0 1 4 1 0 0 
0 1 0 0 1 0 0 0 0 0 0 0 0 1 0 0 0 
1 4 9 16 25 36 17 10 5 2 1 1 1 1 1 2 1 
2 1 1 1 2 1 1 2 1 1 1 1 1 1 1 1 2 
1 1 1 2 5 10 17 26 37 16 9 4 1 0 0 0 1 
0 1 0 1 4 4 4 1 0 1 1 0 0 0 0 0 1 
0 0 1 0 0 0 1 4 9 16 25 36 16 9 4 1 0 
0 0 0 0 1 0 1 4 9 5 2 1 2 1 0 0 0 
0 1 2 1 1 2 1 0 0 1 4 9 16 25 36 17 10 
5 2 1 1 1 1 1 2 1 2 5 10 8 5 4 5 2 
1 1 1 1 2 5 4 4 4 1 0 0 1 4 9 16 25 
36 20 13 8 5 4 4 4 4 4 5 4 5 8 13 13 10 
9 8 5 4 4 4 4 5 8 9 9 4 1 0 0 1 4 
9 16 25 36 25 18 13 10 9 9 9 9 9 10 9 10 13 
18 20 17 16 13 10 9 9 9 9 10 13 16 10 5 2 1 
1 2 5 10 17 26 37 32 25 20 17 16 16 16 16 16 17 
16 17 20 25 29 26 25 20 17 16 16 16 16 17 20 20 13 
8 5 4 4 5 8 13 20 29 40 41 34 29 26 25 25 25 
25 25 26 25 26 29 34 40 37 34 29 26 25 25 25 25 26 
29 25 18 13 10 9 9 10 13 18 25 34 45 52 45 40 37 
36 36 36 36 36 37 36 37 40 45 52 50 45 40 37 36 36 
36 36 37 40 32 25 20 17 16 16 17 20 25 32 41 52 