P2
37 28
269
269 250 233 218 205 194 185 178 162 145 130 117 100 82 65 50 37 
26 17 10 5 2 1 2 5 10 17 26 37 34 25 18 13 10 
9 10 13 244 225 208 193 180 169 160 153 145 128 113 100 89 74 
61 49 36 25 16 9 4 1 0 1 4 9 16 25 36 29 20 
13 8 5 4 5 8 221 202 185 170 157 146 137 130 125 113 98 
85 74 65 52 41 32 25 17 10 5 2 1 2 5 10 17 26 
37 26 17 10 5 2 1 2 5 200 181 164 149 136 125 116 109 
104 100 85 72 61 52 45 34 25 18 13 10 8 5 4 5 8 
13 20 29 36 25 16 9 4 1 0 1 4 181 162 145 130 117 
106 97 90 85 82 74 61 50 41 34 29 20 13 8 5 4 5 
4 5 8 13 20 29 37 26 17 10 5 2 1 2 5 164 145 
128 113 100 89 80 73 68 65 64 52 41 32 25 20 17 10 5 
2 1 2 1 2 5 10 17 26 37 29 20 13 8 5 4 5 
8 149 130 113 98 85 74 65 58 53 50 49 45 34 25 18 13 
10 9 4 1 0 1 0 1 4 9 16 25 36 34 25 18 13 
10 9 10 13 136 117 100 85 72 61 52 45 40 37 36 37 29 
20 13 8 5 4 5 2 1 1 0 1 4 9 16 25 36 41 
32 25 20 17 16 17 20 125 106 89 74 61 50 41 34 29 26 
25 26 25 17 10 5 2 1 2 5 4 2 1 2 5 10 17 
26 37 34 29 26 25 26 25 26 29 116 97 80 65 52 41 32 
25 20 17 16 17 16 16 9 4 1 0 1 4 4 1 0 1 
4 9 16 25 32 25 20 17 16 17 20 25 32 109 90 73 58 
45 34 25 18 13 10 9 10 9 10 9 5 2 1 2 2 1 
2 1 2 5 10 17 26 25 18 13 10 9 10 13 18 25 100 
85 68 53 40 29 20 13 8 5 4 5 4 5 4 5 5 4 
4 1 0 1 4 5 8 13 20 29 20 13 8 5 4 5 8 
13 20 85 74 65 50 37 26 17 10 5 2 1 2 1 2 1 
2 5 9 5 2 1 2 1 2 5 10 17 26 17 10 5 2 
1 2 5 10 17 72 61 52 45 36 25 16 9 4 1 0 1 
0 1 0 1 4 9 8 5 4 1 0 1 4 9 16 25 16 
9 4 1 0 1 4 9 16 61 50 41 34 29 26 17 10 5 
2 1 2 1 2 1 2 5 10 13 10 5 2 1 2 5 10 
17 26 17 10 5 2 1 2 5 10 17 52 41 32 25 20 17 
16 13 8 5 4 1 0 1 4 5 8 13 20 13 8 5 4 
5 8 13 20 29 20 13 8 5 4 5 8 13 20 45 34 25 
18 13 10 9 10 13 10 5 2 1 2 5 10 13 18 25 18 
13 10 9 10 13 18 25 34 25 18 13 10 9 10 13 18 25 
40 29 20 13 8 5 4 5 8 13 8 5 4 5 8 13 20 
25 32 25 20 17 16 17 20 25 32 41 32 25 20 17 16 17 
20 25 32 37 26 17 10 5 2 1 2 5 10 5 2 1 2 
5 10 13 18 25 34 29 26 25 26 29 34 41 50 41 34 29 
26 25 26 29 34 41 36 25 16 9 4 1 0 1 4 9 4 
1 0 1 4 5 8 13 20 29 40 37 36 37 40 45 52 61 
52 45 40 37 36 37 40 45 52 37 26 17 10 5 2 1 2 
5 10 5 2 1 2 1 2 5 10 17 26 37 50 49 50 53 
58 65 74 65 58 53 50 49 50 53 58 65 40 29 20 13 8 
5 4 5 8 13 8 5 4 1 0 1 4 9 16 25 36 49 
64 65 68 73 80 89 80 73 68 65 64 65 68 73 80 45 34 
25 18 13 10 9 10 13 18 13 10 5 2 1 2 5 10 17 
26 37 50 65 82 85 90 97 106 97 90 85 82 81 82 85 90 
97 52 41 32 25 20 17 16 17 20 25 16 9 4 1 0 1 
4 9 16 25 36 49 64 81 100 109 116 125 116 109 104 101 100 
101 104 109 116 61 50 41 34 29 26 25 26 29 26 17 10 5 
2 1 2 5 10 17 26 37 50 65 82 101 122 137 146 137 130 
125 122 121 122 125 130 137 72 61 52 45 40 37 36 37 40 29 
20 13 8 5 4 5 8 13 20 29 40 53 68 85 104 125 148 
169 160 153 148 145 144 145 148 153 160 85 74 65 58 53 50 49 
50 45 34 25 18 13 10 9 10 13 18 25 34 45 58 73 90 
109 130 153 178 185 178 173 170 169 170 173 178 185 100 89 80 73 
68 65 64 65 52 41 32 25 20 17 16 17 20 25 32 41 52 
65 80 97 116 137 160 185 212 205 200 197 196 197 200 205 212 