P2
37 28
306
250 241 234 229 221 212 205 200 197 196 196 197 200 197 196 196 196 
196 197 200 205 212 221 225 225 225 225 225 226 229 234 241 250 261 
274 289 306 221 212 205 200 194 185 178 173 170 169 169 170 173 170 
169 169 169 169 170 173 178 185 194 196 196 196 196 196 197 200 205 
212 221 232 245 260 277 194 185 178 173 169 160 153 148 145 144 144 
145 148 145 144 144 144 144 145 148 153 160 169 169 169 169 169 169 
170 173 178 185 194 205 218 233 250 169 160 153 148 145 137 130 125 
122 121 121 122 125 122 121 121 121 121 122 125 130 137 145 144 144 
144 144 144 145 148 153 160 169 180 193 208 225 146 137 130 125 122 
116 109 104 101 100 100 101 104 101 100 100 100 100 101 104 109 116 
122 121 121 121 121 121 122 125 130 137 146 157 170 185 202 125 116 
109 104 101 97 90 85 82 81 81 82 85 82 81 81 81 81 82 
85 90 97 101 100 100 100 100 100 101 104 109 116 125 136 149 164 
181 106 97 90 85 82 80 73 68 65 64 64 65 68 65 64 64 
64 64 65 68 73 80 82 81 81 81 81 81 82 85 90 97 106 
117 130 145 162 89 80 73 68 65 64 58 53 50 49 49 50 53 
50 49 49 49 49 50 53 58 64 65 64 64 64 64 64 65 68 
73 80 89 100 113 128 145 74 65 58 53 50 49 45 40 37 36 
36 37 40 37 36 36 36 36 37 40 45 49 50 49 49 49 49 
49 50 53 58 65 74 85 98 113 130 61 52 45 40 37 36 34 
29 26 25 25 26 29 26 25 25 25 25 26 29 34 36 37 36 
36 36 36 36 37 40 45 52 61 72 85 100 117 50 41 34 29 
26 25 25 20 17 16 16 17 20 17 16 16 16 16 17 20 25 
25 26 25 25 25 25 25 26 29 34 41 50 61 74 89 106 41 
32 25 20 17 16 16 13 10 9 9 10 13 10 9 9 9 9 
10 13 17 16 17 16 16 16 16 16 17 20 25 32 41 52 65 
80 97 32 25 18 13 10 9 9 8 5 4 4 5 8 5 4 
4 4 4 5 8 10 9 10 9 9 9 9 9 10 13 18 25 
34 45 58 73 90 25 18 13 8 5 4 4 4 2 1 1 2 
4 2 1 1 1 1 2 5 5 4 5 4 4 4 4 4 5 
8 13 20 29 40 53 68 85 18 13 8 5 2 1 1 1 1 
0 0 1 1 1 0 0 0 0 1 4 2 1 2 1 1 1 
1 1 2 5 10 17 26 37 50 65 82 13 8 5 2 1 0 
0 0 1 0 0 0 0 0 0 0 0 0 1 1 1 0 1 
0 0 0 0 0 1 4 9 16 25 36 49 64 81 10 5 2 
1 0 0 0 0 0 1 0 0 0 0 0 0 0 0 1 0 
0 0 0 0 0 0 0 0 1 4 9 16 25 36 49 64 81 
9 4 1 0 0 0 1 1 0 0 1 1 1 1 1 0 0 
0 0 0 0 0 1 0 0 0 0 0 1 4 9 16 25 36 
49 64 81 10 5 2 1 0 0 0 0 0 0 1 4 4 4 
2 1 0 0 0 0 0 0 1 0 0 0 0 0 1 4 9 
16 25 36 49 64 81 9 4 1 0 0 1 1 1 1 1 2 
5 9 8 5 2 1 1 1 1 1 1 2 1 1 1 0 1 
2 5 10 17 26 37 50 65 82 10 5 2 1 1 2 4 4 
4 4 5 8 13 13 8 5 4 4 4 4 4 4 5 4 1 
0 0 1 2 5 10 17 26 37 50 65 82 13 8 5 4 4 
5 8 9 9 9 10 13 18 18 13 10 9 9 9 9 9 9 
10 5 2 1 1 0 1 4 9 16 25 36 49 64 81 18 13 
10 9 9 10 13 16 16 16 17 20 25 25 20 17 16 16 16 
16 16 16 13 8 5 4 2 1 2 5 10 17 26 37 50 65 
82 25 20 17 16 16 17 20 25 25 25 26 29 34 34 29 26 
25 25 25 25 25 25 18 13 10 8 5 4 5 8 13 20 29 
40 53 68 85 34 29 26 25 25 26 29 34 36 36 37 40 45 
45 40 37 36 36 36 36 36 32 25 20 17 13 10 9 10 13 
18 25 34 45 58 73 90 45 40 37 36 36 37 40 45 49 49 
50 53 58 58 53 50 49 49 49 49 49 41 34 29 25 20 17 
16 17 20 25 32 41 52 65 80 97 58 53 50 49 49 50 53 
58 64 64 65 68 73 73 68 65 64 64 64 64 61 52 45 40 
34 29 26 25 26 29 34 41 50 61 74 89 106 73 68 65 64 
64 65 68 73 80 81 82 85 90 90 85 82 81 81 81 81 74 
65 58 52 45 40 37 36 37 40 45 52 61 72 85 100 117 