P2
37 28
98
26 25 26 25 25 20 17 16 17 16 16 17 20 25 32 37 36 
37 40 45 52 58 53 50 49 50 49 50 50 49 50 53 58 65 
74 85 98 17 16 17 16 16 13 10 9 10 9 9 10 13 18 
25 26 25 26 29 34 41 45 40 37 36 37 36 37 37 36 37 
40 45 52 61 72 85 10 9 10 9 9 8 5 4 5 4 4 
5 8 13 16 17 16 17 20 25 32 34 29 26 25 26 25 26 
26 25 26 29 34 41 50 61 74 5 4 5 4 4 5 2 1 
2 1 1 2 5 8 9 10 9 10 13 18 25 25 20 17 16 
17 16 17 17 16 17 20 25 32 41 52 65 2 1 2 1 1 
2 1 0 1 0 0 1 2 4 4 5 4 5 8 13 16 17 
13 10 9 10 9 10 10 9 10 13 18 25 34 45 58 1 0 
1 0 0 1 0 0 0 1 1 0 1 1 1 2 1 2 5 
10 9 10 8 5 4 5 4 5 5 4 5 8 13 20 29 40 
53 2 1 0 1 1 1 1 0 0 0 1 1 1 0 0 1 
0 1 4 5 4 5 5 2 1 2 1 2 2 1 2 5 10 
17 26 37 50 1 0 1 0 1 0 1 0 1 1 0 1 0 
1 1 1 0 1 1 2 1 2 4 1 0 1 0 1 1 0 
1 4 9 16 25 36 49 2 1 1 1 2 1 2 1 2 2 
1 1 0 0 0 1 1 1 0 1 0 1 4 2 1 0 1 
2 2 1 2 5 10 17 26 37 50 4 1 0 1 2 4 5 
4 4 5 4 2 1 0 0 1 0 1 1 2 1 2 5 4 
1 0 1 4 1 0 1 4 9 16 25 36 49 5 2 1 0 
1 4 2 1 1 2 5 2 1 0 1 2 1 2 1 2 1 
2 5 5 2 1 2 5 2 1 2 5 10 17 26 37 50 8 
5 2 1 1 2 1 0 0 1 4 1 0 0 1 1 0 1 
0 1 0 1 4 4 1 0 1 4 2 1 2 5 10 17 26 
37 50 10 5 2 1 0 1 2 1 1 2 5 2 1 0 1 
2 1 2 1 2 1 2 5 5 2 1 2 4 1 0 1 4 
9 16 25 36 49 9 4 1 0 1 2 2 1 2 5 5 4 
2 1 2 5 4 5 2 1 2 5 8 5 2 1 2 5 2 
1 2 5 10 17 26 37 50 10 5 2 1 2 4 1 0 1 
2 2 1 2 1 2 5 8 4 1 0 1 4 5 4 1 0 
1 4 2 1 2 5 10 17 26 37 50 13 8 5 4 5 2 
1 1 0 1 1 0 1 0 1 4 5 2 1 1 2 5 2 
1 1 0 1 4 1 0 1 4 9 16 25 34 45 13 10 9 
9 4 1 0 1 1 1 2 1 2 1 2 5 4 1 0 0 
1 4 1 0 1 1 2 4 1 0 1 4 8 13 20 29 40 
8 5 4 5 5 2 1 2 1 0 1 0 1 0 1 4 5 
2 1 0 1 2 1 0 1 0 1 4 1 0 1 2 5 10 
17 26 37 5 2 1 2 5 5 2 1 2 1 2 1 1 0 
1 2 5 4 2 1 2 1 0 1 2 1 2 4 1 0 0 
1 4 9 16 25 36 4 1 0 1 4 4 1 0 1 4 5 
4 2 1 0 1 2 1 1 0 1 2 1 2 2 1 1 2 
2 1 1 2 5 10 17 26 37 4 1 0 1 4 2 1 1 
1 2 5 8 5 2 1 1 1 0 1 1 1 2 4 4 1 
0 0 1 4 1 0 1 4 9 16 25 36 5 2 1 2 4 
1 0 0 0 1 4 5 2 1 0 0 1 1 2 1 0 1 
4 5 2 1 0 1 4 1 0 1 4 9 16 25 36 8 5 
4 5 5 2 1 1 0 1 4 4 1 0 0 0 1 4 5 
2 1 2 5 8 5 2 1 2 4 1 0 1 4 9 16 25 
36 13 10 9 10 8 5 4 2 1 2 5 5 2 1 1 1 
2 5 8 5 4 5 8 13 8 5 4 5 5 2 1 2 5 
10 17 26 37 20 17 16 17 13 10 8 5 4 5 8 8 5 
4 4 4 5 8 13 10 9 10 13 18 13 10 9 10 8 5 
4 5 8 13 20 29 40 29 26 25 25 20 17 13 10 9 10 
13 13 10 9 9 9 10 13 18 17 16 17 20 25 20 17 16 
17 13 10 9 10 13 18 25 34 45 40 37 36 34 29 25 20 
17 16 17 20 20 17 16 16 16 17 20 25 26 25 26 29 34 
29 26 25 25 20 17 16 17 20 25 32 41 52 53 50 49 45 
40 34 29 26 25 26 29 29 26 25 25 25 26 29 34 37 36 
37 40 45 40 37 36 34 29 26 25 26 29 34 41 50 61 