P2
37 28
244
153 130 109 90 73 58 45 34 25 18 13 10 9 9 9 10 9 
10 13 18 25 29 26 25 26 29 34 41 50 61 74 89 100 113 
125 136 149 145 125 104 85 68 53 40 29 20 13 8 5 4 4 
4 5 4 5 8 13 20 20 17 16 17 20 25 32 41 52 65 
74 85 97 106 117 130 130 113 98 82 65 50 37 26 17 10 5 
2 1 1 1 2 1 2 5 10 17 13 10 9 10 13 18 25 
34 45 52 61 72 80 89 100 113 117 100 85 72 61 49 36 25 
16 9 4 1 0 0 0 1 0 1 4 9 10 8 5 4 5 
8 13 20 29 34 41 50 58 65 74 85 98 106 89 74 61 50 
41 32 25 16 9 4 1 0 0 0 0 1 2 4 4 5 4 
2 1 2 5 10 17 20 25 32 40 45 52 61 72 85 97 80 
65 52 41 32 25 18 13 9 4 1 0 1 0 1 2 2 1 
1 2 1 1 0 1 4 9 10 13 18 25 29 34 41 50 61 
74 90 73 58 45 34 25 18 13 8 5 4 1 0 0 1 2 
1 1 0 0 1 0 0 1 2 4 4 5 8 13 17 20 25 
32 41 52 65 85 68 53 40 29 20 13 8 5 2 1 1 1 
0 0 1 0 0 0 0 1 1 0 0 1 1 1 2 5 9 
10 13 18 25 34 45 58 74 61 50 37 26 17 10 5 2 1 
0 0 1 1 0 1 1 1 0 0 1 2 1 1 1 0 0 
1 4 4 5 8 13 20 29 40 53 65 52 41 32 25 16 9 
4 1 0 0 0 1 1 0 1 2 1 0 1 2 1 0 1 
0 1 1 2 2 1 2 5 10 17 26 37 50 58 45 34 25 
18 13 9 4 1 0 0 0 1 1 0 0 1 2 1 0 1 
0 0 0 0 1 2 4 1 0 1 4 9 16 25 36 49 53 
40 29 20 13 8 5 4 1 0 0 1 1 1 0 1 1 1 
0 1 2 1 0 1 0 0 1 2 2 1 2 5 10 17 25 
34 45 50 37 26 17 10 5 2 1 1 1 0 0 0 0 0 
0 0 1 0 1 1 0 0 0 0 0 0 1 1 2 4 5 
8 13 20 29 40 49 36 25 16 9 4 1 0 0 0 1 1 
0 0 0 0 0 0 0 0 0 1 0 0 1 1 0 0 0 
1 1 2 5 10 17 26 37 50 37 26 17 10 5 2 1 1 
1 1 0 1 0 0 0 0 1 1 1 1 1 0 0 1 2 
1 0 0 0 0 1 4 9 16 25 36 53 40 29 20 13 8 
5 4 4 4 2 1 0 0 0 0 0 0 0 0 0 1 1 
1 2 5 2 1 1 0 1 2 5 10 17 26 37 58 45 34 
25 18 13 10 9 9 8 5 2 1 1 0 0 1 1 1 1 
1 2 4 4 5 8 5 4 2 1 2 5 8 13 20 29 40 
65 52 41 32 25 20 17 16 16 9 4 1 0 1 1 1 2 
4 4 4 4 5 8 9 10 13 10 8 5 4 5 8 13 18 
25 34 45 74 61 50 41 34 29 26 25 17 10 5 2 1 2 
4 4 5 8 9 9 9 10 13 16 17 20 17 13 10 9 10 
13 18 25 32 41 52 85 72 61 52 45 40 37 29 20 13 8 
5 4 5 8 9 10 13 16 16 16 17 20 25 26 29 25 20 
17 16 17 20 25 32 41 50 61 98 85 74 65 58 53 45 34 
25 18 13 10 9 10 13 16 17 20 25 25 25 26 29 34 37 
40 34 29 26 25 26 29 34 41 50 61 72 113 100 89 80 73 
65 52 41 32 25 20 17 16 17 20 25 26 29 34 36 36 37 
40 45 50 52 45 40 37 36 37 40 45 52 61 72 85 130 117 
106 97 89 74 61 50 41 34 29 26 25 26 29 34 37 40 45 
49 49 50 53 58 65 65 58 53 50 49 50 53 58 65 74 85 
98 149 136 125 116 100 85 72 61 52 45 40 37 36 37 40 45 
50 53 58 64 64 65 68 73 80 80 73 68 65 64 65 68 73 
80 89 100 113 170 157 146 130 113 98 85 74 65 58 53 50 49 
50 53 58 65 68 73 80 81 82 85 90 97 97 90 85 82 81 
82 85 90 97 106 117 130 193 180 164 145 128 113 100 89 80 73 
68 65 64 65 68 73 80 85 90 97 100 101 104 109 116 116 109 
104 101 100 101 104 109 116 125 136 149 218 202 181 162 145 130 117 
106 97 90 85 82 81 82 85 90 97 104 109 116 121 122 125 130 
137 137 130 125 122 121 122 125 130 137 146 157 170 244 221 200 181 
164 149 136 125 116 109 104 101 100 101 104 109 116 125 130 137 144 
145 148 153 160 160 153 148 145 144 145 148 153 160 169 180 193 