P2
37 28
225
32 25 20 17 16 17 20 25 25 26 29 34 34 29 26 25 26 
29 34 40 37 36 34 29 26 25 26 29 34 41 50 61 74 89 
106 125 146 25 18 13 10 9 10 13 17 16 17 20 25 25 20 
17 16 17 20 25 29 26 25 25 20 17 16 17 20 25 32 41 
52 65 80 97 116 137 20 13 8 5 4 5 8 10 9 10 13 
18 18 13 10 9 10 13 18 20 17 16 16 13 10 9 10 13 
18 25 34 45 58 73 90 109 130 17 10 5 2 1 2 5 5 
4 5 8 13 13 8 5 4 5 8 13 13 10 9 9 8 5 
4 5 8 13 20 29 40 53 68 85 104 125 16 9 4 1 0 
1 4 2 1 2 5 10 9 5 2 1 2 5 9 8 5 4 
4 4 2 1 2 5 10 17 26 37 50 65 82 101 122 17 10 
5 2 1 2 4 1 0 1 4 5 4 4 1 0 1 4 4 
5 2 1 1 1 1 0 1 4 9 16 25 36 49 64 81 100 
121 20 13 8 5 2 1 2 2 1 2 5 2 1 2 2 1 
2 2 1 2 1 0 0 0 1 1 2 5 10 17 26 37 50 
65 82 101 122 25 16 9 4 1 0 1 4 4 5 4 1 0 
1 4 4 4 1 0 1 1 0 1 1 2 4 5 8 13 20 
29 40 53 68 85 104 125 26 17 10 5 2 1 2 5 9 10 
5 2 1 2 5 4 4 1 0 0 1 0 1 0 1 4 9 
13 18 25 34 45 58 73 90 109 130 29 20 13 8 5 4 5 
8 13 13 8 5 4 5 2 1 2 1 0 1 2 1 2 1 
2 5 10 17 25 32 41 52 65 80 97 116 137 34 25 18 13 
10 9 10 13 18 13 8 5 4 4 1 0 1 2 1 2 5 
4 5 4 5 8 13 20 29 40 50 61 74 89 106 125 146 41 
32 25 20 17 16 17 16 13 8 5 2 1 2 2 1 2 1 
0 1 2 1 2 5 10 13 18 25 34 45 58 72 85 100 117 
136 157 50 41 34 25 18 13 10 9 10 5 2 1 0 1 4 
4 5 2 1 2 1 0 1 4 9 16 25 32 41 52 65 80 
97 113 130 149 170 41 32 25 20 13 8 5 4 5 4 1 0 
1 2 5 5 2 1 2 5 2 1 2 5 10 17 26 34 41 
50 61 74 89 106 125 146 169 34 25 18 13 10 5 2 1 2 
5 2 1 2 5 8 4 1 0 1 2 2 1 2 5 10 17 
20 25 32 41 52 65 80 97 116 137 160 29 20 13 8 5 4 
1 0 1 4 5 4 5 8 10 5 2 1 0 1 1 0 1 
4 9 10 13 18 25 34 45 58 73 90 109 130 153 26 17 10 
5 2 1 2 1 2 5 9 9 10 13 13 8 5 2 1 0 
1 1 2 5 4 5 8 13 20 29 40 53 68 85 104 125 148 
25 16 9 4 1 0 1 4 5 5 4 5 8 13 10 9 8 
5 2 1 2 4 5 2 1 2 5 10 17 26 37 50 65 82 
101 122 145 26 17 10 5 2 1 2 5 5 2 1 2 5 8 
5 4 5 8 5 4 5 4 4 1 0 1 4 9 16 25 36 
49 64 81 100 121 144 29 20 13 8 5 4 5 8 4 1 0 
1 4 5 2 1 2 5 10 5 2 1 2 2 1 2 5 10 
17 26 37 50 65 82 101 122 145 34 25 18 13 10 9 10 10 
5 2 1 2 5 4 1 0 1 4 9 4 1 0 1 4 4 
5 8 13 20 29 40 53 68 85 104 125 148 41 32 25 20 17 
16 17 13 8 5 4 5 8 5 2 1 2 5 10 5 2 1 
2 5 9 10 13 18 25 34 45 58 73 90 109 130 153 50 41 
34 29 26 25 25 18 13 10 9 10 13 8 5 4 5 8 13 
8 5 4 5 8 13 17 20 25 32 41 52 65 80 97 116 137 
160 61 52 45 40 37 36 32 25 20 17 16 17 18 13 10 9 
10 13 18 13 10 9 10 13 18 25 29 34 41 50 61 74 89 
106 125 146 169 74 65 58 53 50 49 41 34 29 26 25 26 25 
20 17 16 17 20 25 20 17 16 17 20 25 32 40 45 52 61 
72 85 100 117 136 157 180 89 80 73 68 65 61 52 45 40 37 
36 37 34 29 26 25 26 29 34 29 26 25 26 29 34 41 50 
58 65 74 85 98 113 130 149 170 193 106 97 90 85 82 74 65 
58 53 50 49 50 45 40 37 36 37 40 45 40 37 36 37 40 
45 52 61 72 80 89 100 113 128 145 164 185 208 125 116 109 104 
100 89 80 73 68 65 64 65 58 53 50 49 50 53 58 53 50 
49 50 53 58 65 74 85 97 106 117 130 145 162 181 202 225 