P2
40 30
365
365 338 313 288 265 244 225 208 193 180 164 145 125 104 85 68 53 
40 29 20 13 8 5 4 5 8 13 20 29 40 53 68 85 104 
125 146 169 194 221 250 340 313 288 265 242 221 202 185 170 157 146 
130 113 98 82 65 50 37 26 17 10 5 2 1 2 5 10 17 
26 37 50 65 80 97 116 137 160 185 212 241 317 290 265 242 221 
200 181 164 149 136 125 116 100 85 72 61 49 36 25 16 9 4 
1 0 1 4 9 16 25 34 45 58 73 90 109 130 153 178 205 
234 296 269 244 221 200 181 162 145 130 117 106 97 89 74 61 50 
41 32 25 16 9 4 1 0 1 4 8 13 20 29 40 53 68 
85 104 125 148 173 200 229 277 250 225 202 181 162 145 128 113 100 
89 80 73 65 52 41 32 25 18 13 8 5 2 1 1 2 5 
10 17 26 37 50 65 82 101 122 145 170 197 226 260 233 208 185 
164 145 128 113 98 85 74 65 58 53 45 34 25 18 13 8 5 
2 1 1 0 1 4 9 16 25 36 49 64 81 100 121 144 169 
196 225 245 218 193 170 149 130 113 98 85 72 61 52 45 40 37 
29 20 13 8 5 2 1 0 1 1 2 5 10 17 26 37 50 
65 82 101 122 145 170 197 225 232 205 180 157 136 117 100 85 72 
61 50 41 34 29 26 25 17 10 5 2 1 0 1 2 4 5 
8 13 20 29 40 53 68 85 104 125 145 164 185 208 218 193 169 
146 125 106 89 74 61 50 41 32 25 20 17 16 13 9 4 1 
0 1 2 5 8 10 13 18 25 34 45 58 73 85 98 113 130 
149 170 193 205 180 157 136 116 97 80 65 52 41 32 25 18 13 
10 9 8 5 4 1 0 0 1 4 9 16 20 25 32 40 45 
52 61 72 85 100 117 136 157 180 194 169 146 125 106 89 73 58 
45 34 25 18 13 8 5 4 5 2 1 1 0 0 1 4 9 
16 25 25 26 29 34 41 50 61 74 89 106 125 146 157 181 160 
137 116 97 80 65 52 40 29 20 13 8 5 2 1 2 1 0 
0 0 1 2 5 10 17 16 16 17 20 25 32 41 52 65 80 
97 116 125 136 164 145 128 109 90 73 58 45 34 25 17 10 5 
2 1 0 1 2 1 1 1 2 5 8 13 10 9 9 10 13 
18 25 34 45 58 73 90 97 106 117 149 130 113 98 85 68 53 
40 29 20 13 8 4 1 0 1 0 1 0 1 4 5 8 10 
8 5 4 4 5 8 13 20 29 40 53 68 73 80 89 100 136 
117 100 85 72 61 50 37 26 17 10 5 2 1 0 0 0 0 
1 2 5 4 5 5 4 2 1 1 2 5 10 17 26 37 50 
53 58 65 74 85 125 106 89 74 61 50 41 32 25 16 9 4 
1 0 1 0 0 1 2 4 2 1 2 2 1 1 0 0 1 
4 9 16 25 32 37 40 45 52 61 72 116 97 80 65 52 41 
32 25 18 13 8 4 1 0 1 0 1 2 1 1 1 0 1 
1 0 0 1 1 2 5 10 13 18 25 26 29 34 41 50 61 
109 90 73 58 45 34 25 18 13 8 5 2 1 1 1 0 1 
1 0 0 0 0 1 2 1 1 0 1 4 4 5 8 13 16 
17 20 25 32 41 52 104 85 68 53 40 29 20 13 8 5 2 
1 0 1 2 1 0 1 1 1 1 0 1 4 1 0 1 1 
1 1 2 5 10 9 10 13 18 25 34 45 101 82 65 50 37 
26 17 10 5 2 1 0 0 1 4 1 0 1 4 4 1 0 
1 2 1 0 0 0 0 0 1 4 5 4 5 8 13 20 29 
40 97 80 64 49 36 25 16 9 4 1 0 0 0 1 4 1 
0 1 2 5 2 1 0 1 0 0 1 1 1 1 2 5 2 
1 2 5 10 17 26 37 90 73 58 45 34 25 17 10 5 2 
1 1 0 1 4 2 1 0 1 4 2 1 1 1 0 0 0 
1 0 1 4 4 1 0 1 4 9 16 25 36 85 68 53 40 
29 20 13 8 4 1 0 0 0 1 1 1 0 0 1 2 1 
0 1 2 1 0 0 1 1 2 1 2 2 1 2 5 10 17 
25 34 82 65 50 37 26 17 10 5 2 1 1 1 0 0 0 
0 1 0 0 1 1 0 0 1 0 0 1 0 0 1 0 1 
2 4 4 5 8 13 20 29 81 64 49 36 25 16 9 4 1 
0 0 1 0 0 0 0 0 0 0 0 0 1 0 0 1 1 
0 1 1 0 0 0 1 1 1 2 5 10 17 26 82 65 50 
37 26 17 10 5 2 1 1 2 1 0 1 0 0 0 0 1 
1 1 1 1 1 0 0 1 2 1 0 0 0 0 0 1 4 
9 16 25 85 68 53 40 29 20 13 8 5 4 4 5 2 1 
0 1 0 0 0 0 0 0 0 0 1 1 1 2 5 2 1 
1 1 0 1 2 5 10 17 26 90 73 58 45 34 25 18 13 
10 9 9 5 2 1 1 1 0 0 0 1 1 1 1 1 2 
4 4 5 8 5 4 4 2 1 2 5 8 13 20 29 97 80 
65 52 41 32 25 20 17 16 9 4 1 0 0 1 1 1 1 
2 4 4 4 4 5 8 9 10 13 10 9 8 5 4 5 8 
13 18 25 34 106 89 74 61 50 41 34 29 26 17 10 5 2 
1 1 2 4 4 4 5 8 9 9 9 10 13 16 17 20 17 
16 13 10 9 10 13 18 25 32 41 