P2
37 28
202
181 162 145 130 109 90 73 58 45 34 25 18 13 10 9 9 9 
10 13 18 25 34 41 41 34 29 26 25 26 29 34 41 50 61 
74 89 106 164 145 128 113 100 85 68 53 40 29 20 13 8 5 
4 4 4 5 8 13 20 25 32 32 25 20 17 16 17 20 25 
32 41 52 65 80 97 149 130 113 98 85 74 65 50 37 26 17 
10 5 2 1 1 1 2 5 10 13 18 25 25 18 13 10 9 
10 13 18 25 34 45 58 73 90 136 117 100 85 72 61 52 45 
36 25 16 9 4 1 0 0 0 1 4 5 8 13 20 17 13 
8 5 4 5 8 13 20 29 40 53 68 85 125 106 89 74 61 
50 41 34 29 26 17 10 5 2 1 1 1 1 1 2 5 10 
13 10 9 5 2 1 2 5 10 17 26 37 50 65 73 116 97 
80 65 52 41 32 25 20 17 16 9 4 1 0 0 0 0 0 
1 4 5 8 5 4 4 1 0 1 4 9 16 25 36 49 53 
58 109 90 73 58 45 34 25 18 13 10 9 10 5 2 1 1 
1 1 1 2 1 2 5 2 1 1 2 1 2 5 10 17 25 
34 37 40 45 104 85 68 53 40 29 20 13 8 5 4 5 4 
2 1 0 1 2 1 1 0 1 4 1 0 0 1 4 4 5 
8 13 20 25 26 29 34 101 82 65 50 37 26 17 10 5 2 
1 2 1 1 0 0 1 1 0 0 0 1 4 2 1 0 1 
1 1 2 5 10 17 16 17 20 25 100 81 64 49 36 25 16 
9 4 1 0 1 0 1 1 1 0 1 1 0 0 1 4 4 
1 0 1 0 0 1 4 9 10 9 10 13 18 101 82 65 50 
37 26 17 10 5 2 1 2 1 2 4 2 1 1 2 1 1 
2 2 1 1 1 2 1 1 2 5 8 5 4 5 8 13 97 
80 64 49 36 25 16 9 4 1 0 1 0 1 4 1 0 0 
1 4 4 4 1 0 0 0 1 0 1 2 5 5 2 1 2 
5 10 90 73 58 45 34 25 17 10 5 2 1 1 0 1 1 
1 1 0 1 1 2 5 2 1 1 0 1 1 0 1 4 4 
1 0 1 4 9 85 68 53 40 29 20 13 8 4 1 0 1 
0 1 0 0 0 0 0 0 1 4 5 4 1 0 1 0 0 
1 4 5 2 1 2 5 10 82 65 50 37 26 17 10 5 2 
1 1 2 1 2 1 1 1 1 1 1 2 5 2 1 2 1 
2 1 1 2 1 2 1 2 5 8 13 81 64 49 36 25 16 
9 4 1 0 0 1 1 1 0 0 1 0 0 0 1 4 1 
0 1 0 1 0 0 1 0 1 0 1 2 5 10 81 64 49 
36 25 16 9 4 1 0 1 1 0 1 1 0 0 0 0 1 
1 2 2 1 1 0 1 1 1 1 0 1 0 0 1 4 9 
82 65 50 37 26 17 10 5 2 1 2 2 1 1 0 0 0 
0 0 1 0 1 1 0 1 1 2 4 4 2 1 2 1 0 
1 4 9 85 68 53 40 29 20 13 8 5 4 5 5 4 2 
1 1 0 0 0 1 1 2 2 1 2 4 5 8 8 5 4 
5 2 1 2 5 10 90 73 58 45 34 25 18 13 10 9 10 
9 4 1 0 1 1 1 1 2 4 5 5 4 5 8 10 13 
13 10 9 8 5 4 5 8 13 97 80 65 52 41 32 25 20 
17 16 17 10 5 2 1 2 4 4 4 5 8 10 10 9 10 
13 17 20 20 17 16 13 10 9 10 13 18 106 89 74 61 50 
41 34 29 26 25 20 13 8 5 4 5 8 9 9 10 13 17 
17 16 17 20 25 29 29 26 25 20 17 16 17 20 25 117 100 
85 72 61 52 45 40 37 34 25 18 13 10 9 10 13 16 16 
17 20 25 26 25 26 29 34 40 40 37 34 29 26 25 26 29 
34 130 113 98 85 74 65 58 53 50 41 32 25 20 17 16 17 
20 25 25 26 29 34 37 36 37 40 45 52 53 50 45 40 37 
36 37 40 45 145 128 113 100 89 80 73 68 61 50 41 34 29 
26 25 26 29 34 36 37 40 45 50 49 50 53 58 65 68 65 
58 53 50 49 50 53 58 162 145 130 117 106 97 90 85 72 61 
52 45 40 37 36 37 40 45 49 50 53 58 65 64 65 68 73 
80 85 80 73 68 65 64 65 68 73 181 164 149 136 125 116 109 
98 85 74 65 58 53 50 49 50 53 58 64 65 68 73 80 81 
82 85 90 97 104 97 90 85 82 81 82 85 90 202 185 170 157 
146 137 128 113 100 89 80 73 68 65 64 65 68 73 80 82 85 
90 97 100 101 104 109 116 125 116 109 104 101 100 101 104 109 